%FSLAX43Y43*%
%MOMM*%
G71*
G01*
G75*
G04 Layer_Physical_Order=1*
G04 Layer_Color=255*
%ADD10R,1.000X2.250*%
%ADD11R,0.800X0.650*%
%ADD12R,1.200X1.200*%
%ADD13R,1.200X1.200*%
%ADD14R,0.500X0.650*%
%ADD15R,0.700X0.700*%
%ADD16R,0.550X0.600*%
%ADD17R,0.650X0.800*%
%ADD18R,0.900X0.600*%
%ADD19R,0.600X0.900*%
%ADD20R,0.762X0.762*%
%ADD21R,0.950X1.750*%
%ADD22R,1.000X0.950*%
%ADD23R,1.600X1.300*%
%ADD24R,0.600X0.500*%
%ADD25R,1.100X1.000*%
%ADD26R,1.100X0.600*%
%ADD27R,0.254X1.524*%
%ADD28R,0.254X1.524*%
%ADD29R,1.524X0.254*%
%ADD30R,1.524X0.254*%
%ADD31R,1.524X0.254*%
%ADD32R,0.254X1.524*%
%ADD33R,1.524X0.254*%
%ADD34R,1.524X0.254*%
%ADD35R,0.254X1.524*%
%ADD36R,0.254X1.524*%
%ADD37R,0.254X1.524*%
%ADD38R,1.600X1.000*%
%ADD39R,2.500X3.000*%
%ADD40R,0.400X1.400*%
%ADD41R,2.300X1.900*%
%ADD42R,1.775X1.900*%
%ADD43C,0.125*%
%ADD44C,0.150*%
%ADD45C,0.175*%
%ADD46C,0.200*%
%ADD47C,0.180*%
%ADD48C,0.300*%
%ADD49R,0.900X0.300*%
%ADD50C,3.600*%
%ADD51R,1.700X1.700*%
%ADD52C,1.700*%
%ADD53R,1.700X1.700*%
%ADD54C,0.350*%
%ADD55C,0.380*%
%ADD56C,0.550*%
G36*
X-19571Y-63383D02*
X-19619Y-63500D01*
X-19650D01*
Y-64000D01*
Y-64500D01*
X-19143D01*
Y-66814D01*
X-22458Y-70129D01*
X-22575Y-70081D01*
Y-69175D01*
X-22944D01*
Y-68950D01*
X-22250D01*
Y-67550D01*
X-24250D01*
Y-68950D01*
X-23556D01*
Y-69175D01*
X-23975D01*
Y-69496D01*
X-24275D01*
Y-69175D01*
X-24669D01*
Y-66675D01*
X-24669Y-66675D01*
X-24669Y-66675D01*
Y-66675D01*
X-24669D01*
X-24669Y-66675D01*
X-24692Y-66558D01*
X-24719Y-66518D01*
X-24759Y-66459D01*
X-24759Y-66459D01*
X-25419Y-65798D01*
Y-65279D01*
X-25302Y-65231D01*
X-24666Y-65866D01*
X-24567Y-65933D01*
X-24450Y-65956D01*
X-24450Y-65956D01*
X-24250D01*
Y-66350D01*
X-22250D01*
Y-65956D01*
X-21825D01*
Y-66350D01*
Y-66700D01*
X-20825D01*
Y-66350D01*
Y-65050D01*
X-21825D01*
Y-65344D01*
X-22250D01*
Y-64950D01*
X-24250D01*
Y-65251D01*
X-24367Y-65300D01*
X-24919Y-64748D01*
Y-64237D01*
X-24398D01*
Y-63581D01*
X-23977D01*
X-23464Y-64094D01*
X-23453Y-64146D01*
X-23370Y-64270D01*
X-23246Y-64353D01*
X-23100Y-64382D01*
X-22954Y-64353D01*
X-22883Y-64306D01*
X-21500D01*
Y-64500D01*
X-19850D01*
Y-64000D01*
Y-63500D01*
X-21500D01*
Y-63694D01*
X-22883D01*
X-22954Y-63647D01*
X-23069Y-63624D01*
X-23634Y-63059D01*
X-23733Y-62992D01*
X-23850Y-62969D01*
X-23850Y-62969D01*
X-24398D01*
Y-62648D01*
X-24043Y-62293D01*
X-20661D01*
X-19571Y-63383D01*
D02*
G37*
G36*
X-27125Y-64237D02*
X-27052D01*
Y-64237D01*
X-26518D01*
Y-65603D01*
X-26520Y-65605D01*
X-26603Y-65729D01*
X-26632Y-65875D01*
X-26603Y-66021D01*
X-26520Y-66145D01*
X-26396Y-66228D01*
X-26250Y-66257D01*
X-26104Y-66228D01*
X-25980Y-66145D01*
X-25852Y-66231D01*
X-25281Y-66802D01*
Y-69175D01*
X-25675D01*
Y-69544D01*
X-25975D01*
Y-69375D01*
X-27625D01*
Y-69875D01*
Y-70375D01*
X-25975D01*
Y-70156D01*
X-25675D01*
Y-70525D01*
X-24275D01*
Y-70204D01*
X-23975D01*
Y-70525D01*
X-23019D01*
X-22971Y-70642D01*
X-27189Y-74861D01*
X-27247Y-74948D01*
X-27251Y-74965D01*
X-27268Y-75050D01*
X-27268Y-75050D01*
Y-87650D01*
X-27268Y-87650D01*
X-27260Y-87690D01*
X-27372Y-87750D01*
X-27607Y-87514D01*
Y-71197D01*
X-27605Y-71195D01*
X-27522Y-71071D01*
X-27493Y-70925D01*
X-27522Y-70779D01*
X-27605Y-70655D01*
X-27729Y-70572D01*
X-27875Y-70543D01*
X-28021Y-70572D01*
X-28145Y-70655D01*
X-28228Y-70779D01*
X-28257Y-70925D01*
X-28228Y-71071D01*
X-28145Y-71195D01*
X-28143Y-71197D01*
Y-87625D01*
X-28143Y-87625D01*
X-28126Y-87710D01*
X-28122Y-87727D01*
X-28064Y-87814D01*
X-23918Y-91961D01*
Y-92113D01*
X-24129Y-92200D01*
X-24328Y-92352D01*
X-24462Y-92528D01*
X-24582Y-92487D01*
Y-92125D01*
X-24582Y-92125D01*
X-24603Y-92023D01*
X-24622Y-91994D01*
X-24661Y-91936D01*
X-24661Y-91936D01*
X-28632Y-87964D01*
Y-70972D01*
X-28630Y-70970D01*
X-28547Y-70846D01*
X-28518Y-70700D01*
X-28547Y-70554D01*
X-28630Y-70430D01*
X-28754Y-70347D01*
X-28900Y-70318D01*
X-29046Y-70347D01*
X-29170Y-70430D01*
X-29253Y-70554D01*
X-29282Y-70700D01*
X-29253Y-70846D01*
X-29170Y-70970D01*
X-29168Y-70972D01*
Y-88075D01*
X-29168Y-88075D01*
X-29151Y-88160D01*
X-29147Y-88177D01*
X-29089Y-88264D01*
X-29089Y-88264D01*
X-29089Y-88264D01*
D01*
X-29089D01*
Y-88264D01*
D01*
X-25118Y-92236D01*
Y-92926D01*
X-25244Y-92935D01*
X-25264Y-92782D01*
X-25360Y-92551D01*
X-25512Y-92352D01*
X-25711Y-92200D01*
X-25942Y-92104D01*
X-26190Y-92072D01*
X-26438Y-92104D01*
X-26649Y-92192D01*
X-29957Y-88884D01*
Y-69572D01*
X-29955Y-69570D01*
X-29872Y-69446D01*
X-29843Y-69300D01*
X-29872Y-69154D01*
X-29955Y-69030D01*
X-30079Y-68947D01*
X-30225Y-68918D01*
X-30371Y-68947D01*
X-30495Y-69030D01*
X-30578Y-69154D01*
X-30607Y-69300D01*
X-30578Y-69446D01*
X-30495Y-69570D01*
X-30493Y-69572D01*
Y-88995D01*
X-30493Y-88995D01*
X-30476Y-89080D01*
X-30472Y-89097D01*
X-30414Y-89184D01*
X-30414Y-89184D01*
X-30414Y-89184D01*
D01*
X-30414D01*
Y-89184D01*
D01*
X-27028Y-92571D01*
X-27116Y-92782D01*
X-27148Y-93030D01*
X-27116Y-93278D01*
X-27020Y-93509D01*
X-26868Y-93708D01*
X-26669Y-93860D01*
X-26438Y-93956D01*
X-26190Y-93988D01*
X-25942Y-93956D01*
X-25711Y-93860D01*
X-25512Y-93708D01*
X-25360Y-93509D01*
X-25264Y-93278D01*
X-25244Y-93125D01*
X-25118Y-93134D01*
Y-94370D01*
X-25118Y-94370D01*
X-25101Y-94455D01*
X-25097Y-94472D01*
X-25039Y-94559D01*
X-24488Y-95111D01*
X-24576Y-95322D01*
X-24608Y-95570D01*
X-24576Y-95818D01*
X-24480Y-96049D01*
X-24328Y-96248D01*
X-24129Y-96400D01*
X-24049Y-96433D01*
X-24074Y-96557D01*
X-24824D01*
X-25352Y-96029D01*
X-25264Y-95818D01*
X-25232Y-95570D01*
X-25264Y-95322D01*
X-25360Y-95091D01*
X-25512Y-94892D01*
X-25711Y-94740D01*
X-25942Y-94644D01*
X-26190Y-94612D01*
X-26438Y-94644D01*
X-26669Y-94740D01*
X-26868Y-94892D01*
X-27020Y-95091D01*
X-27116Y-95322D01*
X-27148Y-95570D01*
X-27116Y-95818D01*
X-27020Y-96049D01*
X-26868Y-96248D01*
X-26669Y-96400D01*
X-26438Y-96496D01*
X-26190Y-96528D01*
X-25942Y-96496D01*
X-25731Y-96408D01*
X-25124Y-97014D01*
X-25124Y-97014D01*
X-25203Y-97132D01*
X-29329D01*
X-30432Y-96029D01*
X-30344Y-95818D01*
X-30312Y-95570D01*
X-30344Y-95322D01*
X-30440Y-95091D01*
X-30592Y-94892D01*
X-30761Y-94763D01*
X-30720Y-94643D01*
X-30075D01*
X-30075Y-94643D01*
X-29990Y-94626D01*
X-29973Y-94622D01*
X-29886Y-94564D01*
X-29886Y-94564D01*
X-29886Y-94564D01*
X-29189Y-93868D01*
X-28978Y-93956D01*
X-28730Y-93988D01*
X-28482Y-93956D01*
X-28251Y-93860D01*
X-28052Y-93708D01*
X-27900Y-93509D01*
X-27804Y-93278D01*
X-27772Y-93030D01*
X-27804Y-92782D01*
X-27900Y-92551D01*
X-28052Y-92352D01*
X-28251Y-92200D01*
X-28482Y-92104D01*
X-28730Y-92072D01*
X-28978Y-92104D01*
X-29209Y-92200D01*
X-29408Y-92352D01*
X-29560Y-92551D01*
X-29656Y-92782D01*
X-29688Y-93030D01*
X-29656Y-93278D01*
X-29568Y-93489D01*
X-30186Y-94107D01*
X-31204D01*
X-31213Y-93981D01*
X-31022Y-93956D01*
X-30791Y-93860D01*
X-30592Y-93708D01*
X-30440Y-93509D01*
X-30344Y-93278D01*
X-30312Y-93030D01*
X-30344Y-92782D01*
X-30440Y-92551D01*
X-30592Y-92352D01*
X-30791Y-92200D01*
X-31002Y-92113D01*
Y-90930D01*
X-31002Y-90930D01*
X-31023Y-90828D01*
X-31042Y-90799D01*
X-31081Y-90741D01*
X-31081Y-90741D01*
X-31295Y-90527D01*
Y-82564D01*
X-31197Y-82483D01*
X-31075Y-82507D01*
X-30929Y-82478D01*
X-30805Y-82395D01*
X-30722Y-82271D01*
X-30693Y-82125D01*
X-30722Y-81979D01*
X-30795Y-81870D01*
Y-68650D01*
X-29600D01*
Y-66950D01*
X-29500D01*
Y-66850D01*
X-28050D01*
Y-65250D01*
X-29137D01*
X-29197Y-65177D01*
X-29166Y-65054D01*
X-29084Y-65020D01*
X-29071Y-65028D01*
X-28925Y-65057D01*
X-28779Y-65028D01*
X-28655Y-64945D01*
X-28638Y-64921D01*
X-28511D01*
X-28495Y-64945D01*
X-28371Y-65028D01*
X-28225Y-65057D01*
X-28079Y-65028D01*
X-27955Y-64945D01*
X-27872Y-64821D01*
X-27843Y-64675D01*
X-27872Y-64529D01*
X-27955Y-64405D01*
X-27957Y-64403D01*
Y-64237D01*
X-27398D01*
Y-64237D01*
X-27325D01*
Y-63275D01*
X-27125D01*
Y-64237D01*
D02*
G37*
G36*
X-21197Y-649D02*
Y-649D01*
X-21183Y-763D01*
D01*
X-21185Y-770D01*
X-21188Y-775D01*
X-21195Y-808D01*
X-21203Y-840D01*
X-21203Y-847D01*
X-21204Y-853D01*
Y-6700D01*
X-21188Y-6778D01*
X-21144Y-6844D01*
X-21078Y-6888D01*
X-21000Y-6904D01*
X-19475D01*
Y-7300D01*
X-19000D01*
Y-7400D01*
X-18900D01*
Y-7900D01*
X-18550D01*
Y-7900D01*
X-18200D01*
Y-7375D01*
X-18100D01*
Y-7275D01*
X-17650D01*
Y-6950D01*
Y-6904D01*
X-17500D01*
X-17422Y-6888D01*
X-17356Y-6844D01*
X-17312Y-6778D01*
X-17296Y-6700D01*
Y-6050D01*
X-17000D01*
Y-5150D01*
X-16800D01*
Y-6050D01*
X-16400D01*
Y-6450D01*
X-16310D01*
Y-6700D01*
X-16296Y-6805D01*
X-16300Y-6809D01*
Y-7600D01*
X-16400D01*
Y-7700D01*
X-17150D01*
Y-8300D01*
X-17150D01*
Y-8310D01*
X-17240Y-8400D01*
X-17550D01*
Y-9404D01*
X-17672Y-9429D01*
X-17755Y-9305D01*
X-17879Y-9222D01*
X-18025Y-9193D01*
X-18171Y-9222D01*
X-18295Y-9305D01*
X-18378Y-9429D01*
X-18407Y-9575D01*
X-18407Y-9578D01*
X-22161Y-13332D01*
X-23688D01*
X-23737Y-13215D01*
X-22836Y-12314D01*
X-22836Y-12314D01*
X-22778Y-12227D01*
X-22757Y-12125D01*
Y-11650D01*
X-22375D01*
Y-10650D01*
X-22832D01*
Y-10425D01*
X-22375D01*
Y-10168D01*
X-22125D01*
Y-10425D01*
X-20925D01*
Y-10425D01*
D01*
X-20925Y-10425D01*
X-20925D01*
Y-10425D01*
X-19725D01*
Y-9375D01*
X-20472D01*
X-22882Y-6964D01*
Y-900D01*
X-22882Y-900D01*
X-22899Y-815D01*
X-22903Y-798D01*
X-22961Y-711D01*
X-22961Y-711D01*
X-23092Y-580D01*
X-23043Y-462D01*
X-21441D01*
X-21197Y-649D01*
D02*
G37*
G36*
X-17550Y-9746D02*
Y-10200D01*
X-16275D01*
Y-10727D01*
Y-12741D01*
X-20092Y-16558D01*
X-20162Y-16649D01*
X-20282Y-16608D01*
Y-14450D01*
X-20282Y-14450D01*
X-20299Y-14365D01*
X-20303Y-14348D01*
X-20361Y-14261D01*
X-20361Y-14261D01*
X-21018Y-13603D01*
X-21018Y-13600D01*
X-21047Y-13454D01*
X-21130Y-13330D01*
X-21209Y-13277D01*
X-21222Y-13150D01*
X-18028Y-9957D01*
X-18025Y-9957D01*
X-17879Y-9928D01*
X-17755Y-9845D01*
X-17672Y-9721D01*
X-17550Y-9746D01*
D02*
G37*
G36*
X-31883Y-580D02*
X-32589Y-1286D01*
X-32647Y-1373D01*
X-32651Y-1390D01*
X-32668Y-1475D01*
X-32668Y-1475D01*
Y-4205D01*
X-32743Y-4319D01*
X-32772Y-4465D01*
X-32743Y-4611D01*
X-32660Y-4735D01*
X-32536Y-4818D01*
X-32390Y-4847D01*
X-32244Y-4818D01*
X-32120Y-4735D01*
X-32037Y-4611D01*
X-32008Y-4465D01*
X-32037Y-4319D01*
X-32120Y-4195D01*
X-32132Y-4186D01*
Y-1586D01*
X-31817Y-1271D01*
X-31700Y-1319D01*
Y-3475D01*
X-31306D01*
Y-6325D01*
X-31700D01*
Y-8975D01*
X-31306D01*
Y-9450D01*
X-31900D01*
Y-9450D01*
Y-9450D01*
X-31900D01*
Y-9450D01*
X-33100D01*
Y-10500D01*
X-32354D01*
X-31889Y-10964D01*
X-31889Y-10964D01*
X-31802Y-11022D01*
X-31700Y-11043D01*
X-31700Y-11043D01*
X-30536D01*
X-28718Y-12861D01*
Y-14705D01*
X-28844Y-14717D01*
X-28847Y-14704D01*
X-28930Y-14580D01*
X-29054Y-14497D01*
X-29200Y-14468D01*
X-29203Y-14468D01*
X-31250Y-12421D01*
Y-11200D01*
X-32850D01*
Y-12800D01*
X-31629D01*
X-29582Y-14847D01*
X-29582Y-14850D01*
X-29553Y-14996D01*
X-29470Y-15120D01*
X-29468Y-15122D01*
Y-16264D01*
X-33485Y-20282D01*
X-33491Y-20277D01*
X-33491D01*
X-33583Y-20201D01*
X-33547Y-20146D01*
X-33518Y-20000D01*
X-33547Y-19854D01*
X-33630Y-19730D01*
X-33754Y-19647D01*
X-33900Y-19618D01*
X-34046Y-19647D01*
X-34170Y-19730D01*
X-34253Y-19854D01*
X-34282Y-20000D01*
X-34253Y-20146D01*
X-34170Y-20270D01*
X-34046Y-20353D01*
X-33900Y-20382D01*
X-33754Y-20353D01*
X-33658Y-20289D01*
X-33577Y-20371D01*
X-33576Y-20371D01*
X-33568Y-20379D01*
X-33597Y-20423D01*
X-33601Y-20440D01*
X-33618Y-20525D01*
X-33618Y-20525D01*
Y-39963D01*
X-33735Y-40012D01*
X-33986Y-39761D01*
X-34073Y-39703D01*
X-34090Y-39699D01*
X-34175Y-39682D01*
X-34175Y-39682D01*
X-34420D01*
X-34480Y-39570D01*
X-34447Y-39521D01*
X-34418Y-39375D01*
X-34447Y-39229D01*
X-34530Y-39105D01*
X-34654Y-39022D01*
X-34800Y-38993D01*
X-34803Y-38993D01*
X-35200Y-38597D01*
X-35163Y-38475D01*
X-35054Y-38453D01*
X-34930Y-38370D01*
X-34847Y-38246D01*
X-34818Y-38100D01*
X-34847Y-37954D01*
X-34930Y-37830D01*
X-34932Y-37828D01*
Y-19611D01*
X-31589Y-16268D01*
X-30589D01*
X-30525Y-16280D01*
X-30418Y-16259D01*
X-30327Y-16198D01*
X-30266Y-16107D01*
X-30245Y-16000D01*
X-30266Y-15893D01*
X-30327Y-15802D01*
Y-15698D01*
X-30266Y-15607D01*
X-30245Y-15500D01*
X-30266Y-15393D01*
X-30327Y-15302D01*
Y-15198D01*
X-30327D01*
X-30266Y-15107D01*
X-30245Y-15000D01*
X-30266Y-14893D01*
X-30327Y-14802D01*
X-30418Y-14741D01*
X-30525Y-14720D01*
X-30589Y-14732D01*
X-31925D01*
X-31925Y-14732D01*
X-32010Y-14749D01*
X-32027Y-14753D01*
X-32114Y-14811D01*
X-32114Y-14811D01*
X-37139Y-19836D01*
X-37197Y-19923D01*
X-37201Y-19940D01*
X-37218Y-20025D01*
X-37218Y-20025D01*
Y-34947D01*
X-37320Y-35022D01*
X-37382Y-35003D01*
Y-32675D01*
X-37382Y-32675D01*
X-37399Y-32590D01*
X-37403Y-32573D01*
X-37461Y-32486D01*
X-55808Y-14138D01*
X-55678Y-13969D01*
X-55582Y-13738D01*
X-55550Y-13490D01*
X-55582Y-13242D01*
X-55678Y-13011D01*
X-55830Y-12812D01*
X-56029Y-12660D01*
X-56260Y-12564D01*
X-56508Y-12532D01*
X-56756Y-12564D01*
X-56987Y-12660D01*
X-57186Y-12812D01*
X-57338Y-13011D01*
X-57434Y-13242D01*
X-57466Y-13490D01*
X-57434Y-13738D01*
X-57338Y-13969D01*
X-57186Y-14168D01*
X-56987Y-14320D01*
X-56756Y-14416D01*
X-56508Y-14448D01*
X-56285Y-14419D01*
X-37966Y-32738D01*
X-37984Y-32864D01*
X-38030Y-32888D01*
X-38129Y-32822D01*
X-38275Y-32793D01*
X-38421Y-32822D01*
X-38545Y-32905D01*
X-38628Y-33029D01*
X-38646Y-33118D01*
X-38737Y-33179D01*
X-38829Y-33118D01*
X-38847Y-33029D01*
X-38930Y-32905D01*
X-39054Y-32822D01*
X-39200Y-32793D01*
X-39346Y-32822D01*
X-39470Y-32905D01*
X-39582Y-32830D01*
Y-32688D01*
X-39582Y-32688D01*
X-39603Y-32586D01*
X-39622Y-32557D01*
X-39661Y-32499D01*
X-39661Y-32499D01*
X-55670Y-16489D01*
X-55582Y-16278D01*
X-55550Y-16030D01*
X-55582Y-15782D01*
X-55678Y-15551D01*
X-55830Y-15352D01*
X-56029Y-15200D01*
X-56260Y-15104D01*
X-56508Y-15072D01*
X-56756Y-15104D01*
X-56987Y-15200D01*
X-57186Y-15352D01*
X-57338Y-15551D01*
X-57434Y-15782D01*
X-57466Y-16030D01*
X-57434Y-16278D01*
X-57338Y-16509D01*
X-57186Y-16708D01*
X-56987Y-16860D01*
X-56756Y-16956D01*
X-56508Y-16988D01*
X-56260Y-16956D01*
X-56049Y-16868D01*
X-40118Y-32799D01*
Y-36603D01*
X-40120Y-36605D01*
X-40203Y-36729D01*
X-40232Y-36875D01*
X-40203Y-37021D01*
X-40120Y-37145D01*
X-39996Y-37228D01*
X-39850Y-37257D01*
X-39704Y-37228D01*
X-39580Y-37145D01*
X-39497Y-37021D01*
X-39468Y-36875D01*
X-39497Y-36729D01*
X-39580Y-36605D01*
X-39582Y-36603D01*
Y-33520D01*
X-39470Y-33445D01*
X-39346Y-33528D01*
X-39200Y-33557D01*
X-39197Y-33557D01*
X-39118Y-33636D01*
Y-37139D01*
X-39197Y-37218D01*
X-39200Y-37218D01*
X-39346Y-37247D01*
X-39470Y-37330D01*
X-39553Y-37454D01*
X-39582Y-37600D01*
X-39553Y-37746D01*
X-39470Y-37870D01*
X-39346Y-37953D01*
X-39200Y-37982D01*
X-39054Y-37953D01*
X-38930Y-37870D01*
X-38847Y-37746D01*
X-38818Y-37600D01*
X-38752Y-37587D01*
X-38646Y-37657D01*
X-38628Y-37746D01*
X-38545Y-37870D01*
X-38421Y-37953D01*
X-38275Y-37982D01*
X-38129Y-37953D01*
X-38030Y-37887D01*
X-37918Y-37947D01*
Y-38550D01*
X-37918Y-38550D01*
X-37901Y-38635D01*
X-37897Y-38652D01*
X-37839Y-38739D01*
X-36439Y-40139D01*
X-36439Y-40139D01*
X-36352Y-40197D01*
X-36335Y-40201D01*
X-36250Y-40218D01*
X-36250Y-40218D01*
X-34286D01*
X-34196Y-40308D01*
X-34244Y-40425D01*
X-35150D01*
Y-40746D01*
X-35450D01*
Y-40425D01*
X-36850D01*
Y-40794D01*
X-37200D01*
Y-40600D01*
X-38850D01*
Y-41100D01*
Y-41600D01*
X-37200D01*
Y-41406D01*
X-36850D01*
Y-41775D01*
X-36430D01*
Y-45107D01*
X-36548Y-45156D01*
X-36652Y-45052D01*
X-36743Y-44991D01*
X-36850Y-44970D01*
X-37550D01*
Y-44400D01*
X-39070D01*
X-39100Y-44394D01*
X-39100Y-44394D01*
X-39900D01*
Y-44250D01*
Y-43700D01*
X-40900D01*
Y-44250D01*
Y-45350D01*
X-39900D01*
Y-45006D01*
X-39550D01*
Y-46094D01*
X-40498D01*
Y-45900D01*
X-42148D01*
Y-46400D01*
Y-46900D01*
X-40498D01*
Y-46706D01*
X-37717D01*
X-37646Y-46753D01*
X-37500Y-46782D01*
X-37354Y-46753D01*
X-37283Y-46706D01*
X-37052D01*
Y-46803D01*
X-37052D01*
Y-47394D01*
X-40498D01*
Y-47200D01*
X-42148D01*
Y-47700D01*
Y-48200D01*
X-40498D01*
Y-48006D01*
X-37052D01*
Y-48727D01*
X-37052D01*
Y-48727D01*
X-37518Y-49193D01*
X-39442D01*
Y-49193D01*
X-39500Y-49193D01*
X-39809Y-48884D01*
X-39908Y-48817D01*
X-40025Y-48794D01*
X-40025Y-48794D01*
X-40823D01*
Y-48550D01*
X-41783D01*
X-41783Y-48550D01*
Y-48550D01*
X-41823Y-48550D01*
X-41848Y-48550D01*
X-41873Y-48550D01*
X-41913Y-48550D01*
X-41913Y-48550D01*
Y-48550D01*
X-42273D01*
Y-49000D01*
X-42373D01*
Y-49100D01*
X-42873D01*
Y-49450D01*
X-42873D01*
Y-49454D01*
X-42963Y-49544D01*
X-43373D01*
X-43844Y-49073D01*
Y-42900D01*
X-42898D01*
Y-41000D01*
X-44798D01*
Y-42900D01*
X-44456D01*
Y-49200D01*
X-44456Y-49200D01*
X-44433Y-49317D01*
X-44366Y-49416D01*
X-43716Y-50066D01*
X-43716Y-50066D01*
X-43617Y-50133D01*
X-43500Y-50156D01*
X-43500Y-50156D01*
X-42898D01*
Y-50350D01*
X-42248D01*
Y-50550D01*
X-42898D01*
Y-50724D01*
X-43010Y-50784D01*
X-43029Y-50772D01*
X-43175Y-50743D01*
X-43321Y-50772D01*
X-43445Y-50855D01*
X-43528Y-50979D01*
X-43557Y-51125D01*
X-43528Y-51271D01*
X-43445Y-51395D01*
X-43321Y-51478D01*
X-43175Y-51507D01*
X-43029Y-51478D01*
X-43010Y-51466D01*
X-42898Y-51526D01*
Y-51600D01*
X-42248D01*
Y-51700D01*
X-42148D01*
Y-52200D01*
X-41206D01*
Y-52494D01*
X-41481D01*
Y-53656D01*
X-40347D01*
X-40270Y-53770D01*
X-40146Y-53853D01*
X-40000Y-53882D01*
X-39979Y-53878D01*
X-39844Y-54014D01*
X-39704Y-54223D01*
D01*
X-39736Y-54304D01*
X-39736D01*
X-39736Y-54304D01*
X-40277Y-54844D01*
X-41100D01*
Y-54075D01*
X-42450D01*
Y-54144D01*
X-43058D01*
X-43129Y-54097D01*
X-43275Y-54068D01*
X-43421Y-54097D01*
X-43545Y-54180D01*
X-43628Y-54304D01*
X-43657Y-54450D01*
X-43628Y-54596D01*
X-43545Y-54720D01*
X-43421Y-54803D01*
X-43275Y-54832D01*
X-43129Y-54803D01*
X-43058Y-54756D01*
X-42450D01*
Y-56225D01*
X-41756D01*
Y-56550D01*
X-42148D01*
Y-57050D01*
X-42248D01*
Y-57150D01*
X-42898D01*
Y-57482D01*
X-43544D01*
X-43544Y-57482D01*
X-43629Y-57499D01*
X-43646Y-57503D01*
X-43733Y-57561D01*
X-43861Y-57689D01*
X-43974Y-57629D01*
X-43968Y-57600D01*
X-43997Y-57454D01*
X-44080Y-57330D01*
X-44204Y-57247D01*
X-44350Y-57218D01*
X-44496Y-57247D01*
X-44620Y-57330D01*
X-44703Y-57454D01*
X-44716Y-57518D01*
X-44828Y-57578D01*
X-44860Y-57565D01*
Y-57022D01*
X-44809Y-56946D01*
X-44780Y-56800D01*
X-44809Y-56654D01*
X-44892Y-56530D01*
X-45016Y-56447D01*
X-45162Y-56418D01*
X-45284Y-56442D01*
X-45382Y-56361D01*
Y-56225D01*
X-44825D01*
Y-55150D01*
Y-54075D01*
X-45281D01*
X-45329Y-53958D01*
X-44728Y-53357D01*
X-44725Y-53357D01*
X-44579Y-53328D01*
X-44455Y-53245D01*
X-44372Y-53121D01*
X-44343Y-52975D01*
X-44372Y-52829D01*
X-44455Y-52705D01*
X-44579Y-52622D01*
X-44725Y-52593D01*
X-44871Y-52622D01*
X-44995Y-52705D01*
X-45078Y-52829D01*
X-45107Y-52975D01*
X-45107Y-52978D01*
X-45628Y-53499D01*
X-45745Y-53450D01*
Y-51563D01*
X-45745Y-51562D01*
X-45762Y-51477D01*
X-45765Y-51460D01*
X-45823Y-51373D01*
X-45823Y-51373D01*
X-48857Y-48339D01*
Y-46750D01*
X-48857Y-46750D01*
X-48874Y-46665D01*
X-48878Y-46648D01*
X-48936Y-46561D01*
X-55561Y-39936D01*
X-55648Y-39878D01*
X-55665Y-39874D01*
X-55750Y-39857D01*
X-55750Y-39857D01*
X-56035D01*
X-56060Y-39733D01*
X-56029Y-39720D01*
X-55830Y-39568D01*
X-55678Y-39369D01*
X-55582Y-39138D01*
X-55550Y-38890D01*
X-55582Y-38642D01*
X-55678Y-38411D01*
X-55830Y-38212D01*
X-56029Y-38060D01*
X-56260Y-37964D01*
X-56508Y-37932D01*
X-56756Y-37964D01*
X-56987Y-38060D01*
X-57186Y-38212D01*
X-57337Y-38410D01*
X-57354Y-38404D01*
X-57457Y-38361D01*
Y-36879D01*
X-57354Y-36836D01*
X-57337Y-36830D01*
X-57186Y-37028D01*
X-56987Y-37180D01*
X-56756Y-37276D01*
X-56508Y-37308D01*
X-56260Y-37276D01*
X-56029Y-37180D01*
X-55830Y-37028D01*
X-55678Y-36829D01*
X-55582Y-36598D01*
X-55550Y-36350D01*
X-55582Y-36102D01*
X-55678Y-35871D01*
X-55830Y-35672D01*
X-56029Y-35520D01*
X-56260Y-35424D01*
X-56508Y-35392D01*
X-56756Y-35424D01*
X-56987Y-35520D01*
X-57186Y-35672D01*
X-57337Y-35870D01*
X-57354Y-35864D01*
X-57457Y-35821D01*
Y-34339D01*
X-57354Y-34296D01*
X-57337Y-34290D01*
X-57186Y-34488D01*
X-56987Y-34640D01*
X-56756Y-34736D01*
X-56508Y-34768D01*
X-56260Y-34736D01*
X-56029Y-34640D01*
X-55830Y-34488D01*
X-55678Y-34289D01*
X-55582Y-34058D01*
X-55550Y-33810D01*
X-55582Y-33562D01*
X-55678Y-33331D01*
X-55830Y-33132D01*
X-56029Y-32980D01*
X-56260Y-32884D01*
X-56508Y-32852D01*
X-56756Y-32884D01*
X-56987Y-32980D01*
X-57186Y-33132D01*
X-57337Y-33330D01*
X-57354Y-33324D01*
X-57457Y-33281D01*
Y-32598D01*
X-56967Y-32108D01*
X-56756Y-32196D01*
X-56508Y-32228D01*
X-56260Y-32196D01*
X-56029Y-32100D01*
X-55830Y-31948D01*
X-55678Y-31749D01*
X-55582Y-31518D01*
X-55550Y-31270D01*
X-55582Y-31022D01*
X-55678Y-30791D01*
X-55830Y-30592D01*
X-56029Y-30440D01*
X-56260Y-30344D01*
X-56508Y-30312D01*
X-56756Y-30344D01*
X-56987Y-30440D01*
X-57186Y-30592D01*
X-57338Y-30791D01*
X-57434Y-31022D01*
X-57466Y-31270D01*
X-57434Y-31518D01*
X-57346Y-31729D01*
X-57840Y-32224D01*
X-57957Y-32175D01*
Y-24611D01*
X-56614Y-23268D01*
X-55375D01*
X-55375Y-23268D01*
X-55290Y-23251D01*
X-55273Y-23247D01*
X-55186Y-23189D01*
X-55186Y-23189D01*
X-55186Y-23189D01*
X-54586Y-22589D01*
X-54586Y-22589D01*
X-54547Y-22531D01*
X-54528Y-22502D01*
X-54507Y-22400D01*
X-54507Y-22400D01*
Y-20303D01*
X-54507Y-20303D01*
X-54524Y-20218D01*
X-54528Y-20201D01*
X-54586Y-20114D01*
X-54586Y-20114D01*
X-55670Y-19029D01*
X-55582Y-18818D01*
X-55550Y-18570D01*
X-55582Y-18322D01*
X-55678Y-18091D01*
X-55830Y-17892D01*
X-56029Y-17740D01*
X-56260Y-17644D01*
X-56508Y-17612D01*
X-56756Y-17644D01*
X-56987Y-17740D01*
X-57186Y-17892D01*
X-57338Y-18091D01*
X-57434Y-18322D01*
X-57466Y-18570D01*
X-57434Y-18818D01*
X-57338Y-19049D01*
X-57186Y-19248D01*
X-56987Y-19400D01*
X-56756Y-19496D01*
X-56508Y-19528D01*
X-56260Y-19496D01*
X-56049Y-19408D01*
X-55043Y-20414D01*
Y-22289D01*
X-55486Y-22732D01*
X-56725D01*
X-56827Y-22753D01*
X-56914Y-22811D01*
X-56914Y-22811D01*
X-58414Y-24311D01*
X-58472Y-24398D01*
X-58476Y-24415D01*
X-58493Y-24500D01*
X-58493Y-24500D01*
Y-56725D01*
X-58493Y-56725D01*
X-58476Y-56810D01*
X-58472Y-56827D01*
X-58414Y-56914D01*
X-55864Y-59464D01*
X-55864Y-59464D01*
X-55777Y-59522D01*
X-55675Y-59543D01*
X-48873D01*
X-48821Y-59612D01*
X-48873Y-59682D01*
X-56464D01*
X-58932Y-57214D01*
Y-23913D01*
X-57079Y-22060D01*
X-55558D01*
Y-20160D01*
X-57458D01*
Y-21681D01*
X-59389Y-23613D01*
X-59416Y-23653D01*
X-59538Y-23616D01*
Y-462D01*
X-31932D01*
X-31883Y-580D01*
D02*
G37*
G36*
X-20607Y-809D02*
X-20599Y-812D01*
X-10600D01*
X-10592Y-809D01*
X-10295Y-770D01*
X-10200Y-853D01*
Y-4500D01*
X-13900D01*
Y-4250D01*
X-14150D01*
Y-3850D01*
X-16400D01*
Y-4250D01*
X-17300D01*
Y-4500D01*
X-17500D01*
Y-6700D01*
X-17650D01*
Y-6525D01*
X-18100D01*
Y-6425D01*
X-18200D01*
Y-5900D01*
X-18900D01*
Y-6400D01*
X-19000D01*
Y-6500D01*
X-19475D01*
Y-6700D01*
X-21000D01*
Y-853D01*
X-20905Y-770D01*
X-20607Y-809D01*
D02*
G37*
G36*
X-31625Y-68000D02*
X-31355D01*
Y-79896D01*
X-31454Y-79977D01*
X-31562Y-79955D01*
X-31709Y-79984D01*
X-31795Y-80042D01*
X-31907Y-79982D01*
Y-70447D01*
X-31905Y-70445D01*
X-31822Y-70321D01*
X-31793Y-70175D01*
X-31822Y-70029D01*
X-31905Y-69905D01*
X-32029Y-69822D01*
X-32175Y-69793D01*
X-32178Y-69793D01*
X-32268Y-69704D01*
X-32243Y-69575D01*
X-32272Y-69429D01*
X-32355Y-69305D01*
X-32479Y-69222D01*
X-32505Y-69217D01*
X-32542Y-69095D01*
X-32122Y-68675D01*
X-32122Y-68675D01*
X-32064Y-68589D01*
X-32043Y-68486D01*
Y-68000D01*
X-31825D01*
Y-67350D01*
X-31625D01*
Y-68000D01*
D02*
G37*
G36*
X-462Y-99538D02*
X-59538D01*
Y-57511D01*
X-59416Y-57474D01*
X-59389Y-57514D01*
X-56764Y-60139D01*
X-56764Y-60139D01*
X-56677Y-60197D01*
X-56677Y-60197D01*
X-56677Y-60197D01*
D01*
X-56677Y-60197D01*
X-56677Y-60197D01*
X-56575Y-60218D01*
X-48797D01*
X-48795Y-60220D01*
X-48671Y-60303D01*
X-48525Y-60332D01*
X-48379Y-60303D01*
X-48255Y-60220D01*
X-48239Y-60197D01*
X-48118Y-60234D01*
Y-61603D01*
X-48120Y-61605D01*
X-48203Y-61729D01*
X-48232Y-61875D01*
X-48203Y-62021D01*
X-48120Y-62145D01*
X-47996Y-62228D01*
X-47850Y-62257D01*
X-47704Y-62228D01*
X-47580Y-62145D01*
X-47497Y-62021D01*
X-47468Y-61875D01*
X-47497Y-61729D01*
X-47580Y-61605D01*
X-47582Y-61603D01*
Y-61516D01*
X-47484Y-61436D01*
X-47375Y-61457D01*
X-47229Y-61428D01*
X-47105Y-61345D01*
X-47022Y-61221D01*
X-47008Y-61154D01*
X-46981Y-61145D01*
X-46881Y-61165D01*
X-46828Y-61197D01*
X-46803Y-61321D01*
X-46720Y-61445D01*
X-46596Y-61528D01*
X-46450Y-61557D01*
X-46378Y-61543D01*
X-46280Y-61624D01*
Y-62753D01*
X-46283Y-62755D01*
X-46366Y-62879D01*
X-46395Y-63025D01*
X-46366Y-63171D01*
X-46283Y-63295D01*
X-46159Y-63378D01*
X-46013Y-63407D01*
X-45941Y-63393D01*
X-45843Y-63474D01*
Y-77075D01*
X-45843Y-77075D01*
X-45826Y-77160D01*
X-45822Y-77177D01*
X-45764Y-77264D01*
X-43343Y-79686D01*
Y-96150D01*
X-43343Y-96150D01*
X-43326Y-96235D01*
X-43322Y-96252D01*
X-43264Y-96339D01*
X-42164Y-97439D01*
X-42164Y-97439D01*
X-42077Y-97497D01*
X-42060Y-97501D01*
X-41975Y-97518D01*
X-41975Y-97518D01*
X-33700D01*
X-33700Y-97518D01*
X-33615Y-97501D01*
X-33598Y-97497D01*
X-33511Y-97439D01*
X-33511Y-97439D01*
X-33511Y-97439D01*
X-32311Y-96239D01*
X-32311Y-96239D01*
X-32253Y-96152D01*
X-32232Y-96050D01*
X-32232Y-96050D01*
X-32232Y-96050D01*
X-32232Y-96049D01*
X-32106Y-96034D01*
X-32100Y-96049D01*
X-31948Y-96248D01*
X-31749Y-96400D01*
X-31518Y-96496D01*
X-31270Y-96528D01*
X-31022Y-96496D01*
X-30811Y-96408D01*
X-29629Y-97589D01*
X-29629Y-97589D01*
X-29542Y-97647D01*
X-29525Y-97651D01*
X-29440Y-97668D01*
X-29440Y-97668D01*
X-9600D01*
X-9600Y-97668D01*
X-9515Y-97651D01*
X-9498Y-97647D01*
X-9411Y-97589D01*
X-9411Y-97589D01*
X-9411Y-97589D01*
X-2061Y-90239D01*
X-2061Y-90239D01*
X-2003Y-90152D01*
X-1982Y-90050D01*
Y-62300D01*
X-2003Y-62198D01*
X-2061Y-62111D01*
X-2061Y-62111D01*
X-3881Y-60291D01*
X-3880Y-60287D01*
X-3881Y-60284D01*
X-2061Y-58464D01*
X-2003Y-58377D01*
X-1999Y-58360D01*
X-1982Y-58275D01*
X-1982Y-58275D01*
Y-43610D01*
X-1982Y-43610D01*
X-1999Y-43525D01*
X-2003Y-43508D01*
X-2061Y-43421D01*
X-2061Y-43421D01*
X-3592Y-41889D01*
X-3504Y-41678D01*
X-3472Y-41430D01*
X-3504Y-41182D01*
X-3600Y-40951D01*
X-3752Y-40752D01*
X-3951Y-40600D01*
X-4182Y-40504D01*
X-4430Y-40472D01*
X-4678Y-40504D01*
X-4909Y-40600D01*
X-5108Y-40752D01*
X-5260Y-40951D01*
X-5356Y-41182D01*
X-5388Y-41430D01*
X-5356Y-41678D01*
X-5268Y-41889D01*
X-5861Y-42482D01*
X-6714D01*
X-6723Y-42356D01*
X-6722Y-42356D01*
X-6491Y-42260D01*
X-6292Y-42108D01*
X-6140Y-41909D01*
X-6044Y-41678D01*
X-6012Y-41430D01*
X-6044Y-41182D01*
X-6140Y-40951D01*
X-6292Y-40752D01*
X-6491Y-40600D01*
X-6722Y-40504D01*
X-6970Y-40472D01*
X-7218Y-40504D01*
X-7449Y-40600D01*
X-7648Y-40752D01*
X-7800Y-40951D01*
X-7887Y-41162D01*
X-15180D01*
X-15282Y-41183D01*
X-15369Y-41241D01*
X-15369Y-41241D01*
X-17321Y-43192D01*
X-17514D01*
Y-42935D01*
X-18624D01*
X-18624Y-42935D01*
Y-42935D01*
X-18714Y-42935D01*
X-18714D01*
D01*
X-18803Y-42935D01*
X-18803Y-42935D01*
Y-42935D01*
X-19415D01*
X-19464Y-42818D01*
X-10724Y-34078D01*
X-7887D01*
X-7800Y-34289D01*
X-7648Y-34488D01*
X-7449Y-34640D01*
X-7218Y-34736D01*
X-6970Y-34768D01*
X-6722Y-34736D01*
X-6491Y-34640D01*
X-6292Y-34488D01*
X-6140Y-34289D01*
X-6044Y-34058D01*
X-6012Y-33810D01*
X-6044Y-33562D01*
X-6140Y-33331D01*
X-6292Y-33132D01*
X-6491Y-32980D01*
X-6722Y-32884D01*
X-6970Y-32852D01*
X-7218Y-32884D01*
X-7449Y-32980D01*
X-7648Y-33132D01*
X-7800Y-33331D01*
X-7887Y-33542D01*
X-10835D01*
X-10835Y-33542D01*
X-10920Y-33559D01*
X-10937Y-33563D01*
X-11024Y-33621D01*
X-11024Y-33621D01*
X-17165Y-39762D01*
X-17282Y-39713D01*
Y-23500D01*
X-17282Y-23500D01*
X-17299Y-23415D01*
X-17303Y-23398D01*
X-17361Y-23311D01*
X-17361Y-23311D01*
X-17981Y-22690D01*
X-17969Y-22626D01*
X-17998Y-22480D01*
X-18081Y-22356D01*
X-18205Y-22273D01*
X-18351Y-22244D01*
X-18497Y-22273D01*
X-18621Y-22356D01*
X-18704Y-22480D01*
X-18733Y-22626D01*
X-18704Y-22772D01*
X-18621Y-22896D01*
X-18497Y-22979D01*
X-18437Y-22991D01*
X-17818Y-23611D01*
Y-39847D01*
X-24773Y-46803D01*
X-24919D01*
Y-46492D01*
X-24872Y-46421D01*
X-24843Y-46275D01*
X-24872Y-46129D01*
X-24955Y-46005D01*
X-25038Y-45949D01*
X-25051Y-45822D01*
X-18152Y-38923D01*
X-18091Y-38832D01*
X-18070Y-38725D01*
X-18070Y-38725D01*
X-18070Y-38725D01*
Y-38725D01*
Y-32330D01*
X-17997Y-32221D01*
X-17968Y-32075D01*
X-17997Y-31929D01*
X-18080Y-31805D01*
X-18204Y-31722D01*
X-18350Y-31693D01*
X-18496Y-31722D01*
X-18620Y-31805D01*
X-18703Y-31929D01*
X-18732Y-32075D01*
X-18703Y-32221D01*
X-18630Y-32330D01*
Y-38609D01*
X-21564Y-41542D01*
X-21690Y-41530D01*
X-21756Y-41432D01*
X-21825Y-41385D01*
X-21837Y-41259D01*
X-19427Y-38848D01*
X-19366Y-38757D01*
X-19345Y-38650D01*
X-19345Y-38650D01*
X-19345Y-38650D01*
Y-38650D01*
Y-32330D01*
X-19272Y-32221D01*
X-19243Y-32075D01*
X-19272Y-31929D01*
X-19355Y-31805D01*
X-19479Y-31722D01*
X-19625Y-31693D01*
X-19771Y-31722D01*
X-19895Y-31805D01*
X-19978Y-31929D01*
X-20007Y-32075D01*
X-19978Y-32221D01*
X-19905Y-32330D01*
Y-38534D01*
X-20560Y-39188D01*
X-20658Y-39108D01*
X-20641Y-39082D01*
X-20620Y-38975D01*
X-20620Y-38975D01*
X-20620Y-38975D01*
Y-38975D01*
Y-32330D01*
X-20547Y-32221D01*
X-20518Y-32075D01*
X-20547Y-31929D01*
X-20630Y-31805D01*
X-20754Y-31722D01*
X-20900Y-31693D01*
X-21046Y-31722D01*
X-21170Y-31805D01*
X-21253Y-31929D01*
X-21282Y-32075D01*
X-21253Y-32221D01*
X-21180Y-32330D01*
Y-38859D01*
X-21777Y-39456D01*
X-21895Y-39407D01*
Y-32330D01*
X-21822Y-32221D01*
X-21793Y-32075D01*
X-21822Y-31929D01*
X-21905Y-31805D01*
X-22029Y-31722D01*
X-22175Y-31693D01*
X-22321Y-31722D01*
X-22445Y-31805D01*
X-22528Y-31929D01*
X-22557Y-32075D01*
X-22528Y-32221D01*
X-22455Y-32330D01*
Y-39734D01*
X-22975Y-40253D01*
X-23116Y-40225D01*
X-23145Y-40079D01*
X-23228Y-39955D01*
X-23231Y-39953D01*
Y-33619D01*
X-23227Y-33613D01*
X-23204Y-33500D01*
X-23227Y-33387D01*
X-23231Y-33381D01*
Y-21959D01*
X-22931Y-21660D01*
X-22877Y-21623D01*
X-22816Y-21532D01*
X-22795Y-21425D01*
X-22812Y-21339D01*
X-22700Y-21279D01*
X-22443Y-21536D01*
Y-25928D01*
X-22445Y-25930D01*
X-22528Y-26054D01*
X-22557Y-26200D01*
X-22528Y-26346D01*
X-22445Y-26470D01*
X-22321Y-26553D01*
X-22175Y-26582D01*
X-22029Y-26553D01*
X-21905Y-26470D01*
X-21822Y-26346D01*
X-21793Y-26200D01*
X-21822Y-26054D01*
X-21905Y-25930D01*
X-21907Y-25928D01*
Y-25737D01*
X-21790Y-25688D01*
X-21282Y-26197D01*
X-21282Y-26200D01*
X-21253Y-26346D01*
X-21170Y-26470D01*
X-21046Y-26553D01*
X-20900Y-26582D01*
X-20754Y-26553D01*
X-20630Y-26470D01*
X-20547Y-26346D01*
X-20518Y-26200D01*
X-20547Y-26054D01*
X-20630Y-25930D01*
X-20754Y-25847D01*
X-20900Y-25818D01*
X-20903Y-25818D01*
X-21682Y-25039D01*
Y-24687D01*
X-21565Y-24638D01*
X-20007Y-26197D01*
X-20007Y-26200D01*
X-19978Y-26346D01*
X-19895Y-26470D01*
X-19771Y-26553D01*
X-19625Y-26582D01*
X-19479Y-26553D01*
X-19355Y-26470D01*
X-19272Y-26346D01*
X-19243Y-26200D01*
X-19272Y-26054D01*
X-19355Y-25930D01*
X-19479Y-25847D01*
X-19625Y-25818D01*
X-19628Y-25818D01*
X-21457Y-23989D01*
Y-23637D01*
X-21340Y-23588D01*
X-18732Y-26197D01*
X-18732Y-26200D01*
X-18703Y-26346D01*
X-18620Y-26470D01*
X-18496Y-26553D01*
X-18350Y-26582D01*
X-18204Y-26553D01*
X-18080Y-26470D01*
X-17997Y-26346D01*
X-17968Y-26200D01*
X-17997Y-26054D01*
X-18080Y-25930D01*
X-18204Y-25847D01*
X-18350Y-25818D01*
X-18353Y-25818D01*
X-21232Y-22939D01*
Y-21794D01*
X-21134Y-21714D01*
X-21100Y-21721D01*
X-20987Y-21698D01*
X-20930Y-21660D01*
X-20910Y-21670D01*
X-20842Y-21772D01*
X-20830Y-21820D01*
X-20903Y-21929D01*
X-20932Y-22075D01*
X-20903Y-22221D01*
X-20820Y-22345D01*
X-20696Y-22428D01*
X-20550Y-22457D01*
X-20404Y-22428D01*
X-20280Y-22345D01*
X-20197Y-22221D01*
X-20168Y-22075D01*
X-20197Y-21929D01*
X-20280Y-21805D01*
X-20282Y-21803D01*
Y-18781D01*
X-20162Y-18741D01*
X-20153Y-18753D01*
X-19991Y-18877D01*
X-19802Y-18955D01*
X-19600Y-18982D01*
X-19398Y-18955D01*
X-19209Y-18877D01*
X-19047Y-18753D01*
X-18923Y-18591D01*
X-18845Y-18402D01*
X-18818Y-18200D01*
X-18833Y-18087D01*
X-18809Y-18077D01*
X-18647Y-17953D01*
X-18523Y-17791D01*
X-18445Y-17602D01*
X-18418Y-17400D01*
X-18419Y-17391D01*
X-14528Y-13500D01*
X-14418Y-13356D01*
X-14369Y-13237D01*
X-14348Y-13188D01*
X-14325Y-13008D01*
Y-10500D01*
X-14325Y-10500D01*
X-14325Y-10500D01*
Y-10500D01*
Y-10200D01*
X-13150D01*
Y-10100D01*
X-13050D01*
Y-10100D01*
X-12700D01*
Y-9575D01*
X-12600D01*
Y-9475D01*
X-12150D01*
Y-9150D01*
Y-8100D01*
D01*
Y-8100D01*
X-12100Y-8050D01*
X-12050D01*
Y-6950D01*
X-12269D01*
X-12519Y-6900D01*
X-12542Y-6783D01*
X-12609Y-6684D01*
X-12609Y-6684D01*
X-12805Y-6487D01*
X-12822Y-6404D01*
X-12905Y-6280D01*
X-13029Y-6197D01*
X-13175Y-6168D01*
X-13321Y-6197D01*
X-13445Y-6280D01*
X-13528Y-6404D01*
X-13557Y-6550D01*
X-13528Y-6696D01*
X-13445Y-6820D01*
X-13321Y-6903D01*
X-13238Y-6920D01*
X-13150Y-7008D01*
Y-7143D01*
X-13550D01*
Y-6900D01*
X-13957D01*
Y-6050D01*
X-13900D01*
Y-4704D01*
X-10200D01*
X-10122Y-4688D01*
X-10056Y-4644D01*
X-10012Y-4578D01*
X-9996Y-4500D01*
Y-853D01*
X-9997Y-847D01*
X-9997Y-840D01*
X-10005Y-808D01*
X-10012Y-775D01*
X-10015Y-770D01*
X-10017Y-763D01*
X-10037Y-737D01*
X-9758Y-462D01*
X-462D01*
Y-99538D01*
D02*
G37*
G36*
X-33281Y-65227D02*
Y-65600D01*
X-33500D01*
Y-66800D01*
D01*
X-33500Y-66800D01*
X-33500Y-66800D01*
D01*
D01*
Y-66800D01*
X-33500D01*
D01*
Y-68000D01*
X-33243D01*
Y-68128D01*
X-33245Y-68130D01*
X-33328Y-68254D01*
X-33357Y-68400D01*
X-33328Y-68546D01*
X-33245Y-68670D01*
X-33121Y-68753D01*
X-33116Y-68754D01*
X-33079Y-68876D01*
X-33314Y-69111D01*
X-33372Y-69198D01*
X-33376Y-69215D01*
X-33393Y-69300D01*
X-33393Y-69300D01*
Y-83753D01*
X-33395Y-83755D01*
X-33478Y-83879D01*
X-33507Y-84025D01*
X-33478Y-84171D01*
X-33395Y-84295D01*
X-33271Y-84378D01*
X-33125Y-84407D01*
X-32991Y-84381D01*
X-32893Y-84461D01*
Y-91734D01*
X-33351Y-92192D01*
X-33562Y-92104D01*
X-33810Y-92072D01*
X-34058Y-92104D01*
X-34289Y-92200D01*
X-34488Y-92352D01*
X-34640Y-92551D01*
X-34736Y-92782D01*
X-34768Y-93030D01*
X-34736Y-93278D01*
X-34640Y-93509D01*
X-34488Y-93708D01*
X-34289Y-93860D01*
X-34058Y-93956D01*
X-33810Y-93988D01*
X-33562Y-93956D01*
X-33331Y-93860D01*
X-33132Y-93708D01*
X-32980Y-93509D01*
X-32917Y-93357D01*
X-32793Y-93382D01*
Y-94174D01*
X-33351Y-94732D01*
X-33562Y-94644D01*
X-33810Y-94612D01*
X-34058Y-94644D01*
X-34289Y-94740D01*
X-34488Y-94892D01*
X-34640Y-95091D01*
X-34736Y-95322D01*
X-34768Y-95570D01*
X-34736Y-95818D01*
X-34640Y-96049D01*
X-34488Y-96248D01*
X-34289Y-96400D01*
X-34058Y-96496D01*
X-33810Y-96528D01*
X-33562Y-96496D01*
X-33457Y-96452D01*
X-33386Y-96557D01*
X-33811Y-96982D01*
X-37218D01*
X-37267Y-96865D01*
X-36809Y-96408D01*
X-36598Y-96496D01*
X-36350Y-96528D01*
X-36102Y-96496D01*
X-35871Y-96400D01*
X-35672Y-96248D01*
X-35520Y-96049D01*
X-35424Y-95818D01*
X-35392Y-95570D01*
X-35424Y-95322D01*
X-35520Y-95091D01*
X-35672Y-94892D01*
X-35871Y-94740D01*
X-36102Y-94644D01*
X-36350Y-94612D01*
X-36598Y-94644D01*
X-36829Y-94740D01*
X-37028Y-94892D01*
X-37180Y-95091D01*
X-37276Y-95322D01*
X-37308Y-95570D01*
X-37276Y-95818D01*
X-37188Y-96029D01*
X-37766Y-96607D01*
X-38586D01*
X-38611Y-96483D01*
X-38411Y-96400D01*
X-38212Y-96248D01*
X-38060Y-96049D01*
X-37964Y-95818D01*
X-37932Y-95570D01*
X-37964Y-95322D01*
X-38036Y-95149D01*
X-37334Y-94446D01*
X-37267Y-94347D01*
X-37244Y-94230D01*
X-37244Y-94230D01*
X-37244Y-94230D01*
Y-94230D01*
Y-93623D01*
X-37124Y-93582D01*
X-37028Y-93708D01*
X-36829Y-93860D01*
X-36598Y-93956D01*
X-36350Y-93988D01*
X-36102Y-93956D01*
X-35871Y-93860D01*
X-35672Y-93708D01*
X-35520Y-93509D01*
X-35424Y-93278D01*
X-35392Y-93030D01*
X-35424Y-92782D01*
X-35512Y-92571D01*
X-34711Y-91769D01*
X-34711Y-91769D01*
X-34653Y-91682D01*
X-34649Y-91665D01*
X-34632Y-91580D01*
X-34632Y-91580D01*
Y-83595D01*
X-34520Y-83520D01*
X-34466Y-83566D01*
X-34466Y-83566D01*
X-34367Y-83633D01*
X-34250Y-83656D01*
X-34133Y-83633D01*
X-34034Y-83566D01*
X-34022Y-83549D01*
X-33980Y-83520D01*
X-33897Y-83396D01*
X-33868Y-83250D01*
X-33897Y-83104D01*
X-33944Y-83033D01*
Y-68000D01*
X-33725D01*
Y-66800D01*
D01*
Y-66800D01*
X-33725Y-66800D01*
Y-66800D01*
X-33725D01*
X-33725D01*
Y-65600D01*
X-33919D01*
Y-65031D01*
X-33477D01*
X-33281Y-65227D01*
D02*
G37*
G36*
X-39442Y-61011D02*
Y-61347D01*
Y-61847D01*
X-38748D01*
Y-61983D01*
X-38828Y-62104D01*
X-38857Y-62250D01*
X-38828Y-62396D01*
X-38745Y-62520D01*
X-38621Y-62603D01*
X-38533Y-62621D01*
X-38496Y-62742D01*
X-41489Y-65736D01*
X-41547Y-65823D01*
X-41551Y-65840D01*
X-41568Y-65925D01*
X-41568Y-65925D01*
Y-68994D01*
X-41620Y-69030D01*
X-41703Y-69154D01*
X-41732Y-69300D01*
X-41703Y-69446D01*
X-41620Y-69570D01*
X-41496Y-69653D01*
X-41350Y-69682D01*
X-41204Y-69653D01*
X-41080Y-69570D01*
X-40997Y-69446D01*
X-40968Y-69300D01*
X-40997Y-69154D01*
X-41032Y-69100D01*
Y-66036D01*
X-39760Y-64763D01*
X-39643Y-64812D01*
Y-70734D01*
X-39741Y-70814D01*
X-39850Y-70793D01*
X-39874Y-70797D01*
X-39964Y-70708D01*
X-39943Y-70600D01*
X-39972Y-70454D01*
X-40055Y-70330D01*
X-40179Y-70247D01*
X-40325Y-70218D01*
X-40471Y-70247D01*
X-40595Y-70330D01*
X-40678Y-70454D01*
X-40707Y-70600D01*
X-40686Y-70708D01*
X-40776Y-70797D01*
X-40800Y-70793D01*
X-40946Y-70822D01*
X-41070Y-70905D01*
X-41153Y-71029D01*
X-41182Y-71175D01*
X-41153Y-71321D01*
X-41070Y-71445D01*
X-41068Y-71447D01*
Y-88175D01*
X-41068Y-88175D01*
X-41051Y-88260D01*
X-41047Y-88277D01*
X-40989Y-88364D01*
X-40232Y-89122D01*
X-40232Y-89125D01*
X-40203Y-89271D01*
X-40120Y-89395D01*
X-39996Y-89478D01*
X-39850Y-89507D01*
X-39850Y-89507D01*
X-39850Y-89507D01*
X-39753Y-89529D01*
X-39782Y-89675D01*
X-39753Y-89821D01*
X-39670Y-89945D01*
X-39546Y-90028D01*
X-39400Y-90057D01*
X-39254Y-90028D01*
X-39130Y-89945D01*
X-39047Y-89821D01*
X-39018Y-89675D01*
X-39047Y-89529D01*
X-39107Y-89438D01*
Y-87546D01*
X-39009Y-87466D01*
X-38925Y-87482D01*
X-38779Y-87453D01*
X-38655Y-87370D01*
X-38572Y-87246D01*
X-38543Y-87100D01*
X-38572Y-86954D01*
X-38632Y-86863D01*
Y-82450D01*
X-38520Y-82390D01*
X-38471Y-82423D01*
X-38325Y-82452D01*
X-38179Y-82423D01*
X-38055Y-82340D01*
X-37972Y-82216D01*
X-37943Y-82070D01*
X-37972Y-81924D01*
X-38055Y-81800D01*
X-38057Y-81798D01*
Y-67561D01*
X-37561Y-67064D01*
X-37561Y-67064D01*
X-37503Y-66977D01*
X-37499Y-66960D01*
X-37482Y-66875D01*
X-37482Y-66875D01*
Y-65472D01*
X-37480Y-65470D01*
X-37397Y-65346D01*
X-37368Y-65200D01*
X-37397Y-65054D01*
X-37480Y-64930D01*
X-37604Y-64847D01*
X-37750Y-64818D01*
X-37896Y-64847D01*
X-38020Y-64930D01*
X-38103Y-65054D01*
X-38132Y-65200D01*
X-38103Y-65346D01*
X-38020Y-65470D01*
X-38018Y-65472D01*
Y-66764D01*
X-38514Y-67261D01*
X-38632Y-67182D01*
Y-64286D01*
X-37237Y-62890D01*
X-37110D01*
X-37052Y-62948D01*
Y-63175D01*
X-36825D01*
X-36725Y-63275D01*
X-36625D01*
Y-64237D01*
X-36585D01*
X-36537Y-64354D01*
X-36800Y-64618D01*
X-36946Y-64647D01*
X-37070Y-64730D01*
X-37153Y-64854D01*
X-37182Y-65000D01*
X-37153Y-65146D01*
X-37106Y-65217D01*
Y-65575D01*
X-37300D01*
Y-66875D01*
Y-67225D01*
X-36300D01*
Y-66875D01*
Y-65575D01*
X-36494D01*
Y-65217D01*
X-36447Y-65146D01*
X-36443Y-65125D01*
X-36009Y-64691D01*
X-36009Y-64691D01*
X-35969Y-64632D01*
X-35943Y-64592D01*
X-35919Y-64475D01*
Y-64237D01*
X-35052D01*
Y-64237D01*
X-34531D01*
Y-64419D01*
X-35125D01*
X-35242Y-64442D01*
X-35341Y-64509D01*
X-35341Y-64509D01*
X-35741Y-64909D01*
X-35808Y-65008D01*
X-35831Y-65125D01*
X-35831Y-65125D01*
Y-65600D01*
X-36050D01*
Y-66800D01*
D01*
X-36050Y-66800D01*
X-36050Y-66800D01*
D01*
D01*
Y-66800D01*
X-36050D01*
D01*
Y-68000D01*
X-35831D01*
Y-68311D01*
X-35943Y-68371D01*
X-35979Y-68347D01*
X-36125Y-68318D01*
X-36271Y-68347D01*
X-36395Y-68430D01*
X-36478Y-68554D01*
X-36507Y-68700D01*
X-36478Y-68846D01*
X-36395Y-68970D01*
X-36393Y-68972D01*
Y-84328D01*
X-36395Y-84330D01*
X-36478Y-84454D01*
X-36507Y-84600D01*
X-36478Y-84746D01*
X-36395Y-84870D01*
X-36393Y-84872D01*
Y-88414D01*
X-37066Y-89087D01*
X-37178Y-89027D01*
X-37178Y-89027D01*
X-37157Y-88925D01*
Y-81072D01*
X-37155Y-81070D01*
X-37072Y-80946D01*
X-37043Y-80800D01*
X-37072Y-80654D01*
X-37155Y-80530D01*
X-37157Y-80528D01*
Y-69247D01*
X-37155Y-69245D01*
X-37072Y-69121D01*
X-37043Y-68975D01*
X-37072Y-68829D01*
X-37155Y-68705D01*
X-37279Y-68622D01*
X-37425Y-68593D01*
X-37571Y-68622D01*
X-37695Y-68705D01*
X-37778Y-68829D01*
X-37807Y-68975D01*
X-37778Y-69121D01*
X-37695Y-69245D01*
X-37693Y-69247D01*
Y-80528D01*
X-37695Y-80530D01*
X-37778Y-80654D01*
X-37807Y-80800D01*
X-37778Y-80946D01*
X-37695Y-81070D01*
X-37693Y-81072D01*
Y-88814D01*
X-40364Y-91486D01*
X-40422Y-91573D01*
X-40426Y-91590D01*
X-40443Y-91675D01*
X-40443Y-91675D01*
Y-92394D01*
X-40563Y-92435D01*
X-40681Y-92281D01*
X-40900Y-92113D01*
X-41156Y-92007D01*
X-41330Y-91984D01*
Y-93030D01*
Y-94076D01*
X-41156Y-94053D01*
X-40900Y-93947D01*
X-40681Y-93779D01*
X-40563Y-93625D01*
X-40443Y-93666D01*
Y-95146D01*
X-40567Y-95171D01*
X-40600Y-95091D01*
X-40752Y-94892D01*
X-40951Y-94740D01*
X-41182Y-94644D01*
X-41430Y-94612D01*
X-41678Y-94644D01*
X-41909Y-94740D01*
X-42108Y-94892D01*
X-42260Y-95091D01*
X-42356Y-95322D01*
X-42388Y-95570D01*
X-42356Y-95818D01*
X-42260Y-96049D01*
X-42108Y-96248D01*
X-41909Y-96400D01*
X-41678Y-96496D01*
X-41430Y-96528D01*
X-41182Y-96496D01*
X-40951Y-96400D01*
X-40752Y-96248D01*
X-40600Y-96049D01*
X-40565Y-95963D01*
X-40448Y-95940D01*
X-40424Y-95942D01*
X-40422Y-95952D01*
X-40364Y-96039D01*
X-39538Y-96865D01*
X-39587Y-96982D01*
X-41864D01*
X-42807Y-96039D01*
Y-79575D01*
X-42807Y-79575D01*
X-42828Y-79473D01*
X-42847Y-79444D01*
X-42886Y-79386D01*
X-42886Y-79386D01*
X-45307Y-76964D01*
Y-70200D01*
X-45209Y-70119D01*
X-45127Y-70136D01*
X-45008Y-70112D01*
X-44937Y-70218D01*
X-44978Y-70279D01*
X-45007Y-70425D01*
X-44978Y-70571D01*
X-44895Y-70695D01*
X-44771Y-70778D01*
X-44625Y-70807D01*
X-44541Y-70791D01*
X-44443Y-70871D01*
Y-76828D01*
X-44445Y-76830D01*
X-44528Y-76954D01*
X-44557Y-77100D01*
X-44528Y-77246D01*
X-44445Y-77370D01*
X-44321Y-77453D01*
X-44175Y-77482D01*
X-44029Y-77453D01*
X-43905Y-77370D01*
X-43822Y-77246D01*
X-43793Y-77100D01*
X-43806Y-77032D01*
X-43803Y-77027D01*
X-43782Y-76925D01*
X-43803Y-76823D01*
X-43861Y-76736D01*
X-43907Y-76705D01*
Y-72714D01*
X-43795Y-72654D01*
X-43721Y-72703D01*
X-43575Y-72732D01*
X-43429Y-72703D01*
X-43305Y-72620D01*
X-43222Y-72496D01*
X-43193Y-72350D01*
X-43222Y-72204D01*
X-43305Y-72080D01*
X-43407Y-72011D01*
Y-71661D01*
X-43309Y-71581D01*
X-43175Y-71607D01*
X-43029Y-71578D01*
X-42905Y-71495D01*
X-42822Y-71371D01*
X-42796Y-71241D01*
X-42674Y-71204D01*
X-42457Y-71422D01*
X-42457Y-71425D01*
X-42428Y-71571D01*
X-42345Y-71695D01*
X-42221Y-71778D01*
X-42075Y-71807D01*
X-41929Y-71778D01*
X-41805Y-71695D01*
X-41722Y-71571D01*
X-41693Y-71425D01*
X-41722Y-71279D01*
X-41805Y-71155D01*
X-41929Y-71072D01*
X-42075Y-71043D01*
X-42078Y-71043D01*
X-42457Y-70664D01*
Y-67364D01*
X-42345Y-67304D01*
X-42271Y-67353D01*
X-42125Y-67382D01*
X-41979Y-67353D01*
X-41855Y-67270D01*
X-41772Y-67146D01*
X-41743Y-67000D01*
X-41772Y-66854D01*
X-41855Y-66730D01*
X-41857Y-66728D01*
Y-63261D01*
X-39559Y-60963D01*
X-39442Y-61011D01*
D02*
G37*
G36*
X-33493Y-41011D02*
Y-46803D01*
X-34052D01*
Y-46803D01*
X-34125D01*
Y-47765D01*
X-34325D01*
Y-46803D01*
X-34398D01*
Y-46803D01*
X-34445D01*
Y-46525D01*
X-34466Y-46418D01*
X-34527Y-46327D01*
X-34636Y-46217D01*
X-34588Y-46100D01*
X-33750D01*
Y-44400D01*
X-35750D01*
Y-44400D01*
X-35780D01*
X-35870Y-44310D01*
Y-43800D01*
X-35750D01*
Y-43800D01*
X-33750D01*
Y-42100D01*
X-34144D01*
Y-41775D01*
X-33750D01*
Y-40919D01*
X-33633Y-40871D01*
X-33493Y-41011D01*
D02*
G37*
G36*
X-29793Y-26320D02*
Y-34978D01*
X-29795Y-34980D01*
X-29878Y-35104D01*
X-29907Y-35250D01*
X-29878Y-35396D01*
X-29795Y-35520D01*
X-29793Y-35522D01*
Y-35664D01*
X-29939Y-35811D01*
X-29997Y-35898D01*
X-30001Y-35915D01*
X-30018Y-36000D01*
X-30018Y-36000D01*
Y-45341D01*
X-30055Y-45352D01*
X-30157Y-45277D01*
Y-32425D01*
X-30157Y-32425D01*
X-30178Y-32323D01*
X-30236Y-32236D01*
X-30236Y-32236D01*
X-30343Y-32128D01*
X-30343Y-32125D01*
X-30372Y-31979D01*
X-30455Y-31855D01*
X-30579Y-31772D01*
X-30725Y-31743D01*
X-30871Y-31772D01*
X-30995Y-31855D01*
X-31061Y-31953D01*
X-31182Y-31916D01*
Y-27461D01*
X-30278Y-26557D01*
X-30275Y-26557D01*
X-30129Y-26528D01*
X-30005Y-26445D01*
X-29922Y-26321D01*
X-29919Y-26308D01*
X-29793Y-26320D01*
D02*
G37*
G36*
X-36168Y-19787D02*
Y-38275D01*
X-36168Y-38275D01*
X-36151Y-38360D01*
X-36147Y-38377D01*
X-36089Y-38464D01*
X-36089Y-38464D01*
X-36089Y-38464D01*
D01*
X-36089D01*
Y-38464D01*
D01*
X-35182Y-39372D01*
X-35182Y-39375D01*
X-35153Y-39521D01*
X-35120Y-39570D01*
X-35180Y-39682D01*
X-36139D01*
X-36755Y-39067D01*
X-36718Y-38945D01*
X-36679Y-38937D01*
X-36555Y-38854D01*
X-36472Y-38730D01*
X-36443Y-38584D01*
X-36472Y-38438D01*
X-36555Y-38314D01*
X-36679Y-38231D01*
X-36825Y-38202D01*
X-36971Y-38231D01*
X-37095Y-38314D01*
X-37178Y-38438D01*
X-37186Y-38477D01*
X-37280Y-38506D01*
X-37382Y-38430D01*
Y-35497D01*
X-37261Y-35460D01*
X-37220Y-35520D01*
X-37096Y-35603D01*
X-36950Y-35632D01*
X-36804Y-35603D01*
X-36680Y-35520D01*
X-36597Y-35396D01*
X-36568Y-35250D01*
X-36597Y-35104D01*
X-36680Y-34980D01*
X-36682Y-34978D01*
Y-20136D01*
X-36285Y-19738D01*
X-36168Y-19787D01*
D02*
G37*
G36*
X-49393Y-46861D02*
Y-48350D01*
X-49491Y-48430D01*
X-49585Y-48412D01*
X-54216Y-43781D01*
X-54303Y-43723D01*
X-54320Y-43719D01*
X-54405Y-43702D01*
X-54405Y-43702D01*
X-55591D01*
X-55678Y-43491D01*
X-55830Y-43292D01*
X-56029Y-43140D01*
X-56260Y-43044D01*
X-56508Y-43012D01*
X-56756Y-43044D01*
X-56987Y-43140D01*
X-57186Y-43292D01*
X-57338Y-43491D01*
X-57434Y-43722D01*
X-57466Y-43970D01*
X-57434Y-44218D01*
X-57338Y-44449D01*
X-57186Y-44648D01*
X-56987Y-44800D01*
X-56756Y-44896D01*
X-56508Y-44928D01*
X-56260Y-44896D01*
X-56029Y-44800D01*
X-55830Y-44648D01*
X-55678Y-44449D01*
X-55591Y-44238D01*
X-54516D01*
X-46718Y-52036D01*
Y-54734D01*
X-46722Y-54740D01*
X-46835Y-54787D01*
X-52761Y-48861D01*
X-52848Y-48803D01*
X-52865Y-48799D01*
X-52950Y-48782D01*
X-52950Y-48782D01*
X-55591D01*
X-55678Y-48571D01*
X-55830Y-48372D01*
X-56029Y-48220D01*
X-56260Y-48124D01*
X-56508Y-48092D01*
X-56756Y-48124D01*
X-56987Y-48220D01*
X-57186Y-48372D01*
X-57338Y-48571D01*
X-57434Y-48802D01*
X-57466Y-49050D01*
X-57434Y-49298D01*
X-57338Y-49529D01*
X-57186Y-49728D01*
X-56987Y-49880D01*
X-56756Y-49976D01*
X-56508Y-50008D01*
X-56260Y-49976D01*
X-56029Y-49880D01*
X-55830Y-49728D01*
X-55678Y-49529D01*
X-55591Y-49318D01*
X-53061D01*
X-47243Y-55136D01*
Y-55638D01*
X-47360Y-55687D01*
X-51646Y-51401D01*
X-51733Y-51343D01*
X-51750Y-51339D01*
X-51835Y-51322D01*
X-51835Y-51322D01*
X-55591D01*
X-55678Y-51111D01*
X-55830Y-50912D01*
X-56029Y-50760D01*
X-56260Y-50664D01*
X-56508Y-50632D01*
X-56756Y-50664D01*
X-56987Y-50760D01*
X-57186Y-50912D01*
X-57338Y-51111D01*
X-57434Y-51342D01*
X-57466Y-51590D01*
X-57434Y-51838D01*
X-57338Y-52069D01*
X-57186Y-52268D01*
X-56987Y-52420D01*
X-56756Y-52516D01*
X-56508Y-52548D01*
X-56260Y-52516D01*
X-56029Y-52420D01*
X-55830Y-52268D01*
X-55678Y-52069D01*
X-55591Y-51858D01*
X-51946D01*
X-47643Y-56161D01*
Y-57438D01*
X-47760Y-57487D01*
X-51306Y-53941D01*
X-51393Y-53883D01*
X-51410Y-53879D01*
X-51495Y-53862D01*
X-51495Y-53862D01*
X-55558D01*
Y-53180D01*
X-57458D01*
Y-55080D01*
X-55558D01*
Y-54398D01*
X-51606D01*
X-48118Y-57886D01*
Y-58991D01*
X-48239Y-59028D01*
X-48255Y-59005D01*
X-48379Y-58922D01*
X-48525Y-58893D01*
X-48671Y-58922D01*
X-48795Y-59005D01*
X-48797Y-59007D01*
X-55564D01*
X-57957Y-56614D01*
Y-50659D01*
X-57836Y-50622D01*
X-57820Y-50645D01*
X-57696Y-50728D01*
X-57550Y-50757D01*
X-57404Y-50728D01*
X-57280Y-50645D01*
X-57197Y-50521D01*
X-57168Y-50375D01*
X-57197Y-50229D01*
X-57280Y-50105D01*
X-57404Y-50022D01*
X-57550Y-49993D01*
X-57553Y-49993D01*
X-57657Y-49889D01*
Y-42958D01*
X-56967Y-42268D01*
X-56756Y-42356D01*
X-56508Y-42388D01*
X-56260Y-42356D01*
X-56029Y-42260D01*
X-55830Y-42108D01*
X-55678Y-41909D01*
X-55582Y-41678D01*
X-55550Y-41430D01*
X-55582Y-41182D01*
X-55678Y-40951D01*
X-55830Y-40752D01*
X-56029Y-40600D01*
X-56229Y-40517D01*
X-56204Y-40393D01*
X-55861D01*
X-49393Y-46861D01*
D02*
G37*
G36*
X-4678Y-42356D02*
X-4430Y-42388D01*
X-4182Y-42356D01*
X-3971Y-42268D01*
X-2518Y-43721D01*
Y-58164D01*
X-4259Y-59906D01*
X-4262Y-59905D01*
X-4409Y-59934D01*
X-4533Y-60017D01*
X-4616Y-60141D01*
X-4645Y-60287D01*
X-4616Y-60434D01*
X-4533Y-60558D01*
X-4409Y-60641D01*
X-4262Y-60670D01*
X-4259Y-60669D01*
X-2518Y-62411D01*
Y-78358D01*
X-2635Y-78407D01*
X-3592Y-77449D01*
X-3504Y-77238D01*
X-3472Y-76990D01*
X-3504Y-76742D01*
X-3600Y-76511D01*
X-3752Y-76312D01*
X-3951Y-76160D01*
X-4182Y-76064D01*
X-4430Y-76032D01*
X-4678Y-76064D01*
X-4909Y-76160D01*
X-5108Y-76312D01*
X-5260Y-76511D01*
X-5356Y-76742D01*
X-5388Y-76990D01*
X-5356Y-77238D01*
X-5260Y-77469D01*
X-5108Y-77668D01*
X-4909Y-77820D01*
X-4697Y-77908D01*
X-4721Y-78032D01*
X-5549D01*
X-6132Y-77449D01*
X-6044Y-77238D01*
X-6012Y-76990D01*
X-6044Y-76742D01*
X-6140Y-76511D01*
X-6292Y-76312D01*
X-6491Y-76160D01*
X-6722Y-76064D01*
X-6970Y-76032D01*
X-7218Y-76064D01*
X-7449Y-76160D01*
X-7648Y-76312D01*
X-7800Y-76511D01*
X-7896Y-76742D01*
X-7928Y-76990D01*
X-7896Y-77238D01*
X-7800Y-77469D01*
X-7648Y-77668D01*
X-7449Y-77820D01*
X-7218Y-77916D01*
X-6970Y-77948D01*
X-6722Y-77916D01*
X-6511Y-77828D01*
X-5849Y-78489D01*
X-5849Y-78489D01*
X-5762Y-78547D01*
X-5660Y-78568D01*
X-4915D01*
X-4890Y-78692D01*
X-4909Y-78700D01*
X-5108Y-78852D01*
X-5260Y-79051D01*
X-5356Y-79282D01*
X-5388Y-79530D01*
X-5356Y-79778D01*
X-5268Y-79989D01*
X-5836Y-80557D01*
X-6642D01*
X-6667Y-80433D01*
X-6491Y-80360D01*
X-6292Y-80208D01*
X-6140Y-80009D01*
X-6044Y-79778D01*
X-6012Y-79530D01*
X-6044Y-79282D01*
X-6140Y-79051D01*
X-6292Y-78852D01*
X-6491Y-78700D01*
X-6722Y-78604D01*
X-6970Y-78572D01*
X-7218Y-78604D01*
X-7449Y-78700D01*
X-7648Y-78852D01*
X-7800Y-79051D01*
X-7885Y-79257D01*
X-15928D01*
X-15965Y-79136D01*
X-15905Y-79095D01*
X-15822Y-78971D01*
X-15793Y-78825D01*
X-15822Y-78679D01*
X-15905Y-78555D01*
X-16029Y-78472D01*
X-16175Y-78443D01*
X-16321Y-78472D01*
X-16413Y-78533D01*
X-16502Y-78444D01*
X-16475Y-78307D01*
X-16329Y-78278D01*
X-16205Y-78195D01*
X-16122Y-78071D01*
X-16093Y-77925D01*
X-16093Y-77922D01*
X-15686Y-77514D01*
X-15686Y-77514D01*
X-15647Y-77456D01*
X-15628Y-77427D01*
X-15607Y-77325D01*
X-15607Y-77325D01*
Y-55950D01*
X-15628Y-55848D01*
X-15686Y-55761D01*
X-15686Y-55761D01*
X-18236Y-53211D01*
X-18323Y-53153D01*
X-18340Y-53149D01*
X-18425Y-53132D01*
X-18425Y-53132D01*
X-19000D01*
Y-53025D01*
X-19000D01*
Y-52625D01*
X-19650D01*
Y-52525D01*
X-19750D01*
Y-52025D01*
X-21400D01*
Y-52057D01*
X-21498Y-52138D01*
X-21600Y-52118D01*
X-21746Y-52147D01*
X-21847Y-52214D01*
X-22008D01*
Y-52193D01*
X-22008D01*
Y-51847D01*
X-22008D01*
Y-51287D01*
X-15191D01*
X-3293Y-63186D01*
Y-63967D01*
X-3417Y-63991D01*
X-3513Y-63760D01*
X-3681Y-63541D01*
X-3900Y-63373D01*
X-4156Y-63267D01*
X-4330Y-63244D01*
Y-64290D01*
Y-65336D01*
X-4156Y-65313D01*
X-3900Y-65207D01*
X-3681Y-65039D01*
X-3513Y-64820D01*
X-3417Y-64589D01*
X-3293Y-64613D01*
Y-72339D01*
X-3886Y-72932D01*
X-4090D01*
X-4115Y-72808D01*
X-3951Y-72740D01*
X-3752Y-72588D01*
X-3600Y-72389D01*
X-3504Y-72158D01*
X-3472Y-71910D01*
X-3504Y-71662D01*
X-3600Y-71431D01*
X-3752Y-71232D01*
X-3951Y-71080D01*
X-4182Y-70984D01*
X-4430Y-70952D01*
X-4678Y-70984D01*
X-4909Y-71080D01*
X-5108Y-71232D01*
X-5260Y-71431D01*
X-5356Y-71662D01*
X-5388Y-71910D01*
X-5356Y-72158D01*
X-5260Y-72389D01*
X-5108Y-72588D01*
X-4909Y-72740D01*
X-4745Y-72808D01*
X-4770Y-72932D01*
X-5725D01*
X-5725Y-72932D01*
X-5810Y-72949D01*
X-5827Y-72953D01*
X-5914Y-73011D01*
X-5914Y-73011D01*
X-6514Y-73611D01*
X-6722Y-73524D01*
X-6970Y-73492D01*
X-7218Y-73524D01*
X-7449Y-73620D01*
X-7648Y-73772D01*
X-7800Y-73971D01*
X-7896Y-74202D01*
X-7928Y-74450D01*
X-7896Y-74698D01*
X-7800Y-74929D01*
X-7648Y-75128D01*
X-7449Y-75280D01*
X-7218Y-75376D01*
X-6970Y-75408D01*
X-6722Y-75376D01*
X-6491Y-75280D01*
X-6292Y-75128D01*
X-6140Y-74929D01*
X-6044Y-74698D01*
X-6012Y-74450D01*
X-6044Y-74202D01*
X-6134Y-73987D01*
X-5614Y-73468D01*
X-4866D01*
X-4842Y-73592D01*
X-4909Y-73620D01*
X-5108Y-73772D01*
X-5260Y-73971D01*
X-5356Y-74202D01*
X-5388Y-74450D01*
X-5356Y-74698D01*
X-5260Y-74929D01*
X-5108Y-75128D01*
X-4909Y-75280D01*
X-4678Y-75376D01*
X-4430Y-75408D01*
X-4182Y-75376D01*
X-3951Y-75280D01*
X-3752Y-75128D01*
X-3600Y-74929D01*
X-3504Y-74698D01*
X-3472Y-74450D01*
X-3504Y-74202D01*
X-3600Y-73971D01*
X-3752Y-73772D01*
X-3951Y-73620D01*
X-4018Y-73592D01*
X-3994Y-73468D01*
X-3775D01*
X-3775Y-73468D01*
X-3690Y-73451D01*
X-3673Y-73447D01*
X-3586Y-73389D01*
X-2836Y-72639D01*
X-2836Y-72639D01*
X-2778Y-72552D01*
X-2757Y-72450D01*
Y-63075D01*
X-2757Y-63075D01*
X-2778Y-62973D01*
X-2836Y-62886D01*
X-2836Y-62886D01*
X-13512Y-52209D01*
X-13476Y-52088D01*
X-13429Y-52078D01*
X-13305Y-51995D01*
X-13222Y-51871D01*
X-13193Y-51725D01*
X-13222Y-51579D01*
X-13305Y-51455D01*
X-13429Y-51372D01*
X-13575Y-51343D01*
X-13578Y-51343D01*
X-19494Y-45427D01*
X-19446Y-45310D01*
X-19167D01*
X-18707Y-45770D01*
X-18707Y-45773D01*
X-18678Y-45920D01*
X-18595Y-46044D01*
X-18471Y-46127D01*
X-18325Y-46156D01*
X-18179Y-46127D01*
X-18055Y-46044D01*
X-17972Y-45920D01*
X-17943Y-45773D01*
X-17972Y-45627D01*
X-18055Y-45503D01*
X-18162Y-45431D01*
X-18125Y-45310D01*
X-17514D01*
Y-45052D01*
X-17218D01*
X-17211Y-45054D01*
X-17109Y-45033D01*
X-17022Y-44975D01*
X-15064Y-43018D01*
X-7500D01*
X-7449Y-43140D01*
X-7648Y-43292D01*
X-7800Y-43491D01*
X-7896Y-43722D01*
X-7928Y-43970D01*
X-7896Y-44218D01*
X-7800Y-44449D01*
X-7648Y-44648D01*
X-7449Y-44800D01*
X-7218Y-44896D01*
X-6970Y-44928D01*
X-6722Y-44896D01*
X-6491Y-44800D01*
X-6292Y-44648D01*
X-6140Y-44449D01*
X-6044Y-44218D01*
X-6012Y-43970D01*
X-6044Y-43722D01*
X-6140Y-43491D01*
X-6292Y-43292D01*
X-6491Y-43140D01*
X-6440Y-43018D01*
X-5750D01*
X-5750Y-43018D01*
X-5665Y-43001D01*
X-5648Y-42997D01*
X-5561Y-42939D01*
X-5561Y-42939D01*
X-5561Y-42939D01*
X-4889Y-42268D01*
X-4678Y-42356D01*
D02*
G37*
G36*
X-21723Y-13791D02*
X-21670Y-13870D01*
X-21546Y-13953D01*
X-21400Y-13982D01*
X-21397Y-13982D01*
X-20818Y-14561D01*
Y-21130D01*
X-20930Y-21190D01*
X-20987Y-21152D01*
X-21100Y-21129D01*
X-21134Y-21136D01*
X-21232Y-21056D01*
Y-20414D01*
X-21232Y-20414D01*
X-21249Y-20328D01*
X-21253Y-20311D01*
X-21311Y-20224D01*
X-21311Y-20224D01*
X-22157Y-19378D01*
Y-17825D01*
X-22178Y-17723D01*
X-22236Y-17636D01*
X-22236Y-17636D01*
X-23390Y-16481D01*
X-23427Y-16427D01*
X-23518Y-16366D01*
X-23625Y-16345D01*
X-23732Y-16366D01*
X-23823Y-16427D01*
X-23884Y-16518D01*
X-23905Y-16625D01*
X-23884Y-16732D01*
X-23823Y-16823D01*
X-23769Y-16860D01*
X-23746Y-16882D01*
X-23759Y-17009D01*
X-23823Y-17052D01*
X-23884Y-17143D01*
X-23905Y-17250D01*
X-23884Y-17357D01*
X-23823Y-17448D01*
X-23769Y-17485D01*
X-22918Y-18336D01*
Y-19088D01*
X-23035Y-19137D01*
X-23490Y-18681D01*
X-23527Y-18627D01*
X-23618Y-18566D01*
X-23725Y-18545D01*
X-23832Y-18566D01*
X-23923Y-18627D01*
X-23984Y-18718D01*
X-24005Y-18825D01*
X-23984Y-18932D01*
X-23923Y-19023D01*
X-23869Y-19060D01*
X-22218Y-20711D01*
Y-20838D01*
X-22335Y-20887D01*
X-23936Y-19286D01*
X-24023Y-19228D01*
X-24040Y-19224D01*
X-24125Y-19207D01*
X-24125Y-19207D01*
X-24961D01*
X-25025Y-19195D01*
X-25132Y-19216D01*
X-25223Y-19277D01*
X-25284Y-19368D01*
X-25305Y-19475D01*
X-25284Y-19582D01*
X-25223Y-19673D01*
X-25132Y-19734D01*
X-25057Y-19749D01*
Y-19876D01*
X-25132Y-19891D01*
X-25223Y-19952D01*
X-25284Y-20043D01*
X-25284Y-20043D01*
Y-20043D01*
X-25307Y-20060D01*
X-25416Y-20018D01*
X-25477Y-19927D01*
X-25568Y-19866D01*
X-25675Y-19845D01*
X-25782Y-19866D01*
X-25873Y-19927D01*
X-25926Y-20006D01*
X-26053Y-20019D01*
X-26090Y-19981D01*
X-26127Y-19927D01*
X-26138Y-19816D01*
X-25111Y-18789D01*
X-25111Y-18789D01*
X-25053Y-18702D01*
X-25032Y-18600D01*
Y-17611D01*
X-24481Y-17060D01*
X-24427Y-17023D01*
X-24366Y-16932D01*
X-24345Y-16825D01*
X-24366Y-16718D01*
X-24427Y-16627D01*
X-24518Y-16566D01*
X-24625Y-16545D01*
X-24732Y-16566D01*
X-24823Y-16627D01*
X-24860Y-16681D01*
X-25140Y-16962D01*
X-25257Y-16913D01*
Y-16889D01*
X-25245Y-16825D01*
X-25266Y-16718D01*
X-25327Y-16627D01*
X-25418Y-16566D01*
X-25525Y-16545D01*
X-25632Y-16566D01*
X-25723Y-16627D01*
X-25784Y-16718D01*
X-25805Y-16825D01*
X-25793Y-16889D01*
Y-18391D01*
X-27689Y-20288D01*
X-27807Y-20209D01*
Y-17886D01*
X-24372Y-14450D01*
X-24250Y-14487D01*
X-24228Y-14596D01*
X-24145Y-14720D01*
X-24021Y-14803D01*
X-23875Y-14832D01*
X-23729Y-14803D01*
X-23605Y-14720D01*
X-23522Y-14596D01*
X-23493Y-14450D01*
X-23522Y-14304D01*
X-23605Y-14180D01*
X-23729Y-14097D01*
X-23838Y-14075D01*
X-23875Y-13953D01*
X-23789Y-13868D01*
X-22050D01*
X-22050Y-13868D01*
X-21965Y-13851D01*
X-21948Y-13847D01*
X-21861Y-13789D01*
X-21861Y-13789D01*
X-21861Y-13789D01*
X-21850Y-13778D01*
X-21723Y-13791D01*
D02*
G37*
G36*
X-17018Y-59161D02*
Y-60553D01*
X-17130Y-60613D01*
X-17229Y-60547D01*
X-17375Y-60518D01*
X-17378Y-60518D01*
X-18086Y-59811D01*
X-18173Y-59753D01*
X-18190Y-59749D01*
X-18275Y-59732D01*
X-18275Y-59732D01*
X-21464D01*
X-21753Y-59443D01*
X-21705Y-59326D01*
X-21400D01*
Y-59525D01*
X-19750D01*
Y-59025D01*
Y-58525D01*
X-21338D01*
X-21343Y-58520D01*
X-21369Y-58386D01*
X-21289Y-58288D01*
X-17891D01*
X-17018Y-59161D01*
D02*
G37*
G36*
X-28718Y-14995D02*
Y-16639D01*
X-32639Y-20561D01*
X-32697Y-20648D01*
X-32701Y-20665D01*
X-32718Y-20750D01*
X-32718Y-20750D01*
Y-27628D01*
X-32720Y-27630D01*
X-32803Y-27754D01*
X-32832Y-27900D01*
X-32803Y-28046D01*
X-32720Y-28170D01*
X-32596Y-28253D01*
X-32450Y-28282D01*
X-32304Y-28253D01*
X-32180Y-28170D01*
X-32097Y-28046D01*
X-32068Y-27900D01*
X-32097Y-27754D01*
X-32180Y-27630D01*
X-32182Y-27628D01*
Y-21638D01*
X-32071Y-21578D01*
X-31925Y-21607D01*
X-31779Y-21578D01*
X-31655Y-21495D01*
X-31572Y-21371D01*
X-31543Y-21225D01*
X-31572Y-21079D01*
X-31655Y-20955D01*
X-31779Y-20872D01*
X-31925Y-20843D01*
X-32009Y-20859D01*
X-32069Y-20747D01*
X-30510Y-19188D01*
X-30416Y-19170D01*
X-30318Y-19250D01*
Y-22400D01*
X-30318Y-22400D01*
X-30301Y-22485D01*
X-30297Y-22502D01*
X-30239Y-22589D01*
X-30239Y-22589D01*
X-30239Y-22589D01*
D01*
X-30239D01*
Y-22589D01*
D01*
X-29010Y-23819D01*
X-28973Y-23873D01*
X-28882Y-23934D01*
X-28775Y-23955D01*
X-28668Y-23934D01*
X-28577Y-23873D01*
X-28516Y-23782D01*
X-28502Y-23710D01*
X-28380Y-23673D01*
X-28293Y-23761D01*
Y-24164D01*
X-29714Y-25586D01*
X-29772Y-25673D01*
X-29776Y-25690D01*
X-29793Y-25775D01*
X-29793Y-25775D01*
Y-26030D01*
X-29919Y-26042D01*
X-29922Y-26029D01*
X-30005Y-25905D01*
X-30129Y-25822D01*
X-30275Y-25793D01*
X-30421Y-25822D01*
X-30545Y-25905D01*
X-30628Y-26029D01*
X-30657Y-26175D01*
X-30657Y-26178D01*
X-31639Y-27161D01*
X-31697Y-27248D01*
X-31701Y-27265D01*
X-31718Y-27350D01*
X-31718Y-27350D01*
Y-43650D01*
X-32100D01*
Y-44300D01*
X-32200D01*
Y-44400D01*
X-32700D01*
Y-44950D01*
Y-46050D01*
X-32531D01*
Y-46245D01*
X-32603Y-46354D01*
X-32632Y-46500D01*
X-32603Y-46646D01*
X-32574Y-46691D01*
X-32633Y-46803D01*
X-32957D01*
Y-42816D01*
X-32859Y-42736D01*
X-32825Y-42743D01*
X-32647D01*
X-32645Y-42745D01*
X-32521Y-42828D01*
X-32375Y-42857D01*
X-32229Y-42828D01*
X-32105Y-42745D01*
X-32022Y-42621D01*
X-31993Y-42475D01*
X-32022Y-42329D01*
X-32105Y-42205D01*
X-32229Y-42122D01*
X-32375Y-42093D01*
X-32521Y-42122D01*
X-32570Y-42155D01*
X-32682Y-42095D01*
Y-40550D01*
X-32703Y-40448D01*
X-32761Y-40361D01*
X-32761Y-40361D01*
X-33082Y-40039D01*
Y-20636D01*
X-29011Y-16564D01*
X-29011Y-16564D01*
X-28953Y-16477D01*
X-28953Y-16477D01*
X-28953Y-16477D01*
X-28932Y-16375D01*
X-28932Y-16375D01*
Y-15122D01*
X-28930Y-15120D01*
X-28847Y-14996D01*
X-28844Y-14983D01*
X-28718Y-14995D01*
D02*
G37*
G36*
X-26523Y-20323D02*
X-26469Y-20360D01*
X-26218Y-20611D01*
Y-25284D01*
X-26339Y-25321D01*
X-26352Y-25302D01*
X-26443Y-25241D01*
X-26550Y-25220D01*
X-26657Y-25241D01*
X-26748Y-25302D01*
X-26809Y-25393D01*
X-26830Y-25500D01*
X-26809Y-25607D01*
X-26748Y-25698D01*
X-26657Y-25759D01*
X-26550Y-25780D01*
X-26443Y-25759D01*
X-26352Y-25698D01*
X-26339Y-25679D01*
X-26218Y-25716D01*
Y-29514D01*
X-28397Y-31693D01*
X-28400Y-31693D01*
X-28546Y-31722D01*
X-28670Y-31805D01*
X-28753Y-31929D01*
X-28782Y-32075D01*
X-28753Y-32221D01*
X-28670Y-32345D01*
X-28546Y-32428D01*
X-28400Y-32457D01*
X-28254Y-32428D01*
X-28130Y-32345D01*
X-28047Y-32221D01*
X-28018Y-32075D01*
X-28018Y-32072D01*
X-26060Y-30113D01*
X-25943Y-30162D01*
Y-30514D01*
X-27122Y-31693D01*
X-27125Y-31693D01*
X-27271Y-31722D01*
X-27395Y-31805D01*
X-27478Y-31929D01*
X-27507Y-32075D01*
X-27478Y-32221D01*
X-27395Y-32345D01*
X-27271Y-32428D01*
X-27125Y-32457D01*
X-26979Y-32428D01*
X-26855Y-32345D01*
X-26772Y-32221D01*
X-26743Y-32075D01*
X-26743Y-32072D01*
X-25486Y-30814D01*
X-25486Y-30814D01*
X-25428Y-30727D01*
X-25424Y-30710D01*
X-25407Y-30625D01*
X-25407Y-30625D01*
Y-29597D01*
X-25295Y-29537D01*
X-25196Y-29603D01*
X-25050Y-29632D01*
X-24904Y-29603D01*
X-24780Y-29520D01*
X-24697Y-29396D01*
X-24668Y-29250D01*
X-24697Y-29104D01*
X-24780Y-28980D01*
X-24782Y-28978D01*
Y-28586D01*
X-24503Y-28307D01*
X-24500Y-28307D01*
X-24354Y-28278D01*
X-24328Y-28261D01*
X-24216Y-28321D01*
Y-36262D01*
X-24647Y-36693D01*
X-24650Y-36693D01*
X-24796Y-36722D01*
X-24920Y-36805D01*
X-25003Y-36929D01*
X-25032Y-37075D01*
X-25003Y-37221D01*
X-24920Y-37345D01*
X-24796Y-37428D01*
X-24650Y-37457D01*
X-24504Y-37428D01*
X-24380Y-37345D01*
X-24297Y-37221D01*
X-24268Y-37075D01*
X-24268Y-37072D01*
X-23883Y-36687D01*
X-23766Y-36735D01*
Y-39953D01*
X-23769Y-39955D01*
X-23851Y-40079D01*
X-23881Y-40225D01*
X-23851Y-40371D01*
X-23769Y-40495D01*
X-23727Y-40523D01*
X-23764Y-40645D01*
X-24500D01*
X-24607Y-40666D01*
X-24698Y-40727D01*
X-28583Y-44611D01*
X-28700Y-44563D01*
Y-44350D01*
X-29200D01*
Y-44250D01*
X-29300D01*
Y-43600D01*
X-29482D01*
Y-36111D01*
X-29336Y-35964D01*
X-29336Y-35964D01*
X-29278Y-35877D01*
X-29274Y-35860D01*
X-29257Y-35775D01*
X-29257Y-35775D01*
Y-35522D01*
X-29255Y-35520D01*
X-29172Y-35396D01*
X-29143Y-35250D01*
X-29172Y-35104D01*
X-29255Y-34980D01*
X-29257Y-34978D01*
Y-26459D01*
X-29136Y-26422D01*
X-29120Y-26445D01*
X-28996Y-26528D01*
X-28850Y-26557D01*
X-28704Y-26528D01*
X-28580Y-26445D01*
X-28497Y-26321D01*
X-28468Y-26175D01*
X-28468Y-26172D01*
X-27960Y-25663D01*
X-27843Y-25712D01*
Y-25903D01*
X-27845Y-25905D01*
X-27928Y-26029D01*
X-27957Y-26175D01*
X-27928Y-26321D01*
X-27845Y-26445D01*
X-27721Y-26528D01*
X-27575Y-26557D01*
X-27429Y-26528D01*
X-27305Y-26445D01*
X-27222Y-26321D01*
X-27193Y-26175D01*
X-27222Y-26029D01*
X-27305Y-25905D01*
X-27307Y-25903D01*
Y-25611D01*
X-27086Y-25389D01*
X-27086Y-25389D01*
X-27028Y-25302D01*
X-27024Y-25285D01*
X-27007Y-25200D01*
X-27007Y-25200D01*
Y-20686D01*
X-26634Y-20312D01*
X-26523Y-20323D01*
D02*
G37*
G36*
X-22929Y-21050D02*
X-22989Y-21162D01*
X-23075Y-21145D01*
X-23182Y-21166D01*
X-23273Y-21227D01*
X-23310Y-21281D01*
X-23601Y-21572D01*
X-23727Y-21560D01*
X-23759Y-21513D01*
X-24107Y-21164D01*
Y-20839D01*
X-24095Y-20775D01*
X-24116Y-20668D01*
X-24177Y-20577D01*
X-24268Y-20516D01*
X-24375Y-20495D01*
X-24482Y-20516D01*
X-24573Y-20577D01*
X-24634Y-20668D01*
X-24655Y-20775D01*
X-24643Y-20839D01*
Y-21275D01*
X-24643Y-21275D01*
X-24626Y-21360D01*
X-24622Y-21377D01*
X-24564Y-21464D01*
X-24564Y-21464D01*
X-24564Y-21464D01*
X-24216Y-21813D01*
Y-27529D01*
X-24328Y-27589D01*
X-24354Y-27572D01*
X-24500Y-27543D01*
X-24646Y-27572D01*
X-24770Y-27655D01*
X-24853Y-27779D01*
X-24882Y-27925D01*
X-24882Y-27928D01*
X-25239Y-28286D01*
X-25286Y-28355D01*
X-25407Y-28319D01*
Y-21557D01*
X-25284Y-21532D01*
X-25223Y-21623D01*
X-25132Y-21684D01*
X-25025Y-21705D01*
X-24918Y-21684D01*
X-24827Y-21623D01*
X-24766Y-21532D01*
X-24745Y-21425D01*
X-24766Y-21318D01*
X-24827Y-21227D01*
X-24918Y-21166D01*
X-25025Y-21145D01*
X-25132Y-21166D01*
X-25223Y-21227D01*
X-25284Y-21318D01*
X-25407Y-21293D01*
Y-20282D01*
X-25284Y-20257D01*
X-25223Y-20348D01*
X-25132Y-20409D01*
X-25025Y-20430D01*
X-24918Y-20409D01*
X-24827Y-20348D01*
X-24766Y-20257D01*
X-24745Y-20150D01*
X-24766Y-20043D01*
X-24827Y-19952D01*
X-24918Y-19891D01*
X-24993Y-19876D01*
Y-19749D01*
X-24961Y-19743D01*
X-24236D01*
X-22929Y-21050D01*
D02*
G37*
G36*
X-24700Y-1062D02*
X-24798Y-1143D01*
X-24925Y-1118D01*
X-25071Y-1147D01*
X-25195Y-1230D01*
X-25278Y-1354D01*
X-25307Y-1500D01*
X-25278Y-1646D01*
X-25195Y-1770D01*
X-25071Y-1853D01*
X-24925Y-1882D01*
X-24798Y-1857D01*
X-24700Y-1938D01*
Y-3475D01*
X-24268D01*
Y-6325D01*
X-24700D01*
Y-8975D01*
X-24268D01*
Y-9375D01*
X-24775D01*
Y-9531D01*
X-24887Y-9591D01*
X-24954Y-9547D01*
X-25100Y-9518D01*
X-25246Y-9547D01*
X-25370Y-9630D01*
X-25453Y-9754D01*
X-25482Y-9900D01*
X-25453Y-10046D01*
X-25370Y-10170D01*
X-25246Y-10253D01*
X-25100Y-10282D01*
X-24954Y-10253D01*
X-24887Y-10209D01*
X-24775Y-10269D01*
Y-10425D01*
X-23575D01*
D01*
X-23575Y-10425D01*
X-23575Y-10425D01*
X-23575D01*
Y-10425D01*
Y-10425D01*
X-23368D01*
Y-10650D01*
X-24025D01*
Y-11150D01*
Y-11650D01*
X-23293D01*
Y-12014D01*
X-27990Y-16712D01*
X-28084Y-16730D01*
X-28182Y-16650D01*
Y-12750D01*
X-28203Y-12648D01*
X-28261Y-12561D01*
X-28261Y-12561D01*
X-30236Y-10586D01*
X-30323Y-10528D01*
X-30340Y-10524D01*
X-30425Y-10507D01*
X-30425Y-10507D01*
X-30700D01*
Y-10500D01*
X-30700D01*
Y-9730D01*
X-30694Y-9700D01*
Y-8975D01*
X-30300D01*
Y-6325D01*
X-30694D01*
Y-3475D01*
X-30300D01*
Y-1963D01*
X-30202Y-1882D01*
X-30075Y-1907D01*
X-29929Y-1878D01*
X-29805Y-1795D01*
X-29722Y-1671D01*
X-29693Y-1525D01*
X-29722Y-1379D01*
X-29805Y-1255D01*
X-29929Y-1172D01*
X-30075Y-1143D01*
X-30202Y-1168D01*
X-30300Y-1087D01*
Y-843D01*
X-28700D01*
Y-2050D01*
X-27300D01*
Y-843D01*
X-24700D01*
Y-1062D01*
D02*
G37*
G36*
X-35880Y-88798D02*
X-35831Y-88872D01*
Y-89998D01*
X-37766Y-91934D01*
X-37833Y-92033D01*
X-37856Y-92150D01*
X-37856Y-92150D01*
Y-92719D01*
X-37980Y-92743D01*
X-38060Y-92551D01*
X-38212Y-92352D01*
X-38411Y-92200D01*
X-38622Y-92113D01*
Y-91401D01*
X-36007Y-88785D01*
X-35880Y-88798D01*
D02*
G37*
G36*
X-18168Y-62436D02*
Y-79175D01*
X-18168Y-79175D01*
X-18151Y-79260D01*
X-18147Y-79277D01*
X-18089Y-79364D01*
X-16439Y-81014D01*
X-16439Y-81014D01*
X-16352Y-81072D01*
X-16335Y-81076D01*
X-16250Y-81093D01*
X-16250Y-81093D01*
X-7418D01*
X-7394Y-81217D01*
X-7449Y-81240D01*
X-7648Y-81392D01*
X-7800Y-81591D01*
X-7896Y-81822D01*
X-7928Y-82070D01*
X-7896Y-82318D01*
X-7800Y-82549D01*
X-7648Y-82748D01*
X-7449Y-82900D01*
X-7218Y-82996D01*
X-6970Y-83028D01*
X-6722Y-82996D01*
X-6491Y-82900D01*
X-6292Y-82748D01*
X-6140Y-82549D01*
X-6044Y-82318D01*
X-6012Y-82070D01*
X-6044Y-81822D01*
X-6140Y-81591D01*
X-6292Y-81392D01*
X-6491Y-81240D01*
X-6546Y-81217D01*
X-6522Y-81093D01*
X-5725D01*
X-5725Y-81093D01*
X-5640Y-81076D01*
X-5623Y-81072D01*
X-5536Y-81014D01*
X-4889Y-80368D01*
X-4678Y-80456D01*
X-4430Y-80488D01*
X-4182Y-80456D01*
X-3951Y-80360D01*
X-3752Y-80208D01*
X-3600Y-80009D01*
X-3504Y-79778D01*
X-3472Y-79530D01*
X-3504Y-79282D01*
X-3600Y-79051D01*
X-3743Y-78865D01*
X-3648Y-78781D01*
X-3318Y-79111D01*
Y-88214D01*
X-4186Y-89082D01*
X-6025D01*
Y-88825D01*
X-7135D01*
X-7135Y-88825D01*
Y-88825D01*
X-7225Y-88825D01*
X-7225D01*
D01*
X-7315Y-88825D01*
X-7315Y-88825D01*
Y-88825D01*
X-8425D01*
Y-89082D01*
X-8525D01*
X-8627Y-89103D01*
X-8714Y-89161D01*
X-8714Y-89161D01*
X-9247Y-89693D01*
X-9250Y-89693D01*
X-9396Y-89722D01*
X-9520Y-89805D01*
X-9603Y-89929D01*
X-9632Y-90075D01*
X-9603Y-90221D01*
X-9520Y-90345D01*
X-9396Y-90428D01*
X-9250Y-90457D01*
X-9247Y-90457D01*
X-8814Y-90889D01*
X-8814Y-90889D01*
X-8727Y-90947D01*
X-8710Y-90951D01*
X-8625Y-90968D01*
X-8625Y-90968D01*
X-8425D01*
Y-91225D01*
X-7315D01*
X-7315Y-91225D01*
Y-91225D01*
X-7225Y-91225D01*
X-7225D01*
D01*
X-7135Y-91225D01*
X-7135Y-91225D01*
Y-91225D01*
X-6025D01*
Y-90968D01*
X-4750D01*
X-4750Y-90968D01*
X-4665Y-90951D01*
X-4648Y-90947D01*
X-4561Y-90889D01*
X-2635Y-88963D01*
X-2518Y-89012D01*
Y-89939D01*
X-9711Y-97132D01*
X-22607D01*
X-22686Y-97014D01*
X-22211Y-96539D01*
X-22211Y-96539D01*
X-22153Y-96452D01*
X-22132Y-96350D01*
Y-95910D01*
X-22008Y-95885D01*
X-21940Y-96049D01*
X-21788Y-96248D01*
X-21589Y-96400D01*
X-21358Y-96496D01*
X-21110Y-96528D01*
X-20862Y-96496D01*
X-20631Y-96400D01*
X-20432Y-96248D01*
X-20280Y-96049D01*
X-20184Y-95818D01*
X-20152Y-95570D01*
X-20184Y-95322D01*
X-20280Y-95091D01*
X-20432Y-94892D01*
X-20631Y-94740D01*
X-20862Y-94644D01*
X-21110Y-94612D01*
X-21358Y-94644D01*
X-21589Y-94740D01*
X-21788Y-94892D01*
X-21940Y-95091D01*
X-22008Y-95255D01*
X-22132Y-95230D01*
Y-93370D01*
X-22008Y-93345D01*
X-21940Y-93509D01*
X-21788Y-93708D01*
X-21589Y-93860D01*
X-21358Y-93956D01*
X-21110Y-93988D01*
X-20862Y-93956D01*
X-20631Y-93860D01*
X-20432Y-93708D01*
X-20280Y-93509D01*
X-20184Y-93278D01*
X-20152Y-93030D01*
X-20184Y-92782D01*
X-20280Y-92551D01*
X-20432Y-92352D01*
X-20631Y-92200D01*
X-20862Y-92104D01*
X-21110Y-92072D01*
X-21358Y-92104D01*
X-21589Y-92200D01*
X-21788Y-92352D01*
X-21940Y-92551D01*
X-22008Y-92715D01*
X-22132Y-92690D01*
Y-92250D01*
X-22153Y-92148D01*
X-22211Y-92061D01*
X-22211Y-92061D01*
X-26732Y-87539D01*
Y-75161D01*
X-18686Y-67114D01*
X-18686Y-67114D01*
X-18628Y-67027D01*
X-18607Y-66925D01*
Y-63700D01*
X-18607Y-63700D01*
X-18628Y-63598D01*
X-18686Y-63511D01*
X-18686Y-63511D01*
X-20361Y-61836D01*
X-20448Y-61778D01*
X-20465Y-61774D01*
X-20550Y-61757D01*
X-20550Y-61757D01*
X-22008D01*
Y-61347D01*
Y-61288D01*
X-19316D01*
X-18168Y-62436D01*
D02*
G37*
%LPC*%
G36*
X-41530Y-93130D02*
X-42476D01*
X-42453Y-93304D01*
X-42347Y-93560D01*
X-42179Y-93779D01*
X-41960Y-93947D01*
X-41704Y-94053D01*
X-41530Y-94076D01*
Y-93130D01*
D02*
G37*
G36*
X-4430Y-50632D02*
X-4678Y-50664D01*
X-4909Y-50760D01*
X-5108Y-50912D01*
X-5260Y-51111D01*
X-5356Y-51342D01*
X-5388Y-51590D01*
X-5356Y-51838D01*
X-5260Y-52069D01*
X-5108Y-52268D01*
X-4909Y-52420D01*
X-4678Y-52516D01*
X-4430Y-52548D01*
X-4182Y-52516D01*
X-3951Y-52420D01*
X-3752Y-52268D01*
X-3600Y-52069D01*
X-3504Y-51838D01*
X-3472Y-51590D01*
X-3504Y-51342D01*
X-3600Y-51111D01*
X-3752Y-50912D01*
X-3951Y-50760D01*
X-4182Y-50664D01*
X-4430Y-50632D01*
D02*
G37*
G36*
X-7070Y-51690D02*
X-8016D01*
X-7993Y-51864D01*
X-7887Y-52120D01*
X-7719Y-52339D01*
X-7500Y-52507D01*
X-7244Y-52613D01*
X-7070Y-52636D01*
Y-51690D01*
D02*
G37*
G36*
X-5924D02*
X-6870D01*
Y-52636D01*
X-6696Y-52613D01*
X-6440Y-52507D01*
X-6221Y-52339D01*
X-6053Y-52120D01*
X-5947Y-51864D01*
X-5924Y-51690D01*
D02*
G37*
G36*
X-7070Y-50544D02*
X-7244Y-50567D01*
X-7500Y-50673D01*
X-7719Y-50841D01*
X-7887Y-51060D01*
X-7993Y-51316D01*
X-8016Y-51490D01*
X-7070D01*
Y-50544D01*
D02*
G37*
G36*
X-18670Y-94524D02*
X-18844Y-94547D01*
X-19100Y-94653D01*
X-19319Y-94821D01*
X-19487Y-95040D01*
X-19593Y-95296D01*
X-19616Y-95470D01*
X-18670D01*
Y-94524D01*
D02*
G37*
G36*
X-42348Y-51800D02*
X-42898D01*
Y-52200D01*
X-42348D01*
Y-51800D01*
D02*
G37*
G36*
X-18470Y-94524D02*
Y-95470D01*
X-17524D01*
X-17547Y-95296D01*
X-17653Y-95040D01*
X-17821Y-94821D01*
X-18040Y-94653D01*
X-18296Y-94547D01*
X-18470Y-94524D01*
D02*
G37*
G36*
X-19000Y-52025D02*
X-19550D01*
Y-52425D01*
X-19000D01*
Y-52025D01*
D02*
G37*
G36*
X-17620Y-92080D02*
X-19520D01*
Y-93980D01*
X-17620D01*
Y-92080D01*
D02*
G37*
G36*
X-44050Y-54075D02*
X-44625D01*
Y-55050D01*
X-44050D01*
Y-54075D01*
D02*
G37*
G36*
X-42397Y-53175D02*
X-42878D01*
Y-53656D01*
X-42397D01*
Y-53175D01*
D02*
G37*
G36*
X-42348Y-56550D02*
X-42898D01*
Y-56950D01*
X-42348D01*
Y-56550D01*
D02*
G37*
G36*
X-44050Y-55250D02*
X-44625D01*
Y-56225D01*
X-44050D01*
Y-55250D01*
D02*
G37*
G36*
X-41530Y-91984D02*
X-41704Y-92007D01*
X-41960Y-92113D01*
X-42179Y-92281D01*
X-42347Y-92500D01*
X-42453Y-92756D01*
X-42476Y-92930D01*
X-41530D01*
Y-91984D01*
D02*
G37*
G36*
X-42397Y-52494D02*
X-42878D01*
Y-52975D01*
X-42397D01*
Y-52494D01*
D02*
G37*
G36*
X-41716D02*
X-42197D01*
Y-52975D01*
X-41716D01*
Y-52494D01*
D02*
G37*
G36*
Y-53175D02*
X-42197D01*
Y-53656D01*
X-41716D01*
Y-53175D01*
D02*
G37*
G36*
X-4475Y-53243D02*
X-4621Y-53272D01*
X-4745Y-53355D01*
X-4747Y-53357D01*
X-8103D01*
X-8105Y-53355D01*
X-8229Y-53272D01*
X-8375Y-53243D01*
X-8521Y-53272D01*
X-8645Y-53355D01*
X-8728Y-53479D01*
X-8757Y-53625D01*
X-8728Y-53771D01*
X-8645Y-53895D01*
X-8521Y-53978D01*
X-8375Y-54007D01*
X-8229Y-53978D01*
X-8105Y-53895D01*
X-8103Y-53893D01*
X-4747D01*
X-4745Y-53895D01*
X-4621Y-53978D01*
X-4475Y-54007D01*
X-4329Y-53978D01*
X-4205Y-53895D01*
X-4122Y-53771D01*
X-4093Y-53625D01*
X-4122Y-53479D01*
X-4205Y-53355D01*
X-4329Y-53272D01*
X-4475Y-53243D01*
D02*
G37*
G36*
X-32300Y-43650D02*
X-32700D01*
Y-44200D01*
X-32300D01*
Y-43650D01*
D02*
G37*
G36*
X-28700Y-43600D02*
X-29100D01*
Y-44150D01*
X-28700D01*
Y-43600D01*
D02*
G37*
G36*
X-17524Y-95670D02*
X-18470D01*
Y-96616D01*
X-18296Y-96593D01*
X-18040Y-96487D01*
X-17821Y-96319D01*
X-17653Y-96100D01*
X-17547Y-95844D01*
X-17524Y-95670D01*
D02*
G37*
G36*
X-42348Y-45900D02*
X-42898D01*
Y-46300D01*
X-42348D01*
Y-45900D01*
D02*
G37*
G36*
X-4430Y-43012D02*
X-4678Y-43044D01*
X-4909Y-43140D01*
X-5108Y-43292D01*
X-5260Y-43491D01*
X-5356Y-43722D01*
X-5388Y-43970D01*
X-5356Y-44218D01*
X-5260Y-44449D01*
X-5108Y-44648D01*
X-4909Y-44800D01*
X-4678Y-44896D01*
X-4430Y-44928D01*
X-4182Y-44896D01*
X-3951Y-44800D01*
X-3752Y-44648D01*
X-3600Y-44449D01*
X-3504Y-44218D01*
X-3472Y-43970D01*
X-3504Y-43722D01*
X-3600Y-43491D01*
X-3752Y-43292D01*
X-3951Y-43140D01*
X-4182Y-43044D01*
X-4430Y-43012D01*
D02*
G37*
G36*
X-18670Y-95670D02*
X-19616D01*
X-19593Y-95844D01*
X-19487Y-96100D01*
X-19319Y-96319D01*
X-19100Y-96487D01*
X-18844Y-96593D01*
X-18670Y-96616D01*
Y-95670D01*
D02*
G37*
G36*
X-39050Y-41200D02*
X-39600D01*
Y-41600D01*
X-39050D01*
Y-41200D01*
D02*
G37*
G36*
X-39900Y-42950D02*
X-40300D01*
Y-43500D01*
X-39900D01*
Y-42950D01*
D02*
G37*
G36*
X-37550Y-42100D02*
X-39550D01*
Y-43800D01*
X-37550D01*
Y-42100D01*
D02*
G37*
G36*
X-40500Y-42950D02*
X-40900D01*
Y-43500D01*
X-40500D01*
Y-42950D01*
D02*
G37*
G36*
X-42348Y-46500D02*
X-42898D01*
Y-46900D01*
X-42348D01*
Y-46500D01*
D02*
G37*
G36*
X-42473Y-48550D02*
X-42873D01*
Y-48900D01*
X-42473D01*
Y-48550D01*
D02*
G37*
G36*
X-42348Y-47800D02*
X-42898D01*
Y-48200D01*
X-42348D01*
Y-47800D01*
D02*
G37*
G36*
X-4430Y-48092D02*
X-4678Y-48124D01*
X-4909Y-48220D01*
X-5108Y-48372D01*
X-5260Y-48571D01*
X-5356Y-48802D01*
X-5388Y-49050D01*
X-5356Y-49298D01*
X-5260Y-49529D01*
X-5108Y-49728D01*
X-4909Y-49880D01*
X-4678Y-49976D01*
X-4430Y-50008D01*
X-4182Y-49976D01*
X-3951Y-49880D01*
X-3752Y-49728D01*
X-3600Y-49529D01*
X-3504Y-49298D01*
X-3472Y-49050D01*
X-3504Y-48802D01*
X-3600Y-48571D01*
X-3752Y-48372D01*
X-3951Y-48220D01*
X-4182Y-48124D01*
X-4430Y-48092D01*
D02*
G37*
G36*
X-6870Y-50544D02*
Y-51490D01*
X-5924D01*
X-5947Y-51316D01*
X-6053Y-51060D01*
X-6221Y-50841D01*
X-6440Y-50673D01*
X-6696Y-50567D01*
X-6870Y-50544D01*
D02*
G37*
G36*
X-6970Y-48092D02*
X-7218Y-48124D01*
X-7449Y-48220D01*
X-7648Y-48372D01*
X-7800Y-48571D01*
X-7896Y-48802D01*
X-7928Y-49050D01*
X-7896Y-49298D01*
X-7800Y-49529D01*
X-7648Y-49728D01*
X-7449Y-49880D01*
X-7218Y-49976D01*
X-6970Y-50008D01*
X-6722Y-49976D01*
X-6491Y-49880D01*
X-6292Y-49728D01*
X-6140Y-49529D01*
X-6044Y-49298D01*
X-6012Y-49050D01*
X-6044Y-48802D01*
X-6140Y-48571D01*
X-6292Y-48372D01*
X-6491Y-48220D01*
X-6722Y-48124D01*
X-6970Y-48092D01*
D02*
G37*
G36*
X-4430Y-45552D02*
X-4678Y-45584D01*
X-4909Y-45680D01*
X-5108Y-45832D01*
X-5260Y-46031D01*
X-5356Y-46262D01*
X-5388Y-46510D01*
X-5356Y-46758D01*
X-5260Y-46989D01*
X-5108Y-47188D01*
X-4909Y-47340D01*
X-4678Y-47436D01*
X-4430Y-47468D01*
X-4182Y-47436D01*
X-3951Y-47340D01*
X-3752Y-47188D01*
X-3600Y-46989D01*
X-3504Y-46758D01*
X-3472Y-46510D01*
X-3504Y-46262D01*
X-3600Y-46031D01*
X-3752Y-45832D01*
X-3951Y-45680D01*
X-4182Y-45584D01*
X-4430Y-45552D01*
D02*
G37*
G36*
X-56508Y-45552D02*
X-56756Y-45584D01*
X-56987Y-45680D01*
X-57186Y-45832D01*
X-57338Y-46031D01*
X-57434Y-46262D01*
X-57466Y-46510D01*
X-57434Y-46758D01*
X-57338Y-46989D01*
X-57186Y-47188D01*
X-56987Y-47340D01*
X-56756Y-47436D01*
X-56508Y-47468D01*
X-56260Y-47436D01*
X-56029Y-47340D01*
X-55830Y-47188D01*
X-55678Y-46989D01*
X-55582Y-46758D01*
X-55550Y-46510D01*
X-55582Y-46262D01*
X-55678Y-46031D01*
X-55830Y-45832D01*
X-56029Y-45680D01*
X-56260Y-45584D01*
X-56508Y-45552D01*
D02*
G37*
G36*
X-6970Y-45552D02*
X-7218Y-45584D01*
X-7449Y-45680D01*
X-7648Y-45832D01*
X-7800Y-46031D01*
X-7896Y-46262D01*
X-7928Y-46510D01*
X-7896Y-46758D01*
X-7800Y-46989D01*
X-7648Y-47188D01*
X-7449Y-47340D01*
X-7218Y-47436D01*
X-6970Y-47468D01*
X-6722Y-47436D01*
X-6491Y-47340D01*
X-6292Y-47188D01*
X-6140Y-46989D01*
X-6044Y-46758D01*
X-6012Y-46510D01*
X-6044Y-46262D01*
X-6140Y-46031D01*
X-6292Y-45832D01*
X-6491Y-45680D01*
X-6722Y-45584D01*
X-6970Y-45552D01*
D02*
G37*
G36*
X-28730Y-94612D02*
X-28978Y-94644D01*
X-29209Y-94740D01*
X-29408Y-94892D01*
X-29560Y-95091D01*
X-29656Y-95322D01*
X-29688Y-95570D01*
X-29656Y-95818D01*
X-29560Y-96049D01*
X-29408Y-96248D01*
X-29209Y-96400D01*
X-28978Y-96496D01*
X-28730Y-96528D01*
X-28482Y-96496D01*
X-28251Y-96400D01*
X-28052Y-96248D01*
X-27900Y-96049D01*
X-27804Y-95818D01*
X-27772Y-95570D01*
X-27804Y-95322D01*
X-27900Y-95091D01*
X-28052Y-94892D01*
X-28251Y-94740D01*
X-28482Y-94644D01*
X-28730Y-94612D01*
D02*
G37*
G36*
X-42348Y-47200D02*
X-42898D01*
Y-47600D01*
X-42348D01*
Y-47200D01*
D02*
G37*
G36*
X-4430Y-68412D02*
X-4678Y-68444D01*
X-4909Y-68540D01*
X-5108Y-68692D01*
X-5260Y-68891D01*
X-5356Y-69122D01*
X-5388Y-69370D01*
X-5356Y-69618D01*
X-5260Y-69849D01*
X-5108Y-70048D01*
X-4909Y-70200D01*
X-4678Y-70296D01*
X-4430Y-70328D01*
X-4182Y-70296D01*
X-3951Y-70200D01*
X-3752Y-70048D01*
X-3600Y-69849D01*
X-3504Y-69618D01*
X-3472Y-69370D01*
X-3504Y-69122D01*
X-3600Y-68891D01*
X-3752Y-68692D01*
X-3951Y-68540D01*
X-4182Y-68444D01*
X-4430Y-68412D01*
D02*
G37*
G36*
X-27825Y-69375D02*
X-28375D01*
Y-69775D01*
X-27825D01*
Y-69375D01*
D02*
G37*
G36*
X-6970Y-68412D02*
X-7218Y-68444D01*
X-7449Y-68540D01*
X-7648Y-68692D01*
X-7800Y-68891D01*
X-7896Y-69122D01*
X-7928Y-69370D01*
X-7896Y-69618D01*
X-7800Y-69849D01*
X-7648Y-70048D01*
X-7449Y-70200D01*
X-7218Y-70296D01*
X-6970Y-70328D01*
X-6722Y-70296D01*
X-6491Y-70200D01*
X-6292Y-70048D01*
X-6140Y-69849D01*
X-6044Y-69618D01*
X-6012Y-69370D01*
X-6044Y-69122D01*
X-6140Y-68891D01*
X-6292Y-68692D01*
X-6491Y-68540D01*
X-6722Y-68444D01*
X-6970Y-68412D01*
D02*
G37*
G36*
X-27825Y-69975D02*
X-28375D01*
Y-70375D01*
X-27825D01*
Y-69975D01*
D02*
G37*
G36*
X-56508Y-68412D02*
X-56756Y-68444D01*
X-56987Y-68540D01*
X-57186Y-68692D01*
X-57338Y-68891D01*
X-57434Y-69122D01*
X-57466Y-69370D01*
X-57434Y-69618D01*
X-57338Y-69849D01*
X-57186Y-70048D01*
X-56987Y-70200D01*
X-56756Y-70296D01*
X-56508Y-70328D01*
X-56260Y-70296D01*
X-56029Y-70200D01*
X-55830Y-70048D01*
X-55678Y-69849D01*
X-55582Y-69618D01*
X-55550Y-69370D01*
X-55582Y-69122D01*
X-55678Y-68891D01*
X-55830Y-68692D01*
X-56029Y-68540D01*
X-56260Y-68444D01*
X-56508Y-68412D01*
D02*
G37*
G36*
Y-65872D02*
X-56756Y-65904D01*
X-56987Y-66000D01*
X-57186Y-66152D01*
X-57338Y-66351D01*
X-57434Y-66582D01*
X-57466Y-66830D01*
X-57434Y-67078D01*
X-57338Y-67309D01*
X-57186Y-67508D01*
X-56987Y-67660D01*
X-56756Y-67756D01*
X-56508Y-67788D01*
X-56260Y-67756D01*
X-56029Y-67660D01*
X-55830Y-67508D01*
X-55678Y-67309D01*
X-55582Y-67078D01*
X-55550Y-66830D01*
X-55582Y-66582D01*
X-55678Y-66351D01*
X-55830Y-66152D01*
X-56029Y-66000D01*
X-56260Y-65904D01*
X-56508Y-65872D01*
D02*
G37*
G36*
X-6970D02*
X-7218Y-65904D01*
X-7449Y-66000D01*
X-7648Y-66152D01*
X-7800Y-66351D01*
X-7896Y-66582D01*
X-7928Y-66830D01*
X-7896Y-67078D01*
X-7800Y-67309D01*
X-7648Y-67508D01*
X-7449Y-67660D01*
X-7218Y-67756D01*
X-6970Y-67788D01*
X-6722Y-67756D01*
X-6491Y-67660D01*
X-6292Y-67508D01*
X-6140Y-67309D01*
X-6044Y-67078D01*
X-6012Y-66830D01*
X-6044Y-66582D01*
X-6140Y-66351D01*
X-6292Y-66152D01*
X-6491Y-66000D01*
X-6722Y-65904D01*
X-6970Y-65872D01*
D02*
G37*
G36*
X-36300Y-67425D02*
X-36700D01*
Y-67975D01*
X-36300D01*
Y-67425D01*
D02*
G37*
G36*
X-28050Y-67050D02*
X-29400D01*
Y-68650D01*
X-28050D01*
Y-67050D01*
D02*
G37*
G36*
X-36900Y-67425D02*
X-37300D01*
Y-67975D01*
X-36900D01*
Y-67425D01*
D02*
G37*
G36*
X-56508Y-78572D02*
X-56756Y-78604D01*
X-56987Y-78700D01*
X-57186Y-78852D01*
X-57338Y-79051D01*
X-57434Y-79282D01*
X-57466Y-79530D01*
X-57434Y-79778D01*
X-57338Y-80009D01*
X-57186Y-80208D01*
X-56987Y-80360D01*
X-56756Y-80456D01*
X-56508Y-80488D01*
X-56260Y-80456D01*
X-56029Y-80360D01*
X-55830Y-80208D01*
X-55678Y-80009D01*
X-55582Y-79778D01*
X-55550Y-79530D01*
X-55582Y-79282D01*
X-55678Y-79051D01*
X-55830Y-78852D01*
X-56029Y-78700D01*
X-56260Y-78604D01*
X-56508Y-78572D01*
D02*
G37*
G36*
X-6970Y-83652D02*
X-7218Y-83684D01*
X-7449Y-83780D01*
X-7648Y-83932D01*
X-7800Y-84131D01*
X-7896Y-84362D01*
X-7928Y-84610D01*
X-7896Y-84858D01*
X-7800Y-85089D01*
X-7648Y-85288D01*
X-7449Y-85440D01*
X-7218Y-85536D01*
X-6970Y-85568D01*
X-6722Y-85536D01*
X-6491Y-85440D01*
X-6292Y-85288D01*
X-6140Y-85089D01*
X-6044Y-84858D01*
X-6012Y-84610D01*
X-6044Y-84362D01*
X-6140Y-84131D01*
X-6292Y-83932D01*
X-6491Y-83780D01*
X-6722Y-83684D01*
X-6970Y-83652D01*
D02*
G37*
G36*
X-4430Y-81112D02*
X-4678Y-81144D01*
X-4909Y-81240D01*
X-5108Y-81392D01*
X-5260Y-81591D01*
X-5356Y-81822D01*
X-5388Y-82070D01*
X-5356Y-82318D01*
X-5260Y-82549D01*
X-5108Y-82748D01*
X-4909Y-82900D01*
X-4678Y-82996D01*
X-4430Y-83028D01*
X-4182Y-82996D01*
X-3951Y-82900D01*
X-3752Y-82748D01*
X-3600Y-82549D01*
X-3504Y-82318D01*
X-3472Y-82070D01*
X-3504Y-81822D01*
X-3600Y-81591D01*
X-3752Y-81392D01*
X-3951Y-81240D01*
X-4182Y-81144D01*
X-4430Y-81112D01*
D02*
G37*
G36*
Y-83652D02*
X-4678Y-83684D01*
X-4909Y-83780D01*
X-5108Y-83932D01*
X-5260Y-84131D01*
X-5356Y-84362D01*
X-5388Y-84610D01*
X-5356Y-84858D01*
X-5260Y-85089D01*
X-5108Y-85288D01*
X-4909Y-85440D01*
X-4678Y-85536D01*
X-4430Y-85568D01*
X-4182Y-85536D01*
X-3951Y-85440D01*
X-3752Y-85288D01*
X-3600Y-85089D01*
X-3504Y-84858D01*
X-3472Y-84610D01*
X-3504Y-84362D01*
X-3600Y-84131D01*
X-3752Y-83932D01*
X-3951Y-83780D01*
X-4182Y-83684D01*
X-4430Y-83652D01*
D02*
G37*
G36*
X-56508Y-81112D02*
X-56756Y-81144D01*
X-56987Y-81240D01*
X-57186Y-81392D01*
X-57338Y-81591D01*
X-57434Y-81822D01*
X-57466Y-82070D01*
X-57434Y-82318D01*
X-57338Y-82549D01*
X-57186Y-82748D01*
X-56987Y-82900D01*
X-56756Y-82996D01*
X-56508Y-83028D01*
X-56260Y-82996D01*
X-56029Y-82900D01*
X-55830Y-82748D01*
X-55678Y-82549D01*
X-55582Y-82318D01*
X-55550Y-82070D01*
X-55582Y-81822D01*
X-55678Y-81591D01*
X-55830Y-81392D01*
X-56029Y-81240D01*
X-56260Y-81144D01*
X-56508Y-81112D01*
D02*
G37*
G36*
Y-70952D02*
X-56756Y-70984D01*
X-56987Y-71080D01*
X-57186Y-71232D01*
X-57338Y-71431D01*
X-57434Y-71662D01*
X-57466Y-71910D01*
X-57434Y-72158D01*
X-57338Y-72389D01*
X-57186Y-72588D01*
X-56987Y-72740D01*
X-56756Y-72836D01*
X-56508Y-72868D01*
X-56260Y-72836D01*
X-56029Y-72740D01*
X-55830Y-72588D01*
X-55678Y-72389D01*
X-55582Y-72158D01*
X-55550Y-71910D01*
X-55582Y-71662D01*
X-55678Y-71431D01*
X-55830Y-71232D01*
X-56029Y-71080D01*
X-56260Y-70984D01*
X-56508Y-70952D01*
D02*
G37*
G36*
X-6970D02*
X-7218Y-70984D01*
X-7449Y-71080D01*
X-7648Y-71232D01*
X-7800Y-71431D01*
X-7896Y-71662D01*
X-7928Y-71910D01*
X-7896Y-72158D01*
X-7800Y-72389D01*
X-7648Y-72588D01*
X-7449Y-72740D01*
X-7218Y-72836D01*
X-6970Y-72868D01*
X-6722Y-72836D01*
X-6491Y-72740D01*
X-6292Y-72588D01*
X-6140Y-72389D01*
X-6044Y-72158D01*
X-6012Y-71910D01*
X-6044Y-71662D01*
X-6140Y-71431D01*
X-6292Y-71232D01*
X-6491Y-71080D01*
X-6722Y-70984D01*
X-6970Y-70952D01*
D02*
G37*
G36*
X-56508Y-73492D02*
X-56756Y-73524D01*
X-56987Y-73620D01*
X-57186Y-73772D01*
X-57338Y-73971D01*
X-57434Y-74202D01*
X-57466Y-74450D01*
X-57434Y-74698D01*
X-57338Y-74929D01*
X-57186Y-75128D01*
X-56987Y-75280D01*
X-56756Y-75376D01*
X-56508Y-75408D01*
X-56260Y-75376D01*
X-56029Y-75280D01*
X-55830Y-75128D01*
X-55678Y-74929D01*
X-55582Y-74698D01*
X-55550Y-74450D01*
X-55582Y-74202D01*
X-55678Y-73971D01*
X-55830Y-73772D01*
X-56029Y-73620D01*
X-56260Y-73524D01*
X-56508Y-73492D01*
D02*
G37*
G36*
Y-83652D02*
X-56756Y-83684D01*
X-56987Y-83780D01*
X-57186Y-83932D01*
X-57338Y-84131D01*
X-57434Y-84362D01*
X-57466Y-84610D01*
X-57434Y-84858D01*
X-57338Y-85089D01*
X-57186Y-85288D01*
X-56987Y-85440D01*
X-56756Y-85536D01*
X-56508Y-85568D01*
X-56260Y-85536D01*
X-56029Y-85440D01*
X-55830Y-85288D01*
X-55678Y-85089D01*
X-55582Y-84858D01*
X-55550Y-84610D01*
X-55582Y-84362D01*
X-55678Y-84131D01*
X-55830Y-83932D01*
X-56029Y-83780D01*
X-56260Y-83684D01*
X-56508Y-83652D01*
D02*
G37*
G36*
Y-76032D02*
X-56756Y-76064D01*
X-56987Y-76160D01*
X-57186Y-76312D01*
X-57338Y-76511D01*
X-57434Y-76742D01*
X-57466Y-76990D01*
X-57434Y-77238D01*
X-57338Y-77469D01*
X-57186Y-77668D01*
X-56987Y-77820D01*
X-56756Y-77916D01*
X-56508Y-77948D01*
X-56260Y-77916D01*
X-56029Y-77820D01*
X-55830Y-77668D01*
X-55678Y-77469D01*
X-55582Y-77238D01*
X-55550Y-76990D01*
X-55582Y-76742D01*
X-55678Y-76511D01*
X-55830Y-76312D01*
X-56029Y-76160D01*
X-56260Y-76064D01*
X-56508Y-76032D01*
D02*
G37*
G36*
X-4430Y-65872D02*
X-4678Y-65904D01*
X-4909Y-66000D01*
X-5108Y-66152D01*
X-5260Y-66351D01*
X-5356Y-66582D01*
X-5388Y-66830D01*
X-5356Y-67078D01*
X-5260Y-67309D01*
X-5108Y-67508D01*
X-4909Y-67660D01*
X-4678Y-67756D01*
X-4430Y-67788D01*
X-4182Y-67756D01*
X-3951Y-67660D01*
X-3752Y-67508D01*
X-3600Y-67309D01*
X-3504Y-67078D01*
X-3472Y-66830D01*
X-3504Y-66582D01*
X-3600Y-66351D01*
X-3752Y-66152D01*
X-3951Y-66000D01*
X-4182Y-65904D01*
X-4430Y-65872D01*
D02*
G37*
G36*
X-55558Y-88740D02*
X-57458D01*
Y-90640D01*
X-55558D01*
Y-88740D01*
D02*
G37*
G36*
X-56608Y-61850D02*
X-57554D01*
X-57531Y-62024D01*
X-57425Y-62280D01*
X-57257Y-62499D01*
X-57038Y-62667D01*
X-56782Y-62773D01*
X-56608Y-62796D01*
Y-61850D01*
D02*
G37*
G36*
X-4530Y-63244D02*
X-4704Y-63267D01*
X-4960Y-63373D01*
X-5179Y-63541D01*
X-5347Y-63760D01*
X-5453Y-64016D01*
X-5476Y-64190D01*
X-4530D01*
Y-63244D01*
D02*
G37*
G36*
X-7070Y-87250D02*
X-8016D01*
X-7993Y-87424D01*
X-7887Y-87680D01*
X-7719Y-87899D01*
X-7500Y-88067D01*
X-7244Y-88173D01*
X-7070Y-88196D01*
Y-87250D01*
D02*
G37*
G36*
X-36825Y-63375D02*
X-37052D01*
Y-64237D01*
X-36825D01*
Y-63375D01*
D02*
G37*
G36*
X-19000Y-59125D02*
X-19550D01*
Y-59525D01*
X-19000D01*
Y-59125D01*
D02*
G37*
G36*
Y-58525D02*
X-19550D01*
Y-58925D01*
X-19000D01*
Y-58525D01*
D02*
G37*
G36*
X-56408Y-60704D02*
Y-61650D01*
X-55462D01*
X-55485Y-61476D01*
X-55591Y-61220D01*
X-55759Y-61001D01*
X-55978Y-60833D01*
X-56234Y-60727D01*
X-56408Y-60704D01*
D02*
G37*
G36*
X-55462Y-61850D02*
X-56408D01*
Y-62796D01*
X-56234Y-62773D01*
X-55978Y-62667D01*
X-55759Y-62499D01*
X-55591Y-62280D01*
X-55485Y-62024D01*
X-55462Y-61850D01*
D02*
G37*
G36*
X-56608Y-60704D02*
X-56782Y-60727D01*
X-57038Y-60833D01*
X-57257Y-61001D01*
X-57425Y-61220D01*
X-57531Y-61476D01*
X-57554Y-61650D01*
X-56608D01*
Y-60704D01*
D02*
G37*
G36*
X-7070Y-86104D02*
X-7244Y-86127D01*
X-7500Y-86233D01*
X-7719Y-86401D01*
X-7887Y-86620D01*
X-7993Y-86876D01*
X-8016Y-87050D01*
X-7070D01*
Y-86104D01*
D02*
G37*
G36*
X-4430Y-86192D02*
X-4678Y-86224D01*
X-4909Y-86320D01*
X-5108Y-86472D01*
X-5260Y-86671D01*
X-5356Y-86902D01*
X-5388Y-87150D01*
X-5356Y-87398D01*
X-5260Y-87629D01*
X-5108Y-87828D01*
X-4909Y-87980D01*
X-4678Y-88076D01*
X-4430Y-88108D01*
X-4182Y-88076D01*
X-3951Y-87980D01*
X-3752Y-87828D01*
X-3600Y-87629D01*
X-3504Y-87398D01*
X-3472Y-87150D01*
X-3504Y-86902D01*
X-3600Y-86671D01*
X-3752Y-86472D01*
X-3951Y-86320D01*
X-4182Y-86224D01*
X-4430Y-86192D01*
D02*
G37*
G36*
X-20825Y-66900D02*
X-21225D01*
Y-67450D01*
X-20825D01*
Y-66900D01*
D02*
G37*
G36*
X-21425D02*
X-21825D01*
Y-67450D01*
X-21425D01*
Y-66900D01*
D02*
G37*
G36*
X-6870Y-86104D02*
Y-87050D01*
X-5924D01*
X-5947Y-86876D01*
X-6053Y-86620D01*
X-6221Y-86401D01*
X-6440Y-86233D01*
X-6696Y-86127D01*
X-6870Y-86104D01*
D02*
G37*
G36*
X-56508Y-86192D02*
X-56756Y-86224D01*
X-56987Y-86320D01*
X-57186Y-86472D01*
X-57338Y-86671D01*
X-57434Y-86902D01*
X-57466Y-87150D01*
X-57434Y-87398D01*
X-57338Y-87629D01*
X-57186Y-87828D01*
X-56987Y-87980D01*
X-56756Y-88076D01*
X-56508Y-88108D01*
X-56260Y-88076D01*
X-56029Y-87980D01*
X-55830Y-87828D01*
X-55678Y-87629D01*
X-55582Y-87398D01*
X-55550Y-87150D01*
X-55582Y-86902D01*
X-55678Y-86671D01*
X-55830Y-86472D01*
X-56029Y-86320D01*
X-56260Y-86224D01*
X-56508Y-86192D01*
D02*
G37*
G36*
X-5924Y-87250D02*
X-6870D01*
Y-88196D01*
X-6696Y-88173D01*
X-6440Y-88067D01*
X-6221Y-87899D01*
X-6053Y-87680D01*
X-5947Y-87424D01*
X-5924Y-87250D01*
D02*
G37*
G36*
X-6020Y-63340D02*
X-7920D01*
Y-65240D01*
X-6020D01*
Y-63340D01*
D02*
G37*
G36*
X-4530Y-64390D02*
X-5476D01*
X-5453Y-64564D01*
X-5347Y-64820D01*
X-5179Y-65039D01*
X-4960Y-65207D01*
X-4704Y-65313D01*
X-4530Y-65336D01*
Y-64390D01*
D02*
G37*
G36*
X-56508Y-63332D02*
X-56756Y-63364D01*
X-56987Y-63460D01*
X-57186Y-63612D01*
X-57338Y-63811D01*
X-57434Y-64042D01*
X-57466Y-64290D01*
X-57434Y-64538D01*
X-57338Y-64769D01*
X-57186Y-64968D01*
X-56987Y-65120D01*
X-56756Y-65216D01*
X-56508Y-65248D01*
X-56260Y-65216D01*
X-56029Y-65120D01*
X-55830Y-64968D01*
X-55678Y-64769D01*
X-55582Y-64538D01*
X-55550Y-64290D01*
X-55582Y-64042D01*
X-55678Y-63811D01*
X-55830Y-63612D01*
X-56029Y-63460D01*
X-56260Y-63364D01*
X-56508Y-63332D01*
D02*
G37*
G36*
X-39050Y-40600D02*
X-39600D01*
Y-41000D01*
X-39050D01*
Y-40600D01*
D02*
G37*
G36*
X-32390Y-6483D02*
X-32536Y-6512D01*
X-32660Y-6595D01*
X-32743Y-6719D01*
X-32772Y-6865D01*
X-32743Y-7011D01*
X-32660Y-7135D01*
X-32536Y-7218D01*
X-32390Y-7247D01*
X-32244Y-7218D01*
X-32120Y-7135D01*
X-32037Y-7011D01*
X-32008Y-6865D01*
X-32037Y-6719D01*
X-32120Y-6595D01*
X-32244Y-6512D01*
X-32390Y-6483D01*
D02*
G37*
G36*
X-10800Y-5293D02*
X-10946Y-5322D01*
X-11070Y-5405D01*
X-11153Y-5529D01*
X-11182Y-5675D01*
X-11153Y-5821D01*
X-11070Y-5945D01*
X-10946Y-6028D01*
X-10800Y-6057D01*
X-10797Y-6057D01*
X-10568Y-6286D01*
Y-6950D01*
X-10650D01*
Y-6950D01*
X-10762D01*
X-10843Y-6852D01*
X-10818Y-6725D01*
X-10847Y-6579D01*
X-10930Y-6455D01*
X-11054Y-6372D01*
X-11200Y-6343D01*
X-11346Y-6372D01*
X-11470Y-6455D01*
X-11553Y-6579D01*
X-11582Y-6725D01*
X-11557Y-6852D01*
X-11638Y-6950D01*
X-11750D01*
Y-8050D01*
D01*
D01*
X-11750Y-8050D01*
X-11750Y-8100D01*
X-11750D01*
Y-9150D01*
Y-9475D01*
X-11300D01*
Y-9575D01*
X-11200D01*
Y-10100D01*
X-10880D01*
Y-10609D01*
X-16228Y-15957D01*
X-16237Y-15955D01*
X-16384Y-15984D01*
X-16508Y-16067D01*
X-16591Y-16191D01*
X-16620Y-16337D01*
X-16591Y-16484D01*
X-16508Y-16608D01*
X-16384Y-16691D01*
X-16237Y-16720D01*
X-16091Y-16691D01*
X-15967Y-16608D01*
X-15884Y-16484D01*
X-15865Y-16386D01*
X-10877Y-11398D01*
X-10743Y-11425D01*
X-10722Y-11527D01*
X-10679Y-11592D01*
X-10678Y-11596D01*
X-10595Y-11720D01*
X-10471Y-11803D01*
X-10325Y-11832D01*
X-10179Y-11803D01*
X-10055Y-11720D01*
X-9972Y-11596D01*
X-9943Y-11450D01*
X-9972Y-11304D01*
X-10032Y-11213D01*
Y-6175D01*
X-10032Y-6175D01*
X-10049Y-6090D01*
X-10053Y-6073D01*
X-10111Y-5986D01*
X-10111Y-5986D01*
X-10418Y-5678D01*
X-10418Y-5675D01*
X-10447Y-5529D01*
X-10530Y-5405D01*
X-10654Y-5322D01*
X-10800Y-5293D01*
D02*
G37*
G36*
X-16500Y-6900D02*
X-17150D01*
Y-7500D01*
X-16500D01*
Y-6900D01*
D02*
G37*
G36*
X-28100Y-6325D02*
X-28700D01*
Y-7550D01*
X-28100D01*
Y-6325D01*
D02*
G37*
G36*
X-27300D02*
X-27900D01*
Y-7550D01*
X-27300D01*
Y-6325D01*
D02*
G37*
G36*
X-17650Y-5900D02*
X-18000D01*
Y-6325D01*
X-17650D01*
Y-5900D01*
D02*
G37*
G36*
X-33190Y-4783D02*
X-33336Y-4812D01*
X-33460Y-4895D01*
X-33543Y-5019D01*
X-33572Y-5165D01*
X-33543Y-5311D01*
X-33460Y-5435D01*
X-33336Y-5518D01*
X-33190Y-5547D01*
X-33044Y-5518D01*
X-32920Y-5435D01*
X-32837Y-5311D01*
X-32808Y-5165D01*
X-32837Y-5019D01*
X-32920Y-4895D01*
X-33044Y-4812D01*
X-33190Y-4783D01*
D02*
G37*
G36*
X-35100Y-2250D02*
X-35700D01*
Y-3475D01*
X-35100D01*
Y-2250D01*
D02*
G37*
G36*
X-29925Y-4793D02*
X-30071Y-4822D01*
X-30195Y-4905D01*
X-30278Y-5029D01*
X-30307Y-5175D01*
X-30278Y-5321D01*
X-30195Y-5445D01*
X-30071Y-5528D01*
X-29925Y-5557D01*
X-29779Y-5528D01*
X-29655Y-5445D01*
X-29572Y-5321D01*
X-29543Y-5175D01*
X-29572Y-5029D01*
X-29655Y-4905D01*
X-29779Y-4822D01*
X-29925Y-4793D01*
D02*
G37*
G36*
X-19100Y-5900D02*
X-19475D01*
Y-6300D01*
X-19100D01*
Y-5900D01*
D02*
G37*
G36*
X-32390Y-5483D02*
X-32536Y-5512D01*
X-32660Y-5595D01*
X-32743Y-5719D01*
X-32772Y-5865D01*
X-32743Y-6011D01*
X-32660Y-6135D01*
X-32536Y-6218D01*
X-32390Y-6247D01*
X-32244Y-6218D01*
X-32120Y-6135D01*
X-32037Y-6011D01*
X-32008Y-5865D01*
X-32037Y-5719D01*
X-32120Y-5595D01*
X-32244Y-5512D01*
X-32390Y-5483D01*
D02*
G37*
G36*
X-34300Y-6325D02*
X-34900D01*
Y-7550D01*
X-34300D01*
Y-6325D01*
D02*
G37*
G36*
X-7950Y-2750D02*
X-9550D01*
Y-4350D01*
X-8365D01*
X-5893Y-6821D01*
Y-8540D01*
X-6015Y-8577D01*
X-6080Y-8480D01*
X-6204Y-8397D01*
X-6350Y-8368D01*
X-6496Y-8397D01*
X-6620Y-8480D01*
X-6703Y-8604D01*
X-6732Y-8750D01*
X-6703Y-8896D01*
X-6620Y-9020D01*
X-6496Y-9103D01*
X-6350Y-9132D01*
X-6204Y-9103D01*
X-6080Y-9020D01*
X-6015Y-8923D01*
X-5893Y-8960D01*
Y-9179D01*
X-6390Y-9676D01*
X-6496Y-9697D01*
X-6620Y-9780D01*
X-6703Y-9904D01*
X-6732Y-10050D01*
X-6703Y-10196D01*
X-6620Y-10320D01*
X-6496Y-10403D01*
X-6350Y-10432D01*
X-6204Y-10403D01*
X-6080Y-10320D01*
X-5997Y-10196D01*
X-5976Y-10090D01*
X-5393Y-9507D01*
X-5329Y-9412D01*
X-5307Y-9300D01*
X-5307Y-9300D01*
X-5307Y-9300D01*
Y-9300D01*
Y-6700D01*
X-5329Y-6588D01*
X-5393Y-6493D01*
X-7950Y-3935D01*
Y-2750D01*
D02*
G37*
G36*
X-56608Y-7364D02*
X-56782Y-7387D01*
X-57038Y-7493D01*
X-57257Y-7661D01*
X-57425Y-7880D01*
X-57531Y-8136D01*
X-57554Y-8310D01*
X-56608D01*
Y-7364D01*
D02*
G37*
G36*
X-32390Y-8083D02*
X-32536Y-8112D01*
X-32660Y-8195D01*
X-32743Y-8319D01*
X-32772Y-8465D01*
X-32743Y-8611D01*
X-32660Y-8735D01*
X-32536Y-8818D01*
X-32390Y-8847D01*
X-32244Y-8818D01*
X-32120Y-8735D01*
X-32037Y-8611D01*
X-32008Y-8465D01*
X-32037Y-8319D01*
X-32120Y-8195D01*
X-32244Y-8112D01*
X-32390Y-8083D01*
D02*
G37*
G36*
X-28100Y-7750D02*
X-28700D01*
Y-8975D01*
X-28100D01*
Y-7750D01*
D02*
G37*
G36*
X-27300D02*
X-27900D01*
Y-8975D01*
X-27300D01*
Y-7750D01*
D02*
G37*
G36*
X-56408Y-7364D02*
Y-8310D01*
X-55462D01*
X-55485Y-8136D01*
X-55591Y-7880D01*
X-55759Y-7661D01*
X-55978Y-7493D01*
X-56234Y-7387D01*
X-56408Y-7364D01*
D02*
G37*
G36*
X-5700Y-2750D02*
X-7300D01*
Y-4350D01*
X-6115D01*
X-3007Y-7457D01*
X-3007D01*
X-3007Y-7457D01*
X-3007Y-7457D01*
Y-7457D01*
X-2912Y-7521D01*
X-2800Y-7543D01*
X-1436D01*
X-1346Y-7603D01*
X-1200Y-7632D01*
X-1054Y-7603D01*
X-930Y-7520D01*
X-847Y-7396D01*
X-818Y-7250D01*
X-847Y-7104D01*
X-930Y-6980D01*
X-1054Y-6897D01*
X-1200Y-6868D01*
X-1346Y-6897D01*
X-1436Y-6957D01*
X-2679D01*
X-5700Y-3935D01*
Y-2750D01*
D02*
G37*
G36*
X-35100Y-6325D02*
X-35700D01*
Y-7550D01*
X-35100D01*
Y-6325D01*
D02*
G37*
G36*
X-19100Y-7500D02*
X-19475D01*
Y-7900D01*
X-19100D01*
Y-7500D01*
D02*
G37*
G36*
X-33290Y-7283D02*
X-33436Y-7312D01*
X-33560Y-7395D01*
X-33643Y-7519D01*
X-33672Y-7665D01*
X-33643Y-7811D01*
X-33560Y-7935D01*
X-33436Y-8018D01*
X-33290Y-8047D01*
X-33144Y-8018D01*
X-33020Y-7935D01*
X-32937Y-7811D01*
X-32908Y-7665D01*
X-32937Y-7519D01*
X-33020Y-7395D01*
X-33144Y-7312D01*
X-33290Y-7283D01*
D02*
G37*
G36*
X-17650Y-7475D02*
X-18000D01*
Y-7900D01*
X-17650D01*
Y-7475D01*
D02*
G37*
G36*
X-15675Y-1150D02*
X-16663D01*
Y-2200D01*
X-15675D01*
Y-1150D01*
D02*
G37*
G36*
X-14538D02*
X-15525D01*
Y-2200D01*
X-14538D01*
Y-1150D01*
D02*
G37*
G36*
X-16862D02*
X-17850D01*
Y-2200D01*
X-16862D01*
Y-1150D01*
D02*
G37*
G36*
X-19450D02*
X-20700D01*
Y-2200D01*
X-19450D01*
Y-1150D01*
D02*
G37*
G36*
X-18000D02*
X-19250D01*
Y-2200D01*
X-18000D01*
Y-1150D01*
D02*
G37*
G36*
X-13350D02*
X-14337D01*
Y-2200D01*
X-13350D01*
Y-1150D01*
D02*
G37*
G36*
X-34300Y-825D02*
X-34900D01*
Y-2050D01*
X-34300D01*
Y-825D01*
D02*
G37*
G36*
X-5700Y-650D02*
X-7300D01*
Y-1133D01*
X-7412Y-1193D01*
X-7454Y-1165D01*
X-7600Y-1136D01*
X-7746Y-1165D01*
X-7817Y-1212D01*
X-7950D01*
Y-650D01*
X-9550D01*
Y-2250D01*
X-7950D01*
Y-1824D01*
X-7817D01*
X-7746Y-1871D01*
X-7600Y-1900D01*
X-7454Y-1871D01*
X-7412Y-1843D01*
X-7300Y-1903D01*
Y-2250D01*
X-5700D01*
Y-650D01*
D02*
G37*
G36*
X-35100Y-825D02*
X-35700D01*
Y-2050D01*
X-35100D01*
Y-825D01*
D02*
G37*
G36*
X-11950Y-1150D02*
X-13200D01*
Y-2200D01*
X-11950D01*
Y-1150D01*
D02*
G37*
G36*
X-10500D02*
X-11750D01*
Y-2200D01*
X-10500D01*
Y-1150D01*
D02*
G37*
G36*
X-29725Y-2093D02*
X-29871Y-2122D01*
X-29995Y-2205D01*
X-30078Y-2329D01*
X-30107Y-2475D01*
X-30078Y-2621D01*
X-29995Y-2745D01*
X-29871Y-2828D01*
X-29725Y-2857D01*
X-29579Y-2828D01*
X-29455Y-2745D01*
X-29372Y-2621D01*
X-29343Y-2475D01*
X-29372Y-2329D01*
X-29455Y-2205D01*
X-29579Y-2122D01*
X-29725Y-2093D01*
D02*
G37*
G36*
X-19450Y-2400D02*
X-20700D01*
Y-3450D01*
X-19450D01*
Y-2400D01*
D02*
G37*
G36*
X-18000D02*
X-19250D01*
Y-3450D01*
X-18000D01*
Y-2400D01*
D02*
G37*
G36*
X-27300Y-2250D02*
X-27900D01*
Y-3475D01*
X-27300D01*
Y-2250D01*
D02*
G37*
G36*
X-34300D02*
X-34900D01*
Y-3475D01*
X-34300D01*
Y-2250D01*
D02*
G37*
G36*
X-28100D02*
X-28700D01*
Y-3475D01*
X-28100D01*
Y-2250D01*
D02*
G37*
G36*
X-16862Y-2400D02*
X-17850D01*
Y-3450D01*
X-16862D01*
Y-2400D01*
D02*
G37*
G36*
X-11950D02*
X-13200D01*
Y-3450D01*
X-11950D01*
Y-2400D01*
D02*
G37*
G36*
X-10500D02*
X-11750D01*
Y-3450D01*
X-10500D01*
Y-2400D01*
D02*
G37*
G36*
X-13350D02*
X-14337D01*
Y-3450D01*
X-13350D01*
Y-2400D01*
D02*
G37*
G36*
X-15675D02*
X-16663D01*
Y-3450D01*
X-15675D01*
Y-2400D01*
D02*
G37*
G36*
X-14538D02*
X-15525D01*
Y-3450D01*
X-14538D01*
Y-2400D01*
D02*
G37*
G36*
X-6020Y-27780D02*
X-7920D01*
Y-29680D01*
X-6020D01*
Y-27780D01*
D02*
G37*
G36*
X-4530Y-27684D02*
X-4704Y-27707D01*
X-4960Y-27813D01*
X-5179Y-27981D01*
X-5347Y-28200D01*
X-5453Y-28456D01*
X-5476Y-28630D01*
X-4530D01*
Y-27684D01*
D02*
G37*
G36*
X-56508Y-27772D02*
X-56756Y-27804D01*
X-56987Y-27900D01*
X-57186Y-28052D01*
X-57338Y-28251D01*
X-57434Y-28482D01*
X-57466Y-28730D01*
X-57434Y-28978D01*
X-57338Y-29209D01*
X-57186Y-29408D01*
X-56987Y-29560D01*
X-56756Y-29656D01*
X-56508Y-29688D01*
X-56260Y-29656D01*
X-56029Y-29560D01*
X-55830Y-29408D01*
X-55678Y-29209D01*
X-55582Y-28978D01*
X-55550Y-28730D01*
X-55582Y-28482D01*
X-55678Y-28251D01*
X-55830Y-28052D01*
X-56029Y-27900D01*
X-56260Y-27804D01*
X-56508Y-27772D01*
D02*
G37*
G36*
X-4530Y-28830D02*
X-5476D01*
X-5453Y-29004D01*
X-5347Y-29260D01*
X-5179Y-29479D01*
X-4960Y-29647D01*
X-4704Y-29753D01*
X-4530Y-29776D01*
Y-28830D01*
D02*
G37*
G36*
X-3384D02*
X-4330D01*
Y-29776D01*
X-4156Y-29753D01*
X-3900Y-29647D01*
X-3681Y-29479D01*
X-3513Y-29260D01*
X-3407Y-29004D01*
X-3384Y-28830D01*
D02*
G37*
G36*
X-4330Y-27684D02*
Y-28630D01*
X-3384D01*
X-3407Y-28456D01*
X-3513Y-28200D01*
X-3681Y-27981D01*
X-3900Y-27813D01*
X-4156Y-27707D01*
X-4330Y-27684D01*
D02*
G37*
G36*
X-56608Y-25144D02*
X-56782Y-25167D01*
X-57038Y-25273D01*
X-57257Y-25441D01*
X-57425Y-25660D01*
X-57531Y-25916D01*
X-57554Y-26090D01*
X-56608D01*
Y-25144D01*
D02*
G37*
G36*
X-56408D02*
Y-26090D01*
X-55462D01*
X-55485Y-25916D01*
X-55591Y-25660D01*
X-55759Y-25441D01*
X-55978Y-25273D01*
X-56234Y-25167D01*
X-56408Y-25144D01*
D02*
G37*
G36*
X-4900Y-26118D02*
X-5046Y-26147D01*
X-5170Y-26230D01*
X-5253Y-26354D01*
X-5282Y-26500D01*
X-5253Y-26646D01*
X-5170Y-26770D01*
X-5046Y-26853D01*
X-4900Y-26882D01*
X-4754Y-26853D01*
X-4630Y-26770D01*
X-4547Y-26646D01*
X-4518Y-26500D01*
X-4547Y-26354D01*
X-4630Y-26230D01*
X-4754Y-26147D01*
X-4900Y-26118D01*
D02*
G37*
G36*
X-56608Y-26290D02*
X-57554D01*
X-57531Y-26464D01*
X-57425Y-26720D01*
X-57257Y-26939D01*
X-57038Y-27107D01*
X-56782Y-27213D01*
X-56608Y-27236D01*
Y-26290D01*
D02*
G37*
G36*
X-55462D02*
X-56408D01*
Y-27236D01*
X-56234Y-27213D01*
X-55978Y-27107D01*
X-55759Y-26939D01*
X-55591Y-26720D01*
X-55485Y-26464D01*
X-55462Y-26290D01*
D02*
G37*
G36*
X-4430Y-30312D02*
X-4678Y-30344D01*
X-4909Y-30440D01*
X-5108Y-30592D01*
X-5260Y-30791D01*
X-5356Y-31022D01*
X-5388Y-31270D01*
X-5356Y-31518D01*
X-5260Y-31749D01*
X-5108Y-31948D01*
X-4909Y-32100D01*
X-4678Y-32196D01*
X-4430Y-32228D01*
X-4182Y-32196D01*
X-3951Y-32100D01*
X-3752Y-31948D01*
X-3600Y-31749D01*
X-3504Y-31518D01*
X-3472Y-31270D01*
X-3504Y-31022D01*
X-3600Y-30791D01*
X-3752Y-30592D01*
X-3951Y-30440D01*
X-4182Y-30344D01*
X-4430Y-30312D01*
D02*
G37*
G36*
Y-37932D02*
X-4678Y-37964D01*
X-4909Y-38060D01*
X-5108Y-38212D01*
X-5260Y-38411D01*
X-5356Y-38642D01*
X-5388Y-38890D01*
X-5356Y-39138D01*
X-5260Y-39369D01*
X-5108Y-39568D01*
X-4909Y-39720D01*
X-4678Y-39816D01*
X-4430Y-39848D01*
X-4182Y-39816D01*
X-3951Y-39720D01*
X-3752Y-39568D01*
X-3600Y-39369D01*
X-3504Y-39138D01*
X-3472Y-38890D01*
X-3504Y-38642D01*
X-3600Y-38411D01*
X-3752Y-38212D01*
X-3951Y-38060D01*
X-4182Y-37964D01*
X-4430Y-37932D01*
D02*
G37*
G36*
X-43948Y-38364D02*
X-44122Y-38387D01*
X-44378Y-38493D01*
X-44597Y-38661D01*
X-44765Y-38880D01*
X-44871Y-39136D01*
X-44894Y-39310D01*
X-43948D01*
Y-38364D01*
D02*
G37*
G36*
X-6970Y-37932D02*
X-7218Y-37964D01*
X-7449Y-38060D01*
X-7648Y-38212D01*
X-7800Y-38411D01*
X-7896Y-38642D01*
X-7928Y-38890D01*
X-7896Y-39138D01*
X-7800Y-39369D01*
X-7648Y-39568D01*
X-7449Y-39720D01*
X-7218Y-39816D01*
X-6970Y-39848D01*
X-6722Y-39816D01*
X-6491Y-39720D01*
X-6292Y-39568D01*
X-6140Y-39369D01*
X-6044Y-39138D01*
X-6012Y-38890D01*
X-6044Y-38642D01*
X-6140Y-38411D01*
X-6292Y-38212D01*
X-6491Y-38060D01*
X-6722Y-37964D01*
X-6970Y-37932D01*
D02*
G37*
G36*
X-43948Y-39510D02*
X-44894D01*
X-44871Y-39684D01*
X-44765Y-39940D01*
X-44597Y-40159D01*
X-44378Y-40327D01*
X-44122Y-40433D01*
X-43948Y-40456D01*
Y-39510D01*
D02*
G37*
G36*
X-42802D02*
X-43748D01*
Y-40456D01*
X-43574Y-40433D01*
X-43318Y-40327D01*
X-43099Y-40159D01*
X-42931Y-39940D01*
X-42825Y-39684D01*
X-42802Y-39510D01*
D02*
G37*
G36*
X-43748Y-38364D02*
Y-39310D01*
X-42802D01*
X-42825Y-39136D01*
X-42931Y-38880D01*
X-43099Y-38661D01*
X-43318Y-38493D01*
X-43574Y-38387D01*
X-43748Y-38364D01*
D02*
G37*
G36*
X-26550Y-33370D02*
X-26657Y-33391D01*
X-26748Y-33452D01*
X-26809Y-33543D01*
X-26830Y-33650D01*
X-26809Y-33757D01*
X-26748Y-33848D01*
X-26657Y-33909D01*
X-26550Y-33930D01*
X-26443Y-33909D01*
X-26352Y-33848D01*
X-26291Y-33757D01*
X-26270Y-33650D01*
X-26291Y-33543D01*
X-26352Y-33452D01*
X-26443Y-33391D01*
X-26550Y-33370D01*
D02*
G37*
G36*
X-6970Y-30312D02*
X-7218Y-30344D01*
X-7449Y-30440D01*
X-7648Y-30592D01*
X-7800Y-30791D01*
X-7896Y-31022D01*
X-7928Y-31270D01*
X-7896Y-31518D01*
X-7800Y-31749D01*
X-7648Y-31948D01*
X-7449Y-32100D01*
X-7218Y-32196D01*
X-6970Y-32228D01*
X-6722Y-32196D01*
X-6491Y-32100D01*
X-6292Y-31948D01*
X-6140Y-31749D01*
X-6044Y-31518D01*
X-6012Y-31270D01*
X-6044Y-31022D01*
X-6140Y-30791D01*
X-6292Y-30592D01*
X-6491Y-30440D01*
X-6722Y-30344D01*
X-6970Y-30312D01*
D02*
G37*
G36*
X-4430Y-32852D02*
X-4678Y-32884D01*
X-4909Y-32980D01*
X-5108Y-33132D01*
X-5260Y-33331D01*
X-5356Y-33562D01*
X-5388Y-33810D01*
X-5356Y-34058D01*
X-5260Y-34289D01*
X-5108Y-34488D01*
X-4909Y-34640D01*
X-4678Y-34736D01*
X-4430Y-34768D01*
X-4182Y-34736D01*
X-3951Y-34640D01*
X-3752Y-34488D01*
X-3600Y-34289D01*
X-3504Y-34058D01*
X-3472Y-33810D01*
X-3504Y-33562D01*
X-3600Y-33331D01*
X-3752Y-33132D01*
X-3951Y-32980D01*
X-4182Y-32884D01*
X-4430Y-32852D01*
D02*
G37*
G36*
X-6970Y-35392D02*
X-7218Y-35424D01*
X-7449Y-35520D01*
X-7648Y-35672D01*
X-7800Y-35871D01*
X-7896Y-36102D01*
X-7928Y-36350D01*
X-7896Y-36598D01*
X-7800Y-36829D01*
X-7648Y-37028D01*
X-7449Y-37180D01*
X-7218Y-37276D01*
X-6970Y-37308D01*
X-6722Y-37276D01*
X-6491Y-37180D01*
X-6292Y-37028D01*
X-6140Y-36829D01*
X-6044Y-36598D01*
X-6012Y-36350D01*
X-6044Y-36102D01*
X-6140Y-35871D01*
X-6292Y-35672D01*
X-6491Y-35520D01*
X-6722Y-35424D01*
X-6970Y-35392D01*
D02*
G37*
G36*
X-4430D02*
X-4678Y-35424D01*
X-4909Y-35520D01*
X-5108Y-35672D01*
X-5260Y-35871D01*
X-5356Y-36102D01*
X-5388Y-36350D01*
X-5356Y-36598D01*
X-5260Y-36829D01*
X-5108Y-37028D01*
X-4909Y-37180D01*
X-4678Y-37276D01*
X-4430Y-37308D01*
X-4182Y-37276D01*
X-3951Y-37180D01*
X-3752Y-37028D01*
X-3600Y-36829D01*
X-3504Y-36598D01*
X-3472Y-36350D01*
X-3504Y-36102D01*
X-3600Y-35871D01*
X-3752Y-35672D01*
X-3951Y-35520D01*
X-4182Y-35424D01*
X-4430Y-35392D01*
D02*
G37*
G36*
X-4550Y-9418D02*
X-4696Y-9447D01*
X-4820Y-9530D01*
X-4903Y-9654D01*
X-4932Y-9800D01*
X-4903Y-9946D01*
X-4820Y-10070D01*
X-4696Y-10153D01*
X-4550Y-10182D01*
X-4404Y-10153D01*
X-4280Y-10070D01*
X-4197Y-9946D01*
X-4168Y-9800D01*
X-4197Y-9654D01*
X-4280Y-9530D01*
X-4404Y-9447D01*
X-4550Y-9418D01*
D02*
G37*
G36*
X-34200Y-9595D02*
X-34307Y-9616D01*
X-34398Y-9677D01*
X-34459Y-9768D01*
X-34480Y-9875D01*
X-34459Y-9982D01*
X-34398Y-10073D01*
X-34307Y-10134D01*
X-34200Y-10155D01*
X-34093Y-10134D01*
X-34002Y-10073D01*
X-33941Y-9982D01*
X-33920Y-9875D01*
X-33941Y-9768D01*
X-34002Y-9677D01*
X-34093Y-9616D01*
X-34200Y-9595D01*
D02*
G37*
G36*
X-24225Y-10650D02*
X-24775D01*
Y-11050D01*
X-24225D01*
Y-10650D01*
D02*
G37*
G36*
X-2800Y-11768D02*
X-2946Y-11797D01*
X-3070Y-11880D01*
X-3072Y-11882D01*
X-9746D01*
X-9747Y-11882D01*
X-9849Y-11903D01*
X-9878Y-11922D01*
X-9936Y-11961D01*
X-9936Y-11961D01*
X-17064Y-19089D01*
X-17122Y-19176D01*
X-17126Y-19193D01*
X-17143Y-19278D01*
X-17143Y-19279D01*
Y-20450D01*
X-17143Y-20450D01*
X-17126Y-20535D01*
X-17122Y-20552D01*
X-17064Y-20639D01*
X-16368Y-21336D01*
Y-24886D01*
X-16380Y-24950D01*
X-16359Y-25057D01*
X-16298Y-25148D01*
X-16207Y-25209D01*
X-16100Y-25230D01*
X-15993Y-25209D01*
X-15902Y-25148D01*
X-15841Y-25057D01*
X-15820Y-24950D01*
X-15832Y-24886D01*
Y-21225D01*
X-15832Y-21225D01*
X-15849Y-21140D01*
X-15853Y-21123D01*
X-15911Y-21036D01*
X-16607Y-20339D01*
Y-19389D01*
X-9636Y-12418D01*
X-7920D01*
Y-12540D01*
X-7920D01*
Y-14440D01*
X-6020D01*
Y-12540D01*
X-6020D01*
Y-12507D01*
X-5930Y-12418D01*
X-4910D01*
X-4886Y-12542D01*
X-4960Y-12573D01*
X-5179Y-12741D01*
X-5347Y-12960D01*
X-5453Y-13216D01*
X-5476Y-13390D01*
X-3384D01*
X-3407Y-13216D01*
X-3513Y-12960D01*
X-3681Y-12741D01*
X-3900Y-12573D01*
X-3974Y-12542D01*
X-3950Y-12418D01*
X-3072D01*
X-3070Y-12420D01*
X-2946Y-12503D01*
X-2800Y-12532D01*
X-2654Y-12503D01*
X-2530Y-12420D01*
X-2447Y-12296D01*
X-2418Y-12150D01*
X-2447Y-12004D01*
X-2530Y-11880D01*
X-2654Y-11797D01*
X-2800Y-11768D01*
D02*
G37*
G36*
X-24225Y-11250D02*
X-24775D01*
Y-11650D01*
X-24225D01*
Y-11250D01*
D02*
G37*
G36*
X-12150Y-9675D02*
X-12500D01*
Y-10100D01*
X-12150D01*
Y-9675D01*
D02*
G37*
G36*
X-35100Y-7750D02*
X-35700D01*
Y-8975D01*
X-35100D01*
Y-7750D01*
D02*
G37*
G36*
X-34300D02*
X-34900D01*
Y-8975D01*
X-34300D01*
Y-7750D01*
D02*
G37*
G36*
X-55462Y-8510D02*
X-56408D01*
Y-9456D01*
X-56234Y-9433D01*
X-55978Y-9327D01*
X-55759Y-9159D01*
X-55591Y-8940D01*
X-55485Y-8684D01*
X-55462Y-8510D01*
D02*
G37*
G36*
X-11400Y-9675D02*
X-11750D01*
Y-10100D01*
X-11400D01*
Y-9675D01*
D02*
G37*
G36*
X-56608Y-8510D02*
X-57554D01*
X-57531Y-8684D01*
X-57425Y-8940D01*
X-57257Y-9159D01*
X-57038Y-9327D01*
X-56782Y-9433D01*
X-56608Y-9456D01*
Y-8510D01*
D02*
G37*
G36*
X-40320Y-10000D02*
X-42220D01*
Y-11900D01*
X-40320D01*
Y-10000D01*
D02*
G37*
G36*
X-4430Y-15072D02*
X-4678Y-15104D01*
X-4909Y-15200D01*
X-5108Y-15352D01*
X-5260Y-15551D01*
X-5356Y-15782D01*
X-5388Y-16030D01*
X-5356Y-16278D01*
X-5260Y-16509D01*
X-5108Y-16708D01*
X-4909Y-16860D01*
X-4678Y-16956D01*
X-4430Y-16988D01*
X-4182Y-16956D01*
X-3951Y-16860D01*
X-3752Y-16708D01*
X-3600Y-16509D01*
X-3504Y-16278D01*
X-3472Y-16030D01*
X-3504Y-15782D01*
X-3600Y-15551D01*
X-3752Y-15352D01*
X-3951Y-15200D01*
X-4182Y-15104D01*
X-4430Y-15072D01*
D02*
G37*
G36*
X-4530Y-13590D02*
X-5476D01*
X-5453Y-13764D01*
X-5347Y-14020D01*
X-5179Y-14239D01*
X-4960Y-14407D01*
X-4704Y-14513D01*
X-4530Y-14536D01*
Y-13590D01*
D02*
G37*
G36*
X-6970Y-15072D02*
X-7218Y-15104D01*
X-7449Y-15200D01*
X-7648Y-15352D01*
X-7800Y-15551D01*
X-7896Y-15782D01*
X-7928Y-16030D01*
X-7896Y-16278D01*
X-7800Y-16509D01*
X-7648Y-16708D01*
X-7449Y-16860D01*
X-7218Y-16956D01*
X-6970Y-16988D01*
X-6722Y-16956D01*
X-6491Y-16860D01*
X-6292Y-16708D01*
X-6140Y-16509D01*
X-6044Y-16278D01*
X-6012Y-16030D01*
X-6044Y-15782D01*
X-6140Y-15551D01*
X-6292Y-15352D01*
X-6491Y-15200D01*
X-6722Y-15104D01*
X-6970Y-15072D01*
D02*
G37*
G36*
X-4900Y-24818D02*
X-5046Y-24847D01*
X-5170Y-24930D01*
X-5253Y-25054D01*
X-5282Y-25200D01*
X-5253Y-25346D01*
X-5170Y-25470D01*
X-5046Y-25553D01*
X-4900Y-25582D01*
X-4754Y-25553D01*
X-4630Y-25470D01*
X-4547Y-25346D01*
X-4518Y-25200D01*
X-4547Y-25054D01*
X-4630Y-24930D01*
X-4754Y-24847D01*
X-4900Y-24818D01*
D02*
G37*
G36*
Y-22218D02*
X-5046Y-22247D01*
X-5170Y-22330D01*
X-5253Y-22454D01*
X-5282Y-22600D01*
X-5253Y-22746D01*
X-5170Y-22870D01*
X-5046Y-22953D01*
X-4900Y-22982D01*
X-4754Y-22953D01*
X-4630Y-22870D01*
X-4547Y-22746D01*
X-4518Y-22600D01*
X-4547Y-22454D01*
X-4630Y-22330D01*
X-4754Y-22247D01*
X-4900Y-22218D01*
D02*
G37*
G36*
X-3384Y-13590D02*
X-4330D01*
Y-14536D01*
X-4156Y-14513D01*
X-3900Y-14407D01*
X-3681Y-14239D01*
X-3513Y-14020D01*
X-3407Y-13764D01*
X-3384Y-13590D01*
D02*
G37*
G36*
X-18375Y-11418D02*
X-18521Y-11447D01*
X-18645Y-11530D01*
X-18728Y-11654D01*
X-18757Y-11800D01*
X-18728Y-11946D01*
X-18645Y-12070D01*
X-18521Y-12153D01*
X-18375Y-12182D01*
X-18229Y-12153D01*
X-18105Y-12070D01*
X-18022Y-11946D01*
X-17993Y-11800D01*
X-18022Y-11654D01*
X-18105Y-11530D01*
X-18229Y-11447D01*
X-18375Y-11418D01*
D02*
G37*
G36*
X-56508Y-9992D02*
X-56756Y-10024D01*
X-56987Y-10120D01*
X-57186Y-10272D01*
X-57338Y-10471D01*
X-57434Y-10702D01*
X-57466Y-10950D01*
X-57434Y-11198D01*
X-57338Y-11429D01*
X-57186Y-11628D01*
X-56987Y-11780D01*
X-56756Y-11876D01*
X-56508Y-11908D01*
X-56260Y-11876D01*
X-56029Y-11780D01*
X-55830Y-11628D01*
X-55678Y-11429D01*
X-55582Y-11198D01*
X-55550Y-10950D01*
X-55582Y-10702D01*
X-55678Y-10471D01*
X-55830Y-10272D01*
X-56029Y-10120D01*
X-56260Y-10024D01*
X-56508Y-9992D01*
D02*
G37*
G36*
X-37780Y-10000D02*
X-39680D01*
Y-11900D01*
X-37780D01*
Y-11243D01*
X-37071D01*
X-36757Y-11557D01*
X-36662Y-11621D01*
X-36550Y-11643D01*
X-36200D01*
Y-11860D01*
X-36200Y-11860D01*
X-36200D01*
X-36200Y-11950D01*
Y-11950D01*
D01*
X-36200Y-12040D01*
X-36200Y-12040D01*
X-36200D01*
Y-13150D01*
X-35150D01*
Y-12606D01*
X-34950D01*
Y-12800D01*
X-33350D01*
Y-11200D01*
X-33781D01*
X-33841Y-11088D01*
X-33797Y-11021D01*
X-33768Y-10875D01*
X-33797Y-10729D01*
X-33880Y-10605D01*
X-34004Y-10522D01*
X-34150Y-10493D01*
X-34296Y-10522D01*
X-34420Y-10605D01*
X-34503Y-10729D01*
X-34532Y-10875D01*
X-34503Y-11021D01*
X-34459Y-11088D01*
X-34519Y-11200D01*
X-34950D01*
Y-11994D01*
X-35150D01*
X-35150Y-11950D01*
X-35150D01*
Y-11950D01*
D01*
X-35150Y-11860D01*
X-35150Y-11860D01*
X-35150D01*
Y-10750D01*
X-36200D01*
Y-11057D01*
X-36429D01*
X-36743Y-10743D01*
X-36838Y-10679D01*
X-36950Y-10657D01*
X-37780D01*
Y-10000D01*
D02*
G37*
G36*
X-26350Y-13368D02*
X-26496Y-13397D01*
X-26620Y-13480D01*
X-26703Y-13604D01*
X-26732Y-13750D01*
X-26703Y-13896D01*
X-26620Y-14020D01*
X-26496Y-14103D01*
X-26350Y-14132D01*
X-26204Y-14103D01*
X-26080Y-14020D01*
X-25997Y-13896D01*
X-25968Y-13750D01*
X-25997Y-13604D01*
X-26080Y-13480D01*
X-26204Y-13397D01*
X-26350Y-13368D01*
D02*
G37*
G36*
X-34400Y-13393D02*
X-34546Y-13422D01*
X-34670Y-13505D01*
X-34753Y-13629D01*
X-34782Y-13775D01*
X-34753Y-13921D01*
X-34670Y-14045D01*
X-34546Y-14128D01*
X-34400Y-14157D01*
X-34254Y-14128D01*
X-34130Y-14045D01*
X-34128Y-14043D01*
X-31739D01*
X-31675Y-14055D01*
X-31568Y-14034D01*
X-31477Y-13973D01*
X-31416Y-13882D01*
X-31395Y-13775D01*
X-31416Y-13668D01*
X-31477Y-13577D01*
X-31568Y-13516D01*
X-31675Y-13495D01*
X-31739Y-13507D01*
X-34128D01*
X-34130Y-13505D01*
X-34254Y-13422D01*
X-34400Y-13393D01*
D02*
G37*
%LPD*%
D10*
X-31000Y-7650D02*
D03*
Y-2150D02*
D03*
X-35000D02*
D03*
Y-7650D02*
D03*
X-24000D02*
D03*
Y-2150D02*
D03*
X-28000D02*
D03*
Y-7650D02*
D03*
D11*
X-21525Y-9900D02*
D03*
X-20325D02*
D03*
X-22975D02*
D03*
X-24175D02*
D03*
X-7825Y-89350D02*
D03*
X-6625D02*
D03*
X-7825Y-90700D02*
D03*
X-6625D02*
D03*
X-19314Y-43460D02*
D03*
X-18114D02*
D03*
X-19314Y-44785D02*
D03*
X-18114D02*
D03*
X-32500Y-9975D02*
D03*
X-31300D02*
D03*
D12*
X-6500Y-3550D02*
D03*
Y-1450D02*
D03*
X-8750Y-3550D02*
D03*
Y-1450D02*
D03*
D13*
X-32050Y-12000D02*
D03*
X-34150D02*
D03*
D14*
X-18100Y-7375D02*
D03*
Y-6425D02*
D03*
X-12600Y-8625D02*
D03*
Y-9575D02*
D03*
X-11300Y-8625D02*
D03*
Y-9575D02*
D03*
D15*
X-12600Y-7500D02*
D03*
X-11200D02*
D03*
D16*
X-19000Y-6400D02*
D03*
Y-7400D02*
D03*
D17*
X-35675Y-11350D02*
D03*
Y-12550D02*
D03*
X-34250Y-66200D02*
D03*
Y-67400D02*
D03*
X-32975Y-66200D02*
D03*
Y-67400D02*
D03*
X-35525Y-66200D02*
D03*
Y-67400D02*
D03*
D18*
X-42248Y-46400D02*
D03*
X-41148D02*
D03*
X-42248Y-47700D02*
D03*
X-41148D02*
D03*
X-19650Y-52525D02*
D03*
X-20750D02*
D03*
X-42248Y-51700D02*
D03*
X-41148D02*
D03*
X-42248Y-57050D02*
D03*
X-41148D02*
D03*
X-42025Y-58300D02*
D03*
X-40925D02*
D03*
X-19650Y-59025D02*
D03*
X-20750D02*
D03*
X-19750Y-64000D02*
D03*
X-20850D02*
D03*
X-42248Y-50450D02*
D03*
X-41148D02*
D03*
X-38950Y-41100D02*
D03*
X-37850D02*
D03*
X-27725Y-69875D02*
D03*
X-26625D02*
D03*
X-24125Y-11150D02*
D03*
X-23025D02*
D03*
D19*
X-32200Y-44300D02*
D03*
Y-45400D02*
D03*
X-29200Y-44250D02*
D03*
Y-45350D02*
D03*
X-36800Y-67325D02*
D03*
Y-66225D02*
D03*
X-31725Y-67350D02*
D03*
Y-66250D02*
D03*
X-40400Y-43600D02*
D03*
Y-44700D02*
D03*
X-21325Y-66800D02*
D03*
Y-65700D02*
D03*
D20*
X-42297Y-53075D02*
D03*
X-40900D02*
D03*
D21*
X-41775Y-55150D02*
D03*
X-44725D02*
D03*
D22*
X-23275Y-69850D02*
D03*
X-24975D02*
D03*
X-36150Y-41100D02*
D03*
X-34450D02*
D03*
D23*
X-34750Y-42950D02*
D03*
X-38550D02*
D03*
Y-45250D02*
D03*
X-34750D02*
D03*
D24*
X-42373Y-49000D02*
D03*
X-41323Y-49000D02*
D03*
D25*
X-16400Y-7600D02*
D03*
D26*
Y-9300D02*
D03*
X-14300D02*
D03*
Y-7400D02*
D03*
D27*
X-24725Y-47765D02*
D03*
X-34225D02*
D03*
X-35225D02*
D03*
X-30725Y-47765D02*
D03*
X-36725Y-47765D02*
D03*
X-26225D02*
D03*
X-35725D02*
D03*
X-29725Y-47765D02*
D03*
Y-63275D02*
D03*
X-25225Y-47765D02*
D03*
X-30725Y-63275D02*
D03*
X-25725Y-63275D02*
D03*
X-28225D02*
D03*
X-33225D02*
D03*
X-36225Y-47765D02*
D03*
D28*
X-29225Y-47765D02*
D03*
X-28725D02*
D03*
X-33725D02*
D03*
X-31725D02*
D03*
X-30225D02*
D03*
X-26725D02*
D03*
Y-63275D02*
D03*
X-33725D02*
D03*
X-34225Y-63275D02*
D03*
X-26225D02*
D03*
X-34725Y-47765D02*
D03*
X-24725Y-63275D02*
D03*
X-35225D02*
D03*
X-36725D02*
D03*
X-35725D02*
D03*
X-36225D02*
D03*
X-34725Y-63275D02*
D03*
X-28725D02*
D03*
X-29225D02*
D03*
X-27225Y-63275D02*
D03*
X-32725Y-63275D02*
D03*
Y-47765D02*
D03*
X-30225Y-63275D02*
D03*
X-32225D02*
D03*
X-31225Y-47765D02*
D03*
X-32225D02*
D03*
X-31225Y-63275D02*
D03*
X-27725Y-47765D02*
D03*
X-25225Y-63275D02*
D03*
D29*
X-38480Y-53020D02*
D03*
X-38480Y-56520D02*
D03*
X-38480Y-61020D02*
D03*
X-22970Y-52020D02*
D03*
Y-53020D02*
D03*
X-38480Y-60520D02*
D03*
X-22970Y-58520D02*
D03*
X-22970Y-58020D02*
D03*
X-38480Y-58520D02*
D03*
X-22970Y-61020D02*
D03*
X-38480Y-51020D02*
D03*
Y-52020D02*
D03*
Y-58020D02*
D03*
Y-49520D02*
D03*
X-22970Y-51020D02*
D03*
X-22970Y-56520D02*
D03*
X-22970Y-49520D02*
D03*
D30*
X-38480Y-52520D02*
D03*
Y-51520D02*
D03*
Y-54020D02*
D03*
Y-56020D02*
D03*
Y-57520D02*
D03*
X-22970Y-50520D02*
D03*
X-22970Y-51520D02*
D03*
Y-54020D02*
D03*
Y-57520D02*
D03*
Y-56020D02*
D03*
D31*
X-38480Y-50520D02*
D03*
X-22970Y-60520D02*
D03*
D32*
X-33225Y-47765D02*
D03*
X-27725Y-63275D02*
D03*
X-28225Y-47765D02*
D03*
D33*
X-38480Y-53520D02*
D03*
X-22970D02*
D03*
Y-57020D02*
D03*
X-22970Y-59020D02*
D03*
X-38480Y-60020D02*
D03*
X-38480Y-59520D02*
D03*
X-22970Y-50020D02*
D03*
X-38480Y-61520D02*
D03*
X-38480Y-55020D02*
D03*
X-22970Y-59520D02*
D03*
X-22970Y-60020D02*
D03*
X-22970Y-54520D02*
D03*
X-38480Y-55520D02*
D03*
Y-57020D02*
D03*
X-38480Y-50020D02*
D03*
X-22970Y-55520D02*
D03*
X-38480Y-54520D02*
D03*
X-22970Y-55020D02*
D03*
X-22970Y-61520D02*
D03*
D34*
X-22970Y-52520D02*
D03*
X-38480Y-59020D02*
D03*
D35*
X-27225Y-47765D02*
D03*
D36*
X-25725D02*
D03*
D37*
X-31725Y-63275D02*
D03*
D38*
X-23250Y-65650D02*
D03*
Y-68250D02*
D03*
D39*
X-29500Y-66950D02*
D03*
D40*
X-14300Y-5150D02*
D03*
X-14950D02*
D03*
X-15600D02*
D03*
X-16250D02*
D03*
X-16900D02*
D03*
D41*
X-11850Y-2300D02*
D03*
X-19350D02*
D03*
D42*
X-14438D02*
D03*
X-16763D02*
D03*
D43*
X-23498Y-40225D02*
Y-21848D01*
X-29750Y-36000D02*
X-29525Y-35775D01*
Y-35250D01*
X-23980Y-51520D02*
X-22970D01*
X-24325Y-51175D02*
X-23980Y-51520D01*
X-28225Y-51900D02*
X-25725D01*
X-30275Y-53950D02*
X-28225Y-51900D01*
X-28125Y-52350D02*
X-26500D01*
X-29825Y-54050D02*
X-28125Y-52350D01*
X-29825Y-54850D02*
Y-54050D01*
X-30275Y-55300D02*
X-29825Y-54850D01*
X-22025Y-48675D02*
X-20625D01*
X-22050Y-47750D02*
X-20625D01*
X-25050Y-29250D02*
Y-28475D01*
X-24500Y-27925D01*
X-29282Y-59232D02*
Y-54300D01*
X-28575Y-58525D02*
Y-53925D01*
X-32775Y-54275D02*
Y-49150D01*
Y-54275D02*
X-31750Y-55300D01*
Y-53950D02*
Y-49150D01*
X-31450Y-45625D02*
X-30925Y-46150D01*
X-30725Y-32125D02*
X-30425Y-32425D01*
Y-45625D02*
Y-32425D01*
X-29750Y-46625D02*
Y-36000D01*
X-29525Y-35250D02*
Y-25775D01*
X-30225Y-47100D02*
X-29750Y-46625D01*
X-30225Y-47765D02*
Y-47100D01*
X-27225Y-45225D02*
X-26625Y-44625D01*
X-27225Y-47765D02*
Y-45225D01*
X-29282Y-59232D02*
X-27725Y-60789D01*
X-28575Y-58525D02*
X-26725Y-60375D01*
X-30102Y-50527D02*
X-26352D01*
X-26725Y-63275D02*
Y-60375D01*
X-27725Y-63275D02*
Y-60789D01*
X-20550Y-62025D02*
X-18875Y-63700D01*
X-25475Y-62025D02*
X-20550D01*
X-24355Y-61520D02*
X-22970D01*
X-24650Y-61225D02*
X-24355Y-61520D01*
X-28944Y-64675D02*
X-28925D01*
X-29725Y-63894D02*
X-28944Y-64675D01*
X-29725Y-63894D02*
Y-63275D01*
X-30225Y-64375D02*
X-29575Y-65025D01*
X-30725Y-64375D02*
Y-63275D01*
X-28225Y-64675D02*
Y-63275D01*
X-8375Y-53625D02*
X-4475D01*
X-31150Y-60825D02*
X-30725Y-61250D01*
X-33000Y-60825D02*
X-31150D01*
X-33400Y-61225D02*
X-33000Y-60825D01*
X-32311Y-68486D02*
Y-63361D01*
X-33125Y-69300D02*
X-32311Y-68486D01*
X-33125Y-84025D02*
Y-69300D01*
X-35425Y-60575D02*
Y-60093D01*
X-34575Y-60575D02*
Y-59950D01*
X-35425Y-60093D02*
X-31225Y-55893D01*
X-34575Y-59950D02*
X-30725Y-56100D01*
X-45162Y-56800D02*
X-45127Y-56835D01*
Y-69753D02*
Y-56835D01*
X-26650Y-51200D02*
X-21600Y-46150D01*
X-30000Y-51200D02*
X-26650D01*
X-45575Y-77075D02*
Y-63281D01*
X-45575Y-63281D01*
Y-62844D01*
X-45650Y-62769D02*
X-45575Y-62844D01*
X-45650Y-62769D02*
Y-53900D01*
X-45575Y-77075D02*
X-43075Y-79575D01*
X-45650Y-53900D02*
X-44725Y-52975D01*
X-30725Y-56100D02*
Y-47765D01*
X-31225Y-55893D02*
Y-47765D01*
X-32625Y-91845D02*
Y-69575D01*
X-33810Y-93030D02*
X-32625Y-91845D01*
X-32175Y-92100D02*
Y-70175D01*
X-32525Y-92450D02*
X-32175Y-92100D01*
X-32525Y-94285D02*
Y-92450D01*
X-33810Y-95570D02*
X-32525Y-94285D01*
X-15080Y-51020D02*
X-3025Y-63075D01*
X-36520Y-54520D02*
X-36100Y-54100D01*
X-38480Y-54520D02*
X-36520D01*
X-31725Y-63275D02*
Y-62075D01*
X-38480Y-57020D02*
X-37070D01*
X-19314Y-44785D02*
X-18325Y-45773D01*
X-19314Y-44785D02*
Y-43460D01*
X-10835Y-33810D02*
X-6970D01*
X-20008Y-42983D02*
X-10835Y-33810D01*
X-20008Y-45292D02*
Y-42983D01*
X-17211Y-44786D02*
X-15175Y-42750D01*
X-18114Y-44785D02*
X-17212D01*
X-17214Y-43464D02*
X-15180Y-41430D01*
X-18114Y-43460D02*
X-17218D01*
X-17550Y-39958D02*
Y-23500D01*
X-24717Y-47125D02*
X-17550Y-39958D01*
X-24725Y-47125D02*
X-24717D01*
X-20008Y-45292D02*
X-13575Y-51725D01*
X-29800Y-20975D02*
X-29575Y-20750D01*
Y-19975D01*
X-32500Y-94900D02*
X-31975Y-94375D01*
X-32500Y-96050D02*
Y-94900D01*
X-33700Y-97250D02*
X-32500Y-96050D01*
X-41975Y-97250D02*
X-33700D01*
X-30075Y-94375D02*
X-28730Y-93030D01*
X-31975Y-94375D02*
X-30075D01*
X-44200Y-77075D02*
X-44050Y-76925D01*
X-37195Y-59020D02*
X-36250Y-58075D01*
X-42213Y-58838D02*
X-40483D01*
X-43175Y-59800D02*
X-42213Y-58838D01*
X-43175Y-71225D02*
Y-59800D01*
X-43675Y-72250D02*
X-43575Y-72350D01*
X-56508Y-49050D02*
X-52950D01*
X-51495Y-54130D02*
X-47850Y-57775D01*
X-56508Y-54130D02*
X-51495D01*
X-56508Y-51590D02*
X-51835D01*
X-54405Y-43970D02*
X-46450Y-51925D01*
X-56508Y-43970D02*
X-54405D01*
X-41300Y-65925D02*
X-36600Y-61225D01*
X-41300Y-69250D02*
Y-65925D01*
X-42125Y-63150D02*
X-39495Y-60520D01*
X-42125Y-67000D02*
Y-63150D01*
X-41575Y-59275D02*
X-40525D01*
X-40770Y-59520D02*
X-38480D01*
X-41200Y-59950D02*
X-40770Y-59520D01*
X-41350Y-69300D02*
X-41300Y-69250D01*
X-43075Y-96150D02*
Y-79575D01*
Y-96150D02*
X-41975Y-97250D01*
X-9600Y-97400D02*
X-2250Y-90050D01*
X-29440Y-97400D02*
X-9600D01*
X-31270Y-95570D02*
X-29440Y-97400D01*
X-31270Y-93030D02*
Y-90930D01*
X-31562Y-90637D02*
X-31270Y-90930D01*
X-31562Y-90637D02*
Y-80338D01*
X-16500Y-78825D02*
X-16175D01*
X-17050Y-78275D02*
X-16500Y-78825D01*
X-17050Y-78275D02*
Y-77550D01*
X-16225Y-76725D01*
Y-56150D01*
X-18125Y-54250D02*
X-16225Y-56150D01*
X-21375Y-54250D02*
X-18125D01*
X-18425Y-53400D02*
X-15875Y-55950D01*
Y-77325D02*
Y-55950D01*
X-16475Y-77925D02*
X-15875Y-77325D01*
X-21525Y-53400D02*
X-18425D01*
X-36600Y-61225D02*
X-33400D01*
X-36737Y-61688D02*
X-34963D01*
X-39375Y-64325D02*
X-36737Y-61688D01*
X-39375Y-89700D02*
Y-64325D01*
X-59200Y-57325D02*
Y-23802D01*
X-18875Y-66925D02*
Y-63700D01*
X-27000Y-75050D02*
X-18875Y-66925D01*
X-27000Y-87650D02*
Y-75050D01*
Y-87650D02*
X-22400Y-92250D01*
Y-96350D02*
Y-92250D01*
X-22875Y-96825D02*
X-22400Y-96350D01*
X-24935Y-96825D02*
X-22875D01*
X-26190Y-95570D02*
X-24935Y-96825D01*
X-21725Y-24100D02*
X-19625Y-26200D01*
X-21725Y-24100D02*
Y-20507D01*
X-21500Y-23050D02*
X-18350Y-26200D01*
X-21500Y-23050D02*
Y-20414D01*
X-39495Y-60520D02*
X-38480D01*
X-37305Y-58020D02*
X-37150Y-58175D01*
X-5750Y-42750D02*
X-4430Y-41430D01*
X-22970Y-51020D02*
X-15080D01*
X-6975Y-74450D02*
X-5725Y-73200D01*
X-3025Y-72450D02*
Y-63075D01*
X-3775Y-73200D02*
X-3025Y-72450D01*
X-5725Y-73200D02*
X-3775D01*
X-6975Y-74450D02*
X-6970D01*
X-9250Y-90075D02*
X-8525Y-89350D01*
X-7825D01*
X-9250Y-90075D02*
X-8625Y-90700D01*
X-7825D01*
X-22970Y-61020D02*
X-19205D01*
X-17900Y-62325D01*
Y-79175D02*
Y-62325D01*
Y-79175D02*
X-16250Y-80825D01*
X-5725D01*
X-4430Y-79530D01*
X-6975Y-79525D02*
X-6970Y-79530D01*
X-16275Y-79525D02*
X-6975D01*
X-17375Y-78425D02*
X-16275Y-79525D01*
X-17375Y-78425D02*
Y-61925D01*
X-18780Y-60520D02*
X-17375Y-61925D01*
X-22970Y-60520D02*
X-18780D01*
X-32975Y-68400D02*
Y-67400D01*
X-31450Y-45625D02*
Y-27350D01*
X-30275Y-26175D01*
X-18351Y-22699D02*
X-17550Y-23500D01*
X-18351Y-22699D02*
Y-22626D01*
X-32450Y-27900D02*
Y-20750D01*
X-28450Y-16750D01*
Y-12750D01*
X-30425Y-10775D02*
X-28450Y-12750D01*
X-31700Y-10775D02*
X-30425D01*
X-32500Y-9975D02*
X-31700Y-10775D01*
X-32050Y-12000D02*
X-29200Y-14850D01*
Y-16375D02*
Y-14850D01*
X-33350Y-20525D02*
X-29200Y-16375D01*
X-56448Y-13877D02*
Y-13550D01*
X-30150Y-49175D02*
X-29725Y-48750D01*
Y-47765D01*
X-31750Y-49150D02*
X-31725Y-49125D01*
Y-47765D01*
X-32775Y-49150D02*
X-32725Y-49100D01*
Y-47765D01*
X-33750Y-49150D02*
X-33725Y-49125D01*
Y-47765D01*
X-35900Y-49075D02*
X-35450D01*
X-36225Y-48750D02*
X-35900Y-49075D01*
X-36225Y-48750D02*
Y-47765D01*
X-38480Y-62245D02*
X-38475Y-62250D01*
X-38480Y-62245D02*
Y-61520D01*
X-32475Y-62125D02*
Y-61450D01*
X-32725Y-62375D02*
X-32475Y-62125D01*
X-32725Y-63275D02*
Y-62375D01*
X-28725Y-62325D02*
X-28225Y-61825D01*
X-28725Y-63275D02*
Y-62325D01*
X-24155Y-59520D02*
X-24150Y-59525D01*
X-24400Y-57950D02*
X-23970Y-57520D01*
X-22970D01*
X-20970Y-55020D02*
X-20650Y-54700D01*
X-22970Y-55020D02*
X-20970D01*
X-24325Y-55275D02*
X-24080Y-55520D01*
X-22970D01*
X-21330D02*
X-21325Y-55525D01*
X-22970Y-55520D02*
X-21330D01*
X-21605Y-54020D02*
X-21375Y-54250D01*
X-22970Y-54020D02*
X-21605D01*
X-21905Y-53020D02*
X-21525Y-53400D01*
X-22970Y-53020D02*
X-21905D01*
X-21620Y-50020D02*
X-21600Y-50000D01*
X-22970Y-50020D02*
X-21620D01*
X-56508Y-13490D02*
X-56448Y-13550D01*
X-57925Y-42847D02*
X-56508Y-41430D01*
X-57925Y-50000D02*
Y-42847D01*
Y-50000D02*
X-57550Y-50375D01*
X-59200Y-23802D02*
X-56508Y-21110D01*
Y-18570D02*
X-54775Y-20303D01*
Y-22400D02*
Y-20303D01*
X-55375Y-23000D02*
X-54775Y-22400D01*
X-56725Y-23000D02*
X-55375D01*
X-58225Y-24500D02*
X-56725Y-23000D01*
X-58225Y-56725D02*
Y-24500D01*
X-40525Y-59275D02*
X-39770Y-58520D01*
X-38480D01*
X-38900Y-87075D02*
Y-64175D01*
X-39400Y-89675D02*
X-39375Y-89700D01*
X-38925Y-87100D02*
X-38900Y-87075D01*
X-38325Y-67450D02*
X-37750Y-66875D01*
X-38325Y-82070D02*
Y-67450D01*
X-37425Y-88925D02*
Y-80800D01*
X-40175Y-91675D02*
X-37425Y-88925D01*
X-38890Y-93030D02*
Y-91290D01*
X-36125Y-88525D01*
X-29225Y-61875D02*
X-29225Y-61875D01*
Y-63275D02*
Y-61875D01*
X-23650Y-93030D02*
Y-91850D01*
X-27875Y-87625D02*
X-23650Y-91850D01*
X-27875Y-87625D02*
Y-70925D01*
X-24850Y-94370D02*
X-23650Y-95570D01*
X-24850Y-94370D02*
Y-92125D01*
X-28900Y-88075D02*
X-24850Y-92125D01*
X-28900Y-88075D02*
Y-70700D01*
X-30225Y-88995D02*
X-26190Y-93030D01*
X-30225Y-88995D02*
Y-69300D01*
X-30225Y-64375D02*
X-30225Y-63275D01*
X-25100Y-9900D02*
X-24175D01*
X-21400Y-13600D02*
X-20550Y-14450D01*
Y-22075D02*
Y-14450D01*
X-22175Y-26200D02*
Y-21425D01*
X-24125Y-19475D02*
X-22175Y-21425D01*
X-25025Y-19475D02*
X-24125D01*
X-23025Y-12125D02*
Y-11150D01*
X-23900Y-13600D02*
X-22050D01*
X-28075Y-17775D02*
X-23900Y-13600D01*
X-28075Y-21025D02*
Y-17775D01*
X-27275Y-25200D02*
Y-20575D01*
X-27575Y-25500D02*
X-27275Y-25200D01*
X-27575Y-26175D02*
Y-25500D01*
X-27500Y-24825D02*
Y-20477D01*
X-28850Y-26175D02*
X-27500Y-24825D01*
X-34400Y-13775D02*
X-31675D01*
X-9747Y-12150D02*
X-2800D01*
X-16875Y-19278D02*
X-9747Y-12150D01*
X-16875Y-20450D02*
Y-19278D01*
X-27500Y-20477D02*
X-25525Y-18502D01*
X-27275Y-20575D02*
X-25300Y-18600D01*
X-16550Y-7450D02*
Y-6875D01*
X-16914Y-6511D02*
X-16550Y-6875D01*
X-16914Y-6511D02*
Y-5672D01*
X-35000Y-7650D02*
Y-2150D01*
X-34125D01*
X-29175Y-1675D02*
X-28000D01*
X-24000Y-7650D02*
Y-2150D01*
Y-9700D02*
Y-7650D01*
X-32400Y-4500D02*
Y-1475D01*
X-31500Y-575D01*
X-23475D01*
X-23150Y-900D01*
X-24925Y-1500D02*
X-24300D01*
X-17237Y-7475D02*
X-17237Y-7475D01*
X-17400Y-7500D02*
X-16500D01*
X-17450Y-7500D02*
X-17401Y-7494D01*
X-17237Y-7475D01*
X-16550Y-7450D02*
X-16500Y-7500D01*
X-16475Y-7525D01*
X-19025Y-7500D02*
X-17450D01*
X-10475Y-11425D02*
X-10300D01*
Y-6175D01*
X-10800Y-5675D02*
X-10300Y-6175D01*
X-28000Y-2150D02*
Y-1675D01*
X-11300Y-8625D02*
Y-7600D01*
X-11200Y-7500D01*
X-23725Y-18825D02*
X-21950Y-20600D01*
X-16100Y-24950D02*
Y-21225D01*
X-16875Y-20450D02*
X-16100Y-21225D01*
X-20886Y-26200D02*
X-20875D01*
X-21950Y-25150D02*
Y-20600D01*
X-22425Y-19489D02*
X-21500Y-20414D01*
X-22425Y-19489D02*
Y-17825D01*
X-23625Y-16625D02*
X-22425Y-17825D01*
X-23625Y-17250D02*
X-22650Y-18225D01*
Y-19582D02*
Y-18225D01*
Y-19582D02*
X-21725Y-20507D01*
X-25300Y-17500D02*
X-24625Y-16825D01*
X-25300Y-18600D02*
Y-17500D01*
X-25525Y-18502D02*
Y-16825D01*
X-21950Y-25150D02*
X-20900Y-26200D01*
X-24375Y-21275D02*
Y-20775D01*
X-23948Y-36373D02*
Y-21702D01*
X-24375Y-21275D02*
X-23948Y-21702D01*
X-23498Y-21848D02*
X-23075Y-21425D01*
X-24650Y-37075D02*
X-23948Y-36373D01*
X-22050Y-13600D02*
X-18025Y-9575D01*
X-28975Y-21925D02*
X-28075Y-21025D01*
X-26250Y-65875D02*
Y-63300D01*
X-26225Y-63275D01*
X-33225Y-63275D02*
Y-62075D01*
X-33225Y-62075D01*
X-40175Y-95850D02*
Y-91675D01*
Y-95850D02*
X-39150Y-96875D01*
X-37655D01*
X-36350Y-95570D01*
X-35225Y-63275D02*
Y-62125D01*
X-35225Y-62125D01*
X-34900Y-91580D02*
Y-69725D01*
X-36350Y-93030D02*
X-34900Y-91580D01*
X-36125Y-88525D02*
Y-84600D01*
Y-68700D01*
X-37425Y-80800D02*
Y-68975D01*
X-33725Y-63275D02*
Y-62250D01*
X-34025Y-61950D02*
X-33725Y-62250D01*
X-37750Y-66875D02*
Y-65200D01*
X-34725Y-63275D02*
Y-62375D01*
X-34650Y-62300D01*
Y-62000D01*
X-34963Y-61688D02*
X-34650Y-62000D01*
X-35725Y-63275D02*
Y-62250D01*
X-35825Y-62150D02*
X-35725Y-62250D01*
X-36875Y-62150D02*
X-35825D01*
X-38900Y-64175D02*
X-36875Y-62150D01*
X-39630Y-53020D02*
X-38480D01*
X-39800Y-52850D02*
X-39630Y-53020D01*
X-39800Y-52850D02*
Y-51475D01*
X-40150Y-51125D02*
X-39800Y-51475D01*
X-38480Y-60020D02*
X-37230D01*
X-37225Y-60025D01*
X-38480Y-59020D02*
X-37195D01*
X-38480Y-58020D02*
X-37305D01*
X-37150Y-58175D02*
Y-58025D01*
X-38480Y-56020D02*
X-37070D01*
X-37065Y-56025D01*
X-37050D01*
X-38480Y-55020D02*
X-37005D01*
X-37000Y-55025D01*
X-38480Y-55520D02*
X-36395D01*
X-36375Y-55500D01*
X-38480Y-56520D02*
X-36405D01*
X-36400Y-56525D01*
X-38480Y-52520D02*
X-37220D01*
X-37200Y-52500D01*
X-30050Y-22400D02*
X-28775Y-23675D01*
X-30050Y-22400D02*
Y-19150D01*
X-23025Y-12125D01*
X-29800Y-21875D02*
X-28025Y-23650D01*
Y-24275D02*
Y-23650D01*
X-29525Y-25775D02*
X-28025Y-24275D01*
X-43175Y-51125D02*
X-40150D01*
X-22970Y-58520D02*
X-21725D01*
X-24650Y-60550D02*
X-24120Y-60020D01*
X-22970D01*
X-38480Y-61020D02*
X-37505D01*
X-37275Y-61250D01*
X-57725Y-32487D02*
X-56508Y-31270D01*
X-57725Y-39775D02*
Y-32487D01*
Y-39775D02*
X-57375Y-40125D01*
X-55750D01*
X-46013Y-63025D02*
Y-51562D01*
X-55750Y-40125D02*
X-49125Y-46750D01*
Y-48450D02*
X-46013Y-51562D01*
X-49125Y-48450D02*
Y-46750D01*
X-44175Y-77100D02*
Y-58381D01*
X-30725Y-61250D02*
X-30725Y-61250D01*
X-30725Y-63275D02*
Y-61250D01*
X-43675Y-72250D02*
Y-60425D01*
X-47850Y-61875D02*
Y-57775D01*
X-47375Y-61075D02*
Y-56050D01*
X-51835Y-51590D02*
X-47375Y-56050D01*
X-46450Y-60400D02*
Y-51925D01*
X-46975Y-60650D02*
X-46450Y-61175D01*
X-46975Y-60650D02*
Y-55025D01*
X-52950Y-49050D02*
X-46975Y-55025D01*
X-42725Y-70775D02*
Y-61200D01*
Y-70775D02*
X-42075Y-71425D01*
X-24555Y-57020D02*
X-22970D01*
X-23975Y-48900D02*
X-23200D01*
X-24975Y-56600D02*
X-24555Y-57020D01*
X-24975Y-56600D02*
Y-49900D01*
X-23975Y-48900D01*
X-24725Y-47765D02*
Y-47125D01*
X-26352Y-50527D02*
X-21825Y-46000D01*
Y-45500D01*
X-21600Y-46150D02*
X-21100D01*
X-34175Y-39950D02*
X-33225Y-40900D01*
Y-47765D02*
Y-40900D01*
X-33350Y-40150D02*
Y-20525D01*
Y-40150D02*
X-32950Y-40550D01*
Y-42350D02*
Y-40550D01*
Y-42350D02*
X-32825Y-42475D01*
X-32375D01*
X-36950Y-20025D02*
X-31925Y-15000D01*
X-30525D01*
X-36250Y-39950D02*
X-34175D01*
X-36950Y-35325D02*
Y-20025D01*
X-24325Y-56250D02*
X-24095Y-56020D01*
X-22970D01*
X-39850Y-36875D02*
Y-32688D01*
X-56508Y-16030D02*
X-39850Y-32688D01*
X-24275Y-53525D02*
X-24270Y-53520D01*
X-22970D01*
X-35900Y-38275D02*
X-34800Y-39375D01*
X-35900Y-19600D02*
X-31800Y-15500D01*
X-35900Y-38275D02*
Y-19600D01*
X-31800Y-15500D02*
X-30525D01*
X-24425Y-54275D02*
X-24180Y-54520D01*
X-22970D01*
X-35200Y-38100D02*
Y-19500D01*
X-31700Y-16000D01*
X-30525D01*
X-24325Y-50525D02*
X-24320Y-50520D01*
X-22970D01*
X-24325Y-49875D02*
X-23975Y-49525D01*
X-22975D01*
X-22970Y-49520D01*
X-37650Y-38550D02*
X-36250Y-39950D01*
X-37650Y-38550D02*
Y-32675D01*
X-56448Y-13877D02*
X-37650Y-32675D01*
X-39200Y-37600D02*
X-38850Y-37250D01*
X-38480Y-50520D02*
X-36895D01*
X-36525Y-50150D01*
X-44625Y-70425D02*
Y-57875D01*
X-44350Y-57600D01*
X-38625Y-37250D02*
X-38275Y-37600D01*
X-38480Y-51520D02*
X-37230D01*
X-37225Y-51525D01*
X-25675Y-30625D02*
Y-20125D01*
X-25675Y-20125D02*
X-25675Y-20125D01*
X-38850Y-37250D02*
Y-33525D01*
X-38625Y-37250D02*
Y-33525D01*
X-38275Y-33175D01*
X-39200Y-33175D02*
X-38850Y-33525D01*
X-28400Y-32075D02*
X-25950Y-29625D01*
Y-20500D01*
X-26325Y-20125D02*
X-25950Y-20500D01*
X-27125Y-32075D02*
X-25675Y-30625D01*
X-58225Y-56725D02*
X-55675Y-59275D01*
X-48525D01*
X-59200Y-57325D02*
X-56575Y-59950D01*
X-48525D01*
X-40325Y-87938D02*
Y-70600D01*
X-39850Y-87700D02*
Y-71175D01*
X-36980Y-52020D02*
X-36775Y-52225D01*
X-38480Y-52020D02*
X-36980D01*
X-36775Y-52225D02*
X-36275D01*
X-36225Y-52175D01*
X-38480Y-53520D02*
X-37270D01*
X-37250Y-53500D01*
X-36480Y-51020D02*
X-36475Y-51025D01*
X-38480Y-51020D02*
X-36480D01*
X-40325Y-87938D02*
X-39850Y-88412D01*
X-40800Y-88175D02*
X-39850Y-89125D01*
X-40800Y-88175D02*
Y-71175D01*
X-30800Y-1525D02*
X-30075D01*
X-36950Y-35325D02*
Y-35250D01*
X-39852Y-57031D02*
Y-56603D01*
X-44175Y-58381D02*
X-43544Y-57750D01*
X-40571D01*
X-39852Y-57031D01*
X-40483Y-58838D02*
X-39165Y-57520D01*
X-38480D01*
X-23150Y-7075D02*
X-20325Y-9900D01*
X-23150Y-7075D02*
Y-900D01*
X-22975Y-9900D02*
X-21525D01*
X-23100Y-11150D02*
Y-9800D01*
X-29800Y-21875D02*
Y-20975D01*
X-22970Y-59520D02*
X-22055D01*
X-21575Y-60000D01*
X-18275D01*
X-24150Y-59520D02*
X-22970D01*
X-22970Y-58020D02*
X-17780D01*
X-16750Y-59050D01*
Y-65250D02*
Y-59050D01*
X-18275Y-60000D02*
X-17375Y-60900D01*
X-4430Y-41430D02*
X-2250Y-43610D01*
Y-58275D02*
Y-43610D01*
X-4262Y-60287D02*
X-2250Y-58275D01*
X-4262Y-60287D02*
X-2250Y-62300D01*
Y-90050D02*
Y-62300D01*
X-15180Y-41430D02*
X-6970D01*
X-15175Y-42750D02*
X-5750D01*
X-4430Y-76990D02*
X-2650Y-78770D01*
Y-88600D02*
Y-78770D01*
X-4750Y-90700D02*
X-2650Y-88600D01*
X-6625Y-90700D02*
X-4750D01*
X-6625Y-89350D02*
X-4075D01*
X-3050Y-88325D01*
Y-79000D01*
X-3750Y-78300D02*
X-3050Y-79000D01*
X-5660Y-78300D02*
X-3750D01*
X-6970Y-76990D02*
X-5660Y-78300D01*
X-32311Y-63361D02*
X-32225Y-63275D01*
D44*
X-23225Y-41300D02*
X-20900Y-38975D01*
X-24450Y-41300D02*
X-23225D01*
X-27725Y-44575D02*
X-24450Y-41300D01*
X-27725Y-47765D02*
Y-44575D01*
X-28725Y-45873D02*
X-28725Y-45873D01*
Y-45150D01*
X-24500Y-40925D01*
X-23250D01*
X-22175Y-39850D01*
X-26725Y-47765D02*
Y-45750D01*
X-19625Y-38650D01*
X-28725Y-47765D02*
Y-45873D01*
X-20900Y-38975D02*
Y-32075D01*
X-31075Y-82125D02*
Y-65625D01*
X-31225Y-65475D02*
X-31075Y-65625D01*
X-31225Y-65475D02*
Y-63275D01*
X-29225Y-49125D02*
Y-47765D01*
X-22175Y-39850D02*
Y-32075D01*
X-25725Y-46100D02*
X-18350Y-38725D01*
Y-32050D01*
X-25725Y-47765D02*
Y-46100D01*
X-19625Y-38650D02*
Y-32075D01*
X-11300Y-8625D02*
X-10600Y-9325D01*
X-40925Y-58300D02*
X-40750D01*
X-34725Y-47765D02*
Y-46525D01*
X-35225Y-47765D02*
Y-46875D01*
X-35075Y-46175D02*
X-34725Y-46525D01*
X-38550Y-45250D02*
X-36850D01*
X-35225Y-46875D01*
X-35571Y-46175D02*
X-35075D01*
X-36150Y-45596D02*
X-35571Y-46175D01*
X-36150Y-45596D02*
Y-41100D01*
X-10600Y-10725D02*
Y-9325D01*
X-16237Y-16337D02*
X-16212D01*
X-10600Y-10725D01*
D45*
X-26225Y-45900D02*
X-22027Y-41702D01*
X-26225Y-47765D02*
Y-45900D01*
X-36550Y-11350D02*
X-35675D01*
X-36950Y-10950D02*
X-36550Y-11350D01*
X-38730Y-10950D02*
X-36950D01*
X-6500Y-3550D02*
X-2800Y-7250D01*
X-1200D01*
X-8750Y-3550D02*
X-5600Y-6700D01*
X-6350Y-10050D02*
X-5600Y-9300D01*
Y-6700D01*
X-11950Y-9575D02*
X-11300D01*
X-12600D02*
X-11950D01*
X-27925Y-48975D02*
X-25575D01*
X-28225Y-48675D02*
X-27925Y-48975D01*
X-28225Y-48675D02*
Y-47765D01*
D46*
X-27225Y-64725D02*
Y-63275D01*
X-31725Y-68400D02*
Y-67350D01*
X-43350Y-57025D02*
X-42248D01*
X-39680Y-50020D02*
X-38480D01*
X-24350Y-58625D02*
X-23955Y-59020D01*
X-22970D01*
X-24325Y-52020D02*
X-22970D01*
X-43200Y-46400D02*
X-42050D01*
X-34250Y-83350D02*
Y-67400D01*
X-34450Y-12300D02*
X-34150Y-12000D01*
X-35425Y-12300D02*
X-34450D01*
X-35675Y-12550D02*
X-35425Y-12300D01*
X-25250Y-11125D02*
X-25225Y-11150D01*
X-24125D01*
X-31000Y-7650D02*
Y-2150D01*
X-8756Y-1518D02*
X-7600D01*
X-6470D01*
X-16400Y-9300D02*
X-16050D01*
X-14675Y-9400D02*
X-14400D01*
X-14200D01*
X-14500D02*
X-14400D01*
X-14300Y-9300D01*
X-31000Y-9700D02*
Y-7650D01*
X-28000D02*
Y-2150D01*
X-39520Y-54520D02*
X-38480D01*
X-40150Y-55150D02*
X-39520Y-54520D01*
X-41775Y-55150D02*
X-40150D01*
X-39470Y-57020D02*
X-38480D01*
X-40750Y-58300D02*
X-39470Y-57020D01*
X-43475Y-58300D02*
X-42025D01*
X-37850Y-41100D02*
X-36150D01*
X-34450Y-42650D02*
Y-41100D01*
X-34750Y-42950D02*
X-34450Y-42650D01*
X-40400Y-44700D02*
X-39100D01*
X-38550Y-45250D01*
X-40400Y-43600D02*
Y-42350D01*
X-39925Y-41100D02*
X-38950D01*
X-40400Y-41575D02*
X-39925Y-41100D01*
X-40400Y-42350D02*
Y-41575D01*
X-32200Y-44300D02*
Y-43150D01*
X-29225Y-47765D02*
Y-45375D01*
X-29200Y-45350D01*
X-32225Y-47765D02*
Y-45425D01*
X-32200Y-45400D01*
X-40900Y-53075D02*
Y-51750D01*
X-40950Y-51700D02*
X-40900Y-51750D01*
X-39605Y-49520D02*
X-38480D01*
X-43300Y-50450D02*
X-42050D01*
X-43475Y-49100D02*
X-42297D01*
X-43500Y-49075D02*
X-43475Y-49100D01*
X-43425Y-47700D02*
X-42050D01*
X-40950D02*
X-36790D01*
X-36725Y-47765D01*
X-35725D02*
Y-46900D01*
X-36225Y-46400D02*
X-35725Y-46900D01*
X-40950Y-46400D02*
X-36225D01*
X-40900Y-53075D02*
X-40350D01*
X-39405Y-54020D01*
X-38480D01*
X-36725Y-48950D02*
Y-47765D01*
X-31725Y-66250D02*
Y-63275D01*
X-34250Y-66200D02*
X-34225Y-66175D01*
X-35125Y-64725D02*
X-34225D01*
X-35525Y-65125D02*
X-35125Y-64725D01*
X-35525Y-66200D02*
Y-65125D01*
X-34225Y-66175D02*
Y-64725D01*
Y-63275D01*
Y-64725D02*
X-33350D01*
X-32975Y-65100D01*
Y-66200D02*
Y-65100D01*
X-36225Y-64475D02*
Y-63275D01*
X-36800Y-65050D02*
X-36225Y-64475D01*
X-36800Y-66225D02*
Y-65050D01*
Y-68425D02*
Y-67325D01*
X-37375Y-63275D02*
X-36725D01*
X-37375Y-63275D02*
X-37375Y-63275D01*
X-25225Y-64875D02*
Y-63275D01*
Y-64875D02*
X-24450Y-65650D01*
X-23250D01*
Y-69825D02*
Y-68250D01*
X-23275Y-69850D02*
X-23250Y-69825D01*
X-24975Y-69850D02*
Y-66675D01*
X-25725Y-65925D02*
X-24975Y-66675D01*
X-25725Y-65925D02*
Y-63275D01*
X-23250Y-65650D02*
X-21375D01*
X-21325Y-65700D01*
Y-68050D02*
Y-66800D01*
X-26600Y-69850D02*
X-24975D01*
X-26625Y-69875D02*
X-26600Y-69850D01*
X-29475Y-69875D02*
X-27725D01*
X-29500Y-69850D02*
X-29475Y-69875D01*
X-29500Y-69850D02*
Y-66950D01*
X-24725Y-63275D02*
X-23850D01*
X-23125Y-64000D01*
X-20850D01*
X-19750Y-65025D02*
Y-64000D01*
X-19750Y-65025D02*
X-19750Y-65025D01*
X-22970Y-59020D02*
X-20755D01*
X-20750Y-59025D01*
X-19650D02*
X-18525D01*
X-22970Y-52520D02*
X-20505D01*
X-20500Y-52525D01*
X-19400D02*
X-18300D01*
X-18275Y-52500D01*
X-43225Y-52325D02*
Y-51950D01*
X-42975Y-51700D01*
X-42050D01*
X-43225Y-52775D02*
Y-52325D01*
Y-52775D02*
X-42925Y-53075D01*
X-42297D01*
X-29200Y-44250D02*
Y-43225D01*
X-35525Y-90125D02*
Y-67400D01*
X-37550Y-92150D02*
X-35525Y-90125D01*
X-37550Y-94230D02*
Y-92150D01*
X-38890Y-95570D02*
X-37550Y-94230D01*
X-22970Y-56520D02*
X-20505D01*
X-20500Y-56515D01*
X-25225Y-47765D02*
Y-46275D01*
X-34225Y-47765D02*
Y-46400D01*
X-34200Y-46375D01*
X-44150Y-49200D02*
X-43500Y-49850D01*
X-44150Y-49200D02*
Y-42252D01*
X-43848Y-41950D01*
X-41200Y-57050D02*
X-41148D01*
X-41450Y-56800D02*
X-41200Y-57050D01*
X-41450Y-56800D02*
Y-55475D01*
X-41775Y-55150D02*
X-41450Y-55475D01*
X-31725Y-66250D02*
X-31725Y-66250D01*
X-41323Y-50275D02*
X-41148Y-50450D01*
X-41323Y-50275D02*
Y-49850D01*
Y-49000D01*
X-43500Y-49850D02*
X-41323D01*
X-40025Y-49100D02*
X-39605Y-49520D01*
X-41223Y-49100D02*
X-40025D01*
X-41323Y-49000D02*
X-41223Y-49100D01*
X-34150Y-12000D02*
Y-10875D01*
X-14314Y-7386D02*
X-14300Y-7400D01*
X-14200Y-7500D01*
X-42075Y-54850D02*
X-41775Y-55150D01*
X-42075Y-54850D02*
Y-54475D01*
X-42100Y-54450D02*
X-42075Y-54475D01*
X-43275Y-54450D02*
X-42100D01*
X-12700Y-7500D02*
X-12600D01*
X-12825Y-7375D02*
X-12700Y-7500D01*
X-12825Y-7375D02*
Y-6900D01*
X-13175Y-6550D02*
X-12825Y-6900D01*
X-12700Y-8725D02*
Y-7500D01*
D47*
X-15579Y-10727D02*
Y-9771D01*
X-16050Y-9300D02*
X-15579Y-9771D01*
X-15021Y-9746D02*
X-14675Y-9400D01*
X-15021Y-10727D02*
Y-9746D01*
X-14964Y-6575D02*
Y-5672D01*
X-15150Y-6761D02*
X-14964Y-6575D01*
X-15150Y-8750D02*
Y-6761D01*
Y-8750D02*
X-14500Y-9400D01*
X-15614Y-6700D02*
X-15550Y-6764D01*
Y-8750D02*
Y-6764D01*
X-15614Y-6700D02*
Y-5672D01*
X-16050Y-9250D02*
X-15550Y-8750D01*
X-19600Y-18200D02*
Y-17050D01*
X-15579Y-13029D01*
Y-10727D01*
X-19200Y-17400D02*
Y-17187D01*
X-15021Y-13008D01*
Y-10500D01*
D48*
X-14200Y-7500D02*
X-12700D01*
X-11200D02*
Y-6775D01*
X-14314Y-7386D02*
Y-5672D01*
D49*
X-24124Y-69850D02*
D03*
X-35301Y-41100D02*
D03*
D50*
X-57650Y-97650D02*
D03*
X-2350D02*
D03*
X-57650Y-2350D02*
D03*
X-2350D02*
D03*
D51*
X-18570Y-93030D02*
D03*
X-41270Y-10950D02*
D03*
X-38730D02*
D03*
D52*
X-41430Y-95570D02*
D03*
X-31270Y-93030D02*
D03*
Y-95570D02*
D03*
X-33810D02*
D03*
Y-93030D02*
D03*
X-36350Y-95570D02*
D03*
Y-93030D02*
D03*
X-38890Y-95570D02*
D03*
Y-93030D02*
D03*
X-41430D02*
D03*
X-28730D02*
D03*
X-26190D02*
D03*
Y-95570D02*
D03*
X-23650Y-93030D02*
D03*
Y-95570D02*
D03*
X-21110Y-93030D02*
D03*
Y-95570D02*
D03*
X-18570D02*
D03*
X-28730D02*
D03*
X-4430Y-38890D02*
D03*
Y-28730D02*
D03*
Y-31270D02*
D03*
X-6970D02*
D03*
X-4430Y-33810D02*
D03*
X-6970D02*
D03*
X-4430Y-36350D02*
D03*
X-6970D02*
D03*
Y-38890D02*
D03*
Y-51590D02*
D03*
Y-49050D02*
D03*
X-4430D02*
D03*
X-6970Y-46510D02*
D03*
X-4430D02*
D03*
X-6970Y-43970D02*
D03*
X-4430D02*
D03*
Y-41430D02*
D03*
X-6970D02*
D03*
X-4430Y-51590D02*
D03*
X-56508Y-61750D02*
D03*
Y-64290D02*
D03*
Y-66830D02*
D03*
Y-69370D02*
D03*
Y-71910D02*
D03*
Y-74450D02*
D03*
Y-84610D02*
D03*
Y-87150D02*
D03*
Y-79530D02*
D03*
Y-76990D02*
D03*
Y-82070D02*
D03*
X-4430Y-74450D02*
D03*
Y-64290D02*
D03*
Y-66830D02*
D03*
X-6970D02*
D03*
X-4430Y-69370D02*
D03*
X-6970D02*
D03*
X-4430Y-71910D02*
D03*
X-6970D02*
D03*
Y-74450D02*
D03*
Y-87150D02*
D03*
Y-84610D02*
D03*
X-4430D02*
D03*
X-6970Y-82070D02*
D03*
X-4430D02*
D03*
X-6970Y-79530D02*
D03*
X-4430D02*
D03*
Y-76990D02*
D03*
X-6970D02*
D03*
X-4430Y-87150D02*
D03*
Y-13490D02*
D03*
Y-16030D02*
D03*
X-6970D02*
D03*
X-56508Y-13490D02*
D03*
Y-8410D02*
D03*
Y-10950D02*
D03*
Y-18570D02*
D03*
Y-16030D02*
D03*
Y-26190D02*
D03*
Y-28730D02*
D03*
Y-31270D02*
D03*
Y-33810D02*
D03*
Y-36350D02*
D03*
Y-38890D02*
D03*
Y-49050D02*
D03*
Y-51590D02*
D03*
Y-43970D02*
D03*
Y-41430D02*
D03*
Y-46510D02*
D03*
X-43848Y-39410D02*
D03*
D53*
X-6970Y-28730D02*
D03*
X-56508Y-89690D02*
D03*
X-6970Y-64290D02*
D03*
Y-13490D02*
D03*
X-56508Y-21110D02*
D03*
Y-54130D02*
D03*
X-43848Y-41950D02*
D03*
D54*
X-26550Y-33650D02*
D03*
X-30525Y-15000D02*
D03*
X-28975Y-21925D02*
D03*
X-24375Y-22725D02*
D03*
X-26975Y-18825D02*
D03*
X-23075D02*
D03*
X-25025Y-20150D02*
D03*
X-25025Y-20775D02*
D03*
X-19200Y-17400D02*
D03*
X-19600Y-18200D02*
D03*
X-26325Y-22725D02*
D03*
X-24900Y-24825D02*
D03*
X-23725Y-18825D02*
D03*
X-23625Y-17250D02*
D03*
Y-16625D02*
D03*
X-31675Y-13775D02*
D03*
X-25525Y-16825D02*
D03*
X-24625D02*
D03*
X-25025Y-21425D02*
D03*
X-25025Y-19475D02*
D03*
X-34200Y-9875D02*
D03*
X-23075Y-22075D02*
D03*
X-16100Y-24950D02*
D03*
X-26550Y-25500D02*
D03*
X-28775Y-23675D02*
D03*
X-24375Y-20775D02*
D03*
X-23075Y-21425D02*
D03*
X-30525Y-15500D02*
D03*
Y-16000D02*
D03*
X-26325Y-20125D02*
D03*
X-25675D02*
D03*
D55*
X-23500Y-33500D02*
D03*
X-29350Y-21425D02*
D03*
X-21100Y-21425D02*
D03*
D56*
X-30275Y-55300D02*
D03*
Y-53950D02*
D03*
X-28575Y-53925D02*
D03*
X-29282Y-54300D02*
D03*
X-26500Y-52350D02*
D03*
X-25725Y-51900D02*
D03*
X-24325Y-52020D02*
D03*
Y-51175D02*
D03*
X-22050Y-48675D02*
D03*
Y-47750D02*
D03*
X-20625Y-48675D02*
D03*
Y-47750D02*
D03*
X-25050Y-29250D02*
D03*
X-24500Y-27925D02*
D03*
X-31750Y-55300D02*
D03*
Y-53950D02*
D03*
X-30925Y-46150D02*
D03*
X-30425Y-45625D02*
D03*
X-29200Y-43225D02*
D03*
X-26625Y-44625D02*
D03*
X-30000Y-51200D02*
D03*
X-30102Y-50527D02*
D03*
X-25475Y-62025D02*
D03*
X-30725Y-64425D02*
D03*
X-29575Y-65025D02*
D03*
X-28225Y-64675D02*
D03*
X-28925D02*
D03*
X-8375Y-53625D02*
D03*
X-4475D02*
D03*
X-27225Y-64725D02*
D03*
X-32175Y-70175D02*
D03*
X-32625Y-69575D02*
D03*
X-35425Y-60575D02*
D03*
X-34575D02*
D03*
X-29225Y-49175D02*
D03*
X-45162Y-56800D02*
D03*
X-43350Y-57025D02*
D03*
X-36100Y-54100D02*
D03*
X-39685Y-50025D02*
D03*
X-36725Y-48950D02*
D03*
X-24350Y-58625D02*
D03*
X-31720Y-62075D02*
D03*
X-37050Y-57025D02*
D03*
X-18325Y-45773D02*
D03*
X-29525Y-35250D02*
D03*
X-47375Y-61075D02*
D03*
X-42075Y-71425D02*
D03*
X-43175Y-71225D02*
D03*
X-43575Y-72350D02*
D03*
X-44725Y-52975D02*
D03*
X-44175Y-77100D02*
D03*
X-41575Y-59275D02*
D03*
X-41200Y-59950D02*
D03*
X-42125Y-67000D02*
D03*
X-41350Y-69300D02*
D03*
X-31562Y-80338D02*
D03*
X-16175Y-78825D02*
D03*
X-16475Y-77925D02*
D03*
X-39852Y-56603D02*
D03*
X-21975Y-3700D02*
D03*
X-9250Y-90075D02*
D03*
X-16750Y-65250D02*
D03*
X-32975Y-68400D02*
D03*
X-18351Y-22626D02*
D03*
X-30150Y-49175D02*
D03*
X-31750Y-49150D02*
D03*
X-32775D02*
D03*
X-33750D02*
D03*
X-35450Y-49075D02*
D03*
X-38475Y-62250D02*
D03*
X-32475Y-61450D02*
D03*
X-28225Y-61825D02*
D03*
X-24150Y-59525D02*
D03*
X-24400Y-57950D02*
D03*
X-20650Y-54700D02*
D03*
X-24325Y-55275D02*
D03*
X-21325Y-55525D02*
D03*
X-21375Y-54250D02*
D03*
X-21600Y-50000D02*
D03*
X-57550Y-50375D02*
D03*
X-43175Y-51125D02*
D03*
X-39400Y-89675D02*
D03*
X-38925Y-87100D02*
D03*
X-38325Y-82070D02*
D03*
X-36125Y-68700D02*
D03*
X-29225Y-61875D02*
D03*
X-27875Y-70925D02*
D03*
X-28900Y-70700D02*
D03*
X-30225Y-69300D02*
D03*
X-31075Y-82125D02*
D03*
X-43200Y-46400D02*
D03*
X-25100Y-9900D02*
D03*
X-21400Y-13600D02*
D03*
X-20550Y-22075D02*
D03*
X-22026Y-41702D02*
D03*
X-25225Y-46275D02*
D03*
X-22175Y-32075D02*
D03*
X-20900D02*
D03*
X-19625D02*
D03*
X-18350D02*
D03*
X-34250Y-83250D02*
D03*
X-37500Y-46400D02*
D03*
X-21600Y-52500D02*
D03*
X-23100Y-64000D02*
D03*
X-36800Y-65000D02*
D03*
X-40000Y-53500D02*
D03*
X-32250Y-46500D02*
D03*
X-23875Y-14450D02*
D03*
X-13725Y-3875D02*
D03*
X-34400Y-13775D02*
D03*
X-35325Y-9500D02*
D03*
X-33900Y-20000D02*
D03*
X-17800Y-19100D02*
D03*
X-4550Y-9800D02*
D03*
X-725Y-11100D02*
D03*
X-3875Y-7025D02*
D03*
X-33290Y-7665D02*
D03*
X-32390Y-8465D02*
D03*
Y-6865D02*
D03*
Y-5865D02*
D03*
X-33190Y-5165D02*
D03*
X-32390Y-4465D02*
D03*
X-4900Y-25200D02*
D03*
Y-26500D02*
D03*
X-7600Y-1518D02*
D03*
X-11450Y-12650D02*
D03*
X-11100Y-16100D02*
D03*
X-18525Y-21300D02*
D03*
X-40500Y-1500D02*
D03*
X-11200Y-6725D02*
D03*
X-17400Y-7500D02*
D03*
X-10800Y-5675D02*
D03*
X-34125Y-2150D02*
D03*
X-29175Y-1650D02*
D03*
X-4900Y-22600D02*
D03*
X-24925Y-1500D02*
D03*
X-30075Y-1525D02*
D03*
X-10325Y-11450D02*
D03*
X-25375Y-3400D02*
D03*
X-27425Y-4225D02*
D03*
X-26925Y-6750D02*
D03*
Y-7975D02*
D03*
X-2800Y-12150D02*
D03*
X-6350Y-10050D02*
D03*
Y-8750D02*
D03*
X-1200Y-7250D02*
D03*
X-16125Y-20275D02*
D03*
X-18025Y-9575D02*
D03*
X-11950D02*
D03*
X-22100Y-15100D02*
D03*
X-30875Y-23175D02*
D03*
X-26800Y-15100D02*
D03*
X-32975Y-18900D02*
D03*
X-22175Y-26200D02*
D03*
X-20900Y-26200D02*
D03*
X-19625D02*
D03*
X-27575Y-26175D02*
D03*
X-18350Y-26200D02*
D03*
X-28850Y-26175D02*
D03*
X-24650Y-37075D02*
D03*
X-25250Y-11125D02*
D03*
X-43475Y-58300D02*
D03*
X-40400Y-42350D02*
D03*
X-32200Y-43150D02*
D03*
X-43300Y-50450D02*
D03*
X-43500Y-49075D02*
D03*
X-43425Y-47700D02*
D03*
X-36800Y-68425D02*
D03*
X-37375Y-63275D02*
D03*
X-21325Y-68050D02*
D03*
X-29500Y-69850D02*
D03*
X-19750Y-65025D02*
D03*
X-18525Y-59025D02*
D03*
X-18275Y-52500D02*
D03*
X-43225Y-52325D02*
D03*
X-20500Y-56515D02*
D03*
X-34200Y-46375D02*
D03*
X-26250Y-65875D02*
D03*
X-33225Y-62075D02*
D03*
X-37425Y-68975D02*
D03*
X-35225Y-62125D02*
D03*
X-34900Y-69725D02*
D03*
X-36125Y-84600D02*
D03*
X-37425Y-80800D02*
D03*
X-33125Y-84025D02*
D03*
X-34025Y-61950D02*
D03*
X-37750Y-65200D02*
D03*
X-37225Y-60025D02*
D03*
X-36250Y-58075D02*
D03*
X-37150Y-58025D02*
D03*
X-37050Y-56025D02*
D03*
X-37000Y-55025D02*
D03*
X-36375Y-55500D02*
D03*
X-36400Y-56525D02*
D03*
X-37200Y-52500D02*
D03*
X-29575Y-19975D02*
D03*
X-30725Y-32125D02*
D03*
X-30275Y-26175D02*
D03*
X-24650Y-60550D02*
D03*
X-21725Y-58520D02*
D03*
X-37275Y-61250D02*
D03*
X-46013Y-63025D02*
D03*
X-30725Y-61250D02*
D03*
X-24650Y-61225D02*
D03*
X-13575Y-51725D02*
D03*
X-43675Y-60425D02*
D03*
X-47850Y-61875D02*
D03*
X-42725Y-61200D02*
D03*
X-46450Y-60400D02*
D03*
Y-61175D02*
D03*
X-25575Y-48975D02*
D03*
X-23200Y-48900D02*
D03*
X-21100Y-46150D02*
D03*
X-21825Y-45500D02*
D03*
X-32375Y-42475D02*
D03*
X-24325Y-56250D02*
D03*
X-39850Y-36875D02*
D03*
X-24425Y-53525D02*
D03*
X-34800Y-39375D02*
D03*
X-24425Y-54275D02*
D03*
X-35200Y-38100D02*
D03*
X-24325Y-50525D02*
D03*
Y-49875D02*
D03*
X-45127Y-69753D02*
D03*
X-39200Y-37600D02*
D03*
X-36525Y-50150D02*
D03*
X-28400Y-32075D02*
D03*
X-44625Y-70425D02*
D03*
X-44350Y-57600D02*
D03*
X-38275Y-37600D02*
D03*
X-37225Y-51525D02*
D03*
X-27125Y-32075D02*
D03*
X-38275Y-33175D02*
D03*
X-39200Y-33175D02*
D03*
X-40325Y-70600D02*
D03*
X-39850Y-71175D02*
D03*
X-40800D02*
D03*
X-36225Y-52175D02*
D03*
X-37250Y-53500D02*
D03*
X-36475Y-51025D02*
D03*
X-39850Y-89125D02*
D03*
Y-88412D02*
D03*
Y-87700D02*
D03*
X-32450Y-27900D02*
D03*
X-36950Y-35250D02*
D03*
X-48525Y-59275D02*
D03*
Y-59950D02*
D03*
X-18975Y-13000D02*
D03*
X-30575Y-29925D02*
D03*
X-36425Y-28400D02*
D03*
X-53500Y-56825D02*
D03*
X-33750Y-85850D02*
D03*
X-37550Y-90975D02*
D03*
X-27750Y-36775D02*
D03*
X-7450Y-56175D02*
D03*
X-11975Y-50700D02*
D03*
X-10775Y-71450D02*
D03*
X-12325Y-69850D02*
D03*
X-22050Y-76325D02*
D03*
X-23025Y-83950D02*
D03*
X-51425Y-49100D02*
D03*
X-31725Y-68400D02*
D03*
X-26350Y-13750D02*
D03*
X-31925Y-21225D02*
D03*
X-34150Y-10875D02*
D03*
X-29925Y-5175D02*
D03*
X-18375Y-11800D02*
D03*
X-16237Y-16337D02*
D03*
X-13175Y-6550D02*
D03*
X-34225Y-64725D02*
D03*
X-43275Y-54450D02*
D03*
X-29725Y-2475D02*
D03*
X-23498Y-40225D02*
D03*
X-29200Y-14850D02*
D03*
X-36825Y-38584D02*
D03*
X-13950Y-63050D02*
D03*
X-17375Y-60900D02*
D03*
X-4262Y-60287D02*
D03*
M02*
