%FSLAX43Y43*%
%MOMM*%
G71*
G01*
G75*
G04 Layer_Color=128*
%ADD10R,1.000X2.250*%
%ADD11R,0.800X0.650*%
%ADD12R,1.200X1.200*%
%ADD13R,1.200X1.200*%
%ADD14R,0.500X0.650*%
%ADD15R,0.700X0.700*%
%ADD16R,0.550X0.600*%
%ADD17R,0.650X0.800*%
%ADD18R,0.900X0.600*%
%ADD19R,0.600X0.900*%
%ADD20R,0.762X0.762*%
%ADD21R,0.950X1.750*%
%ADD22R,1.000X0.950*%
%ADD23R,1.600X1.300*%
%ADD24R,0.600X0.500*%
%ADD25R,1.100X1.000*%
%ADD26R,1.100X0.600*%
%ADD27R,0.254X1.524*%
%ADD28R,0.254X1.524*%
%ADD29R,1.524X0.254*%
%ADD30R,1.524X0.254*%
%ADD31R,1.524X0.254*%
%ADD32R,0.254X1.524*%
%ADD33R,1.524X0.254*%
%ADD34R,1.524X0.254*%
%ADD35R,0.254X1.524*%
%ADD36R,0.254X1.524*%
%ADD37R,0.254X1.524*%
%ADD38R,1.600X1.000*%
%ADD39R,2.500X3.000*%
%ADD40R,0.400X1.400*%
%ADD41R,2.300X1.900*%
%ADD42R,1.775X1.900*%
%ADD43C,0.125*%
%ADD44C,0.150*%
%ADD45C,0.175*%
%ADD46C,0.200*%
%ADD47C,0.180*%
%ADD48C,0.300*%
%ADD49R,0.900X0.300*%
%ADD50C,3.600*%
%ADD51R,1.700X1.700*%
%ADD52C,1.700*%
%ADD53R,1.700X1.700*%
%ADD54C,0.350*%
%ADD55C,0.380*%
%ADD56C,0.550*%
%ADD57C,0.500*%
G04:AMPARAMS|DCode=58|XSize=4.224mm|YSize=4.224mm|CornerRadius=0mm|HoleSize=0mm|Usage=FLASHONLY|Rotation=0.000|XOffset=0mm|YOffset=0mm|HoleType=Round|Shape=Relief|Width=0.254mm|Gap=0.254mm|Entries=4|*
%AMTHD58*
7,0,0,4.224,3.716,0.254,45*
%
%ADD58THD58*%
%ADD59C,1.400*%
G04:AMPARAMS|DCode=60|XSize=2.524mm|YSize=2.524mm|CornerRadius=0mm|HoleSize=0mm|Usage=FLASHONLY|Rotation=0.000|XOffset=0mm|YOffset=0mm|HoleType=Round|Shape=Relief|Width=0.254mm|Gap=0.254mm|Entries=4|*
%AMTHD60*
7,0,0,2.524,2.016,0.254,45*
%
%ADD60THD60*%
%ADD61C,0.650*%
%ADD62C,3.100*%
%ADD63C,0.800*%
%ADD64R,1.300X0.600*%
%ADD65C,1.270*%
%ADD66R,0.650X0.500*%
%ADD67R,0.762X0.762*%
%ADD68R,0.350X0.850*%
%ADD69C,0.280*%
%ADD70R,0.600X0.250*%
%ADD71R,1.600X1.500*%
%ADD72R,1.300X1.600*%
%ADD73C,0.254*%
%ADD74C,0.250*%
%ADD75C,0.100*%
%ADD76C,0.229*%
%ADD77C,0.112*%
%ADD78R,2.100X2.100*%
%ADD79R,2.100X2.100*%
%ADD80R,1.700X1.700*%
%ADD81R,0.900X0.510*%
%ADD82R,1.100X2.350*%
%ADD83R,0.900X0.750*%
%ADD84R,1.300X1.300*%
%ADD85R,1.300X1.300*%
%ADD86R,0.600X0.750*%
%ADD87R,0.800X0.800*%
%ADD88R,0.650X0.700*%
%ADD89R,0.750X0.900*%
%ADD90R,1.000X0.700*%
%ADD91R,0.700X1.000*%
%ADD92R,0.862X0.862*%
%ADD93R,1.050X1.850*%
%ADD94R,1.100X1.050*%
%ADD95R,1.700X1.400*%
%ADD96R,0.700X0.600*%
%ADD97R,1.200X1.100*%
%ADD98R,1.200X0.700*%
%ADD99R,0.406X1.676*%
%ADD100R,0.406X1.676*%
%ADD101R,1.676X0.406*%
%ADD102R,1.676X0.406*%
%ADD103R,1.676X0.406*%
%ADD104R,0.406X1.676*%
%ADD105R,1.676X0.406*%
%ADD106R,1.676X0.406*%
%ADD107R,0.406X1.676*%
%ADD108R,0.406X1.676*%
%ADD109R,0.406X1.676*%
%ADD110R,1.700X1.100*%
%ADD111R,2.600X3.100*%
%ADD112R,0.500X1.500*%
%ADD113R,2.400X2.000*%
%ADD114R,1.875X2.000*%
%ADD115C,3.700*%
%ADD116R,1.800X1.800*%
%ADD117C,1.800*%
%ADD118R,1.800X1.800*%
%ADD119C,0.900*%
%ADD120R,1.400X0.700*%
%ADD121C,1.370*%
%ADD122R,0.750X0.600*%
%ADD123R,0.862X0.862*%
%ADD124R,0.450X0.950*%
%ADD125R,0.700X0.350*%
%ADD126R,1.700X1.600*%
%ADD127R,1.400X1.700*%
%ADD128C,0.400*%
%ADD129R,0.200X0.100*%
D11*
X-25750Y-34425D02*
D03*
X-24550D02*
D03*
X-25750Y-32950D02*
D03*
X-24550D02*
D03*
X-31190Y-5165D02*
D03*
X-32390D02*
D03*
X-30000Y-3400D02*
D03*
X-28800D02*
D03*
X-20925Y-3675D02*
D03*
X-19725D02*
D03*
X-32390Y-7665D02*
D03*
X-31190D02*
D03*
X-1600Y-11100D02*
D03*
X-2800D02*
D03*
X-4100D02*
D03*
X-5300D02*
D03*
X-7000Y-26500D02*
D03*
X-5800D02*
D03*
X-7000Y-25200D02*
D03*
X-5800D02*
D03*
X-7000Y-22600D02*
D03*
X-5800D02*
D03*
X-27475Y-3400D02*
D03*
X-26275D02*
D03*
D14*
X-16900Y-19325D02*
D03*
Y-20275D02*
D03*
X-17800Y-17425D02*
D03*
Y-18375D02*
D03*
X-30000Y-21425D02*
D03*
Y-22375D02*
D03*
X-30875Y-21425D02*
D03*
Y-22375D02*
D03*
X-16900Y-22175D02*
D03*
Y-21225D02*
D03*
D15*
X-32775Y-20000D02*
D03*
X-31375D02*
D03*
D16*
X-20300Y-19200D02*
D03*
Y-18200D02*
D03*
X-16900Y-17400D02*
D03*
Y-18400D02*
D03*
X-20300Y-16200D02*
D03*
Y-17200D02*
D03*
D17*
X-36600Y-10950D02*
D03*
Y-12150D02*
D03*
X-35325Y-12150D02*
D03*
Y-10950D02*
D03*
X-17100Y-11700D02*
D03*
Y-10500D02*
D03*
X-11800Y-16100D02*
D03*
Y-14900D02*
D03*
X-5200Y-8600D02*
D03*
Y-9800D02*
D03*
X-1200Y-9800D02*
D03*
Y-8600D02*
D03*
X-27575Y-27275D02*
D03*
Y-28475D02*
D03*
X-36950Y-36275D02*
D03*
Y-37475D02*
D03*
X-22175Y-27300D02*
D03*
Y-28500D02*
D03*
X-20900Y-27300D02*
D03*
Y-28500D02*
D03*
X-19625Y-27300D02*
D03*
Y-28500D02*
D03*
X-18350Y-27300D02*
D03*
Y-28500D02*
D03*
D21*
X-25875Y-7975D02*
D03*
X-28825D02*
D03*
D64*
X-13450Y-11450D02*
D03*
X-15550Y-10500D02*
D03*
Y-12400D02*
D03*
Y-15000D02*
D03*
X-13450Y-15950D02*
D03*
Y-14050D02*
D03*
X-17744Y-3700D02*
D03*
X-15644Y-4650D02*
D03*
Y-2750D02*
D03*
X-9350Y-12400D02*
D03*
X-11450Y-11450D02*
D03*
Y-13350D02*
D03*
D66*
X-31200Y-18900D02*
D03*
X-32150D02*
D03*
X-25025Y-15100D02*
D03*
X-25975D02*
D03*
X-25025Y-16000D02*
D03*
X-25975D02*
D03*
X-23875Y-15100D02*
D03*
X-22925D02*
D03*
X-23875Y-16000D02*
D03*
X-22925D02*
D03*
X-20275Y-21300D02*
D03*
X-19325D02*
D03*
X-25850Y-25500D02*
D03*
X-24900D02*
D03*
X-25850Y-26400D02*
D03*
X-24900D02*
D03*
D67*
X-24425Y-5699D02*
D03*
Y-4301D02*
D03*
D68*
X-3875Y-9725D02*
D03*
X-3225D02*
D03*
X-2575D02*
D03*
Y-7875D02*
D03*
X-3225D02*
D03*
X-3875D02*
D03*
D69*
X-22100Y-23700D02*
D03*
Y-23050D02*
D03*
Y-22400D02*
D03*
Y-21750D02*
D03*
Y-20450D02*
D03*
Y-19800D02*
D03*
Y-19150D02*
D03*
Y-21100D02*
D03*
X-22750D02*
D03*
X-23400D02*
D03*
X-24050D02*
D03*
X-24700D02*
D03*
X-25350D02*
D03*
X-26000D02*
D03*
X-26650D02*
D03*
X-27300D02*
D03*
X-27950D02*
D03*
X-22750Y-23700D02*
D03*
X-23400D02*
D03*
X-24050D02*
D03*
X-24700D02*
D03*
X-25350D02*
D03*
X-26000D02*
D03*
X-26650D02*
D03*
X-27300D02*
D03*
X-27950D02*
D03*
X-22750Y-23050D02*
D03*
X-23400D02*
D03*
X-24050D02*
D03*
X-24700D02*
D03*
X-25350D02*
D03*
X-26000D02*
D03*
X-26650D02*
D03*
X-27300D02*
D03*
X-27950D02*
D03*
X-22750Y-22400D02*
D03*
X-23400D02*
D03*
X-24050D02*
D03*
X-24700D02*
D03*
X-25350D02*
D03*
X-26000D02*
D03*
X-26650D02*
D03*
X-27300D02*
D03*
X-27950D02*
D03*
X-22750Y-21750D02*
D03*
X-23400D02*
D03*
X-24050D02*
D03*
X-24700D02*
D03*
X-25350D02*
D03*
X-26000D02*
D03*
X-26650D02*
D03*
X-27300D02*
D03*
X-27950D02*
D03*
X-22750Y-20450D02*
D03*
X-23400D02*
D03*
X-24050D02*
D03*
X-24700D02*
D03*
X-25350D02*
D03*
X-26000D02*
D03*
X-26650D02*
D03*
X-27300D02*
D03*
X-27950D02*
D03*
X-22750Y-19800D02*
D03*
X-23400D02*
D03*
X-24050D02*
D03*
X-24700D02*
D03*
X-25350D02*
D03*
X-26000D02*
D03*
X-26650D02*
D03*
X-27300D02*
D03*
X-27950D02*
D03*
X-22750Y-19150D02*
D03*
X-23400D02*
D03*
X-24050D02*
D03*
X-24700D02*
D03*
X-25350D02*
D03*
X-26000D02*
D03*
X-26650D02*
D03*
X-27300D02*
D03*
X-27950D02*
D03*
X-22100Y-18500D02*
D03*
X-22750D02*
D03*
X-23400D02*
D03*
X-24050D02*
D03*
X-24700D02*
D03*
X-25350D02*
D03*
X-26000D02*
D03*
X-26650D02*
D03*
X-27300D02*
D03*
X-27950D02*
D03*
X-22100Y-17850D02*
D03*
X-22750D02*
D03*
X-23400D02*
D03*
X-24050D02*
D03*
X-24700D02*
D03*
X-25350D02*
D03*
X-26000D02*
D03*
X-26650D02*
D03*
X-27300D02*
D03*
X-27950D02*
D03*
D70*
X-28825Y-4650D02*
D03*
Y-5150D02*
D03*
Y-6150D02*
D03*
Y-5650D02*
D03*
X-26025D02*
D03*
Y-6150D02*
D03*
Y-5150D02*
D03*
Y-4650D02*
D03*
D72*
X-15400Y-22150D02*
D03*
Y-18350D02*
D03*
X-13100D02*
D03*
Y-22150D02*
D03*
D128*
X-27425Y-5400D02*
D03*
X-27850Y-5800D02*
D03*
X-27000D02*
D03*
Y-5000D02*
D03*
X-27850D02*
D03*
D129*
X-27425Y-5400D02*
D03*
M02*
