%FSLAX43Y43*%
%MOMM*%
G71*
G01*
G75*
G04 Layer_Physical_Order=3*
G04 Layer_Color=128*
%ADD10R,1.000X2.250*%
%ADD11R,0.800X0.650*%
%ADD12R,1.200X1.200*%
%ADD13R,1.200X1.200*%
%ADD14R,0.500X0.650*%
%ADD15R,0.700X0.700*%
%ADD16R,0.550X0.600*%
%ADD17R,0.650X0.800*%
%ADD18R,0.900X0.600*%
%ADD19R,0.600X0.900*%
%ADD20R,0.762X0.762*%
%ADD21R,0.950X1.750*%
%ADD22R,1.000X0.950*%
%ADD23R,1.600X1.300*%
%ADD24R,0.600X0.500*%
%ADD25R,1.100X1.000*%
%ADD26R,1.100X0.600*%
%ADD27R,0.254X1.524*%
%ADD28R,0.254X1.524*%
%ADD29R,1.524X0.254*%
%ADD30R,1.524X0.254*%
%ADD31R,1.524X0.254*%
%ADD32R,0.254X1.524*%
%ADD33R,1.524X0.254*%
%ADD34R,1.524X0.254*%
%ADD35R,0.254X1.524*%
%ADD36R,0.254X1.524*%
%ADD37R,0.254X1.524*%
%ADD38R,1.600X1.000*%
%ADD39R,2.500X3.000*%
%ADD40R,0.400X1.400*%
%ADD41R,2.300X1.900*%
%ADD42R,1.775X1.900*%
%ADD43C,0.125*%
%ADD44C,0.150*%
%ADD45C,0.175*%
%ADD46C,0.200*%
%ADD47C,0.180*%
%ADD48C,0.300*%
%ADD49R,0.900X0.300*%
%ADD50C,3.600*%
%ADD51R,1.700X1.700*%
%ADD52C,1.700*%
%ADD53R,1.700X1.700*%
%ADD54C,0.350*%
%ADD55C,0.380*%
%ADD56C,0.550*%
%ADD57C,0.500*%
G04:AMPARAMS|DCode=58|XSize=4.224mm|YSize=4.224mm|CornerRadius=0mm|HoleSize=0mm|Usage=FLASHONLY|Rotation=0.000|XOffset=0mm|YOffset=0mm|HoleType=Round|Shape=Relief|Width=0.254mm|Gap=0.254mm|Entries=4|*
%AMTHD58*
7,0,0,4.224,3.716,0.254,45*
%
%ADD58THD58*%
%ADD59C,1.400*%
G04:AMPARAMS|DCode=60|XSize=2.524mm|YSize=2.524mm|CornerRadius=0mm|HoleSize=0mm|Usage=FLASHONLY|Rotation=0.000|XOffset=0mm|YOffset=0mm|HoleType=Round|Shape=Relief|Width=0.254mm|Gap=0.254mm|Entries=4|*
%AMTHD60*
7,0,0,2.524,2.016,0.254,45*
%
%ADD60THD60*%
%ADD61C,0.650*%
%ADD62C,3.100*%
D46*
X-38000Y-61000D02*
X-36000Y-63000D01*
X-38000Y-61000D02*
Y-49500D01*
X-36000Y-63000D02*
X-25000D01*
X-23000Y-61000D01*
Y-50000D01*
X-25000Y-48000D02*
X-23000Y-50000D01*
X-36500Y-48000D02*
X-25000D01*
X-38000Y-49500D02*
X-36500Y-48000D01*
X-35900Y-20800D02*
Y-8800D01*
X-40133Y-9500D02*
X-40094Y-9461D01*
X-42750Y-9500D02*
X-40133D01*
X-42750Y-44750D02*
Y-9500D01*
X-45900Y-47900D02*
X-42750Y-44750D01*
X-45900Y-60500D02*
Y-47900D01*
Y-60500D02*
X-35600Y-70800D01*
X-22400D01*
X-17300Y-65700D01*
Y-49700D01*
X-24500Y-42500D02*
X-17300Y-49700D01*
X-30700Y-42500D02*
X-24500D01*
X-40000Y-33200D02*
X-30700Y-42500D01*
X-40000Y-33200D02*
Y-9500D01*
X-31800Y-6252D02*
Y0D01*
X-31898Y-6350D02*
X-31800Y-6252D01*
X-33450Y-6350D02*
X-31898D01*
X-35900Y-8800D02*
X-33450Y-6350D01*
X-5500Y-15042D02*
X-252D01*
X-5500Y-17300D02*
Y-15042D01*
Y-17300D02*
X-4500Y-18300D01*
Y-27500D02*
Y-18300D01*
X-35900Y-20800D02*
X-29200Y-27500D01*
X-4500D01*
D56*
X-23500Y-33500D02*
D03*
X-30525Y-15000D02*
D03*
X-28975Y-21925D02*
D03*
X-24375Y-22725D02*
D03*
X-26975Y-18825D02*
D03*
X-23075D02*
D03*
X-25025Y-20775D02*
D03*
X-19200Y-17400D02*
D03*
X-19600Y-18200D02*
D03*
X-26325Y-22725D02*
D03*
X-24900Y-24825D02*
D03*
X-23725Y-18825D02*
D03*
X-23625Y-17250D02*
D03*
Y-16625D02*
D03*
X-31675Y-13775D02*
D03*
X-25525Y-16825D02*
D03*
X-24625D02*
D03*
X-25025Y-19475D02*
D03*
X-23075Y-22075D02*
D03*
X-16100Y-24950D02*
D03*
X-28775Y-23675D02*
D03*
X-24375Y-20775D02*
D03*
X-23075Y-21425D02*
D03*
X-30525Y-15500D02*
D03*
Y-16000D02*
D03*
X-26325Y-20125D02*
D03*
X-25675D02*
D03*
D57*
X-10600Y-350D02*
G03*
X-9825Y-1I0J1036D01*
G01*
X-21375D02*
G03*
X-20600Y-350I776J686D01*
G01*
X-60000Y-100000D02*
X0D01*
Y0D01*
X-9825D02*
X0D01*
X-9825Y-1D02*
Y0D01*
X-10600Y-350D02*
Y-350D01*
X-20600Y-350D02*
X-10600D01*
X-21375Y-1D02*
Y0D01*
X-60000D02*
X-21375D01*
X-60000Y-100000D02*
Y0D01*
D59*
X-18570Y-93030D02*
D03*
X-31270D02*
D03*
Y-95570D02*
D03*
X-33810D02*
D03*
Y-93030D02*
D03*
X-36350Y-95570D02*
D03*
Y-93030D02*
D03*
X-38890Y-95570D02*
D03*
Y-93030D02*
D03*
X-41430D02*
D03*
X-28730D02*
D03*
X-26190D02*
D03*
Y-95570D02*
D03*
X-23650Y-93030D02*
D03*
Y-95570D02*
D03*
X-21110Y-93030D02*
D03*
Y-95570D02*
D03*
X-18570D02*
D03*
X-28730D02*
D03*
X-4430Y-38890D02*
D03*
Y-28730D02*
D03*
Y-31270D02*
D03*
X-6970D02*
D03*
X-4430Y-33810D02*
D03*
X-6970D02*
D03*
X-4430Y-36350D02*
D03*
X-6970D02*
D03*
Y-38890D02*
D03*
Y-51590D02*
D03*
Y-49050D02*
D03*
X-4430D02*
D03*
X-6970Y-46510D02*
D03*
X-4430D02*
D03*
X-6970Y-43970D02*
D03*
X-4430D02*
D03*
Y-41430D02*
D03*
X-6970D02*
D03*
Y-28730D02*
D03*
X-56508Y-61750D02*
D03*
Y-66830D02*
D03*
Y-69370D02*
D03*
Y-71910D02*
D03*
Y-74450D02*
D03*
Y-84610D02*
D03*
Y-87150D02*
D03*
Y-89690D02*
D03*
Y-79530D02*
D03*
Y-76990D02*
D03*
Y-82070D02*
D03*
X-4430Y-74450D02*
D03*
Y-64290D02*
D03*
Y-66830D02*
D03*
X-6970D02*
D03*
X-4430Y-69370D02*
D03*
X-6970D02*
D03*
X-4430Y-71910D02*
D03*
X-6970D02*
D03*
Y-74450D02*
D03*
Y-87150D02*
D03*
Y-84610D02*
D03*
X-4430D02*
D03*
X-6970Y-82070D02*
D03*
X-4430D02*
D03*
X-6970Y-79530D02*
D03*
X-4430D02*
D03*
Y-76990D02*
D03*
X-6970D02*
D03*
Y-64290D02*
D03*
X-4430Y-13490D02*
D03*
X-6970Y-16030D02*
D03*
Y-13490D02*
D03*
X-56508D02*
D03*
Y-8410D02*
D03*
Y-21110D02*
D03*
Y-18570D02*
D03*
Y-16030D02*
D03*
Y-26190D02*
D03*
Y-31270D02*
D03*
Y-33810D02*
D03*
Y-36350D02*
D03*
Y-38890D02*
D03*
Y-49050D02*
D03*
Y-51590D02*
D03*
Y-54130D02*
D03*
Y-43970D02*
D03*
Y-41430D02*
D03*
Y-46510D02*
D03*
X-43848Y-41950D02*
D03*
Y-39410D02*
D03*
D60*
X-41430Y-95570D02*
D03*
X-4430Y-51590D02*
D03*
X-56508Y-64290D02*
D03*
X-41270Y-10950D02*
D03*
X-38730D02*
D03*
X-4430Y-87150D02*
D03*
Y-16030D02*
D03*
X-56508Y-10950D02*
D03*
Y-28730D02*
D03*
D61*
X-30275Y-55300D02*
D03*
Y-53950D02*
D03*
X-28575Y-53925D02*
D03*
X-29282Y-54300D02*
D03*
X-26500Y-52350D02*
D03*
X-25725Y-51900D02*
D03*
X-24325Y-52020D02*
D03*
Y-51175D02*
D03*
X-22050Y-48675D02*
D03*
Y-47750D02*
D03*
X-20625Y-48675D02*
D03*
Y-47750D02*
D03*
X-25050Y-29250D02*
D03*
X-24500Y-27925D02*
D03*
X-31750Y-55300D02*
D03*
Y-53950D02*
D03*
X-30925Y-46150D02*
D03*
X-30425Y-45625D02*
D03*
X-29200Y-43225D02*
D03*
X-26625Y-44625D02*
D03*
X-30000Y-51200D02*
D03*
X-30102Y-50527D02*
D03*
X-25475Y-62025D02*
D03*
X-30725Y-64425D02*
D03*
X-29575Y-65025D02*
D03*
X-28225Y-64675D02*
D03*
X-28925D02*
D03*
X-8375Y-53625D02*
D03*
X-4475D02*
D03*
X-27225Y-64725D02*
D03*
X-32175Y-70175D02*
D03*
X-32625Y-69575D02*
D03*
X-35425Y-60575D02*
D03*
X-34575D02*
D03*
X-45162Y-56800D02*
D03*
X-43350Y-57025D02*
D03*
X-39685Y-50025D02*
D03*
X-29525Y-35250D02*
D03*
X-47375Y-61075D02*
D03*
X-42075Y-71425D02*
D03*
X-43175Y-71225D02*
D03*
X-43575Y-72350D02*
D03*
X-44725Y-52975D02*
D03*
X-44175Y-77100D02*
D03*
X-41575Y-59275D02*
D03*
X-41200Y-59950D02*
D03*
X-42125Y-67000D02*
D03*
X-41350Y-69300D02*
D03*
X-31562Y-80338D02*
D03*
X-16175Y-78825D02*
D03*
X-16475Y-77925D02*
D03*
X-39852Y-56603D02*
D03*
X-21975Y-3700D02*
D03*
X-16750Y-65250D02*
D03*
X-32975Y-68400D02*
D03*
X-18351Y-22626D02*
D03*
X-30150Y-49175D02*
D03*
X-31750Y-49150D02*
D03*
X-32775D02*
D03*
X-33750D02*
D03*
X-35450Y-49075D02*
D03*
X-38475Y-62250D02*
D03*
X-32475Y-61450D02*
D03*
X-28225Y-61825D02*
D03*
X-24150Y-59525D02*
D03*
X-24400Y-57950D02*
D03*
X-20650Y-54700D02*
D03*
X-24325Y-55275D02*
D03*
X-21325Y-55525D02*
D03*
X-21375Y-54250D02*
D03*
X-21600Y-50000D02*
D03*
X-57550Y-50375D02*
D03*
X-43175Y-51125D02*
D03*
X-39400Y-89675D02*
D03*
X-38925Y-87100D02*
D03*
X-38325Y-82070D02*
D03*
X-36125Y-68700D02*
D03*
X-29225Y-61875D02*
D03*
X-27875Y-70925D02*
D03*
X-28900Y-70700D02*
D03*
X-30225Y-69300D02*
D03*
X-31075Y-82125D02*
D03*
X-43200Y-46400D02*
D03*
X-25100Y-9900D02*
D03*
X-21400Y-13600D02*
D03*
X-20550Y-22075D02*
D03*
X-22026Y-41702D02*
D03*
X-25225Y-46275D02*
D03*
X-22175Y-32075D02*
D03*
X-20900D02*
D03*
X-19625D02*
D03*
X-18350D02*
D03*
X-34250Y-83250D02*
D03*
X-13725Y-3875D02*
D03*
X-34400Y-13775D02*
D03*
X-35325Y-9500D02*
D03*
X-17800Y-19100D02*
D03*
X-725Y-11100D02*
D03*
X-3875Y-7025D02*
D03*
X-11450Y-12650D02*
D03*
X-11100Y-16100D02*
D03*
X-18525Y-21300D02*
D03*
X-40500Y-1500D02*
D03*
X-11200Y-6725D02*
D03*
X-17400Y-7500D02*
D03*
X-10800Y-5675D02*
D03*
X-34125Y-2150D02*
D03*
X-29175Y-1650D02*
D03*
X-24925Y-1500D02*
D03*
X-30075Y-1525D02*
D03*
X-10325Y-11450D02*
D03*
X-25375Y-3400D02*
D03*
X-27425Y-4225D02*
D03*
X-26925Y-6750D02*
D03*
Y-7975D02*
D03*
X-2800Y-12150D02*
D03*
X-6350Y-10050D02*
D03*
Y-8750D02*
D03*
X-1200Y-7250D02*
D03*
X-16125Y-20275D02*
D03*
X-18025Y-9575D02*
D03*
X-11950D02*
D03*
X-22100Y-15100D02*
D03*
X-30875Y-23175D02*
D03*
X-26800Y-15100D02*
D03*
X-32975Y-18900D02*
D03*
X-22175Y-26200D02*
D03*
X-20900Y-26200D02*
D03*
X-19625D02*
D03*
X-27575Y-26175D02*
D03*
X-18350Y-26200D02*
D03*
X-28850Y-26175D02*
D03*
X-24650Y-37075D02*
D03*
X-25250Y-11125D02*
D03*
X-43475Y-58300D02*
D03*
X-40400Y-42350D02*
D03*
X-32200Y-43150D02*
D03*
X-43300Y-50450D02*
D03*
X-43500Y-49075D02*
D03*
X-43425Y-47700D02*
D03*
X-36800Y-68425D02*
D03*
X-37375Y-63275D02*
D03*
X-21325Y-68050D02*
D03*
X-29500Y-69850D02*
D03*
X-19750Y-65025D02*
D03*
X-18525Y-59025D02*
D03*
X-18275Y-52500D02*
D03*
X-43225Y-52325D02*
D03*
X-20500Y-56515D02*
D03*
X-34200Y-46375D02*
D03*
X-26250Y-65875D02*
D03*
X-33225Y-62075D02*
D03*
X-37425Y-68975D02*
D03*
X-35225Y-62125D02*
D03*
X-34900Y-69725D02*
D03*
X-36125Y-84600D02*
D03*
X-37425Y-80800D02*
D03*
X-33125Y-84025D02*
D03*
X-34025Y-61950D02*
D03*
X-37750Y-65200D02*
D03*
X-37225Y-60025D02*
D03*
X-36250Y-58075D02*
D03*
X-37150Y-58025D02*
D03*
X-37050Y-56025D02*
D03*
X-37000Y-55025D02*
D03*
X-36375Y-55500D02*
D03*
X-36400Y-56525D02*
D03*
X-37200Y-52500D02*
D03*
X-29575Y-19975D02*
D03*
X-30725Y-32125D02*
D03*
X-30275Y-26175D02*
D03*
X-24650Y-60550D02*
D03*
X-21725Y-58520D02*
D03*
X-37275Y-61250D02*
D03*
X-46013Y-63025D02*
D03*
X-30725Y-61250D02*
D03*
X-24650Y-61225D02*
D03*
X-13575Y-51725D02*
D03*
X-43675Y-60425D02*
D03*
X-47850Y-61875D02*
D03*
X-42725Y-61200D02*
D03*
X-46450Y-60400D02*
D03*
Y-61175D02*
D03*
X-25575Y-48975D02*
D03*
X-23200Y-48900D02*
D03*
X-21100Y-46150D02*
D03*
X-21825Y-45500D02*
D03*
X-32375Y-42475D02*
D03*
X-24325Y-56250D02*
D03*
X-39850Y-36875D02*
D03*
X-24425Y-53525D02*
D03*
X-34800Y-39375D02*
D03*
X-24425Y-54275D02*
D03*
X-35200Y-38100D02*
D03*
X-24325Y-50525D02*
D03*
Y-49875D02*
D03*
X-45127Y-69753D02*
D03*
X-39200Y-37600D02*
D03*
X-36525Y-50150D02*
D03*
X-28400Y-32075D02*
D03*
X-44625Y-70425D02*
D03*
X-44350Y-57600D02*
D03*
X-38275Y-37600D02*
D03*
X-37225Y-51525D02*
D03*
X-27125Y-32075D02*
D03*
X-38275Y-33175D02*
D03*
X-39200Y-33175D02*
D03*
X-40325Y-70600D02*
D03*
X-39850Y-71175D02*
D03*
X-40800D02*
D03*
X-36225Y-52175D02*
D03*
X-37250Y-53500D02*
D03*
X-36475Y-51025D02*
D03*
X-39850Y-89125D02*
D03*
Y-88412D02*
D03*
Y-87700D02*
D03*
X-32450Y-27900D02*
D03*
X-36950Y-35250D02*
D03*
X-48525Y-59275D02*
D03*
Y-59950D02*
D03*
X-18975Y-13000D02*
D03*
X-30575Y-29925D02*
D03*
X-36425Y-28400D02*
D03*
X-53500Y-56825D02*
D03*
X-33750Y-85850D02*
D03*
X-37550Y-90975D02*
D03*
X-27750Y-36775D02*
D03*
X-7450Y-56175D02*
D03*
X-11975Y-50700D02*
D03*
X-10775Y-71450D02*
D03*
X-12325Y-69850D02*
D03*
X-22050Y-76325D02*
D03*
X-23025Y-83950D02*
D03*
X-51425Y-49100D02*
D03*
X-31725Y-68400D02*
D03*
X-26350Y-13750D02*
D03*
X-31925Y-21225D02*
D03*
X-34150Y-10875D02*
D03*
X-29925Y-5175D02*
D03*
X-18375Y-11800D02*
D03*
X-16237Y-16337D02*
D03*
X-13175Y-6550D02*
D03*
X-34225Y-64725D02*
D03*
X-43275Y-54450D02*
D03*
X-29725Y-2475D02*
D03*
X-23498Y-40225D02*
D03*
X-29200Y-14850D02*
D03*
X-36825Y-38584D02*
D03*
X-13950Y-63050D02*
D03*
X-17375Y-60900D02*
D03*
X-4262Y-60287D02*
D03*
D62*
X-57650Y-97650D02*
D03*
X-2350D02*
D03*
X-57650Y-2350D02*
D03*
X-2350D02*
D03*
M02*
