%FSLAX43Y43*%
%MOMM*%
G71*
G01*
G75*
G04 Layer_Physical_Order=4*
G04 Layer_Color=16711680*
%ADD10R,1.000X2.250*%
%ADD11R,0.800X0.650*%
%ADD12R,1.200X1.200*%
%ADD13R,1.200X1.200*%
%ADD14R,0.500X0.650*%
%ADD15R,0.700X0.700*%
%ADD16R,0.550X0.600*%
%ADD17R,0.650X0.800*%
%ADD18R,0.900X0.600*%
%ADD19R,0.600X0.900*%
%ADD20R,0.762X0.762*%
%ADD21R,0.950X1.750*%
%ADD22R,1.000X0.950*%
%ADD23R,1.600X1.300*%
%ADD24R,0.600X0.500*%
%ADD25R,1.100X1.000*%
%ADD26R,1.100X0.600*%
%ADD27R,0.254X1.524*%
%ADD28R,0.254X1.524*%
%ADD29R,1.524X0.254*%
%ADD30R,1.524X0.254*%
%ADD31R,1.524X0.254*%
%ADD32R,0.254X1.524*%
%ADD33R,1.524X0.254*%
%ADD34R,1.524X0.254*%
%ADD35R,0.254X1.524*%
%ADD36R,0.254X1.524*%
%ADD37R,0.254X1.524*%
%ADD38R,1.600X1.000*%
%ADD39R,2.500X3.000*%
%ADD40R,0.400X1.400*%
%ADD41R,2.300X1.900*%
%ADD42R,1.775X1.900*%
%ADD43C,0.125*%
%ADD44C,0.150*%
%ADD45C,0.175*%
%ADD46C,0.200*%
%ADD47C,0.180*%
%ADD48C,0.300*%
%ADD49R,0.900X0.300*%
%ADD50C,3.600*%
%ADD51R,1.700X1.700*%
%ADD52C,1.700*%
%ADD53R,1.700X1.700*%
%ADD54C,0.350*%
%ADD55C,0.380*%
%ADD56C,0.550*%
%ADD57C,0.500*%
G04:AMPARAMS|DCode=58|XSize=4.224mm|YSize=4.224mm|CornerRadius=0mm|HoleSize=0mm|Usage=FLASHONLY|Rotation=0.000|XOffset=0mm|YOffset=0mm|HoleType=Round|Shape=Relief|Width=0.254mm|Gap=0.254mm|Entries=4|*
%AMTHD58*
7,0,0,4.224,3.716,0.254,45*
%
%ADD58THD58*%
%ADD59C,1.400*%
G04:AMPARAMS|DCode=60|XSize=2.524mm|YSize=2.524mm|CornerRadius=0mm|HoleSize=0mm|Usage=FLASHONLY|Rotation=0.000|XOffset=0mm|YOffset=0mm|HoleType=Round|Shape=Relief|Width=0.254mm|Gap=0.254mm|Entries=4|*
%AMTHD60*
7,0,0,2.524,2.016,0.254,45*
%
%ADD60THD60*%
%ADD61C,0.650*%
%ADD62C,3.100*%
%ADD63C,0.800*%
%ADD64R,1.300X0.600*%
%ADD65C,1.270*%
%ADD66R,0.650X0.500*%
%ADD67R,0.762X0.762*%
%ADD68R,0.350X0.850*%
%ADD69C,0.280*%
%ADD70R,0.600X0.250*%
%ADD71R,1.600X1.500*%
%ADD72R,1.300X1.600*%
G36*
X-462Y-99538D02*
X-59538D01*
Y-462D01*
X-21441D01*
X-21197Y-649D01*
X-20909Y-769D01*
X-20607Y-809D01*
X-20599Y-812D01*
X-10600D01*
X-10592Y-809D01*
X-10290Y-769D01*
X-10002Y-649D01*
X-9758Y-462D01*
X-462D01*
Y-99538D01*
D02*
G37*
%LPC*%
G36*
X-56508Y-40472D02*
X-56756Y-40504D01*
X-56987Y-40600D01*
X-57186Y-40752D01*
X-57338Y-40951D01*
X-57434Y-41182D01*
X-57466Y-41430D01*
X-57434Y-41678D01*
X-57338Y-41909D01*
X-57186Y-42108D01*
X-56987Y-42260D01*
X-56756Y-42356D01*
X-56508Y-42388D01*
X-56260Y-42356D01*
X-56029Y-42260D01*
X-55830Y-42108D01*
X-55678Y-41909D01*
X-55582Y-41678D01*
X-55550Y-41430D01*
X-55582Y-41182D01*
X-55678Y-40951D01*
X-55830Y-40752D01*
X-56029Y-40600D01*
X-56260Y-40504D01*
X-56508Y-40472D01*
D02*
G37*
G36*
X-42898Y-41000D02*
X-44798D01*
Y-42900D01*
X-42898D01*
Y-41000D01*
D02*
G37*
G36*
X-43275Y-53940D02*
X-43470Y-53979D01*
X-43635Y-54090D01*
X-43746Y-54255D01*
X-43785Y-54450D01*
X-43746Y-54645D01*
X-43635Y-54810D01*
X-43470Y-54921D01*
X-43275Y-54960D01*
X-43080Y-54921D01*
X-42915Y-54810D01*
X-42804Y-54645D01*
X-42765Y-54450D01*
X-42804Y-54255D01*
X-42915Y-54090D01*
X-43080Y-53979D01*
X-43275Y-53940D01*
D02*
G37*
G36*
X-43948Y-39510D02*
X-44894D01*
X-44871Y-39684D01*
X-44765Y-39940D01*
X-44597Y-40159D01*
X-44378Y-40327D01*
X-44122Y-40433D01*
X-43948Y-40456D01*
Y-39510D01*
D02*
G37*
G36*
X-43748Y-38364D02*
Y-39310D01*
X-42802D01*
X-42825Y-39136D01*
X-42931Y-38880D01*
X-43099Y-38661D01*
X-43318Y-38493D01*
X-43574Y-38387D01*
X-43748Y-38364D01*
D02*
G37*
G36*
X-43948D02*
X-44122Y-38387D01*
X-44378Y-38493D01*
X-44597Y-38661D01*
X-44765Y-38880D01*
X-44871Y-39136D01*
X-44894Y-39310D01*
X-43948D01*
Y-38364D01*
D02*
G37*
G36*
X-42802Y-39510D02*
X-43748D01*
Y-40456D01*
X-43574Y-40433D01*
X-43318Y-40327D01*
X-43099Y-40159D01*
X-42931Y-39940D01*
X-42825Y-39684D01*
X-42802Y-39510D01*
D02*
G37*
G36*
X-55558Y-53180D02*
X-57458D01*
Y-55080D01*
X-55558D01*
Y-53180D01*
D02*
G37*
G36*
X-4330Y-63244D02*
Y-64190D01*
X-3384D01*
X-3407Y-64016D01*
X-3513Y-63760D01*
X-3681Y-63541D01*
X-3900Y-63373D01*
X-4156Y-63267D01*
X-4330Y-63244D01*
D02*
G37*
G36*
X-4530D02*
X-4704Y-63267D01*
X-4960Y-63373D01*
X-5179Y-63541D01*
X-5347Y-63760D01*
X-5453Y-64016D01*
X-5476Y-64190D01*
X-4530D01*
Y-63244D01*
D02*
G37*
G36*
X-56508Y-63332D02*
X-56756Y-63364D01*
X-56987Y-63460D01*
X-57186Y-63612D01*
X-57338Y-63811D01*
X-57434Y-64042D01*
X-57466Y-64290D01*
X-57434Y-64538D01*
X-57338Y-64769D01*
X-57186Y-64968D01*
X-56987Y-65120D01*
X-56756Y-65216D01*
X-56508Y-65248D01*
X-56260Y-65216D01*
X-56029Y-65120D01*
X-55830Y-64968D01*
X-55678Y-64769D01*
X-55582Y-64538D01*
X-55550Y-64290D01*
X-55582Y-64042D01*
X-55678Y-63811D01*
X-55830Y-63612D01*
X-56029Y-63460D01*
X-56260Y-63364D01*
X-56508Y-63332D01*
D02*
G37*
G36*
X-56608Y-61850D02*
X-57554D01*
X-57531Y-62024D01*
X-57425Y-62280D01*
X-57257Y-62499D01*
X-57038Y-62667D01*
X-56782Y-62773D01*
X-56608Y-62796D01*
Y-61850D01*
D02*
G37*
G36*
X-56408Y-60704D02*
Y-61650D01*
X-55462D01*
X-55485Y-61476D01*
X-55591Y-61220D01*
X-55759Y-61001D01*
X-55978Y-60833D01*
X-56234Y-60727D01*
X-56408Y-60704D01*
D02*
G37*
G36*
X-56608D02*
X-56782Y-60727D01*
X-57038Y-60833D01*
X-57257Y-61001D01*
X-57425Y-61220D01*
X-57531Y-61476D01*
X-57554Y-61650D01*
X-56608D01*
Y-60704D01*
D02*
G37*
G36*
X-55462Y-61850D02*
X-56408D01*
Y-62796D01*
X-56234Y-62773D01*
X-55978Y-62667D01*
X-55759Y-62499D01*
X-55591Y-62280D01*
X-55485Y-62024D01*
X-55462Y-61850D01*
D02*
G37*
G36*
X-55558Y-20160D02*
X-57458D01*
Y-22060D01*
X-55558D01*
Y-20160D01*
D02*
G37*
G36*
X-29550Y-22475D02*
X-29900D01*
Y-22900D01*
X-29550D01*
Y-22475D01*
D02*
G37*
G36*
X-30975D02*
X-31325D01*
Y-22900D01*
X-30975D01*
Y-22475D01*
D02*
G37*
G36*
X-18800Y-21400D02*
X-19225D01*
Y-21750D01*
X-18800D01*
Y-21400D01*
D02*
G37*
G36*
X-56508Y-15072D02*
X-56756Y-15104D01*
X-56987Y-15200D01*
X-57186Y-15352D01*
X-57338Y-15551D01*
X-57434Y-15782D01*
X-57466Y-16030D01*
X-57434Y-16278D01*
X-57338Y-16509D01*
X-57186Y-16708D01*
X-56987Y-16860D01*
X-56756Y-16956D01*
X-56508Y-16988D01*
X-56260Y-16956D01*
X-56029Y-16860D01*
X-55830Y-16708D01*
X-55678Y-16509D01*
X-55582Y-16278D01*
X-55550Y-16030D01*
X-55582Y-15782D01*
X-55678Y-15551D01*
X-55830Y-15352D01*
X-56029Y-15200D01*
X-56260Y-15104D01*
X-56508Y-15072D01*
D02*
G37*
G36*
X-32250Y-18450D02*
X-32675D01*
Y-18800D01*
X-32250D01*
Y-18450D01*
D02*
G37*
G36*
X-56508Y-17612D02*
X-56756Y-17644D01*
X-56987Y-17740D01*
X-57186Y-17892D01*
X-57338Y-18091D01*
X-57434Y-18322D01*
X-57466Y-18570D01*
X-57434Y-18818D01*
X-57338Y-19049D01*
X-57186Y-19248D01*
X-56987Y-19400D01*
X-56756Y-19496D01*
X-56508Y-19528D01*
X-56260Y-19496D01*
X-56029Y-19400D01*
X-55830Y-19248D01*
X-55678Y-19049D01*
X-55582Y-18818D01*
X-55550Y-18570D01*
X-55582Y-18322D01*
X-55678Y-18091D01*
X-55830Y-17892D01*
X-56029Y-17740D01*
X-56260Y-17644D01*
X-56508Y-17612D01*
D02*
G37*
G36*
X-12250Y-21150D02*
X-13950D01*
Y-23150D01*
X-12250D01*
Y-21150D01*
D02*
G37*
G36*
X-56608Y-26290D02*
X-57554D01*
X-57531Y-26464D01*
X-57425Y-26720D01*
X-57257Y-26939D01*
X-57038Y-27107D01*
X-56782Y-27213D01*
X-56608Y-27236D01*
Y-26290D01*
D02*
G37*
G36*
X-56508Y-27772D02*
X-56756Y-27804D01*
X-56987Y-27900D01*
X-57186Y-28052D01*
X-57338Y-28251D01*
X-57434Y-28482D01*
X-57466Y-28730D01*
X-57434Y-28978D01*
X-57338Y-29209D01*
X-57186Y-29408D01*
X-56987Y-29560D01*
X-56756Y-29656D01*
X-56508Y-29688D01*
X-56260Y-29656D01*
X-56029Y-29560D01*
X-55830Y-29408D01*
X-55678Y-29209D01*
X-55582Y-28978D01*
X-55550Y-28730D01*
X-55582Y-28482D01*
X-55678Y-28251D01*
X-55830Y-28052D01*
X-56029Y-27900D01*
X-56260Y-27804D01*
X-56508Y-27772D01*
D02*
G37*
G36*
Y-30312D02*
X-56756Y-30344D01*
X-56987Y-30440D01*
X-57186Y-30592D01*
X-57338Y-30791D01*
X-57434Y-31022D01*
X-57466Y-31270D01*
X-57434Y-31518D01*
X-57338Y-31749D01*
X-57186Y-31948D01*
X-56987Y-32100D01*
X-56756Y-32196D01*
X-56508Y-32228D01*
X-56260Y-32196D01*
X-56029Y-32100D01*
X-55830Y-31948D01*
X-55678Y-31749D01*
X-55582Y-31518D01*
X-55550Y-31270D01*
X-55582Y-31022D01*
X-55678Y-30791D01*
X-55830Y-30592D01*
X-56029Y-30440D01*
X-56260Y-30344D01*
X-56508Y-30312D01*
D02*
G37*
G36*
X-55462Y-26290D02*
X-56408D01*
Y-27236D01*
X-56234Y-27213D01*
X-55978Y-27107D01*
X-55759Y-26939D01*
X-55591Y-26720D01*
X-55485Y-26464D01*
X-55462Y-26290D01*
D02*
G37*
G36*
X-28850Y-25665D02*
X-29045Y-25704D01*
X-29210Y-25815D01*
X-29273Y-25907D01*
X-30003D01*
X-30005Y-25905D01*
X-30129Y-25822D01*
X-30275Y-25793D01*
X-30421Y-25822D01*
X-30545Y-25905D01*
X-30628Y-26029D01*
X-30657Y-26175D01*
X-30628Y-26321D01*
X-30545Y-26445D01*
X-30421Y-26528D01*
X-30275Y-26557D01*
X-30129Y-26528D01*
X-30005Y-26445D01*
X-30003Y-26443D01*
X-29273D01*
X-29210Y-26535D01*
X-29045Y-26646D01*
X-28850Y-26685D01*
X-28655Y-26646D01*
X-28490Y-26535D01*
X-28379Y-26370D01*
X-28340Y-26175D01*
X-28379Y-25980D01*
X-28490Y-25815D01*
X-28655Y-25704D01*
X-28850Y-25665D01*
D02*
G37*
G36*
X-56408Y-25144D02*
Y-26090D01*
X-55462D01*
X-55485Y-25916D01*
X-55591Y-25660D01*
X-55759Y-25441D01*
X-55978Y-25273D01*
X-56234Y-25167D01*
X-56408Y-25144D01*
D02*
G37*
G36*
X-56608D02*
X-56782Y-25167D01*
X-57038Y-25273D01*
X-57257Y-25441D01*
X-57425Y-25660D01*
X-57531Y-25916D01*
X-57554Y-26090D01*
X-56608D01*
Y-25144D01*
D02*
G37*
G36*
X-18470Y-94524D02*
Y-95470D01*
X-17524D01*
X-17547Y-95296D01*
X-17653Y-95040D01*
X-17821Y-94821D01*
X-18040Y-94653D01*
X-18296Y-94547D01*
X-18470Y-94524D01*
D02*
G37*
G36*
X-18670D02*
X-18844Y-94547D01*
X-19100Y-94653D01*
X-19319Y-94821D01*
X-19487Y-95040D01*
X-19593Y-95296D01*
X-19616Y-95470D01*
X-18670D01*
Y-94524D01*
D02*
G37*
G36*
X-23650Y-94612D02*
X-23898Y-94644D01*
X-24129Y-94740D01*
X-24328Y-94892D01*
X-24480Y-95091D01*
X-24576Y-95322D01*
X-24608Y-95570D01*
X-24576Y-95818D01*
X-24480Y-96049D01*
X-24328Y-96248D01*
X-24129Y-96400D01*
X-23898Y-96496D01*
X-23650Y-96528D01*
X-23402Y-96496D01*
X-23171Y-96400D01*
X-22972Y-96248D01*
X-22820Y-96049D01*
X-22724Y-95818D01*
X-22692Y-95570D01*
X-22724Y-95322D01*
X-22820Y-95091D01*
X-22972Y-94892D01*
X-23171Y-94740D01*
X-23402Y-94644D01*
X-23650Y-94612D01*
D02*
G37*
G36*
X-41530Y-93130D02*
X-42476D01*
X-42453Y-93304D01*
X-42347Y-93560D01*
X-42179Y-93779D01*
X-41960Y-93947D01*
X-41704Y-94053D01*
X-41530Y-94076D01*
Y-93130D01*
D02*
G37*
G36*
X-36350Y-92072D02*
X-36598Y-92104D01*
X-36829Y-92200D01*
X-37028Y-92352D01*
X-37180Y-92551D01*
X-37276Y-92782D01*
X-37308Y-93030D01*
X-37276Y-93278D01*
X-37180Y-93509D01*
X-37028Y-93708D01*
X-36829Y-93860D01*
X-36598Y-93956D01*
X-36350Y-93988D01*
X-36102Y-93956D01*
X-35871Y-93860D01*
X-35672Y-93708D01*
X-35520Y-93509D01*
X-35424Y-93278D01*
X-35392Y-93030D01*
X-35424Y-92782D01*
X-35520Y-92551D01*
X-35672Y-92352D01*
X-35871Y-92200D01*
X-36102Y-92104D01*
X-36350Y-92072D01*
D02*
G37*
G36*
X-38890D02*
X-39138Y-92104D01*
X-39369Y-92200D01*
X-39568Y-92352D01*
X-39720Y-92551D01*
X-39816Y-92782D01*
X-39848Y-93030D01*
X-39816Y-93278D01*
X-39720Y-93509D01*
X-39568Y-93708D01*
X-39369Y-93860D01*
X-39138Y-93956D01*
X-38890Y-93988D01*
X-38642Y-93956D01*
X-38411Y-93860D01*
X-38212Y-93708D01*
X-38060Y-93509D01*
X-37964Y-93278D01*
X-37932Y-93030D01*
X-37964Y-92782D01*
X-38060Y-92551D01*
X-38212Y-92352D01*
X-38411Y-92200D01*
X-38642Y-92104D01*
X-38890Y-92072D01*
D02*
G37*
G36*
X-40384Y-93130D02*
X-41330D01*
Y-94076D01*
X-41156Y-94053D01*
X-40900Y-93947D01*
X-40681Y-93779D01*
X-40513Y-93560D01*
X-40407Y-93304D01*
X-40384Y-93130D01*
D02*
G37*
G36*
X-26190Y-94612D02*
X-26438Y-94644D01*
X-26669Y-94740D01*
X-26868Y-94892D01*
X-27020Y-95091D01*
X-27116Y-95322D01*
X-27148Y-95570D01*
X-27116Y-95818D01*
X-27020Y-96049D01*
X-26868Y-96248D01*
X-26669Y-96400D01*
X-26438Y-96496D01*
X-26190Y-96528D01*
X-25942Y-96496D01*
X-25711Y-96400D01*
X-25512Y-96248D01*
X-25360Y-96049D01*
X-25264Y-95818D01*
X-25232Y-95570D01*
X-25264Y-95322D01*
X-25360Y-95091D01*
X-25512Y-94892D01*
X-25711Y-94740D01*
X-25942Y-94644D01*
X-26190Y-94612D01*
D02*
G37*
G36*
X-41430D02*
X-41678Y-94644D01*
X-41909Y-94740D01*
X-42108Y-94892D01*
X-42260Y-95091D01*
X-42356Y-95322D01*
X-42388Y-95570D01*
X-42356Y-95818D01*
X-42260Y-96049D01*
X-42108Y-96248D01*
X-41909Y-96400D01*
X-41678Y-96496D01*
X-41430Y-96528D01*
X-41182Y-96496D01*
X-40951Y-96400D01*
X-40752Y-96248D01*
X-40600Y-96049D01*
X-40504Y-95818D01*
X-40472Y-95570D01*
X-40504Y-95322D01*
X-40600Y-95091D01*
X-40752Y-94892D01*
X-40951Y-94740D01*
X-41182Y-94644D01*
X-41430Y-94612D01*
D02*
G37*
G36*
X-17524Y-95670D02*
X-18470D01*
Y-96616D01*
X-18296Y-96593D01*
X-18040Y-96487D01*
X-17821Y-96319D01*
X-17653Y-96100D01*
X-17547Y-95844D01*
X-17524Y-95670D01*
D02*
G37*
G36*
X-18670D02*
X-19616D01*
X-19593Y-95844D01*
X-19487Y-96100D01*
X-19319Y-96319D01*
X-19100Y-96487D01*
X-18844Y-96593D01*
X-18670Y-96616D01*
Y-95670D01*
D02*
G37*
G36*
X-38890Y-94612D02*
X-39138Y-94644D01*
X-39369Y-94740D01*
X-39568Y-94892D01*
X-39720Y-95091D01*
X-39816Y-95322D01*
X-39848Y-95570D01*
X-39816Y-95818D01*
X-39720Y-96049D01*
X-39568Y-96248D01*
X-39369Y-96400D01*
X-39138Y-96496D01*
X-38890Y-96528D01*
X-38642Y-96496D01*
X-38411Y-96400D01*
X-38212Y-96248D01*
X-38060Y-96049D01*
X-37964Y-95818D01*
X-37932Y-95570D01*
X-37964Y-95322D01*
X-38060Y-95091D01*
X-38212Y-94892D01*
X-38411Y-94740D01*
X-38642Y-94644D01*
X-38890Y-94612D01*
D02*
G37*
G36*
X-31270D02*
X-31518Y-94644D01*
X-31749Y-94740D01*
X-31948Y-94892D01*
X-32100Y-95091D01*
X-32196Y-95322D01*
X-32228Y-95570D01*
X-32196Y-95818D01*
X-32100Y-96049D01*
X-31948Y-96248D01*
X-31749Y-96400D01*
X-31518Y-96496D01*
X-31270Y-96528D01*
X-31022Y-96496D01*
X-30791Y-96400D01*
X-30592Y-96248D01*
X-30440Y-96049D01*
X-30344Y-95818D01*
X-30312Y-95570D01*
X-30344Y-95322D01*
X-30440Y-95091D01*
X-30592Y-94892D01*
X-30791Y-94740D01*
X-31022Y-94644D01*
X-31270Y-94612D01*
D02*
G37*
G36*
X-33810D02*
X-34058Y-94644D01*
X-34289Y-94740D01*
X-34488Y-94892D01*
X-34640Y-95091D01*
X-34736Y-95322D01*
X-34768Y-95570D01*
X-34736Y-95818D01*
X-34640Y-96049D01*
X-34488Y-96248D01*
X-34289Y-96400D01*
X-34058Y-96496D01*
X-33810Y-96528D01*
X-33562Y-96496D01*
X-33331Y-96400D01*
X-33132Y-96248D01*
X-32980Y-96049D01*
X-32884Y-95818D01*
X-32852Y-95570D01*
X-32884Y-95322D01*
X-32980Y-95091D01*
X-33132Y-94892D01*
X-33331Y-94740D01*
X-33562Y-94644D01*
X-33810Y-94612D01*
D02*
G37*
G36*
X-36350D02*
X-36598Y-94644D01*
X-36829Y-94740D01*
X-37028Y-94892D01*
X-37180Y-95091D01*
X-37276Y-95322D01*
X-37308Y-95570D01*
X-37276Y-95818D01*
X-37180Y-96049D01*
X-37028Y-96248D01*
X-36829Y-96400D01*
X-36598Y-96496D01*
X-36350Y-96528D01*
X-36102Y-96496D01*
X-35871Y-96400D01*
X-35672Y-96248D01*
X-35520Y-96049D01*
X-35424Y-95818D01*
X-35392Y-95570D01*
X-35424Y-95322D01*
X-35520Y-95091D01*
X-35672Y-94892D01*
X-35871Y-94740D01*
X-36102Y-94644D01*
X-36350Y-94612D01*
D02*
G37*
G36*
X-6870Y-86104D02*
Y-87050D01*
X-5924D01*
X-5947Y-86876D01*
X-6053Y-86620D01*
X-6221Y-86401D01*
X-6440Y-86233D01*
X-6696Y-86127D01*
X-6870Y-86104D01*
D02*
G37*
G36*
X-7070D02*
X-7244Y-86127D01*
X-7500Y-86233D01*
X-7719Y-86401D01*
X-7887Y-86620D01*
X-7993Y-86876D01*
X-8016Y-87050D01*
X-7070D01*
Y-86104D01*
D02*
G37*
G36*
X-4430Y-86192D02*
X-4678Y-86224D01*
X-4909Y-86320D01*
X-5108Y-86472D01*
X-5260Y-86671D01*
X-5356Y-86902D01*
X-5388Y-87150D01*
X-5356Y-87398D01*
X-5260Y-87629D01*
X-5108Y-87828D01*
X-4909Y-87980D01*
X-4678Y-88076D01*
X-4430Y-88108D01*
X-4182Y-88076D01*
X-3951Y-87980D01*
X-3752Y-87828D01*
X-3600Y-87629D01*
X-3504Y-87398D01*
X-3472Y-87150D01*
X-3504Y-86902D01*
X-3600Y-86671D01*
X-3752Y-86472D01*
X-3951Y-86320D01*
X-4182Y-86224D01*
X-4430Y-86192D01*
D02*
G37*
G36*
X-56508Y-81112D02*
X-56756Y-81144D01*
X-56987Y-81240D01*
X-57186Y-81392D01*
X-57338Y-81591D01*
X-57434Y-81822D01*
X-57466Y-82070D01*
X-57434Y-82318D01*
X-57338Y-82549D01*
X-57186Y-82748D01*
X-56987Y-82900D01*
X-56756Y-82996D01*
X-56508Y-83028D01*
X-56260Y-82996D01*
X-56029Y-82900D01*
X-55830Y-82748D01*
X-55678Y-82549D01*
X-55591Y-82338D01*
X-38597D01*
X-38595Y-82340D01*
X-38471Y-82423D01*
X-38325Y-82452D01*
X-38179Y-82423D01*
X-38055Y-82340D01*
X-37972Y-82216D01*
X-37943Y-82070D01*
X-37972Y-81924D01*
X-38055Y-81800D01*
X-38179Y-81717D01*
X-38325Y-81688D01*
X-38471Y-81717D01*
X-38595Y-81800D01*
X-38597Y-81802D01*
X-55591D01*
X-55678Y-81591D01*
X-55830Y-81392D01*
X-56029Y-81240D01*
X-56260Y-81144D01*
X-56508Y-81112D01*
D02*
G37*
G36*
Y-65872D02*
X-56756Y-65904D01*
X-56987Y-66000D01*
X-57186Y-66152D01*
X-57338Y-66351D01*
X-57434Y-66582D01*
X-57466Y-66830D01*
X-57434Y-67078D01*
X-57338Y-67309D01*
X-57186Y-67508D01*
X-56987Y-67660D01*
X-56756Y-67756D01*
X-56508Y-67788D01*
X-56260Y-67756D01*
X-56029Y-67660D01*
X-55830Y-67508D01*
X-55678Y-67309D01*
X-55599Y-67118D01*
X-42484D01*
X-42478Y-67146D01*
X-42395Y-67270D01*
X-42271Y-67353D01*
X-42125Y-67382D01*
X-41979Y-67353D01*
X-41855Y-67270D01*
X-41772Y-67146D01*
X-41743Y-67000D01*
X-41772Y-66854D01*
X-41855Y-66730D01*
X-41979Y-66647D01*
X-42125Y-66618D01*
X-42144Y-66622D01*
X-42173Y-66603D01*
X-42190Y-66599D01*
X-42275Y-66582D01*
X-42275Y-66582D01*
X-55582D01*
X-55582Y-66582D01*
X-55678Y-66351D01*
X-55830Y-66152D01*
X-56029Y-66000D01*
X-56260Y-65904D01*
X-56508Y-65872D01*
D02*
G37*
G36*
X-16475Y-77543D02*
X-16621Y-77572D01*
X-16745Y-77655D01*
X-16828Y-77779D01*
X-16857Y-77925D01*
X-16857Y-77928D01*
X-18191Y-79262D01*
X-55591D01*
X-55678Y-79051D01*
X-55830Y-78852D01*
X-56029Y-78700D01*
X-56260Y-78604D01*
X-56508Y-78572D01*
X-56756Y-78604D01*
X-56987Y-78700D01*
X-57186Y-78852D01*
X-57338Y-79051D01*
X-57434Y-79282D01*
X-57466Y-79530D01*
X-57434Y-79778D01*
X-57338Y-80009D01*
X-57186Y-80208D01*
X-56987Y-80360D01*
X-56756Y-80456D01*
X-56508Y-80488D01*
X-56260Y-80456D01*
X-56029Y-80360D01*
X-55830Y-80208D01*
X-55678Y-80009D01*
X-55591Y-79798D01*
X-31567D01*
X-31545Y-79852D01*
X-31605Y-79964D01*
X-31709Y-79984D01*
X-31833Y-80067D01*
X-31916Y-80191D01*
X-31945Y-80338D01*
X-31926Y-80434D01*
X-32006Y-80532D01*
X-37153D01*
X-37155Y-80530D01*
X-37279Y-80447D01*
X-37425Y-80418D01*
X-37571Y-80447D01*
X-37695Y-80530D01*
X-37778Y-80654D01*
X-37807Y-80800D01*
X-37778Y-80946D01*
X-37695Y-81070D01*
X-37571Y-81153D01*
X-37425Y-81182D01*
X-37279Y-81153D01*
X-37155Y-81070D01*
X-37153Y-81068D01*
X-7358D01*
X-7333Y-81192D01*
X-7449Y-81240D01*
X-7648Y-81392D01*
X-7800Y-81591D01*
X-7896Y-81822D01*
X-7899Y-81845D01*
X-30820D01*
X-30929Y-81772D01*
X-31075Y-81743D01*
X-31221Y-81772D01*
X-31345Y-81855D01*
X-31428Y-81979D01*
X-31457Y-82125D01*
X-31428Y-82271D01*
X-31345Y-82395D01*
X-31221Y-82478D01*
X-31075Y-82507D01*
X-30929Y-82478D01*
X-30820Y-82405D01*
X-7859D01*
X-7800Y-82549D01*
X-7648Y-82748D01*
X-7449Y-82900D01*
X-7401Y-82920D01*
X-7426Y-83044D01*
X-33937D01*
X-33980Y-82980D01*
X-34104Y-82897D01*
X-34250Y-82868D01*
X-34396Y-82897D01*
X-34520Y-82980D01*
X-34603Y-83104D01*
X-34632Y-83250D01*
X-34603Y-83396D01*
X-34520Y-83520D01*
X-34478Y-83549D01*
X-34466Y-83566D01*
X-34367Y-83633D01*
X-34392Y-83757D01*
X-53150D01*
X-53150Y-83757D01*
X-53252Y-83778D01*
X-53339Y-83836D01*
X-53339Y-83836D01*
X-53846Y-84342D01*
X-55591D01*
X-55678Y-84131D01*
X-55830Y-83932D01*
X-56029Y-83780D01*
X-56260Y-83684D01*
X-56508Y-83652D01*
X-56756Y-83684D01*
X-56987Y-83780D01*
X-57186Y-83932D01*
X-57338Y-84131D01*
X-57434Y-84362D01*
X-57466Y-84610D01*
X-57434Y-84858D01*
X-57338Y-85089D01*
X-57186Y-85288D01*
X-56987Y-85440D01*
X-56756Y-85536D01*
X-56508Y-85568D01*
X-56260Y-85536D01*
X-56029Y-85440D01*
X-55830Y-85288D01*
X-55678Y-85089D01*
X-55591Y-84878D01*
X-53735D01*
X-53735Y-84878D01*
X-53650Y-84861D01*
X-53633Y-84857D01*
X-53546Y-84799D01*
X-53039Y-84293D01*
X-36505D01*
X-36445Y-84405D01*
X-36478Y-84454D01*
X-36507Y-84600D01*
X-36478Y-84746D01*
X-36395Y-84870D01*
X-36271Y-84953D01*
X-36125Y-84982D01*
X-35979Y-84953D01*
X-35866Y-84878D01*
X-7887D01*
X-7800Y-85089D01*
X-7648Y-85288D01*
X-7449Y-85440D01*
X-7218Y-85536D01*
X-6970Y-85568D01*
X-6722Y-85536D01*
X-6491Y-85440D01*
X-6292Y-85288D01*
X-6140Y-85089D01*
X-6044Y-84858D01*
X-6012Y-84610D01*
X-6044Y-84362D01*
X-6140Y-84131D01*
X-6292Y-83932D01*
X-6491Y-83780D01*
X-6439Y-83656D01*
X-5817D01*
X-5284Y-84189D01*
X-5356Y-84362D01*
X-5388Y-84610D01*
X-5356Y-84858D01*
X-5260Y-85089D01*
X-5108Y-85288D01*
X-4909Y-85440D01*
X-4678Y-85536D01*
X-4430Y-85568D01*
X-4182Y-85536D01*
X-3951Y-85440D01*
X-3752Y-85288D01*
X-3600Y-85089D01*
X-3504Y-84858D01*
X-3472Y-84610D01*
X-3504Y-84362D01*
X-3600Y-84131D01*
X-3752Y-83932D01*
X-3951Y-83780D01*
X-4182Y-83684D01*
X-4430Y-83652D01*
X-4678Y-83684D01*
X-4851Y-83756D01*
X-5474Y-83134D01*
X-5573Y-83067D01*
X-5690Y-83044D01*
X-5690Y-83044D01*
X-6514D01*
X-6539Y-82920D01*
X-6491Y-82900D01*
X-6292Y-82748D01*
X-6140Y-82549D01*
X-6044Y-82318D01*
X-6012Y-82070D01*
X-6044Y-81822D01*
X-6140Y-81591D01*
X-6292Y-81392D01*
X-6491Y-81240D01*
X-6607Y-81192D01*
X-6582Y-81068D01*
X-5811D01*
X-5268Y-81611D01*
X-5356Y-81822D01*
X-5388Y-82070D01*
X-5356Y-82318D01*
X-5260Y-82549D01*
X-5108Y-82748D01*
X-4909Y-82900D01*
X-4678Y-82996D01*
X-4430Y-83028D01*
X-4182Y-82996D01*
X-3951Y-82900D01*
X-3752Y-82748D01*
X-3600Y-82549D01*
X-3504Y-82318D01*
X-3472Y-82070D01*
X-3504Y-81822D01*
X-3600Y-81591D01*
X-3752Y-81392D01*
X-3951Y-81240D01*
X-4182Y-81144D01*
X-4430Y-81112D01*
X-4678Y-81144D01*
X-4889Y-81232D01*
X-5511Y-80611D01*
X-5598Y-80553D01*
X-5615Y-80549D01*
X-5700Y-80532D01*
X-5700Y-80532D01*
X-6582D01*
X-6607Y-80408D01*
X-6491Y-80360D01*
X-6292Y-80208D01*
X-6140Y-80009D01*
X-6044Y-79778D01*
X-6012Y-79530D01*
X-6044Y-79282D01*
X-6140Y-79051D01*
X-6292Y-78852D01*
X-6491Y-78700D01*
X-6722Y-78604D01*
X-6970Y-78572D01*
X-7218Y-78604D01*
X-7449Y-78700D01*
X-7648Y-78852D01*
X-7800Y-79051D01*
X-7896Y-79282D01*
X-7928Y-79530D01*
X-7896Y-79778D01*
X-7800Y-80009D01*
X-7648Y-80208D01*
X-7449Y-80360D01*
X-7333Y-80408D01*
X-7358Y-80532D01*
X-31119D01*
X-31199Y-80434D01*
X-31180Y-80338D01*
X-31181Y-80334D01*
X-30869Y-80023D01*
X-17686D01*
X-17686Y-80023D01*
X-17601Y-80006D01*
X-17584Y-80002D01*
X-17497Y-79944D01*
X-16645Y-79093D01*
X-16447D01*
X-16445Y-79095D01*
X-16321Y-79178D01*
X-16175Y-79207D01*
X-16029Y-79178D01*
X-15905Y-79095D01*
X-15822Y-78971D01*
X-15793Y-78825D01*
X-15822Y-78679D01*
X-15905Y-78555D01*
X-16029Y-78472D01*
X-16175Y-78443D01*
X-16321Y-78472D01*
X-16445Y-78555D01*
X-16609Y-78445D01*
X-16612Y-78440D01*
X-16478Y-78307D01*
X-16475Y-78307D01*
X-16329Y-78278D01*
X-16205Y-78195D01*
X-16122Y-78071D01*
X-16093Y-77925D01*
X-16122Y-77779D01*
X-16205Y-77655D01*
X-16329Y-77572D01*
X-16475Y-77543D01*
D02*
G37*
G36*
X-4430Y-78572D02*
X-4678Y-78604D01*
X-4909Y-78700D01*
X-5108Y-78852D01*
X-5260Y-79051D01*
X-5356Y-79282D01*
X-5388Y-79530D01*
X-5356Y-79778D01*
X-5260Y-80009D01*
X-5108Y-80208D01*
X-4909Y-80360D01*
X-4678Y-80456D01*
X-4430Y-80488D01*
X-4182Y-80456D01*
X-3951Y-80360D01*
X-3752Y-80208D01*
X-3600Y-80009D01*
X-3504Y-79778D01*
X-3472Y-79530D01*
X-3504Y-79282D01*
X-3600Y-79051D01*
X-3752Y-78852D01*
X-3951Y-78700D01*
X-4182Y-78604D01*
X-4430Y-78572D01*
D02*
G37*
G36*
X-5924Y-87250D02*
X-6870D01*
Y-88196D01*
X-6696Y-88173D01*
X-6440Y-88067D01*
X-6221Y-87899D01*
X-6053Y-87680D01*
X-5947Y-87424D01*
X-5924Y-87250D01*
D02*
G37*
G36*
X-41530Y-91984D02*
X-41704Y-92007D01*
X-41960Y-92113D01*
X-42179Y-92281D01*
X-42347Y-92500D01*
X-42453Y-92756D01*
X-42476Y-92930D01*
X-41530D01*
Y-91984D01*
D02*
G37*
G36*
X-26190Y-92072D02*
X-26438Y-92104D01*
X-26669Y-92200D01*
X-26868Y-92352D01*
X-27020Y-92551D01*
X-27116Y-92782D01*
X-27148Y-93030D01*
X-27116Y-93278D01*
X-27020Y-93509D01*
X-26868Y-93708D01*
X-26669Y-93860D01*
X-26438Y-93956D01*
X-26190Y-93988D01*
X-25942Y-93956D01*
X-25711Y-93860D01*
X-25512Y-93708D01*
X-25360Y-93509D01*
X-25264Y-93278D01*
X-25232Y-93030D01*
X-25264Y-92782D01*
X-25360Y-92551D01*
X-25512Y-92352D01*
X-25711Y-92200D01*
X-25942Y-92104D01*
X-26190Y-92072D01*
D02*
G37*
G36*
X-33810D02*
X-34058Y-92104D01*
X-34289Y-92200D01*
X-34488Y-92352D01*
X-34640Y-92551D01*
X-34736Y-92782D01*
X-34768Y-93030D01*
X-34736Y-93278D01*
X-34640Y-93509D01*
X-34488Y-93708D01*
X-34289Y-93860D01*
X-34058Y-93956D01*
X-33810Y-93988D01*
X-33562Y-93956D01*
X-33331Y-93860D01*
X-33132Y-93708D01*
X-32980Y-93509D01*
X-32884Y-93278D01*
X-32852Y-93030D01*
X-32884Y-92782D01*
X-32980Y-92551D01*
X-33132Y-92352D01*
X-33331Y-92200D01*
X-33562Y-92104D01*
X-33810Y-92072D01*
D02*
G37*
G36*
X-41330Y-91984D02*
Y-92930D01*
X-40384D01*
X-40407Y-92756D01*
X-40513Y-92500D01*
X-40681Y-92281D01*
X-40900Y-92113D01*
X-41156Y-92007D01*
X-41330Y-91984D01*
D02*
G37*
G36*
X-7070Y-87250D02*
X-8016D01*
X-7993Y-87424D01*
X-7887Y-87680D01*
X-7719Y-87899D01*
X-7500Y-88067D01*
X-7244Y-88173D01*
X-7070Y-88196D01*
Y-87250D01*
D02*
G37*
G36*
X-9250Y-89693D02*
X-9396Y-89722D01*
X-9520Y-89805D01*
X-9603Y-89929D01*
X-9632Y-90075D01*
X-9603Y-90221D01*
X-9520Y-90345D01*
X-9396Y-90428D01*
X-9250Y-90457D01*
X-9104Y-90428D01*
X-8980Y-90345D01*
X-8897Y-90221D01*
X-8868Y-90075D01*
X-8897Y-89929D01*
X-8980Y-89805D01*
X-9104Y-89722D01*
X-9250Y-89693D01*
D02*
G37*
G36*
X-56508Y-86192D02*
X-56756Y-86224D01*
X-56987Y-86320D01*
X-57186Y-86472D01*
X-57338Y-86671D01*
X-57434Y-86902D01*
X-57466Y-87150D01*
X-57434Y-87398D01*
X-57338Y-87629D01*
X-57186Y-87828D01*
X-56987Y-87980D01*
X-56756Y-88076D01*
X-56508Y-88108D01*
X-56260Y-88076D01*
X-56029Y-87980D01*
X-55830Y-87828D01*
X-55678Y-87629D01*
X-55582Y-87398D01*
X-55578Y-87368D01*
X-40214D01*
X-40154Y-87480D01*
X-40203Y-87554D01*
X-40232Y-87700D01*
X-40203Y-87846D01*
X-40120Y-87970D01*
X-40087Y-87993D01*
Y-88120D01*
X-40120Y-88142D01*
X-40203Y-88266D01*
X-40232Y-88412D01*
X-40203Y-88559D01*
X-40120Y-88683D01*
X-40087Y-88705D01*
Y-88832D01*
X-40120Y-88855D01*
X-40203Y-88979D01*
X-40232Y-89125D01*
X-40203Y-89271D01*
X-40187Y-89295D01*
X-40247Y-89407D01*
X-55558D01*
Y-88740D01*
X-57458D01*
Y-90640D01*
X-55558D01*
Y-89943D01*
X-39672D01*
X-39670Y-89945D01*
X-39546Y-90028D01*
X-39400Y-90057D01*
X-39254Y-90028D01*
X-39130Y-89945D01*
X-39047Y-89821D01*
X-39018Y-89675D01*
X-39047Y-89529D01*
X-39063Y-89505D01*
X-39003Y-89393D01*
X-32686D01*
X-30293Y-91786D01*
Y-92582D01*
X-30417Y-92606D01*
X-30440Y-92551D01*
X-30592Y-92352D01*
X-30791Y-92200D01*
X-31022Y-92104D01*
X-31270Y-92072D01*
X-31518Y-92104D01*
X-31749Y-92200D01*
X-31948Y-92352D01*
X-32100Y-92551D01*
X-32196Y-92782D01*
X-32228Y-93030D01*
X-32196Y-93278D01*
X-32100Y-93509D01*
X-31948Y-93708D01*
X-31749Y-93860D01*
X-31518Y-93956D01*
X-31270Y-93988D01*
X-31022Y-93956D01*
X-30791Y-93860D01*
X-30592Y-93708D01*
X-30440Y-93509D01*
X-30417Y-93454D01*
X-30293Y-93478D01*
Y-94275D01*
X-30293Y-94275D01*
X-30276Y-94360D01*
X-30272Y-94377D01*
X-30214Y-94464D01*
X-30214Y-94464D01*
X-30214Y-94464D01*
X-30214Y-94464D01*
Y-94464D01*
X-29568Y-95111D01*
X-29656Y-95322D01*
X-29688Y-95570D01*
X-29656Y-95818D01*
X-29560Y-96049D01*
X-29408Y-96248D01*
X-29209Y-96400D01*
X-28978Y-96496D01*
X-28730Y-96528D01*
X-28482Y-96496D01*
X-28251Y-96400D01*
X-28052Y-96248D01*
X-27900Y-96049D01*
X-27804Y-95818D01*
X-27772Y-95570D01*
X-27804Y-95322D01*
X-27900Y-95091D01*
X-28052Y-94892D01*
X-28251Y-94740D01*
X-28482Y-94644D01*
X-28730Y-94612D01*
X-28978Y-94644D01*
X-29189Y-94732D01*
X-29757Y-94164D01*
Y-93358D01*
X-29633Y-93333D01*
X-29560Y-93509D01*
X-29408Y-93708D01*
X-29209Y-93860D01*
X-28978Y-93956D01*
X-28730Y-93988D01*
X-28482Y-93956D01*
X-28251Y-93860D01*
X-28052Y-93708D01*
X-27900Y-93509D01*
X-27804Y-93278D01*
X-27772Y-93030D01*
X-27804Y-92782D01*
X-27900Y-92551D01*
X-28052Y-92352D01*
X-28251Y-92200D01*
X-28482Y-92104D01*
X-28730Y-92072D01*
X-28978Y-92104D01*
X-29209Y-92200D01*
X-29408Y-92352D01*
X-29560Y-92551D01*
X-29633Y-92727D01*
X-29757Y-92702D01*
Y-91675D01*
X-29757Y-91675D01*
X-29774Y-91590D01*
X-29778Y-91573D01*
X-29836Y-91486D01*
X-29836Y-91486D01*
X-32386Y-88936D01*
X-32473Y-88878D01*
X-32490Y-88874D01*
X-32575Y-88857D01*
X-32575Y-88857D01*
X-39578D01*
X-39580Y-88855D01*
X-39613Y-88832D01*
Y-88705D01*
X-39580Y-88683D01*
X-39578Y-88680D01*
X-26348D01*
X-22668Y-92361D01*
Y-92594D01*
X-22792Y-92618D01*
X-22820Y-92551D01*
X-22972Y-92352D01*
X-23171Y-92200D01*
X-23402Y-92104D01*
X-23650Y-92072D01*
X-23898Y-92104D01*
X-24129Y-92200D01*
X-24328Y-92352D01*
X-24480Y-92551D01*
X-24576Y-92782D01*
X-24608Y-93030D01*
X-24576Y-93278D01*
X-24480Y-93509D01*
X-24328Y-93708D01*
X-24129Y-93860D01*
X-23898Y-93956D01*
X-23650Y-93988D01*
X-23402Y-93956D01*
X-23171Y-93860D01*
X-22972Y-93708D01*
X-22820Y-93509D01*
X-22792Y-93442D01*
X-22668Y-93466D01*
Y-94280D01*
X-22668Y-94280D01*
X-22651Y-94365D01*
X-22647Y-94382D01*
X-22589Y-94469D01*
X-21948Y-95111D01*
X-22036Y-95322D01*
X-22068Y-95570D01*
X-22036Y-95818D01*
X-21940Y-96049D01*
X-21788Y-96248D01*
X-21589Y-96400D01*
X-21358Y-96496D01*
X-21110Y-96528D01*
X-20862Y-96496D01*
X-20631Y-96400D01*
X-20432Y-96248D01*
X-20280Y-96049D01*
X-20184Y-95818D01*
X-20152Y-95570D01*
X-20184Y-95322D01*
X-20280Y-95091D01*
X-20432Y-94892D01*
X-20631Y-94740D01*
X-20862Y-94644D01*
X-21110Y-94612D01*
X-21358Y-94644D01*
X-21569Y-94732D01*
X-22132Y-94169D01*
Y-93370D01*
X-22008Y-93345D01*
X-21940Y-93509D01*
X-21788Y-93708D01*
X-21589Y-93860D01*
X-21358Y-93956D01*
X-21110Y-93988D01*
X-20862Y-93956D01*
X-20631Y-93860D01*
X-20432Y-93708D01*
X-20280Y-93509D01*
X-20184Y-93278D01*
X-20152Y-93030D01*
X-20184Y-92782D01*
X-20280Y-92551D01*
X-20432Y-92352D01*
X-20631Y-92200D01*
X-20862Y-92104D01*
X-21110Y-92072D01*
X-21358Y-92104D01*
X-21569Y-92192D01*
X-26251Y-87511D01*
X-26338Y-87453D01*
X-26355Y-87449D01*
X-26440Y-87432D01*
X-26440Y-87432D01*
X-38561D01*
X-38621Y-87320D01*
X-38572Y-87246D01*
X-38543Y-87100D01*
X-38572Y-86954D01*
X-38655Y-86830D01*
X-38779Y-86747D01*
X-38925Y-86718D01*
X-39071Y-86747D01*
X-39195Y-86830D01*
X-39197Y-86832D01*
X-55611D01*
X-55678Y-86671D01*
X-55830Y-86472D01*
X-56029Y-86320D01*
X-56260Y-86224D01*
X-56508Y-86192D01*
D02*
G37*
G36*
X-56608Y-7364D02*
X-56782Y-7387D01*
X-57038Y-7493D01*
X-57257Y-7661D01*
X-57425Y-7880D01*
X-57531Y-8136D01*
X-57554Y-8310D01*
X-56608D01*
Y-7364D01*
D02*
G37*
G36*
X-25200Y-8075D02*
X-25775D01*
Y-9050D01*
X-25200D01*
Y-8075D01*
D02*
G37*
G36*
X-25975D02*
X-26550D01*
Y-9050D01*
X-25975D01*
Y-8075D01*
D02*
G37*
G36*
X-56408Y-7364D02*
Y-8310D01*
X-55462D01*
X-55485Y-8136D01*
X-55591Y-7880D01*
X-55759Y-7661D01*
X-55978Y-7493D01*
X-56234Y-7387D01*
X-56408Y-7364D01*
D02*
G37*
G36*
X-3975Y-7250D02*
X-4250D01*
Y-7775D01*
X-3975D01*
Y-7250D01*
D02*
G37*
G36*
X-25200Y-6900D02*
X-25775D01*
Y-7875D01*
X-25200D01*
Y-6900D01*
D02*
G37*
G36*
X-25975D02*
X-26550D01*
Y-7875D01*
X-25975D01*
Y-6900D01*
D02*
G37*
G36*
X-55462Y-8510D02*
X-56408D01*
Y-9456D01*
X-56234Y-9433D01*
X-55978Y-9327D01*
X-55759Y-9159D01*
X-55591Y-8940D01*
X-55485Y-8684D01*
X-55462Y-8510D01*
D02*
G37*
G36*
X-1000Y-10575D02*
X-1500D01*
Y-11000D01*
X-1000D01*
Y-10575D01*
D02*
G37*
G36*
X-34150Y-10365D02*
X-34345Y-10404D01*
X-34510Y-10515D01*
X-34621Y-10680D01*
X-34660Y-10875D01*
X-34621Y-11070D01*
X-34510Y-11235D01*
X-34345Y-11346D01*
X-34150Y-11385D01*
X-33955Y-11346D01*
X-33790Y-11235D01*
X-33679Y-11070D01*
X-33640Y-10875D01*
X-33679Y-10680D01*
X-33790Y-10515D01*
X-33955Y-10404D01*
X-34150Y-10365D01*
D02*
G37*
G36*
X-1000Y-11200D02*
X-1500D01*
Y-11625D01*
X-1000D01*
Y-11200D01*
D02*
G37*
G36*
X-35425Y-10350D02*
X-35850D01*
Y-10850D01*
X-35425D01*
Y-10350D01*
D02*
G37*
G36*
X-56608Y-8510D02*
X-57554D01*
X-57531Y-8684D01*
X-57425Y-8940D01*
X-57257Y-9159D01*
X-57038Y-9327D01*
X-56782Y-9433D01*
X-56608Y-9456D01*
Y-8510D01*
D02*
G37*
G36*
X-2200Y-9825D02*
X-2475D01*
Y-10350D01*
X-2200D01*
Y-9825D01*
D02*
G37*
G36*
X-34800Y-10350D02*
X-35225D01*
Y-10850D01*
X-34800D01*
Y-10350D01*
D02*
G37*
G36*
X-33000Y-658D02*
X-33218Y-686D01*
X-33421Y-771D01*
X-33596Y-904D01*
X-33729Y-1079D01*
X-33814Y-1282D01*
X-33842Y-1500D01*
X-33814Y-1718D01*
X-33729Y-1921D01*
X-33596Y-2096D01*
X-33421Y-2229D01*
X-33218Y-2314D01*
X-33000Y-2342D01*
X-32782Y-2314D01*
X-32579Y-2229D01*
X-32404Y-2096D01*
X-32271Y-1921D01*
X-32217Y-1793D01*
X-30347D01*
X-30345Y-1795D01*
X-30221Y-1878D01*
X-30075Y-1907D01*
X-29944Y-1881D01*
X-29920Y-2004D01*
X-29920D01*
X-30085Y-2115D01*
X-30105Y-2144D01*
X-30105D01*
X-30120Y-2140D01*
X-30151Y-2131D01*
D01*
D01*
D01*
X-30176Y-2114D01*
X-30199Y-2095D01*
X-30209Y-2092D01*
X-30217Y-2087D01*
X-30246Y-2081D01*
X-30275Y-2072D01*
X-30285Y-2073D01*
X-30295Y-2071D01*
X-31790D01*
X-31868Y-2087D01*
X-31934Y-2131D01*
X-31978Y-2197D01*
X-31994Y-2275D01*
Y-4164D01*
X-32115Y-4201D01*
X-32120Y-4195D01*
X-32244Y-4112D01*
X-32390Y-4083D01*
X-32536Y-4112D01*
X-32660Y-4195D01*
X-32743Y-4319D01*
X-32772Y-4465D01*
X-32757Y-4542D01*
X-32838Y-4640D01*
X-32990D01*
Y-4722D01*
X-33088Y-4803D01*
X-33190Y-4783D01*
X-33336Y-4812D01*
X-33460Y-4895D01*
X-33543Y-5019D01*
X-33572Y-5165D01*
X-33543Y-5311D01*
X-33460Y-5435D01*
X-33336Y-5518D01*
X-33190Y-5547D01*
X-33088Y-5527D01*
X-32990Y-5608D01*
Y-5690D01*
X-32838D01*
X-32757Y-5788D01*
X-32772Y-5865D01*
X-32743Y-6011D01*
X-32660Y-6135D01*
X-32536Y-6218D01*
X-32390Y-6247D01*
X-32244Y-6218D01*
X-32120Y-6135D01*
X-32115Y-6129D01*
X-31994Y-6166D01*
Y-6564D01*
X-32115Y-6601D01*
X-32120Y-6595D01*
X-32244Y-6512D01*
X-32390Y-6483D01*
X-32536Y-6512D01*
X-32660Y-6595D01*
X-32743Y-6719D01*
X-32772Y-6865D01*
X-32747Y-6993D01*
Y-7140D01*
X-32990D01*
Y-7308D01*
X-33162D01*
X-33290Y-7283D01*
X-33436Y-7312D01*
X-33560Y-7395D01*
X-33643Y-7519D01*
X-33656Y-7582D01*
X-33777Y-7619D01*
X-37132Y-4264D01*
Y-2700D01*
X-37153Y-2598D01*
X-37211Y-2511D01*
X-37211Y-2511D01*
X-37850Y-1871D01*
X-37786Y-1718D01*
X-37758Y-1500D01*
X-37786Y-1282D01*
X-37871Y-1079D01*
X-38004Y-904D01*
X-38179Y-771D01*
X-38382Y-686D01*
X-38600Y-658D01*
X-38818Y-686D01*
X-39021Y-771D01*
X-39196Y-904D01*
X-39329Y-1079D01*
X-39414Y-1282D01*
X-39442Y-1500D01*
X-39414Y-1718D01*
X-39329Y-1921D01*
X-39196Y-2096D01*
X-39021Y-2229D01*
X-38818Y-2314D01*
X-38600Y-2342D01*
X-38382Y-2314D01*
X-38229Y-2250D01*
X-37668Y-2811D01*
Y-3243D01*
X-37792Y-3268D01*
X-37871Y-3079D01*
X-38004Y-2904D01*
X-38179Y-2771D01*
X-38382Y-2686D01*
X-38600Y-2658D01*
X-38818Y-2686D01*
X-39021Y-2771D01*
X-39196Y-2904D01*
X-39329Y-3079D01*
X-39414Y-3282D01*
X-39442Y-3500D01*
X-39414Y-3718D01*
X-39329Y-3921D01*
X-39196Y-4096D01*
X-39174Y-4112D01*
X-39215Y-4232D01*
X-40489D01*
X-40850Y-3871D01*
X-40786Y-3718D01*
X-40758Y-3500D01*
X-40786Y-3282D01*
X-40871Y-3079D01*
X-41004Y-2904D01*
X-41179Y-2771D01*
X-41382Y-2686D01*
X-41600Y-2658D01*
X-41818Y-2686D01*
X-42021Y-2771D01*
X-42196Y-2904D01*
X-42329Y-3079D01*
X-42414Y-3282D01*
X-42442Y-3500D01*
X-42414Y-3718D01*
X-42329Y-3921D01*
X-42196Y-4096D01*
X-42021Y-4229D01*
X-41818Y-4314D01*
X-41600Y-4342D01*
X-41382Y-4314D01*
X-41229Y-4250D01*
X-40789Y-4689D01*
X-40789Y-4689D01*
X-40702Y-4747D01*
X-40600Y-4768D01*
X-39215D01*
X-39174Y-4888D01*
X-39196Y-4904D01*
X-39329Y-5079D01*
X-39414Y-5282D01*
X-39442Y-5500D01*
X-39414Y-5718D01*
X-39329Y-5921D01*
X-39274Y-5993D01*
X-39330Y-6107D01*
X-40614D01*
X-40850Y-5871D01*
X-40786Y-5718D01*
X-40758Y-5500D01*
X-40786Y-5282D01*
X-40871Y-5079D01*
X-41004Y-4904D01*
X-41179Y-4771D01*
X-41382Y-4686D01*
X-41600Y-4658D01*
X-41818Y-4686D01*
X-42021Y-4771D01*
X-42196Y-4904D01*
X-42329Y-5079D01*
X-42414Y-5282D01*
X-42442Y-5500D01*
X-42414Y-5718D01*
X-42329Y-5921D01*
X-42196Y-6096D01*
X-42021Y-6229D01*
X-41818Y-6314D01*
X-41600Y-6342D01*
X-41382Y-6314D01*
X-41229Y-6250D01*
X-41042Y-6437D01*
Y-6563D01*
X-41229Y-6750D01*
X-41382Y-6686D01*
X-41600Y-6658D01*
X-41818Y-6686D01*
X-42021Y-6771D01*
X-42196Y-6904D01*
X-42329Y-7079D01*
X-42414Y-7282D01*
X-42442Y-7500D01*
X-42414Y-7718D01*
X-42329Y-7921D01*
X-42196Y-8096D01*
X-42021Y-8229D01*
X-41818Y-8314D01*
X-41600Y-8342D01*
X-41382Y-8314D01*
X-41179Y-8229D01*
X-41004Y-8096D01*
X-40871Y-7921D01*
X-40786Y-7718D01*
X-40758Y-7500D01*
X-40786Y-7282D01*
X-40850Y-7129D01*
X-40589Y-6868D01*
X-39311D01*
X-39255Y-6982D01*
X-39329Y-7079D01*
X-39414Y-7282D01*
X-39442Y-7500D01*
X-39414Y-7718D01*
X-39329Y-7921D01*
X-39196Y-8096D01*
X-39021Y-8229D01*
X-38818Y-8314D01*
X-38600Y-8342D01*
X-38382Y-8314D01*
X-38179Y-8229D01*
X-38004Y-8096D01*
X-37871Y-7921D01*
X-37807Y-7768D01*
X-36686D01*
X-34435Y-10019D01*
X-34398Y-10073D01*
X-34307Y-10134D01*
X-34200Y-10155D01*
X-34093Y-10134D01*
X-34002Y-10073D01*
X-33941Y-9982D01*
X-33760Y-10018D01*
X-33193Y-10586D01*
Y-16034D01*
X-33193Y-16034D01*
X-33176Y-16120D01*
X-33172Y-16137D01*
X-33114Y-16223D01*
X-33114Y-16223D01*
X-33114Y-16223D01*
X-33114Y-16223D01*
Y-16223D01*
X-31005Y-18333D01*
X-31054Y-18450D01*
X-32050D01*
Y-18900D01*
X-32150D01*
Y-19000D01*
X-32675D01*
Y-19350D01*
X-32675D01*
Y-19360D01*
X-32765Y-19450D01*
X-33325D01*
Y-19732D01*
X-33628D01*
X-33630Y-19730D01*
X-33754Y-19647D01*
X-33900Y-19618D01*
X-34046Y-19647D01*
X-34170Y-19730D01*
X-34253Y-19854D01*
X-34282Y-20000D01*
X-34253Y-20146D01*
X-34170Y-20270D01*
X-34046Y-20353D01*
X-33900Y-20382D01*
X-33754Y-20353D01*
X-33630Y-20270D01*
X-33628Y-20268D01*
X-33325D01*
Y-20550D01*
X-32225D01*
X-32225Y-20550D01*
Y-20550D01*
X-32193Y-20550D01*
X-32193Y-20550D01*
Y-20802D01*
X-32285Y-20865D01*
X-32396Y-21030D01*
X-32435Y-21225D01*
X-32396Y-21420D01*
X-32285Y-21585D01*
X-32120Y-21696D01*
X-31925Y-21735D01*
X-31730Y-21696D01*
X-31565Y-21585D01*
X-31454Y-21420D01*
X-31451Y-21407D01*
X-31325Y-21419D01*
Y-21950D01*
Y-22275D01*
X-30875D01*
Y-22375D01*
X-30775D01*
Y-22900D01*
X-30100D01*
Y-22375D01*
X-30000D01*
Y-22275D01*
X-29550D01*
Y-21950D01*
Y-21828D01*
X-29480Y-21724D01*
X-29452Y-21700D01*
X-29350Y-21721D01*
X-29304Y-21712D01*
X-29234Y-21817D01*
X-29234Y-21818D01*
X-29255Y-21925D01*
X-29234Y-22032D01*
X-29173Y-22123D01*
X-29082Y-22184D01*
X-28975Y-22205D01*
X-28868Y-22184D01*
X-28777Y-22123D01*
X-28740Y-22069D01*
X-28689Y-22018D01*
X-28208D01*
X-28172Y-22139D01*
X-28195Y-22155D01*
X-28270Y-22267D01*
X-28297Y-22400D01*
X-28270Y-22533D01*
X-28195Y-22645D01*
X-28171Y-22662D01*
Y-22788D01*
X-28195Y-22805D01*
X-28270Y-22917D01*
X-28297Y-23050D01*
X-28344Y-23107D01*
X-28475D01*
X-28475Y-23107D01*
X-28560Y-23124D01*
X-28577Y-23128D01*
X-28664Y-23186D01*
X-28664Y-23186D01*
X-28919Y-23440D01*
X-28973Y-23477D01*
X-29034Y-23568D01*
X-29055Y-23675D01*
X-29034Y-23782D01*
X-28973Y-23873D01*
X-28919Y-23910D01*
X-27210Y-25618D01*
X-27229Y-25744D01*
X-27226Y-25743D01*
X-27280Y-25771D01*
X-27380Y-25704D01*
X-27575Y-25665D01*
X-27770Y-25704D01*
X-27935Y-25815D01*
X-28046Y-25980D01*
X-28085Y-26175D01*
X-28046Y-26370D01*
X-27935Y-26535D01*
X-27909Y-26553D01*
X-27945Y-26675D01*
X-28100D01*
Y-27632D01*
X-32178D01*
X-32180Y-27630D01*
X-32304Y-27547D01*
X-32450Y-27518D01*
X-32596Y-27547D01*
X-32720Y-27630D01*
X-32803Y-27754D01*
X-32832Y-27900D01*
X-32803Y-28046D01*
X-32720Y-28170D01*
X-32596Y-28253D01*
X-32450Y-28282D01*
X-32304Y-28253D01*
X-32180Y-28170D01*
X-32178Y-28168D01*
X-28100D01*
Y-29075D01*
X-28100Y-29075D01*
X-28100D01*
X-28086Y-29108D01*
X-30615Y-31637D01*
X-30725Y-31615D01*
X-30920Y-31654D01*
X-31085Y-31765D01*
X-31196Y-31930D01*
X-31235Y-32125D01*
X-31196Y-32320D01*
X-31179Y-32345D01*
X-31239Y-32457D01*
X-38750D01*
X-38750Y-32457D01*
X-38852Y-32478D01*
X-38939Y-32536D01*
X-38939Y-32536D01*
X-39197Y-32793D01*
X-39200Y-32793D01*
X-39346Y-32822D01*
X-39470Y-32905D01*
X-39553Y-33029D01*
X-39582Y-33175D01*
X-39553Y-33321D01*
X-39480Y-33430D01*
X-39540Y-33542D01*
X-55591D01*
X-55678Y-33331D01*
X-55830Y-33132D01*
X-56029Y-32980D01*
X-56260Y-32884D01*
X-56508Y-32852D01*
X-56756Y-32884D01*
X-56987Y-32980D01*
X-57186Y-33132D01*
X-57338Y-33331D01*
X-57434Y-33562D01*
X-57466Y-33810D01*
X-57434Y-34058D01*
X-57338Y-34289D01*
X-57186Y-34488D01*
X-56987Y-34640D01*
X-56756Y-34736D01*
X-56508Y-34768D01*
X-56260Y-34736D01*
X-56029Y-34640D01*
X-55830Y-34488D01*
X-55678Y-34289D01*
X-55591Y-34078D01*
X-54780D01*
X-54731Y-34195D01*
X-56049Y-35512D01*
X-56260Y-35424D01*
X-56508Y-35392D01*
X-56756Y-35424D01*
X-56987Y-35520D01*
X-57186Y-35672D01*
X-57338Y-35871D01*
X-57434Y-36102D01*
X-57466Y-36350D01*
X-57434Y-36598D01*
X-57338Y-36829D01*
X-57186Y-37028D01*
X-56987Y-37180D01*
X-56756Y-37276D01*
X-56508Y-37308D01*
X-56260Y-37276D01*
X-56029Y-37180D01*
X-55830Y-37028D01*
X-55678Y-36829D01*
X-55582Y-36598D01*
X-55550Y-36350D01*
X-55582Y-36102D01*
X-55670Y-35891D01*
X-54222Y-34443D01*
X-52605D01*
X-52556Y-34560D01*
X-56049Y-38052D01*
X-56260Y-37964D01*
X-56508Y-37932D01*
X-56756Y-37964D01*
X-56987Y-38060D01*
X-57186Y-38212D01*
X-57338Y-38411D01*
X-57434Y-38642D01*
X-57466Y-38890D01*
X-57434Y-39138D01*
X-57338Y-39369D01*
X-57186Y-39568D01*
X-56987Y-39720D01*
X-56756Y-39816D01*
X-56508Y-39848D01*
X-56260Y-39816D01*
X-56029Y-39720D01*
X-55830Y-39568D01*
X-55678Y-39369D01*
X-55582Y-39138D01*
X-55550Y-38890D01*
X-55582Y-38642D01*
X-55670Y-38431D01*
X-51982Y-34743D01*
X-37309D01*
X-37273Y-34864D01*
X-37310Y-34890D01*
X-37421Y-35055D01*
X-37460Y-35250D01*
X-37421Y-35445D01*
X-37342Y-35563D01*
X-37402Y-35675D01*
X-37475D01*
Y-36607D01*
X-39578D01*
X-39580Y-36605D01*
X-39704Y-36522D01*
X-39850Y-36493D01*
X-39996Y-36522D01*
X-40120Y-36605D01*
X-40203Y-36729D01*
X-40232Y-36875D01*
X-40203Y-37021D01*
X-40120Y-37145D01*
X-39996Y-37228D01*
X-39850Y-37257D01*
X-39704Y-37228D01*
X-39580Y-37145D01*
X-39578Y-37143D01*
X-39409D01*
X-39372Y-37264D01*
X-39470Y-37330D01*
X-39553Y-37454D01*
X-39582Y-37600D01*
X-39553Y-37746D01*
X-39470Y-37870D01*
X-39346Y-37953D01*
X-39200Y-37982D01*
X-39197Y-37982D01*
X-39118Y-38061D01*
Y-38918D01*
X-39118Y-38918D01*
X-39101Y-39004D01*
X-39097Y-39021D01*
X-39039Y-39107D01*
X-36957Y-41189D01*
X-36957Y-41189D01*
X-36871Y-41247D01*
X-36871Y-41247D01*
X-36871Y-41247D01*
D01*
X-36871Y-41247D01*
X-36871Y-41247D01*
X-36768Y-41268D01*
X-32736D01*
X-31918Y-42086D01*
Y-42266D01*
X-32039Y-42303D01*
X-32105Y-42205D01*
X-32229Y-42122D01*
X-32375Y-42093D01*
X-32521Y-42122D01*
X-32645Y-42205D01*
X-32728Y-42329D01*
X-32757Y-42475D01*
X-32757Y-42478D01*
X-33514Y-43236D01*
X-33572Y-43323D01*
X-33576Y-43340D01*
X-33593Y-43425D01*
X-33593Y-43425D01*
Y-46839D01*
X-35447Y-48693D01*
X-35450Y-48693D01*
X-35522Y-48707D01*
X-35620Y-48626D01*
Y-46413D01*
X-35620Y-46412D01*
X-35637Y-46327D01*
X-35640Y-46310D01*
X-35698Y-46223D01*
X-35698Y-46223D01*
X-36886Y-45036D01*
X-36973Y-44978D01*
X-36990Y-44974D01*
X-37075Y-44957D01*
X-37075Y-44957D01*
X-56084D01*
X-56109Y-44833D01*
X-56029Y-44800D01*
X-55830Y-44648D01*
X-55678Y-44449D01*
X-55582Y-44218D01*
X-55550Y-43970D01*
X-55582Y-43722D01*
X-55678Y-43491D01*
X-55830Y-43292D01*
X-56029Y-43140D01*
X-56260Y-43044D01*
X-56508Y-43012D01*
X-56756Y-43044D01*
X-56987Y-43140D01*
X-57186Y-43292D01*
X-57338Y-43491D01*
X-57434Y-43722D01*
X-57466Y-43970D01*
X-57434Y-44218D01*
X-57338Y-44449D01*
X-57186Y-44648D01*
X-56987Y-44800D01*
X-56907Y-44833D01*
X-56932Y-44957D01*
X-57450D01*
X-57450Y-44957D01*
X-57535Y-44974D01*
X-57552Y-44978D01*
X-57639Y-45036D01*
X-59289Y-46686D01*
X-59347Y-46773D01*
X-59351Y-46790D01*
X-59368Y-46875D01*
X-59368Y-46875D01*
Y-71858D01*
X-59368Y-71858D01*
X-59351Y-71943D01*
X-59347Y-71960D01*
X-59289Y-72047D01*
X-59289Y-72047D01*
X-59289Y-72047D01*
D01*
X-59289D01*
Y-72047D01*
D01*
X-57346Y-73991D01*
X-57434Y-74202D01*
X-57466Y-74450D01*
X-57434Y-74698D01*
X-57338Y-74929D01*
X-57186Y-75128D01*
X-56987Y-75280D01*
X-56756Y-75376D01*
X-56508Y-75408D01*
X-56260Y-75376D01*
X-56029Y-75280D01*
X-55830Y-75128D01*
X-55678Y-74929D01*
X-55582Y-74698D01*
X-55550Y-74450D01*
X-55582Y-74202D01*
X-55678Y-73971D01*
X-55830Y-73772D01*
X-56029Y-73620D01*
X-56260Y-73524D01*
X-56508Y-73492D01*
X-56756Y-73524D01*
X-56967Y-73612D01*
X-58832Y-71747D01*
Y-70130D01*
X-58715Y-70081D01*
X-57346Y-71451D01*
X-57434Y-71662D01*
X-57466Y-71910D01*
X-57434Y-72158D01*
X-57338Y-72389D01*
X-57186Y-72588D01*
X-56987Y-72740D01*
X-56756Y-72836D01*
X-56508Y-72868D01*
X-56260Y-72836D01*
X-56029Y-72740D01*
X-55830Y-72588D01*
X-55678Y-72389D01*
X-55582Y-72158D01*
X-55550Y-71910D01*
X-55582Y-71662D01*
X-55678Y-71431D01*
X-55830Y-71232D01*
X-56029Y-71080D01*
X-56260Y-70984D01*
X-56508Y-70952D01*
X-56756Y-70984D01*
X-56967Y-71072D01*
X-58532Y-69507D01*
Y-50411D01*
X-58264Y-50143D01*
X-57986D01*
X-57906Y-50241D01*
X-57932Y-50375D01*
X-57903Y-50521D01*
X-57820Y-50645D01*
X-57696Y-50728D01*
X-57550Y-50757D01*
X-57404Y-50728D01*
X-57313Y-50668D01*
X-57064D01*
X-57023Y-50788D01*
X-57186Y-50912D01*
X-57338Y-51111D01*
X-57434Y-51342D01*
X-57466Y-51590D01*
X-57434Y-51838D01*
X-57338Y-52069D01*
X-57186Y-52268D01*
X-56987Y-52420D01*
X-56756Y-52516D01*
X-56508Y-52548D01*
X-56260Y-52516D01*
X-56029Y-52420D01*
X-55830Y-52268D01*
X-55678Y-52069D01*
X-55582Y-51838D01*
X-55550Y-51590D01*
X-55582Y-51342D01*
X-55678Y-51111D01*
X-55830Y-50912D01*
X-55993Y-50788D01*
X-55952Y-50668D01*
X-55761D01*
X-55114Y-51314D01*
X-55114Y-51314D01*
X-55027Y-51372D01*
X-55027Y-51372D01*
X-55027Y-51372D01*
D01*
X-55027Y-51372D01*
X-55027Y-51372D01*
X-54925Y-51393D01*
X-44356D01*
X-44320Y-51514D01*
X-44389Y-51561D01*
X-44389Y-51561D01*
X-45352Y-52523D01*
X-45410Y-52610D01*
X-45413Y-52627D01*
X-45430Y-52713D01*
X-45430Y-52713D01*
Y-56528D01*
X-45433Y-56530D01*
X-45516Y-56654D01*
X-45545Y-56800D01*
X-45516Y-56946D01*
X-45433Y-57070D01*
X-45309Y-57153D01*
X-45162Y-57182D01*
X-45016Y-57153D01*
X-44892Y-57070D01*
X-44809Y-56946D01*
X-44780Y-56800D01*
X-44809Y-56654D01*
X-44892Y-56530D01*
X-44895Y-56528D01*
Y-53424D01*
X-44797Y-53343D01*
X-44725Y-53357D01*
X-44579Y-53328D01*
X-44455Y-53245D01*
X-44453Y-53243D01*
X-42375D01*
X-42375Y-53243D01*
X-42290Y-53226D01*
X-42273Y-53222D01*
X-42186Y-53164D01*
X-42186Y-53164D01*
X-42186Y-53164D01*
X-41789Y-52768D01*
X-38812D01*
X-38763Y-52885D01*
X-39522Y-53644D01*
X-39634Y-53584D01*
X-39618Y-53500D01*
X-39647Y-53354D01*
X-39730Y-53230D01*
X-39854Y-53147D01*
X-40000Y-53118D01*
X-40146Y-53147D01*
X-40270Y-53230D01*
X-40353Y-53354D01*
X-40382Y-53500D01*
X-40353Y-53646D01*
X-40304Y-53720D01*
X-40364Y-53832D01*
X-41175D01*
X-41175Y-53832D01*
X-41277Y-53853D01*
X-41306Y-53872D01*
X-41364Y-53911D01*
X-41364Y-53911D01*
X-44539Y-57086D01*
X-44597Y-57173D01*
X-44601Y-57190D01*
X-44618Y-57275D01*
X-44618Y-57275D01*
Y-57328D01*
X-44620Y-57330D01*
X-44703Y-57454D01*
X-44732Y-57600D01*
X-44703Y-57746D01*
X-44620Y-57870D01*
X-44496Y-57953D01*
X-44387Y-57975D01*
X-44350Y-58097D01*
X-44586Y-58332D01*
X-47289D01*
X-47736Y-57886D01*
X-47823Y-57828D01*
X-47840Y-57824D01*
X-47925Y-57807D01*
X-47925Y-57807D01*
X-49061D01*
X-49061Y-57807D01*
X-49164Y-57828D01*
X-49251Y-57886D01*
X-49864Y-58499D01*
X-49922Y-58586D01*
X-49926Y-58603D01*
X-49943Y-58689D01*
X-49943Y-58689D01*
Y-62586D01*
X-49943Y-62586D01*
X-49926Y-62672D01*
X-49922Y-62689D01*
X-49864Y-62776D01*
X-49864Y-62776D01*
X-49864Y-62776D01*
Y-62776D01*
X-49864Y-62776D01*
Y-62776D01*
D01*
X-47701Y-64939D01*
X-47701Y-64939D01*
X-47614Y-64997D01*
X-47614Y-64997D01*
X-47614Y-64997D01*
D01*
X-47614Y-64997D01*
X-47614Y-64997D01*
X-47511Y-65018D01*
X-47511Y-65018D01*
X-42511D01*
X-40818Y-66711D01*
Y-69839D01*
X-40989Y-70011D01*
X-41047Y-70098D01*
X-41051Y-70115D01*
X-41068Y-70200D01*
X-41068Y-70200D01*
Y-70903D01*
X-41070Y-70905D01*
X-41153Y-71029D01*
X-41182Y-71175D01*
X-41153Y-71321D01*
X-41070Y-71445D01*
X-40946Y-71528D01*
X-40800Y-71557D01*
X-40654Y-71528D01*
X-40530Y-71445D01*
X-40447Y-71321D01*
X-40418Y-71175D01*
X-40439Y-71067D01*
X-40389Y-71017D01*
X-40262D01*
X-40211Y-71067D01*
X-40232Y-71175D01*
X-40203Y-71321D01*
X-40120Y-71445D01*
X-39996Y-71528D01*
X-39850Y-71557D01*
X-39704Y-71528D01*
X-39593Y-71588D01*
Y-71925D01*
X-39593Y-71925D01*
X-39576Y-72010D01*
X-39572Y-72027D01*
X-39514Y-72114D01*
X-38713Y-72915D01*
X-38762Y-73032D01*
X-40089D01*
X-41693Y-71428D01*
X-41693Y-71425D01*
X-41722Y-71279D01*
X-41805Y-71155D01*
X-41929Y-71072D01*
X-42075Y-71043D01*
X-42221Y-71072D01*
X-42345Y-71155D01*
X-42428Y-71279D01*
X-42454Y-71409D01*
X-42576Y-71446D01*
X-42793Y-71228D01*
X-42793Y-71225D01*
X-42822Y-71079D01*
X-42905Y-70955D01*
X-43029Y-70872D01*
X-43175Y-70843D01*
X-43321Y-70872D01*
X-43445Y-70955D01*
X-43528Y-71079D01*
X-43557Y-71225D01*
X-43528Y-71371D01*
X-43445Y-71495D01*
X-43321Y-71578D01*
X-43175Y-71607D01*
X-43172Y-71607D01*
X-40360Y-74418D01*
X-40373Y-74545D01*
X-40429Y-74582D01*
X-40964D01*
X-43193Y-72353D01*
X-43193Y-72350D01*
X-43222Y-72204D01*
X-43305Y-72080D01*
X-43429Y-71997D01*
X-43575Y-71968D01*
X-43721Y-71997D01*
X-43845Y-72080D01*
X-43928Y-72204D01*
X-43957Y-72350D01*
X-43953Y-72372D01*
X-44065Y-72431D01*
X-44357Y-72139D01*
Y-70697D01*
X-44355Y-70695D01*
X-44272Y-70571D01*
X-44243Y-70425D01*
X-44272Y-70279D01*
X-44355Y-70155D01*
X-44479Y-70072D01*
X-44625Y-70043D01*
X-44744Y-70066D01*
X-44815Y-69961D01*
X-44774Y-69900D01*
X-44745Y-69753D01*
X-44762Y-69666D01*
X-44682Y-69568D01*
X-41622D01*
X-41620Y-69570D01*
X-41496Y-69653D01*
X-41350Y-69682D01*
X-41204Y-69653D01*
X-41080Y-69570D01*
X-40997Y-69446D01*
X-40968Y-69300D01*
X-40997Y-69154D01*
X-41080Y-69030D01*
X-41204Y-68947D01*
X-41350Y-68918D01*
X-41496Y-68947D01*
X-41620Y-69030D01*
X-41622Y-69032D01*
X-55620D01*
X-55678Y-68891D01*
X-55830Y-68692D01*
X-56029Y-68540D01*
X-56260Y-68444D01*
X-56508Y-68412D01*
X-56756Y-68444D01*
X-56987Y-68540D01*
X-57186Y-68692D01*
X-57338Y-68891D01*
X-57434Y-69122D01*
X-57466Y-69370D01*
X-57434Y-69618D01*
X-57338Y-69849D01*
X-57186Y-70048D01*
X-56987Y-70200D01*
X-56756Y-70296D01*
X-56508Y-70328D01*
X-56260Y-70296D01*
X-56029Y-70200D01*
X-55830Y-70048D01*
X-55678Y-69849D01*
X-55582Y-69618D01*
X-55576Y-69568D01*
X-45573D01*
X-45492Y-69666D01*
X-45510Y-69753D01*
X-45480Y-69900D01*
X-45418Y-69994D01*
Y-75150D01*
X-45418Y-75150D01*
X-45401Y-75235D01*
X-45397Y-75252D01*
X-45339Y-75339D01*
X-44062Y-76616D01*
X-44122Y-76728D01*
X-44175Y-76718D01*
X-44321Y-76747D01*
X-44412Y-76807D01*
X-55574D01*
X-55582Y-76742D01*
X-55678Y-76511D01*
X-55830Y-76312D01*
X-56029Y-76160D01*
X-56260Y-76064D01*
X-56508Y-76032D01*
X-56756Y-76064D01*
X-56987Y-76160D01*
X-57186Y-76312D01*
X-57338Y-76511D01*
X-57434Y-76742D01*
X-57466Y-76990D01*
X-57434Y-77238D01*
X-57338Y-77469D01*
X-57186Y-77668D01*
X-56987Y-77820D01*
X-56756Y-77916D01*
X-56508Y-77948D01*
X-56260Y-77916D01*
X-56029Y-77820D01*
X-55830Y-77668D01*
X-55678Y-77469D01*
X-55626Y-77343D01*
X-44464D01*
X-44445Y-77370D01*
X-44321Y-77453D01*
X-44175Y-77482D01*
X-44029Y-77453D01*
X-43905Y-77370D01*
X-43822Y-77246D01*
X-43793Y-77100D01*
X-43803Y-77047D01*
X-43691Y-76987D01*
X-43499Y-77179D01*
X-43412Y-77237D01*
X-43395Y-77241D01*
X-43310Y-77258D01*
X-43310Y-77258D01*
X-7887D01*
X-7800Y-77469D01*
X-7648Y-77668D01*
X-7449Y-77820D01*
X-7218Y-77916D01*
X-6970Y-77948D01*
X-6722Y-77916D01*
X-6491Y-77820D01*
X-6292Y-77668D01*
X-6140Y-77469D01*
X-6044Y-77238D01*
X-6012Y-76990D01*
X-6044Y-76742D01*
X-6140Y-76511D01*
X-6292Y-76312D01*
X-6491Y-76160D01*
X-6722Y-76064D01*
X-6875Y-76044D01*
X-6866Y-75918D01*
X-5881D01*
X-5268Y-76531D01*
X-5356Y-76742D01*
X-5388Y-76990D01*
X-5356Y-77238D01*
X-5260Y-77469D01*
X-5108Y-77668D01*
X-4909Y-77820D01*
X-4678Y-77916D01*
X-4430Y-77948D01*
X-4182Y-77916D01*
X-3951Y-77820D01*
X-3752Y-77668D01*
X-3600Y-77469D01*
X-3504Y-77238D01*
X-3472Y-76990D01*
X-3504Y-76742D01*
X-3600Y-76511D01*
X-3752Y-76312D01*
X-3951Y-76160D01*
X-4182Y-76064D01*
X-4430Y-76032D01*
X-4678Y-76064D01*
X-4889Y-76152D01*
X-5581Y-75461D01*
X-5668Y-75403D01*
X-5685Y-75399D01*
X-5770Y-75382D01*
X-5770Y-75382D01*
X-6427D01*
X-6468Y-75262D01*
X-6292Y-75128D01*
X-6140Y-74929D01*
X-6044Y-74698D01*
X-6012Y-74450D01*
X-6044Y-74202D01*
X-6140Y-73971D01*
X-6292Y-73772D01*
X-6491Y-73620D01*
X-6722Y-73524D01*
X-6970Y-73492D01*
X-7218Y-73524D01*
X-7449Y-73620D01*
X-7648Y-73772D01*
X-7800Y-73971D01*
X-7896Y-74202D01*
X-7928Y-74450D01*
X-7896Y-74698D01*
X-7800Y-74929D01*
X-7648Y-75128D01*
X-7472Y-75262D01*
X-7513Y-75382D01*
X-41114D01*
X-43656Y-72840D01*
X-43639Y-72808D01*
X-43514Y-72790D01*
X-41264Y-75039D01*
X-41264Y-75039D01*
X-41206Y-75078D01*
X-41177Y-75097D01*
X-41075Y-75118D01*
X-41075Y-75118D01*
X-22450D01*
X-22450Y-75118D01*
X-22365Y-75101D01*
X-22348Y-75097D01*
X-22261Y-75039D01*
X-22261Y-75039D01*
X-22261Y-75039D01*
X-19399Y-72178D01*
X-7887D01*
X-7800Y-72389D01*
X-7648Y-72588D01*
X-7449Y-72740D01*
X-7218Y-72836D01*
X-6970Y-72868D01*
X-6722Y-72836D01*
X-6491Y-72740D01*
X-6292Y-72588D01*
X-6140Y-72389D01*
X-6044Y-72158D01*
X-6012Y-71910D01*
X-6044Y-71662D01*
X-6140Y-71431D01*
X-6292Y-71232D01*
X-6416Y-71138D01*
X-6375Y-71018D01*
X-5701D01*
X-5268Y-71451D01*
X-5356Y-71662D01*
X-5388Y-71910D01*
X-5356Y-72158D01*
X-5260Y-72389D01*
X-5108Y-72588D01*
X-4909Y-72740D01*
X-4678Y-72836D01*
X-4430Y-72868D01*
X-4182Y-72836D01*
X-3951Y-72740D01*
X-3752Y-72588D01*
X-3600Y-72389D01*
X-3504Y-72158D01*
X-3472Y-71910D01*
X-3504Y-71662D01*
X-3600Y-71431D01*
X-3752Y-71232D01*
X-3951Y-71080D01*
X-4182Y-70984D01*
X-4430Y-70952D01*
X-4678Y-70984D01*
X-4889Y-71072D01*
X-5177Y-70785D01*
X-5128Y-70668D01*
X-3850D01*
X-3850Y-70668D01*
X-3765Y-70651D01*
X-3748Y-70647D01*
X-3661Y-70589D01*
X-3260Y-70188D01*
X-3143Y-70237D01*
Y-72784D01*
X-3971Y-73612D01*
X-4182Y-73524D01*
X-4430Y-73492D01*
X-4678Y-73524D01*
X-4909Y-73620D01*
X-5108Y-73772D01*
X-5260Y-73971D01*
X-5356Y-74202D01*
X-5388Y-74450D01*
X-5356Y-74698D01*
X-5260Y-74929D01*
X-5108Y-75128D01*
X-4909Y-75280D01*
X-4678Y-75376D01*
X-4430Y-75408D01*
X-4182Y-75376D01*
X-3951Y-75280D01*
X-3752Y-75128D01*
X-3600Y-74929D01*
X-3504Y-74698D01*
X-3472Y-74450D01*
X-3504Y-74202D01*
X-3592Y-73991D01*
X-2686Y-73084D01*
X-2686Y-73084D01*
X-2628Y-72997D01*
X-2607Y-72895D01*
Y-66325D01*
X-2607Y-66325D01*
X-2628Y-66223D01*
X-2647Y-66194D01*
X-2686Y-66136D01*
X-2686Y-66136D01*
X-3561Y-65261D01*
X-3648Y-65203D01*
X-3665Y-65199D01*
X-3693Y-65194D01*
X-3722Y-65070D01*
X-3681Y-65039D01*
X-3513Y-64820D01*
X-3407Y-64564D01*
X-3384Y-64390D01*
X-5476D01*
X-5453Y-64564D01*
X-5347Y-64820D01*
X-5179Y-65039D01*
X-5149Y-65062D01*
X-5189Y-65182D01*
X-6020D01*
Y-63755D01*
X-2410Y-60145D01*
X-2293Y-60194D01*
Y-91679D01*
X-3351Y-92737D01*
X-17620D01*
Y-92080D01*
X-19520D01*
Y-93980D01*
X-17620D01*
Y-93323D01*
X-3230D01*
X-3118Y-93301D01*
X-3023Y-93237D01*
X-1793Y-92007D01*
X-1729Y-91912D01*
X-1707Y-91800D01*
X-1707Y-91800D01*
X-1707Y-91800D01*
Y-91800D01*
Y-26000D01*
X-1729Y-25888D01*
X-1793Y-25793D01*
X-4593Y-22993D01*
X-4600Y-22988D01*
X-4625Y-22863D01*
X-4547Y-22746D01*
X-4518Y-22600D01*
X-4547Y-22454D01*
X-4630Y-22330D01*
X-4754Y-22247D01*
X-4900Y-22218D01*
X-5046Y-22247D01*
X-5088Y-22275D01*
X-5200Y-22215D01*
Y-22075D01*
X-6400D01*
Y-22075D01*
Y-22075D01*
X-6400D01*
Y-22075D01*
X-7600D01*
Y-22822D01*
X-8186Y-23407D01*
X-16689D01*
X-16936Y-23161D01*
X-17023Y-23103D01*
X-17040Y-23099D01*
X-17125Y-23082D01*
X-17125Y-23082D01*
X-17920D01*
X-17980Y-22970D01*
X-17880Y-22821D01*
X-17841Y-22626D01*
X-17880Y-22431D01*
X-17990Y-22266D01*
X-18156Y-22155D01*
X-18351Y-22116D01*
X-18546Y-22155D01*
X-18711Y-22266D01*
X-18822Y-22431D01*
X-18827Y-22457D01*
X-20205D01*
X-20280Y-22345D01*
X-20280Y-22345D01*
X-20280Y-22345D01*
X-20197Y-22221D01*
X-20168Y-22075D01*
X-20197Y-21929D01*
X-20241Y-21862D01*
X-20181Y-21750D01*
X-19425D01*
Y-21300D01*
X-19325D01*
Y-21200D01*
X-18800D01*
Y-21068D01*
X-18386D01*
X-17350Y-22104D01*
Y-22700D01*
X-16450D01*
Y-22455D01*
X-16250D01*
Y-23150D01*
X-14550D01*
Y-21150D01*
X-16250D01*
Y-21895D01*
X-16450D01*
Y-21750D01*
Y-21325D01*
X-16900D01*
Y-21125D01*
X-16450D01*
Y-20800D01*
Y-20375D01*
X-16900D01*
Y-20175D01*
X-16450D01*
Y-19850D01*
Y-19605D01*
X-13925D01*
X-13818Y-19584D01*
X-13727Y-19523D01*
X-13727Y-19523D01*
X-13727Y-19523D01*
X-13553Y-19350D01*
X-12250D01*
Y-17350D01*
X-13950D01*
Y-18953D01*
X-14041Y-19045D01*
X-14550D01*
Y-17350D01*
X-16250D01*
Y-19045D01*
X-16450D01*
Y-18900D01*
X-16425D01*
Y-18500D01*
X-16900D01*
Y-18300D01*
X-16425D01*
Y-17900D01*
D01*
Y-17900D01*
X-16425Y-17900D01*
Y-17900D01*
X-16425D01*
X-16425D01*
Y-16927D01*
X-16425D01*
Y-16910D01*
X-16379Y-16872D01*
X-16379Y-16872D01*
X-16327Y-16830D01*
X-16237Y-16847D01*
X-16042Y-16808D01*
X-15877Y-16698D01*
X-15767Y-16533D01*
X-15728Y-16337D01*
X-15767Y-16142D01*
X-15877Y-15977D01*
X-16042Y-15867D01*
X-16237Y-15828D01*
X-16332Y-15847D01*
X-17102Y-15077D01*
X-17193Y-15016D01*
X-17300Y-14995D01*
X-20750D01*
X-20857Y-15016D01*
X-20948Y-15077D01*
X-21172Y-15300D01*
X-21175D01*
Y-15303D01*
X-22283Y-16411D01*
X-22336Y-16389D01*
D01*
X-22385Y-16369D01*
X-22385Y-16369D01*
X-22400Y-16359D01*
Y-16100D01*
X-22925D01*
Y-15900D01*
X-22400D01*
Y-15550D01*
D01*
Y-15550D01*
X-22400Y-15550D01*
Y-15550D01*
X-22400D01*
X-22400D01*
Y-15200D01*
X-22925D01*
Y-15100D01*
X-23025D01*
Y-14650D01*
X-23432D01*
X-23513Y-14552D01*
X-23493Y-14450D01*
X-23522Y-14304D01*
X-23605Y-14180D01*
X-23729Y-14097D01*
X-23875Y-14068D01*
X-24021Y-14097D01*
X-24145Y-14180D01*
X-24228Y-14304D01*
X-24257Y-14450D01*
X-24237Y-14552D01*
X-24318Y-14650D01*
X-24400D01*
D01*
D01*
X-24400Y-14650D01*
X-24500D01*
Y-14650D01*
X-25097D01*
X-25866Y-13880D01*
X-25840Y-13750D01*
X-25879Y-13555D01*
X-25990Y-13390D01*
X-26155Y-13279D01*
X-26350Y-13240D01*
X-26545Y-13279D01*
X-26710Y-13390D01*
X-26821Y-13555D01*
X-26860Y-13750D01*
X-26821Y-13945D01*
X-26710Y-14110D01*
X-26545Y-14221D01*
X-26350Y-14260D01*
X-26261Y-14242D01*
X-25971Y-14533D01*
X-26019Y-14650D01*
X-26500D01*
Y-15000D01*
X-25975D01*
Y-15200D01*
X-26500D01*
Y-15550D01*
D01*
X-26500Y-15550D01*
X-26500Y-15550D01*
D01*
D01*
Y-15550D01*
X-26500D01*
D01*
Y-15900D01*
X-25975D01*
Y-16100D01*
X-26500D01*
Y-16181D01*
X-26617Y-16229D01*
X-26811Y-16036D01*
X-26898Y-15978D01*
X-26915Y-15974D01*
X-27000Y-15957D01*
X-27000Y-15957D01*
X-29189D01*
X-30290Y-14856D01*
X-30327Y-14802D01*
X-30418Y-14741D01*
X-30525Y-14720D01*
X-30632Y-14741D01*
X-30723Y-14802D01*
X-30784Y-14893D01*
X-30805Y-15000D01*
X-30784Y-15107D01*
X-30723Y-15198D01*
X-30669Y-15235D01*
X-30669Y-15235D01*
X-30723Y-15302D01*
X-30723Y-15302D01*
X-30723D01*
X-30784Y-15393D01*
X-30805Y-15500D01*
X-30784Y-15607D01*
X-30724Y-15697D01*
X-30729Y-15708D01*
X-30800Y-15814D01*
X-30853Y-15819D01*
X-31020Y-15652D01*
Y-10488D01*
X-31020Y-10488D01*
X-31037Y-10402D01*
X-31040Y-10385D01*
X-31098Y-10298D01*
X-31098Y-10298D01*
X-31817Y-9580D01*
X-31757Y-9468D01*
X-31700Y-9479D01*
X-27925D01*
X-27847Y-9463D01*
X-27781Y-9419D01*
X-27737Y-9353D01*
X-27721Y-9275D01*
Y-6350D01*
X-27525D01*
Y-5400D01*
Y-4450D01*
X-28325D01*
Y-4325D01*
X-28519D01*
Y-3925D01*
X-28200D01*
Y-3925D01*
X-28200D01*
X-28200Y-3925D01*
D01*
D01*
X-28075D01*
Y-3925D01*
X-26965D01*
Y-3925D01*
Y-3925D01*
X-26965D01*
D01*
X-26875Y-3925D01*
D01*
X-26875D01*
D01*
D01*
X-26785Y-3925D01*
X-26785D01*
D01*
X-26785D01*
Y-3925D01*
Y-3925D01*
X-26375D01*
Y-3400D01*
Y-2875D01*
X-26785D01*
Y-2875D01*
Y-2875D01*
X-26785D01*
D01*
X-26875Y-2875D01*
D01*
X-26875D01*
D01*
D01*
X-26965Y-2875D01*
X-26965D01*
D01*
X-26965D01*
Y-2875D01*
Y-2875D01*
X-28075D01*
D01*
D01*
X-28075Y-2875D01*
X-28200D01*
Y-2875D01*
X-28892D01*
X-29228Y-2539D01*
X-29215Y-2475D01*
X-29254Y-2280D01*
X-29365Y-2115D01*
X-29530Y-2004D01*
X-29725Y-1965D01*
X-29904Y-2001D01*
X-29929Y-1878D01*
X-29929D01*
X-29805Y-1795D01*
X-29722Y-1671D01*
X-29693Y-1525D01*
X-29722Y-1379D01*
X-29805Y-1255D01*
X-29929Y-1172D01*
X-30075Y-1143D01*
X-30221Y-1172D01*
X-30345Y-1255D01*
X-30347Y-1257D01*
X-32197D01*
X-32271Y-1079D01*
X-32404Y-904D01*
X-32579Y-771D01*
X-32782Y-686D01*
X-33000Y-658D01*
D02*
G37*
G36*
X-40771Y-1600D02*
X-41500D01*
Y-2329D01*
X-41382Y-2314D01*
X-41179Y-2229D01*
X-41004Y-2096D01*
X-40871Y-1921D01*
X-40786Y-1718D01*
X-40771Y-1600D01*
D02*
G37*
G36*
X-41700D02*
X-42429D01*
X-42414Y-1718D01*
X-42329Y-1921D01*
X-42196Y-2096D01*
X-42021Y-2229D01*
X-41818Y-2314D01*
X-41700Y-2329D01*
Y-1600D01*
D02*
G37*
G36*
X-7600Y-1136D02*
X-7746Y-1165D01*
X-7870Y-1248D01*
X-7953Y-1372D01*
X-7982Y-1518D01*
X-7953Y-1664D01*
X-7870Y-1788D01*
X-7746Y-1871D01*
X-7600Y-1900D01*
X-7454Y-1871D01*
X-7330Y-1788D01*
X-7247Y-1664D01*
X-7218Y-1518D01*
X-7247Y-1372D01*
X-7330Y-1248D01*
X-7454Y-1165D01*
X-7600Y-1136D01*
D02*
G37*
G36*
X-41500Y-671D02*
Y-1400D01*
X-40771D01*
X-40786Y-1282D01*
X-40871Y-1079D01*
X-41004Y-904D01*
X-41179Y-771D01*
X-41382Y-686D01*
X-41500Y-671D01*
D02*
G37*
G36*
X-41700D02*
X-41818Y-686D01*
X-42021Y-771D01*
X-42196Y-904D01*
X-42329Y-1079D01*
X-42414Y-1282D01*
X-42429Y-1400D01*
X-41700D01*
Y-671D01*
D02*
G37*
G36*
X-26000Y-658D02*
X-26218Y-686D01*
X-26421Y-771D01*
X-26596Y-904D01*
X-26729Y-1079D01*
X-26814Y-1282D01*
X-26842Y-1500D01*
X-26814Y-1718D01*
X-26729Y-1921D01*
X-26596Y-2096D01*
X-26421Y-2229D01*
X-26311Y-2275D01*
X-26218Y-2314D01*
X-26000Y-2342D01*
X-25782Y-2314D01*
X-25579Y-2229D01*
X-25404Y-2096D01*
X-25271Y-1921D01*
X-25244Y-1856D01*
X-25122Y-1819D01*
X-25071Y-1853D01*
X-24925Y-1882D01*
X-24779Y-1853D01*
X-24655Y-1770D01*
X-24572Y-1646D01*
X-24543Y-1500D01*
X-24572Y-1354D01*
X-24655Y-1230D01*
X-24779Y-1147D01*
X-24925Y-1118D01*
X-25071Y-1147D01*
X-25122Y-1181D01*
X-25244Y-1144D01*
X-25271Y-1079D01*
X-25404Y-904D01*
X-25579Y-771D01*
X-25782Y-686D01*
X-26000Y-658D01*
D02*
G37*
G36*
X-25675Y-2875D02*
X-26175D01*
Y-3300D01*
X-25675D01*
Y-2875D01*
D02*
G37*
G36*
X-24525Y-3720D02*
X-25006D01*
Y-4201D01*
X-24525D01*
Y-3720D01*
D02*
G37*
G36*
X-23844Y-4402D02*
X-24325D01*
Y-4883D01*
X-23844D01*
Y-4402D01*
D02*
G37*
G36*
X-14794Y-2250D02*
X-16494D01*
Y-3250D01*
X-16494D01*
Y-3253D01*
X-16583Y-3343D01*
X-16894D01*
Y-3200D01*
X-18594D01*
Y-3318D01*
X-19125D01*
Y-3150D01*
X-20235D01*
X-20235Y-3150D01*
Y-3150D01*
X-20325Y-3150D01*
X-20325D01*
D01*
X-20415Y-3150D01*
X-20415Y-3150D01*
Y-3150D01*
X-20825D01*
Y-3675D01*
Y-4200D01*
X-20415D01*
X-20415Y-4200D01*
Y-4200D01*
X-20325Y-4200D01*
X-20325D01*
D01*
X-20235Y-4200D01*
X-20235Y-4200D01*
Y-4200D01*
X-19225D01*
X-19217Y-4228D01*
D01*
D01*
D01*
X-19188Y-4322D01*
X-19302Y-4397D01*
X-20223Y-5318D01*
X-23844D01*
Y-5117D01*
X-24969D01*
Y-4925D01*
X-24934Y-4883D01*
X-24525D01*
Y-4402D01*
X-25006D01*
Y-4595D01*
X-25123Y-4644D01*
X-25334Y-4434D01*
X-25433Y-4367D01*
X-25525Y-4349D01*
Y-4325D01*
X-26525D01*
Y-4450D01*
X-27325D01*
Y-5400D01*
Y-6350D01*
X-26525D01*
Y-6475D01*
X-25525D01*
Y-5975D01*
Y-5956D01*
X-25006D01*
Y-6280D01*
X-23844D01*
Y-6032D01*
X-20223D01*
X-19282Y-6973D01*
Y-9975D01*
X-19255Y-10112D01*
X-19177Y-10227D01*
X-18652Y-10752D01*
X-18537Y-10830D01*
X-18400Y-10857D01*
X-17625D01*
Y-11010D01*
X-17625Y-11010D01*
X-17625D01*
X-17625Y-11100D01*
Y-11100D01*
D01*
X-17625Y-11190D01*
X-17625Y-11190D01*
X-17625D01*
Y-11494D01*
X-17978D01*
X-18015Y-11440D01*
X-18180Y-11329D01*
X-18375Y-11290D01*
X-18570Y-11329D01*
X-18735Y-11440D01*
X-18846Y-11605D01*
X-18885Y-11800D01*
X-18846Y-11995D01*
X-18735Y-12160D01*
X-18570Y-12271D01*
X-18375Y-12310D01*
X-18180Y-12271D01*
X-18015Y-12160D01*
X-17978Y-12106D01*
X-17625D01*
Y-12300D01*
X-16958D01*
X-16641Y-12616D01*
X-16641Y-12616D01*
X-16542Y-12683D01*
X-16542Y-12683D01*
X-16542Y-12683D01*
D01*
X-16542Y-12683D01*
X-16542Y-12683D01*
X-16425Y-12706D01*
X-16400Y-12831D01*
Y-12900D01*
X-15856D01*
Y-14500D01*
X-16400D01*
Y-15500D01*
X-14700D01*
Y-14500D01*
X-15244D01*
Y-12900D01*
X-14700D01*
Y-11900D01*
X-16400D01*
X-16400Y-11900D01*
Y-11900D01*
X-16465Y-11927D01*
X-16575Y-11817D01*
Y-11190D01*
X-16575Y-11190D01*
X-16575D01*
X-16575Y-11100D01*
Y-11100D01*
D01*
X-16575Y-11010D01*
X-16575Y-11010D01*
X-16575D01*
Y-10857D01*
X-16400D01*
Y-11000D01*
X-14700D01*
Y-10857D01*
X-14300D01*
Y-10950D01*
X-14300D01*
Y-11950D01*
X-13756D01*
Y-13550D01*
X-14300D01*
Y-14550D01*
X-13033D01*
X-12466Y-15116D01*
X-12466Y-15116D01*
X-12407Y-15156D01*
X-12367Y-15183D01*
X-12325Y-15191D01*
Y-15410D01*
X-12325Y-15410D01*
X-12325D01*
X-12325Y-15500D01*
Y-15500D01*
D01*
X-12325Y-15590D01*
X-12325Y-15590D01*
X-12325D01*
Y-16000D01*
X-11275D01*
Y-15590D01*
X-11275Y-15590D01*
X-11275D01*
X-11275Y-15500D01*
Y-15500D01*
D01*
X-11275Y-15410D01*
X-11275Y-15410D01*
X-11275D01*
Y-15193D01*
X-11001D01*
X-10908Y-15333D01*
X-10709Y-15465D01*
X-10475Y-15512D01*
X-10241Y-15465D01*
X-10042Y-15333D01*
X-9910Y-15134D01*
X-9863Y-14900D01*
X-9910Y-14666D01*
X-10042Y-14467D01*
X-10241Y-14335D01*
X-10475Y-14288D01*
X-10709Y-14335D01*
X-10908Y-14467D01*
X-11001Y-14607D01*
X-11275D01*
Y-14300D01*
X-12325D01*
X-12325Y-14300D01*
Y-14300D01*
X-12390Y-14327D01*
X-12600Y-14117D01*
Y-13550D01*
X-13144D01*
Y-11950D01*
X-12600D01*
Y-11807D01*
X-12300D01*
Y-11950D01*
X-10600D01*
Y-11852D01*
X-10488Y-11792D01*
X-10471Y-11803D01*
X-10325Y-11832D01*
X-10298Y-11827D01*
X-10239Y-11875D01*
D01*
X-10200Y-11908D01*
Y-11929D01*
X-10200D01*
Y-12900D01*
X-8500D01*
Y-12757D01*
X-8216D01*
X-7920Y-13053D01*
Y-14440D01*
X-6057D01*
Y-14604D01*
X-6605Y-15153D01*
X-6722Y-15104D01*
X-6970Y-15072D01*
X-7218Y-15104D01*
X-7449Y-15200D01*
X-7648Y-15352D01*
X-7800Y-15551D01*
X-7896Y-15782D01*
X-7928Y-16030D01*
X-7896Y-16278D01*
X-7800Y-16509D01*
X-7648Y-16708D01*
X-7449Y-16860D01*
X-7218Y-16956D01*
X-6970Y-16988D01*
X-6722Y-16956D01*
X-6491Y-16860D01*
X-6292Y-16708D01*
X-6140Y-16509D01*
X-6044Y-16278D01*
X-6012Y-16030D01*
X-6044Y-15782D01*
X-6097Y-15654D01*
X-5448Y-15004D01*
X-5370Y-14889D01*
X-5343Y-14752D01*
X-5343Y-14752D01*
X-5343Y-14752D01*
Y-14752D01*
Y-14222D01*
X-5223Y-14182D01*
X-5179Y-14239D01*
X-4960Y-14407D01*
X-4704Y-14513D01*
X-4530Y-14536D01*
Y-13490D01*
X-4430D01*
Y-13390D01*
X-3384D01*
X-3407Y-13216D01*
X-3513Y-12960D01*
X-3681Y-12741D01*
X-3786Y-12661D01*
X-3782Y-12534D01*
X-3667Y-12458D01*
X-3535Y-12259D01*
X-3488Y-12025D01*
X-3535Y-11791D01*
X-3571Y-11737D01*
X-3511Y-11625D01*
X-3500D01*
Y-11625D01*
X-3500D01*
X-3500Y-11625D01*
X-3400D01*
Y-11625D01*
X-3133D01*
X-3096Y-11747D01*
X-3160Y-11790D01*
X-3271Y-11955D01*
X-3310Y-12150D01*
X-3271Y-12345D01*
X-3160Y-12510D01*
X-2995Y-12621D01*
X-2800Y-12660D01*
X-2605Y-12621D01*
X-2440Y-12510D01*
X-2329Y-12345D01*
X-2290Y-12150D01*
X-2329Y-11955D01*
X-2440Y-11790D01*
X-2504Y-11747D01*
X-2467Y-11625D01*
X-2290D01*
X-2290Y-11625D01*
Y-11625D01*
X-2200Y-11625D01*
X-2200D01*
D01*
X-2110Y-11625D01*
X-2110Y-11625D01*
Y-11625D01*
X-1700D01*
Y-11100D01*
Y-10575D01*
X-2110D01*
X-2110Y-10575D01*
Y-10575D01*
X-2200Y-10575D01*
X-2200D01*
D01*
X-2290Y-10575D01*
X-2290Y-10575D01*
Y-10575D01*
X-2928D01*
X-2945Y-10559D01*
Y-10350D01*
X-2675D01*
Y-9725D01*
X-2575D01*
Y-9625D01*
X-2200D01*
Y-9362D01*
X-2083Y-9314D01*
X-1725Y-9672D01*
Y-10400D01*
X-675D01*
Y-9200D01*
D01*
Y-9200D01*
X-675Y-9200D01*
Y-9200D01*
X-675D01*
X-675D01*
Y-8000D01*
X-907D01*
Y-7655D01*
X-840Y-7610D01*
X-729Y-7445D01*
X-690Y-7250D01*
X-729Y-7055D01*
X-840Y-6890D01*
X-1005Y-6779D01*
X-1200Y-6740D01*
X-1395Y-6779D01*
X-1560Y-6890D01*
X-1671Y-7055D01*
X-1710Y-7250D01*
X-1671Y-7445D01*
X-1560Y-7610D01*
X-1493Y-7655D01*
Y-8000D01*
X-1725D01*
Y-8713D01*
X-1842Y-8761D01*
X-2200Y-8403D01*
Y-7250D01*
X-2282D01*
Y-7076D01*
X-2142Y-6983D01*
X-2010Y-6784D01*
X-1963Y-6550D01*
X-2010Y-6316D01*
X-2142Y-6117D01*
X-2341Y-5985D01*
X-2575Y-5938D01*
X-2809Y-5985D01*
X-3008Y-6117D01*
X-3140Y-6316D01*
X-3187Y-6550D01*
X-3140Y-6784D01*
X-3008Y-6983D01*
X-2868Y-7076D01*
Y-7250D01*
X-3775D01*
Y-7875D01*
X-3875D01*
Y-7975D01*
X-4250D01*
Y-8320D01*
X-4675D01*
Y-8000D01*
X-5725D01*
Y-8482D01*
X-5927D01*
X-5990Y-8390D01*
X-6155Y-8279D01*
X-6350Y-8240D01*
X-6545Y-8279D01*
X-6710Y-8390D01*
X-6821Y-8555D01*
X-6860Y-8750D01*
X-6838Y-8860D01*
X-7723Y-9745D01*
X-16377D01*
X-16736Y-9386D01*
X-16823Y-9328D01*
X-16840Y-9324D01*
X-16925Y-9307D01*
X-16925Y-9307D01*
X-17753D01*
X-17755Y-9305D01*
X-17879Y-9222D01*
X-18025Y-9193D01*
X-18171Y-9222D01*
X-18295Y-9305D01*
X-18378Y-9429D01*
X-18407Y-9575D01*
X-18378Y-9721D01*
X-18295Y-9845D01*
X-18171Y-9928D01*
X-18025Y-9957D01*
X-17879Y-9928D01*
X-17755Y-9845D01*
X-17753Y-9843D01*
X-17625D01*
Y-9900D01*
X-17625D01*
Y-10143D01*
X-18252D01*
X-18568Y-9827D01*
Y-6825D01*
X-18595Y-6688D01*
X-18673Y-6573D01*
X-19570Y-5675D01*
X-18902Y-5007D01*
X-16494D01*
Y-5150D01*
X-14794D01*
Y-4577D01*
X-14676Y-4528D01*
X-13261Y-5943D01*
X-13298Y-6065D01*
X-13370Y-6079D01*
X-13535Y-6190D01*
X-13646Y-6355D01*
X-13685Y-6550D01*
X-13646Y-6745D01*
X-13535Y-6910D01*
X-13370Y-7021D01*
X-13175Y-7060D01*
X-12980Y-7021D01*
X-12815Y-6910D01*
X-12704Y-6745D01*
X-12688Y-6664D01*
X-12571Y-6615D01*
X-12512Y-6655D01*
X-12375Y-6682D01*
X-11748D01*
X-11543Y-6887D01*
X-11470Y-6995D01*
X-11346Y-7078D01*
X-11200Y-7107D01*
X-11054Y-7078D01*
X-10930Y-6995D01*
X-10847Y-6871D01*
X-10818Y-6725D01*
X-10847Y-6579D01*
X-10930Y-6455D01*
X-11038Y-6382D01*
X-11348Y-6073D01*
X-11463Y-5995D01*
X-11600Y-5968D01*
X-12227D01*
X-13701Y-4494D01*
X-13664Y-4373D01*
X-13530Y-4346D01*
X-13365Y-4235D01*
X-13254Y-4070D01*
X-13215Y-3875D01*
X-13254Y-3680D01*
X-13365Y-3515D01*
X-13530Y-3404D01*
X-13725Y-3365D01*
X-13920Y-3404D01*
X-14085Y-3515D01*
X-14196Y-3680D01*
X-14223Y-3814D01*
X-14344Y-3851D01*
X-14748Y-3447D01*
X-14862Y-3371D01*
X-14825Y-3250D01*
X-14794D01*
Y-3017D01*
X-12361D01*
X-11068Y-4311D01*
Y-5403D01*
X-11070Y-5405D01*
X-11153Y-5529D01*
X-11182Y-5675D01*
X-11153Y-5821D01*
X-11070Y-5945D01*
X-10946Y-6028D01*
X-10800Y-6057D01*
X-10654Y-6028D01*
X-10530Y-5945D01*
X-10447Y-5821D01*
X-10418Y-5675D01*
X-10447Y-5529D01*
X-10530Y-5405D01*
X-10532Y-5403D01*
Y-4200D01*
X-10532Y-4200D01*
X-10553Y-4098D01*
X-10611Y-4011D01*
X-10611Y-4011D01*
X-12061Y-2561D01*
X-12148Y-2503D01*
X-12165Y-2499D01*
X-12250Y-2482D01*
X-12250Y-2482D01*
X-14794D01*
Y-2250D01*
D02*
G37*
G36*
X-23844Y-3720D02*
X-24325D01*
Y-4201D01*
X-23844D01*
Y-3720D01*
D02*
G37*
G36*
X-21025Y-3150D02*
X-21525D01*
Y-3575D01*
X-21025D01*
Y-3150D01*
D02*
G37*
G36*
X-25675Y-3500D02*
X-26175D01*
Y-3925D01*
X-25675D01*
Y-3500D01*
D02*
G37*
G36*
X-21025Y-3775D02*
X-21525D01*
Y-4200D01*
X-21025D01*
Y-3775D01*
D02*
G37*
G36*
X-41270Y-9992D02*
X-41518Y-10024D01*
X-41749Y-10120D01*
X-41948Y-10272D01*
X-42100Y-10471D01*
X-42196Y-10702D01*
X-42228Y-10950D01*
X-42196Y-11198D01*
X-42100Y-11429D01*
X-41948Y-11628D01*
X-41749Y-11780D01*
X-41518Y-11876D01*
X-41270Y-11908D01*
X-41022Y-11876D01*
X-40791Y-11780D01*
X-40592Y-11628D01*
X-40440Y-11429D01*
X-40344Y-11198D01*
X-40312Y-10950D01*
X-40344Y-10702D01*
X-40440Y-10471D01*
X-40592Y-10272D01*
X-40791Y-10120D01*
X-41022Y-10024D01*
X-41270Y-9992D01*
D02*
G37*
G36*
X-13550Y-15450D02*
X-14300D01*
Y-15850D01*
X-13550D01*
Y-15450D01*
D02*
G37*
G36*
X-12600D02*
X-13350D01*
Y-15850D01*
X-12600D01*
Y-15450D01*
D02*
G37*
G36*
X-29200Y-14340D02*
X-29395Y-14379D01*
X-29560Y-14490D01*
X-29671Y-14655D01*
X-29710Y-14850D01*
X-29671Y-15045D01*
X-29560Y-15210D01*
X-29395Y-15321D01*
X-29200Y-15360D01*
X-29005Y-15321D01*
X-28840Y-15210D01*
X-28729Y-15045D01*
X-28690Y-14850D01*
X-28729Y-14655D01*
X-28840Y-14490D01*
X-29005Y-14379D01*
X-29200Y-14340D01*
D02*
G37*
G36*
X-11275Y-16200D02*
X-11700D01*
Y-16700D01*
X-11275D01*
Y-16200D01*
D02*
G37*
G36*
X-13550Y-16050D02*
X-14300D01*
Y-16450D01*
X-13550D01*
Y-16050D01*
D02*
G37*
G36*
X-12600D02*
X-13350D01*
Y-16450D01*
X-12600D01*
Y-16050D01*
D02*
G37*
G36*
X-10600Y-13450D02*
X-11350D01*
Y-13850D01*
X-10600D01*
Y-13450D01*
D02*
G37*
G36*
X-11550D02*
X-12300D01*
Y-13850D01*
X-11550D01*
Y-13450D01*
D02*
G37*
G36*
X-38730Y-9992D02*
X-38978Y-10024D01*
X-39209Y-10120D01*
X-39408Y-10272D01*
X-39560Y-10471D01*
X-39656Y-10702D01*
X-39688Y-10950D01*
X-39656Y-11198D01*
X-39560Y-11429D01*
X-39408Y-11628D01*
X-39209Y-11780D01*
X-38978Y-11876D01*
X-38730Y-11908D01*
X-38482Y-11876D01*
X-38251Y-11780D01*
X-38052Y-11628D01*
X-37900Y-11429D01*
X-37813Y-11218D01*
X-37125D01*
Y-11460D01*
X-37125Y-11460D01*
X-37125D01*
X-37125Y-11550D01*
Y-11550D01*
D01*
X-37125Y-11640D01*
X-37125Y-11640D01*
X-37125D01*
Y-12750D01*
X-36075D01*
Y-12418D01*
X-35850D01*
Y-12750D01*
X-35593D01*
Y-12850D01*
X-35593Y-12850D01*
X-35576Y-12935D01*
X-35572Y-12952D01*
X-35514Y-13039D01*
X-34888Y-13665D01*
X-34910Y-13775D01*
X-34871Y-13970D01*
X-34760Y-14135D01*
X-34595Y-14246D01*
X-34400Y-14285D01*
X-34205Y-14246D01*
X-34040Y-14135D01*
X-33929Y-13970D01*
X-33890Y-13775D01*
X-33929Y-13580D01*
X-34040Y-13415D01*
X-34205Y-13304D01*
X-34400Y-13265D01*
X-34510Y-13287D01*
X-34929Y-12867D01*
X-34881Y-12750D01*
X-34800D01*
Y-11640D01*
X-34800Y-11640D01*
X-34800D01*
X-34800Y-11550D01*
Y-11550D01*
D01*
X-34800Y-11460D01*
X-34800Y-11460D01*
X-34800D01*
Y-11050D01*
X-35850D01*
Y-11460D01*
X-35850Y-11460D01*
X-35850D01*
X-35850Y-11550D01*
Y-11550D01*
D01*
X-35850Y-11640D01*
X-35850Y-11640D01*
X-35850D01*
Y-11882D01*
X-36075D01*
Y-11640D01*
X-36075Y-11640D01*
X-36075D01*
X-36075Y-11550D01*
Y-11550D01*
D01*
X-36075Y-11460D01*
X-36075Y-11460D01*
X-36075D01*
Y-10350D01*
X-37125D01*
Y-10682D01*
X-37813D01*
X-37900Y-10471D01*
X-38052Y-10272D01*
X-38251Y-10120D01*
X-38482Y-10024D01*
X-38730Y-9992D01*
D02*
G37*
G36*
X-25100Y-9518D02*
X-25246Y-9547D01*
X-25370Y-9630D01*
X-25453Y-9754D01*
X-25482Y-9900D01*
X-25453Y-10046D01*
X-25370Y-10170D01*
X-25246Y-10253D01*
X-25100Y-10282D01*
X-25097Y-10282D01*
X-21782Y-13597D01*
X-21782Y-13600D01*
X-21753Y-13746D01*
X-21670Y-13870D01*
X-21546Y-13953D01*
X-21400Y-13982D01*
X-21254Y-13953D01*
X-21130Y-13870D01*
X-21047Y-13746D01*
X-21018Y-13600D01*
X-21047Y-13454D01*
X-21130Y-13330D01*
X-21254Y-13247D01*
X-21400Y-13218D01*
X-21403Y-13218D01*
X-24718Y-9903D01*
X-24718Y-9900D01*
X-24747Y-9754D01*
X-24830Y-9630D01*
X-24954Y-9547D01*
X-25100Y-9518D01*
D02*
G37*
G36*
X-22400Y-14650D02*
X-22825D01*
Y-15000D01*
X-22400D01*
Y-14650D01*
D02*
G37*
G36*
X-3384Y-13590D02*
X-4330D01*
Y-14536D01*
X-4156Y-14513D01*
X-3900Y-14407D01*
X-3681Y-14239D01*
X-3513Y-14020D01*
X-3407Y-13764D01*
X-3384Y-13590D01*
D02*
G37*
G36*
X-56508Y-12532D02*
X-56756Y-12564D01*
X-56987Y-12660D01*
X-57186Y-12812D01*
X-57338Y-13011D01*
X-57434Y-13242D01*
X-57466Y-13490D01*
X-57434Y-13738D01*
X-57338Y-13969D01*
X-57186Y-14168D01*
X-56987Y-14320D01*
X-56756Y-14416D01*
X-56508Y-14448D01*
X-56260Y-14416D01*
X-56029Y-14320D01*
X-55830Y-14168D01*
X-55678Y-13969D01*
X-55582Y-13738D01*
X-55550Y-13490D01*
X-55582Y-13242D01*
X-55678Y-13011D01*
X-55830Y-12812D01*
X-56029Y-12660D01*
X-56260Y-12564D01*
X-56508Y-12532D01*
D02*
G37*
G36*
X-10600Y-12850D02*
X-11350D01*
Y-13250D01*
X-10600D01*
Y-12850D01*
D02*
G37*
G36*
X-4430Y-15072D02*
X-4678Y-15104D01*
X-4909Y-15200D01*
X-5108Y-15352D01*
X-5260Y-15551D01*
X-5356Y-15782D01*
X-5388Y-16030D01*
X-5356Y-16278D01*
X-5260Y-16509D01*
X-5108Y-16708D01*
X-4909Y-16860D01*
X-4678Y-16956D01*
X-4430Y-16988D01*
X-4182Y-16956D01*
X-3951Y-16860D01*
X-3752Y-16708D01*
X-3600Y-16509D01*
X-3504Y-16278D01*
X-3472Y-16030D01*
X-3504Y-15782D01*
X-3600Y-15551D01*
X-3752Y-15352D01*
X-3951Y-15200D01*
X-4182Y-15104D01*
X-4430Y-15072D01*
D02*
G37*
G36*
X-11900Y-16200D02*
X-12325D01*
Y-16700D01*
X-11900D01*
Y-16200D01*
D02*
G37*
G36*
X-56508Y-9992D02*
X-56756Y-10024D01*
X-56987Y-10120D01*
X-57186Y-10272D01*
X-57338Y-10471D01*
X-57434Y-10702D01*
X-57466Y-10950D01*
X-57434Y-11198D01*
X-57338Y-11429D01*
X-57186Y-11628D01*
X-56987Y-11780D01*
X-56756Y-11876D01*
X-56508Y-11908D01*
X-56260Y-11876D01*
X-56029Y-11780D01*
X-55830Y-11628D01*
X-55678Y-11429D01*
X-55582Y-11198D01*
X-55550Y-10950D01*
X-55582Y-10702D01*
X-55678Y-10471D01*
X-55830Y-10272D01*
X-56029Y-10120D01*
X-56260Y-10024D01*
X-56508Y-9992D01*
D02*
G37*
G36*
X-11550Y-12850D02*
X-12300D01*
Y-13250D01*
X-11550D01*
Y-12850D01*
D02*
G37*
%LPD*%
G36*
X-7524Y-71138D02*
X-7648Y-71232D01*
X-7800Y-71431D01*
X-7887Y-71642D01*
X-19510D01*
X-19612Y-71663D01*
X-19699Y-71721D01*
X-19699Y-71721D01*
X-22561Y-74582D01*
X-23438D01*
X-23487Y-74465D01*
X-20039Y-71018D01*
X-7565D01*
X-7524Y-71138D01*
D02*
G37*
G36*
X-7600Y-26279D02*
Y-27025D01*
X-7293D01*
Y-27780D01*
X-7920D01*
Y-29680D01*
X-6020D01*
Y-27780D01*
X-6707D01*
Y-27025D01*
X-6400D01*
D01*
X-6400Y-27025D01*
X-6400Y-27025D01*
X-6400D01*
Y-27025D01*
Y-27025D01*
X-5200D01*
Y-26885D01*
X-5088Y-26825D01*
X-5046Y-26853D01*
X-4900Y-26882D01*
X-4754Y-26853D01*
X-4630Y-26770D01*
X-4547Y-26646D01*
X-4518Y-26500D01*
X-4547Y-26354D01*
X-4630Y-26230D01*
X-4754Y-26147D01*
X-4765Y-26145D01*
X-4752Y-26018D01*
X-4621D01*
X-2843Y-27796D01*
Y-34852D01*
X-2960Y-34901D01*
X-3592Y-34269D01*
X-3504Y-34058D01*
X-3472Y-33810D01*
X-3504Y-33562D01*
X-3600Y-33331D01*
X-3752Y-33132D01*
X-3951Y-32980D01*
X-4182Y-32884D01*
X-4430Y-32852D01*
X-4678Y-32884D01*
X-4909Y-32980D01*
X-5108Y-33132D01*
X-5260Y-33331D01*
X-5356Y-33562D01*
X-5388Y-33810D01*
X-5356Y-34058D01*
X-5260Y-34289D01*
X-5108Y-34488D01*
X-4909Y-34640D01*
X-4678Y-34736D01*
X-4430Y-34768D01*
X-4182Y-34736D01*
X-3971Y-34648D01*
X-3268Y-35351D01*
Y-39508D01*
X-3385Y-39557D01*
X-3592Y-39349D01*
X-3504Y-39138D01*
X-3472Y-38890D01*
X-3504Y-38642D01*
X-3600Y-38411D01*
X-3752Y-38212D01*
X-3951Y-38060D01*
X-4182Y-37964D01*
X-4430Y-37932D01*
X-4678Y-37964D01*
X-4909Y-38060D01*
X-5108Y-38212D01*
X-5260Y-38411D01*
X-5356Y-38642D01*
X-5388Y-38890D01*
X-5356Y-39138D01*
X-5260Y-39369D01*
X-5108Y-39568D01*
X-4909Y-39720D01*
X-4678Y-39816D01*
X-4430Y-39848D01*
X-4182Y-39816D01*
X-3971Y-39728D01*
X-3643Y-40056D01*
Y-40693D01*
X-3757Y-40749D01*
X-3951Y-40600D01*
X-4182Y-40504D01*
X-4430Y-40472D01*
X-4678Y-40504D01*
X-4909Y-40600D01*
X-5108Y-40752D01*
X-5260Y-40951D01*
X-5356Y-41182D01*
X-5388Y-41430D01*
X-5356Y-41678D01*
X-5260Y-41909D01*
X-5108Y-42108D01*
X-4909Y-42260D01*
X-4678Y-42356D01*
X-4430Y-42388D01*
X-4182Y-42356D01*
X-3951Y-42260D01*
X-3757Y-42111D01*
X-3643Y-42167D01*
Y-43233D01*
X-3757Y-43289D01*
X-3951Y-43140D01*
X-4182Y-43044D01*
X-4430Y-43012D01*
X-4678Y-43044D01*
X-4909Y-43140D01*
X-5108Y-43292D01*
X-5260Y-43491D01*
X-5356Y-43722D01*
X-5388Y-43970D01*
X-5356Y-44218D01*
X-5268Y-44429D01*
X-5553Y-44715D01*
X-6201D01*
X-6257Y-44601D01*
X-6140Y-44449D01*
X-6044Y-44218D01*
X-6012Y-43970D01*
X-6044Y-43722D01*
X-6140Y-43491D01*
X-6292Y-43292D01*
X-6491Y-43140D01*
X-6722Y-43044D01*
X-6970Y-43012D01*
X-7218Y-43044D01*
X-7449Y-43140D01*
X-7648Y-43292D01*
X-7800Y-43491D01*
X-7887Y-43702D01*
X-8320D01*
X-8422Y-43723D01*
X-8509Y-43781D01*
X-8509Y-43781D01*
X-17265Y-52537D01*
X-17382Y-52488D01*
Y-52221D01*
X-7429Y-42268D01*
X-7218Y-42356D01*
X-6970Y-42388D01*
X-6722Y-42356D01*
X-6491Y-42260D01*
X-6292Y-42108D01*
X-6140Y-41909D01*
X-6044Y-41678D01*
X-6012Y-41430D01*
X-6044Y-41182D01*
X-6140Y-40951D01*
X-6292Y-40752D01*
X-6491Y-40600D01*
X-6722Y-40504D01*
X-6970Y-40472D01*
X-7218Y-40504D01*
X-7449Y-40600D01*
X-7648Y-40752D01*
X-7800Y-40951D01*
X-7896Y-41182D01*
X-7928Y-41430D01*
X-7896Y-41678D01*
X-7808Y-41889D01*
X-17839Y-51921D01*
X-17897Y-52008D01*
X-17901Y-52025D01*
X-17918Y-52110D01*
X-17918Y-52110D01*
Y-52514D01*
X-19061Y-53657D01*
X-21050D01*
X-21050Y-53657D01*
X-21135Y-53674D01*
X-21152Y-53678D01*
X-21239Y-53736D01*
X-21239Y-53736D01*
X-21372Y-53868D01*
X-21375Y-53868D01*
X-21521Y-53897D01*
X-21645Y-53980D01*
X-21728Y-54104D01*
X-21733Y-54130D01*
X-21855Y-54167D01*
X-21957Y-54064D01*
Y-52847D01*
X-21845Y-52787D01*
X-21746Y-52853D01*
X-21600Y-52882D01*
X-21454Y-52853D01*
X-21330Y-52770D01*
X-21247Y-52646D01*
X-21218Y-52500D01*
X-21247Y-52354D01*
X-21330Y-52230D01*
X-21454Y-52147D01*
X-21600Y-52118D01*
X-21746Y-52147D01*
X-21845Y-52213D01*
X-21957Y-52153D01*
Y-50347D01*
X-21845Y-50287D01*
X-21746Y-50353D01*
X-21600Y-50382D01*
X-21454Y-50353D01*
X-21330Y-50270D01*
X-21328Y-50268D01*
X-18080D01*
X-18080Y-50268D01*
X-17995Y-50251D01*
X-17978Y-50247D01*
X-17891Y-50189D01*
X-17891Y-50189D01*
X-17891Y-50189D01*
X-7429Y-39728D01*
X-7218Y-39816D01*
X-6970Y-39848D01*
X-6722Y-39816D01*
X-6491Y-39720D01*
X-6292Y-39568D01*
X-6140Y-39369D01*
X-6044Y-39138D01*
X-6012Y-38890D01*
X-6044Y-38642D01*
X-6140Y-38411D01*
X-6292Y-38212D01*
X-6491Y-38060D01*
X-6534Y-38042D01*
X-6510Y-37918D01*
X-5730D01*
X-5730Y-37918D01*
X-5645Y-37901D01*
X-5628Y-37897D01*
X-5541Y-37839D01*
X-4889Y-37188D01*
X-4678Y-37276D01*
X-4430Y-37308D01*
X-4182Y-37276D01*
X-3951Y-37180D01*
X-3752Y-37028D01*
X-3600Y-36829D01*
X-3504Y-36598D01*
X-3472Y-36350D01*
X-3504Y-36102D01*
X-3600Y-35871D01*
X-3752Y-35672D01*
X-3951Y-35520D01*
X-4182Y-35424D01*
X-4430Y-35392D01*
X-4678Y-35424D01*
X-4909Y-35520D01*
X-5108Y-35672D01*
X-5260Y-35871D01*
X-5356Y-36102D01*
X-5388Y-36350D01*
X-5356Y-36598D01*
X-5268Y-36809D01*
X-5841Y-37382D01*
X-6654D01*
X-6679Y-37258D01*
X-6491Y-37180D01*
X-6292Y-37028D01*
X-6140Y-36829D01*
X-6044Y-36598D01*
X-6012Y-36350D01*
X-6044Y-36102D01*
X-6140Y-35871D01*
X-6292Y-35672D01*
X-6491Y-35520D01*
X-6722Y-35424D01*
X-6970Y-35392D01*
X-7218Y-35424D01*
X-7449Y-35520D01*
X-7648Y-35672D01*
X-7800Y-35871D01*
X-7896Y-36102D01*
X-7928Y-36350D01*
X-7896Y-36598D01*
X-7808Y-36809D01*
X-18481Y-47482D01*
X-20353D01*
X-20355Y-47480D01*
X-20479Y-47397D01*
X-20625Y-47368D01*
X-20771Y-47397D01*
X-20895Y-47480D01*
X-20911Y-47503D01*
X-21032Y-47466D01*
Y-47000D01*
X-21053Y-46898D01*
X-21111Y-46811D01*
X-21111Y-46811D01*
X-21306Y-46615D01*
X-21246Y-46503D01*
D01*
X-21246Y-46503D01*
X-21100Y-46532D01*
X-20954Y-46503D01*
X-20830Y-46420D01*
X-20747Y-46296D01*
X-20718Y-46150D01*
X-20718Y-46147D01*
X-7957Y-33386D01*
X-7852Y-33457D01*
X-7896Y-33562D01*
X-7928Y-33810D01*
X-7896Y-34058D01*
X-7800Y-34289D01*
X-7648Y-34488D01*
X-7449Y-34640D01*
X-7218Y-34736D01*
X-6970Y-34768D01*
X-6722Y-34736D01*
X-6491Y-34640D01*
X-6292Y-34488D01*
X-6140Y-34289D01*
X-6044Y-34058D01*
X-6012Y-33810D01*
X-6044Y-33562D01*
X-6140Y-33331D01*
X-6292Y-33132D01*
X-6481Y-32988D01*
X-6440Y-32868D01*
X-5760D01*
X-5760Y-32868D01*
X-5675Y-32851D01*
X-5658Y-32847D01*
X-5571Y-32789D01*
X-5571Y-32789D01*
X-5571Y-32789D01*
X-4889Y-32108D01*
X-4678Y-32196D01*
X-4430Y-32228D01*
X-4182Y-32196D01*
X-3951Y-32100D01*
X-3752Y-31948D01*
X-3600Y-31749D01*
X-3504Y-31518D01*
X-3472Y-31270D01*
X-3504Y-31022D01*
X-3600Y-30791D01*
X-3752Y-30592D01*
X-3951Y-30440D01*
X-4182Y-30344D01*
X-4430Y-30312D01*
X-4678Y-30344D01*
X-4909Y-30440D01*
X-5108Y-30592D01*
X-5260Y-30791D01*
X-5356Y-31022D01*
X-5388Y-31270D01*
X-5356Y-31518D01*
X-5268Y-31729D01*
X-5871Y-32332D01*
X-6790D01*
X-6799Y-32206D01*
X-6722Y-32196D01*
X-6491Y-32100D01*
X-6292Y-31948D01*
X-6140Y-31749D01*
X-6044Y-31518D01*
X-6012Y-31270D01*
X-6044Y-31022D01*
X-6140Y-30791D01*
X-6292Y-30592D01*
X-6491Y-30440D01*
X-6722Y-30344D01*
X-6970Y-30312D01*
X-7218Y-30344D01*
X-7449Y-30440D01*
X-7648Y-30592D01*
X-7800Y-30791D01*
X-7896Y-31022D01*
X-7928Y-31270D01*
X-7896Y-31518D01*
X-7808Y-31729D01*
X-21311Y-45232D01*
X-21553D01*
X-21555Y-45230D01*
X-21679Y-45147D01*
X-21825Y-45118D01*
X-21971Y-45147D01*
X-22095Y-45230D01*
X-22178Y-45354D01*
X-22207Y-45500D01*
X-22197Y-45553D01*
X-22309Y-45613D01*
X-22482Y-45439D01*
Y-43886D01*
X-20961Y-42364D01*
X-20961Y-42364D01*
X-20903Y-42277D01*
X-20899Y-42260D01*
X-20882Y-42175D01*
X-20882Y-42175D01*
Y-34675D01*
X-20882Y-34675D01*
X-20899Y-34590D01*
X-20903Y-34573D01*
X-20961Y-34486D01*
X-20961Y-34486D01*
X-22807Y-32639D01*
Y-32107D01*
X-22681Y-32094D01*
X-22681Y-32094D01*
Y-32094D01*
X-22646Y-32270D01*
X-22535Y-32435D01*
X-22370Y-32546D01*
X-22175Y-32585D01*
X-21980Y-32546D01*
X-21815Y-32435D01*
X-21704Y-32270D01*
X-21665Y-32075D01*
X-21704Y-31880D01*
X-21815Y-31715D01*
X-21895Y-31661D01*
Y-29100D01*
X-21650D01*
Y-27990D01*
X-21650Y-27990D01*
X-21650D01*
X-21650Y-27900D01*
Y-27900D01*
D01*
X-21650Y-27810D01*
X-21650Y-27810D01*
X-21650D01*
Y-26700D01*
X-21805D01*
X-21841Y-26578D01*
X-21815Y-26560D01*
X-21704Y-26395D01*
X-21665Y-26200D01*
X-21704Y-26005D01*
X-21815Y-25840D01*
X-21980Y-25729D01*
X-22175Y-25690D01*
X-22370Y-25729D01*
X-22535Y-25840D01*
X-22646Y-26005D01*
X-22685Y-26200D01*
X-22646Y-26395D01*
X-22535Y-26560D01*
X-22509Y-26578D01*
X-22545Y-26700D01*
X-22700D01*
Y-27810D01*
X-22700Y-27810D01*
X-22700D01*
X-22700Y-27900D01*
Y-27900D01*
D01*
X-22700Y-27990D01*
X-22700Y-27990D01*
X-22700D01*
Y-29100D01*
X-22455D01*
Y-31661D01*
X-22535Y-31715D01*
X-22646Y-31880D01*
X-22681Y-32056D01*
X-22807Y-32043D01*
Y-29350D01*
X-22828Y-29248D01*
X-22886Y-29161D01*
X-22886Y-29161D01*
X-24118Y-27928D01*
X-24118Y-27925D01*
X-24147Y-27779D01*
X-24230Y-27655D01*
X-24354Y-27572D01*
X-24500Y-27543D01*
X-24646Y-27572D01*
X-24770Y-27655D01*
X-24853Y-27779D01*
X-24882Y-27925D01*
X-24853Y-28071D01*
X-24770Y-28195D01*
X-24646Y-28278D01*
X-24500Y-28307D01*
X-24497Y-28307D01*
X-23343Y-29461D01*
Y-29638D01*
X-23460Y-29687D01*
X-26179Y-26967D01*
X-26131Y-26850D01*
X-25000D01*
Y-26400D01*
X-24900D01*
Y-26300D01*
X-24375D01*
Y-25950D01*
D01*
Y-25950D01*
X-24375Y-25950D01*
Y-25950D01*
X-24375D01*
X-24375D01*
Y-25600D01*
X-24900D01*
Y-25400D01*
X-24375D01*
Y-25050D01*
D01*
Y-25050D01*
X-24343Y-25018D01*
X-16411D01*
X-16335Y-25094D01*
X-16298Y-25148D01*
X-16207Y-25209D01*
X-16100Y-25230D01*
X-15993Y-25209D01*
X-15902Y-25148D01*
X-15841Y-25057D01*
X-15820Y-24950D01*
X-15841Y-24843D01*
X-15902Y-24752D01*
X-15921Y-24739D01*
X-15884Y-24618D01*
X-9261D01*
X-7600Y-26279D01*
D02*
G37*
G36*
X-41414Y-75839D02*
X-41414Y-75839D01*
X-41327Y-75897D01*
X-41327Y-75897D01*
X-41327Y-75897D01*
D01*
X-41327Y-75897D01*
X-41327Y-75897D01*
X-41225Y-75918D01*
X-7074D01*
X-7065Y-76044D01*
X-7218Y-76064D01*
X-7449Y-76160D01*
X-7648Y-76312D01*
X-7800Y-76511D01*
X-7887Y-76722D01*
X-43199D01*
X-44882Y-75039D01*
Y-72537D01*
X-44765Y-72488D01*
X-41414Y-75839D01*
D02*
G37*
G36*
X-3268Y-45087D02*
Y-52039D01*
X-4472Y-53243D01*
X-4475Y-53243D01*
X-4621Y-53272D01*
X-4745Y-53355D01*
X-4828Y-53479D01*
X-4857Y-53625D01*
X-4828Y-53771D01*
X-4745Y-53895D01*
X-4621Y-53978D01*
X-4475Y-54007D01*
X-4329Y-53978D01*
X-4205Y-53895D01*
X-4122Y-53771D01*
X-4093Y-53625D01*
X-4093Y-53622D01*
X-2960Y-52489D01*
X-2843Y-52538D01*
Y-59749D01*
X-6435Y-63340D01*
X-7920D01*
Y-65182D01*
X-14614D01*
X-14736Y-65061D01*
X-14823Y-65003D01*
X-14840Y-64999D01*
X-14925Y-64982D01*
X-14925Y-64982D01*
X-16478D01*
X-16480Y-64980D01*
X-16604Y-64897D01*
X-16750Y-64868D01*
X-16896Y-64897D01*
X-17020Y-64980D01*
X-17103Y-65104D01*
X-17132Y-65250D01*
X-17111Y-65359D01*
X-17191Y-65457D01*
X-24014D01*
X-25237Y-64235D01*
X-25188Y-64118D01*
X-23625D01*
X-23625Y-64118D01*
X-23540Y-64101D01*
X-23523Y-64097D01*
D01*
Y-64097D01*
X-23453Y-64146D01*
Y-64146D01*
X-23453Y-64146D01*
X-23370Y-64270D01*
X-23246Y-64353D01*
X-23100Y-64382D01*
X-22954Y-64353D01*
X-22830Y-64270D01*
X-22747Y-64146D01*
X-22718Y-64000D01*
X-22747Y-63854D01*
X-22687Y-63743D01*
X-20875D01*
X-20875Y-63743D01*
X-20790Y-63726D01*
X-20773Y-63722D01*
X-20686Y-63664D01*
X-20686Y-63664D01*
X-20686Y-63664D01*
X-17894Y-60873D01*
X-17757Y-60900D01*
X-17728Y-61046D01*
X-17645Y-61170D01*
X-17521Y-61253D01*
X-17375Y-61282D01*
X-17229Y-61253D01*
X-17105Y-61170D01*
X-17022Y-61046D01*
X-16993Y-60900D01*
X-16993Y-60897D01*
X-16652Y-60555D01*
X-4535D01*
X-4533Y-60558D01*
X-4409Y-60641D01*
X-4262Y-60670D01*
X-4116Y-60641D01*
X-3992Y-60558D01*
X-3909Y-60434D01*
X-3880Y-60287D01*
X-3909Y-60141D01*
X-3992Y-60017D01*
X-4116Y-59934D01*
X-4262Y-59905D01*
X-4409Y-59934D01*
X-4533Y-60017D01*
X-4535Y-60020D01*
X-13150D01*
X-13199Y-59903D01*
X-5536Y-52239D01*
X-5536Y-52239D01*
X-5536Y-52239D01*
X-5478Y-52152D01*
X-5474Y-52135D01*
X-5457Y-52050D01*
X-5457Y-52050D01*
Y-51918D01*
X-5333Y-51893D01*
X-5260Y-52069D01*
X-5108Y-52268D01*
X-4909Y-52420D01*
X-4678Y-52516D01*
X-4430Y-52548D01*
X-4182Y-52516D01*
X-3951Y-52420D01*
X-3752Y-52268D01*
X-3600Y-52069D01*
X-3504Y-51838D01*
X-3472Y-51590D01*
X-3504Y-51342D01*
X-3600Y-51111D01*
X-3752Y-50912D01*
X-3951Y-50760D01*
X-4182Y-50664D01*
X-4430Y-50632D01*
X-4678Y-50664D01*
X-4909Y-50760D01*
X-5108Y-50912D01*
X-5260Y-51111D01*
X-5333Y-51287D01*
X-5457Y-51262D01*
Y-50456D01*
X-4889Y-49888D01*
X-4678Y-49976D01*
X-4430Y-50008D01*
X-4182Y-49976D01*
X-3951Y-49880D01*
X-3752Y-49728D01*
X-3600Y-49529D01*
X-3504Y-49298D01*
X-3472Y-49050D01*
X-3504Y-48802D01*
X-3600Y-48571D01*
X-3752Y-48372D01*
X-3951Y-48220D01*
X-4182Y-48124D01*
X-4430Y-48092D01*
X-4678Y-48124D01*
X-4909Y-48220D01*
X-5108Y-48372D01*
X-5260Y-48571D01*
X-5356Y-48802D01*
X-5381Y-48993D01*
X-5507Y-48984D01*
Y-47705D01*
X-5507Y-47705D01*
X-5524Y-47620D01*
X-5528Y-47603D01*
X-5586Y-47516D01*
X-5586Y-47516D01*
X-6132Y-46969D01*
X-6044Y-46758D01*
X-6012Y-46510D01*
X-6044Y-46262D01*
X-6140Y-46031D01*
X-6257Y-45879D01*
X-6201Y-45765D01*
X-5553D01*
X-5268Y-46051D01*
X-5356Y-46262D01*
X-5388Y-46510D01*
X-5356Y-46758D01*
X-5260Y-46989D01*
X-5108Y-47188D01*
X-4909Y-47340D01*
X-4678Y-47436D01*
X-4430Y-47468D01*
X-4182Y-47436D01*
X-3951Y-47340D01*
X-3752Y-47188D01*
X-3600Y-46989D01*
X-3504Y-46758D01*
X-3472Y-46510D01*
X-3504Y-46262D01*
X-3600Y-46031D01*
X-3752Y-45832D01*
X-3951Y-45680D01*
X-4043Y-45642D01*
X-4018Y-45518D01*
D01*
X-3975D01*
X-3975D01*
X-3890Y-45501D01*
X-3873Y-45497D01*
X-3786Y-45439D01*
X-3385Y-45038D01*
X-3268Y-45087D01*
D02*
G37*
G36*
X-31918Y-42684D02*
Y-46136D01*
X-32030Y-46196D01*
X-32104Y-46147D01*
X-32250Y-46118D01*
X-32396Y-46147D01*
X-32520Y-46230D01*
X-32603Y-46354D01*
X-32632Y-46500D01*
X-32603Y-46646D01*
X-32520Y-46770D01*
X-32396Y-46853D01*
X-32250Y-46882D01*
X-32104Y-46853D01*
X-32030Y-46804D01*
X-31918Y-46864D01*
Y-48129D01*
X-31918Y-48129D01*
X-31901Y-48214D01*
X-31897Y-48231D01*
X-31839Y-48318D01*
X-31268Y-48889D01*
D01*
X-31310Y-49009D01*
X-31387Y-49017D01*
X-31395Y-49014D01*
X-31397Y-49004D01*
X-31480Y-48880D01*
X-31604Y-48797D01*
X-31750Y-48768D01*
X-31896Y-48797D01*
X-32020Y-48880D01*
X-32405Y-48523D01*
D01*
X-32405Y-48523D01*
Y-48523D01*
X-32491Y-48465D01*
X-32508Y-48462D01*
X-32594Y-48445D01*
X-32594Y-48445D01*
X-34275D01*
X-34324Y-48328D01*
X-33136Y-47139D01*
X-33136Y-47139D01*
X-33078Y-47052D01*
X-33074Y-47035D01*
X-33057Y-46950D01*
X-33057Y-46950D01*
Y-43536D01*
X-32378Y-42857D01*
X-32375Y-42857D01*
X-32229Y-42828D01*
X-32105Y-42745D01*
X-32039Y-42647D01*
X-31918Y-42684D01*
D02*
G37*
G36*
X-30215Y-2373D02*
X-30235Y-2475D01*
X-30196Y-2670D01*
X-30134Y-2763D01*
X-30194Y-2875D01*
X-30600D01*
Y-3300D01*
X-30000D01*
Y-3400D01*
X-29900D01*
Y-3925D01*
X-29400D01*
Y-3925D01*
D01*
X-29400Y-3925D01*
X-29400D01*
Y-3925D01*
X-29131D01*
Y-4325D01*
X-29325D01*
Y-4975D01*
Y-5475D01*
Y-5975D01*
Y-6050D01*
X-28825D01*
Y-6150D01*
X-28725D01*
Y-6475D01*
X-28325D01*
Y-6350D01*
X-27925D01*
Y-9275D01*
X-31700D01*
X-31790Y-9185D01*
X-31790Y-8190D01*
D01*
D01*
X-31700Y-8190D01*
X-31700Y-8190D01*
Y-8190D01*
X-31290D01*
Y-7665D01*
Y-7140D01*
X-31700D01*
X-31700Y-7140D01*
Y-7140D01*
X-31790Y-7140D01*
X-31790Y-7140D01*
Y-5690D01*
X-31290D01*
Y-5165D01*
Y-4640D01*
X-31790D01*
Y-2275D01*
X-30295D01*
X-30215Y-2373D01*
D02*
G37*
G36*
X-7449Y-83780D02*
X-7648Y-83932D01*
X-7800Y-84131D01*
X-7887Y-84342D01*
X-32751D01*
X-32811Y-84230D01*
X-32772Y-84171D01*
X-32743Y-84025D01*
X-32772Y-83879D01*
X-32846Y-83768D01*
X-32786Y-83656D01*
X-7501D01*
X-7449Y-83780D01*
D02*
G37*
G36*
X-7800Y-69849D02*
X-7670Y-70018D01*
X-7726Y-70132D01*
X-21425D01*
X-21527Y-70153D01*
X-21614Y-70211D01*
X-21614Y-70211D01*
X-24436Y-73032D01*
X-25163D01*
X-25212Y-72915D01*
X-21934Y-69638D01*
X-7887D01*
X-7800Y-69849D01*
D02*
G37*
G36*
X-28603Y-61803D02*
X-28607Y-61825D01*
X-28578Y-61971D01*
X-28495Y-62095D01*
X-28371Y-62178D01*
X-28225Y-62207D01*
X-28222Y-62207D01*
X-27538Y-62890D01*
X-27587Y-63007D01*
X-29575D01*
X-29575Y-63007D01*
X-29660Y-63024D01*
X-29677Y-63028D01*
X-29764Y-63086D01*
X-29764Y-63086D01*
X-30722Y-64043D01*
X-30725Y-64043D01*
X-30871Y-64072D01*
X-30995Y-64155D01*
X-31078Y-64279D01*
X-31107Y-64425D01*
X-31078Y-64571D01*
X-30995Y-64695D01*
X-30916Y-64748D01*
X-30903Y-64875D01*
X-31439Y-65411D01*
X-31497Y-65498D01*
X-31501Y-65515D01*
X-31518Y-65600D01*
X-31518Y-65600D01*
Y-66564D01*
X-32972Y-68018D01*
X-32975Y-68018D01*
X-33121Y-68047D01*
X-33245Y-68130D01*
X-33328Y-68254D01*
X-33357Y-68400D01*
X-33328Y-68546D01*
X-33245Y-68670D01*
X-33121Y-68753D01*
X-32975Y-68782D01*
X-32829Y-68753D01*
X-32705Y-68670D01*
X-32622Y-68546D01*
X-32593Y-68400D01*
X-32593Y-68397D01*
X-31310Y-67113D01*
X-31193Y-67162D01*
Y-69939D01*
X-32161Y-70907D01*
X-32363D01*
X-32412Y-70790D01*
X-32178Y-70557D01*
X-32175Y-70557D01*
X-32029Y-70528D01*
X-31905Y-70445D01*
X-31822Y-70321D01*
X-31793Y-70175D01*
X-31822Y-70029D01*
X-31905Y-69905D01*
X-32029Y-69822D01*
X-32175Y-69793D01*
X-32178Y-69793D01*
X-32268Y-69704D01*
X-32243Y-69575D01*
X-32272Y-69429D01*
X-32355Y-69305D01*
X-32479Y-69222D01*
X-32625Y-69193D01*
X-32771Y-69222D01*
X-32895Y-69305D01*
X-32978Y-69429D01*
X-33007Y-69575D01*
X-33007Y-69578D01*
X-33411Y-69982D01*
X-34487D01*
X-34547Y-69871D01*
X-34518Y-69725D01*
X-34547Y-69579D01*
X-34630Y-69455D01*
X-34754Y-69372D01*
X-34900Y-69343D01*
X-35046Y-69372D01*
X-35170Y-69455D01*
X-35172Y-69457D01*
X-37138D01*
X-37223Y-69363D01*
X-37215Y-69286D01*
X-37155Y-69245D01*
X-37072Y-69121D01*
X-37043Y-68975D01*
X-37072Y-68829D01*
X-37155Y-68705D01*
X-37157Y-68703D01*
Y-68461D01*
X-36889Y-68193D01*
X-36425D01*
X-36425Y-68193D01*
X-36393Y-68219D01*
Y-68428D01*
X-36395Y-68430D01*
X-36478Y-68554D01*
X-36507Y-68700D01*
X-36478Y-68846D01*
X-36395Y-68970D01*
X-36271Y-69053D01*
X-36125Y-69082D01*
X-35979Y-69053D01*
X-35855Y-68970D01*
X-35772Y-68846D01*
X-35743Y-68700D01*
X-35772Y-68554D01*
X-35855Y-68430D01*
X-35857Y-68428D01*
Y-68236D01*
X-29764Y-62143D01*
X-29497D01*
X-29495Y-62145D01*
X-29371Y-62228D01*
X-29225Y-62257D01*
X-29079Y-62228D01*
X-28955Y-62145D01*
X-28872Y-62021D01*
X-28843Y-61875D01*
X-28843Y-61872D01*
X-28715Y-61744D01*
X-28603Y-61803D01*
D02*
G37*
G36*
X-8026Y-51615D02*
X-7993Y-51864D01*
X-7887Y-52120D01*
X-7719Y-52339D01*
X-7500Y-52507D01*
X-7244Y-52613D01*
X-7070Y-52636D01*
Y-51590D01*
X-6870D01*
Y-52636D01*
X-6858Y-52634D01*
X-6802Y-52748D01*
X-7960Y-53907D01*
X-8058Y-53826D01*
X-8022Y-53771D01*
X-7993Y-53625D01*
X-8022Y-53479D01*
X-8105Y-53355D01*
X-8229Y-53272D01*
X-8375Y-53243D01*
X-8521Y-53272D01*
X-8645Y-53355D01*
X-8728Y-53479D01*
X-8757Y-53625D01*
X-8757Y-53628D01*
X-14486Y-59357D01*
X-17975D01*
X-17975Y-59357D01*
X-18077Y-59378D01*
X-18164Y-59436D01*
X-18164Y-59436D01*
X-21711Y-62982D01*
X-22738D01*
X-22787Y-62865D01*
X-18689Y-58768D01*
X-15450D01*
X-15450Y-58768D01*
X-15365Y-58751D01*
X-15348Y-58747D01*
X-15261Y-58689D01*
X-15261Y-58689D01*
X-15261Y-58689D01*
X-8146Y-51574D01*
X-8026Y-51615D01*
D02*
G37*
G36*
X-25689Y-29439D02*
X-25689Y-29439D01*
X-25602Y-29497D01*
X-25585Y-29501D01*
X-25500Y-29518D01*
X-25500Y-29518D01*
X-25322D01*
X-25320Y-29520D01*
X-25196Y-29603D01*
X-25050Y-29632D01*
X-24904Y-29603D01*
X-24780Y-29520D01*
X-24697Y-29396D01*
X-24692Y-29370D01*
X-24570Y-29333D01*
X-23804Y-30099D01*
Y-32763D01*
X-23804Y-32763D01*
X-23787Y-32849D01*
X-23784Y-32866D01*
X-23726Y-32953D01*
X-23726Y-32953D01*
X-23726Y-32953D01*
X-23726Y-32953D01*
Y-32953D01*
X-23574Y-33105D01*
X-23611Y-33226D01*
X-23613Y-33227D01*
X-23621Y-33232D01*
X-23889D01*
X-23950Y-33172D01*
Y-32425D01*
X-25060D01*
X-25060Y-32425D01*
Y-32425D01*
X-25150Y-32425D01*
X-25150D01*
D01*
X-25240Y-32425D01*
X-25240Y-32425D01*
Y-32425D01*
X-26350D01*
Y-33071D01*
X-26694Y-33415D01*
X-26748Y-33452D01*
X-26809Y-33543D01*
X-26830Y-33650D01*
X-26809Y-33757D01*
X-26748Y-33848D01*
X-26694Y-33885D01*
X-26350Y-34229D01*
Y-34950D01*
X-25240D01*
X-25240Y-34950D01*
Y-34950D01*
X-25150Y-34950D01*
X-25150D01*
D01*
X-25060Y-34950D01*
X-25060Y-34950D01*
Y-34950D01*
X-24943D01*
Y-36401D01*
X-25021Y-36433D01*
X-25174Y-36551D01*
X-25292Y-36704D01*
X-25366Y-36883D01*
X-25391Y-37075D01*
X-25366Y-37267D01*
X-25334Y-37344D01*
X-25516Y-37526D01*
X-25579Y-37621D01*
X-25601Y-37733D01*
Y-41619D01*
X-25601Y-41619D01*
X-25601D01*
X-25579Y-41731D01*
X-25516Y-41826D01*
X-24671Y-42671D01*
Y-43467D01*
X-24779Y-43521D01*
X-24982Y-43436D01*
X-25200Y-43408D01*
X-25418Y-43436D01*
X-25621Y-43521D01*
X-25796Y-43654D01*
X-25929Y-43829D01*
X-26014Y-44032D01*
X-26042Y-44250D01*
X-26014Y-44468D01*
X-25929Y-44671D01*
X-25796Y-44846D01*
X-25621Y-44979D01*
X-25531Y-45017D01*
Y-46058D01*
X-25578Y-46129D01*
X-25607Y-46275D01*
X-25578Y-46421D01*
X-25495Y-46545D01*
X-25371Y-46628D01*
X-25225Y-46657D01*
X-25079Y-46628D01*
X-24955Y-46545D01*
X-24872Y-46421D01*
X-24843Y-46275D01*
X-24872Y-46129D01*
X-24919Y-46058D01*
Y-45037D01*
X-24779Y-44979D01*
X-24671Y-45033D01*
Y-47656D01*
X-25615Y-48601D01*
X-25721Y-48622D01*
X-25745Y-48638D01*
X-25857Y-48578D01*
Y-46925D01*
X-25857Y-46925D01*
X-25878Y-46823D01*
X-25936Y-46736D01*
X-25936Y-46736D01*
X-29370Y-43302D01*
Y-41475D01*
X-29253Y-41426D01*
X-27493Y-43186D01*
Y-44025D01*
X-27493Y-44025D01*
X-27476Y-44110D01*
X-27472Y-44127D01*
X-27414Y-44214D01*
X-27007Y-44622D01*
X-27007Y-44625D01*
X-26978Y-44771D01*
X-26895Y-44895D01*
X-26771Y-44978D01*
X-26625Y-45007D01*
X-26479Y-44978D01*
X-26355Y-44895D01*
X-26272Y-44771D01*
X-26243Y-44625D01*
X-26272Y-44479D01*
X-26355Y-44355D01*
X-26479Y-44272D01*
X-26625Y-44243D01*
X-26628Y-44243D01*
X-26957Y-43914D01*
Y-43075D01*
X-26957Y-43075D01*
X-26978Y-42973D01*
X-26997Y-42944D01*
X-27036Y-42886D01*
X-27036Y-42886D01*
X-36301Y-33621D01*
X-36385Y-33564D01*
X-36349Y-33443D01*
X-28225D01*
X-28225Y-33443D01*
X-28140Y-33426D01*
X-28123Y-33422D01*
X-28036Y-33364D01*
X-28036Y-33364D01*
X-28036Y-33364D01*
X-27235Y-32563D01*
X-27125Y-32585D01*
X-26930Y-32546D01*
X-26765Y-32435D01*
X-26654Y-32270D01*
X-26615Y-32075D01*
X-26654Y-31880D01*
X-26765Y-31715D01*
X-26930Y-31604D01*
X-27125Y-31565D01*
X-27320Y-31604D01*
X-27485Y-31715D01*
X-27596Y-31880D01*
X-27635Y-32075D01*
X-27613Y-32185D01*
X-27935Y-32506D01*
X-28033Y-32426D01*
X-27929Y-32270D01*
X-27890Y-32075D01*
X-27929Y-31880D01*
X-28040Y-31715D01*
X-28205Y-31604D01*
X-28400Y-31565D01*
X-28595Y-31604D01*
X-28760Y-31715D01*
X-28871Y-31880D01*
X-28910Y-32075D01*
X-28888Y-32185D01*
X-29161Y-32457D01*
X-30211D01*
X-30271Y-32345D01*
X-30254Y-32320D01*
X-30215Y-32125D01*
X-30237Y-32015D01*
X-27386Y-29164D01*
X-27386Y-29164D01*
X-27328Y-29077D01*
X-27327Y-29075D01*
X-27050D01*
Y-28244D01*
X-26933Y-28196D01*
X-25689Y-29439D01*
D02*
G37*
G36*
X-39888Y-54485D02*
X-42786Y-57382D01*
X-43525D01*
X-43525Y-57382D01*
X-43627Y-57403D01*
X-43714Y-57461D01*
X-43714Y-57461D01*
X-43853Y-57600D01*
X-43975Y-57563D01*
X-43997Y-57454D01*
X-44058Y-57362D01*
X-41064Y-54368D01*
X-39937D01*
X-39888Y-54485D01*
D02*
G37*
G36*
X-24189Y-33689D02*
X-24189Y-33689D01*
X-24102Y-33747D01*
X-24085Y-33751D01*
X-24000Y-33768D01*
X-24000Y-33768D01*
X-23621D01*
X-23613Y-33773D01*
X-23500Y-33796D01*
X-23387Y-33773D01*
X-23291Y-33709D01*
X-23289Y-33706D01*
X-23168Y-33743D01*
Y-37914D01*
X-24746Y-39493D01*
X-24804Y-39580D01*
X-24808Y-39597D01*
X-24825Y-39682D01*
X-24825Y-39682D01*
Y-41168D01*
X-24825Y-41168D01*
X-24808Y-41253D01*
X-24804Y-41270D01*
X-24746Y-41357D01*
X-23468Y-42636D01*
Y-48477D01*
X-23560Y-48540D01*
X-23671Y-48705D01*
X-23710Y-48900D01*
X-23671Y-49095D01*
X-23560Y-49260D01*
X-23395Y-49371D01*
X-23322Y-49385D01*
X-23285Y-49507D01*
X-23589Y-49811D01*
X-23647Y-49898D01*
X-23651Y-49915D01*
X-23668Y-50000D01*
X-23668Y-50000D01*
Y-51664D01*
X-24211Y-52207D01*
X-25039D01*
X-25343Y-51903D01*
X-25343Y-51900D01*
X-25372Y-51754D01*
X-25455Y-51630D01*
X-25579Y-51547D01*
X-25725Y-51518D01*
X-25871Y-51547D01*
X-25995Y-51630D01*
X-26078Y-51754D01*
X-26107Y-51900D01*
X-26078Y-52046D01*
X-25995Y-52170D01*
X-25871Y-52253D01*
X-25725Y-52282D01*
X-25686Y-52479D01*
X-25687Y-52482D01*
X-25989D01*
X-26118Y-52353D01*
X-26118Y-52350D01*
X-26147Y-52204D01*
X-26230Y-52080D01*
X-26354Y-51997D01*
X-26500Y-51968D01*
X-26646Y-51997D01*
X-26770Y-52080D01*
X-26853Y-52204D01*
X-26863Y-52251D01*
X-26984Y-52287D01*
X-27082Y-52189D01*
Y-49862D01*
X-26965Y-49813D01*
X-25414Y-51364D01*
X-25414Y-51364D01*
X-25356Y-51403D01*
X-25327Y-51422D01*
X-25225Y-51443D01*
X-25225Y-51443D01*
X-24597D01*
X-24595Y-51445D01*
X-24471Y-51528D01*
X-24325Y-51557D01*
X-24179Y-51528D01*
X-24055Y-51445D01*
X-23972Y-51321D01*
X-23943Y-51175D01*
X-23972Y-51029D01*
X-24055Y-50905D01*
Y-50795D01*
X-23972Y-50671D01*
X-23943Y-50525D01*
X-23972Y-50379D01*
X-24055Y-50255D01*
Y-50145D01*
X-23972Y-50021D01*
X-23943Y-49875D01*
X-23972Y-49729D01*
X-24055Y-49605D01*
X-24179Y-49522D01*
X-24325Y-49493D01*
X-24471Y-49522D01*
X-24595Y-49605D01*
X-24597Y-49607D01*
X-25464D01*
X-25596Y-49476D01*
X-25559Y-49354D01*
X-25429Y-49328D01*
X-25305Y-49245D01*
X-25222Y-49121D01*
X-25201Y-49015D01*
X-24170Y-47985D01*
X-24107Y-47890D01*
X-24084Y-47778D01*
Y-42550D01*
X-24107Y-42438D01*
X-24170Y-42343D01*
X-25015Y-41498D01*
Y-37855D01*
X-24919Y-37759D01*
X-24842Y-37791D01*
X-24650Y-37816D01*
X-24458Y-37791D01*
X-24279Y-37717D01*
X-24126Y-37599D01*
X-24008Y-37446D01*
X-23934Y-37267D01*
X-23909Y-37075D01*
X-23934Y-36883D01*
X-24008Y-36704D01*
X-24126Y-36551D01*
X-24279Y-36433D01*
X-24357Y-36401D01*
Y-34950D01*
X-23950D01*
Y-33900D01*
X-25060D01*
X-25060Y-33900D01*
Y-33900D01*
X-25150Y-33900D01*
X-25150D01*
D01*
X-25240Y-33900D01*
X-25240Y-33900D01*
Y-33900D01*
X-25921D01*
X-26171Y-33650D01*
X-25997Y-33475D01*
X-25240D01*
X-25240Y-33475D01*
Y-33475D01*
X-25150Y-33475D01*
X-25150D01*
D01*
X-25060Y-33475D01*
X-25060Y-33475D01*
Y-33475D01*
X-24403D01*
X-24189Y-33689D01*
D02*
G37*
G36*
X-8700Y-46468D02*
X-8618Y-46535D01*
Y-48839D01*
X-13190Y-53412D01*
X-13307Y-53363D01*
Y-51997D01*
X-13305Y-51995D01*
X-13222Y-51871D01*
X-13193Y-51725D01*
X-13222Y-51579D01*
X-13305Y-51455D01*
X-13429Y-51372D01*
X-13476Y-51362D01*
X-13512Y-51241D01*
X-8739Y-46468D01*
X-8700D01*
X-8700Y-46468D01*
D02*
G37*
G36*
X-56835Y-45617D02*
X-56987Y-45680D01*
X-57186Y-45832D01*
X-57338Y-46031D01*
X-57434Y-46262D01*
X-57466Y-46510D01*
X-57434Y-46758D01*
X-57338Y-46989D01*
X-57186Y-47188D01*
X-56987Y-47340D01*
X-56756Y-47436D01*
X-56508Y-47468D01*
X-56260Y-47436D01*
X-56049Y-47348D01*
X-55482Y-47914D01*
X-55482Y-47914D01*
X-55395Y-47972D01*
X-55378Y-47976D01*
X-55293Y-47993D01*
X-55293Y-47993D01*
X-45286D01*
X-44814Y-48464D01*
X-44814Y-48464D01*
X-44727Y-48522D01*
X-44727Y-48522D01*
X-44727Y-48522D01*
D01*
X-44727Y-48522D01*
X-44727Y-48522D01*
X-44625Y-48543D01*
X-44625Y-48543D01*
X-44360D01*
X-44311Y-48660D01*
X-45446Y-49795D01*
X-55739D01*
X-55795Y-49681D01*
X-55678Y-49529D01*
X-55582Y-49298D01*
X-55550Y-49050D01*
X-55582Y-48802D01*
X-55678Y-48571D01*
X-55830Y-48372D01*
X-56029Y-48220D01*
X-56260Y-48124D01*
X-56508Y-48092D01*
X-56756Y-48124D01*
X-56987Y-48220D01*
X-57186Y-48372D01*
X-57338Y-48571D01*
X-57434Y-48802D01*
X-57466Y-49050D01*
X-57434Y-49298D01*
X-57386Y-49412D01*
X-57425Y-49607D01*
X-57425Y-49607D01*
X-58375D01*
X-58375Y-49607D01*
X-58477Y-49628D01*
X-58564Y-49686D01*
X-58715Y-49837D01*
X-58832Y-49788D01*
Y-46986D01*
X-57339Y-45493D01*
X-56860D01*
X-56835Y-45617D01*
D02*
G37*
G36*
X-36155Y-46523D02*
Y-49182D01*
X-36289D01*
X-36369Y-49084D01*
X-36343Y-48950D01*
X-36372Y-48804D01*
X-36455Y-48680D01*
X-36579Y-48597D01*
X-36725Y-48568D01*
X-36871Y-48597D01*
X-36995Y-48680D01*
X-37078Y-48804D01*
X-37107Y-48950D01*
X-37081Y-49084D01*
X-37161Y-49182D01*
X-38039D01*
X-39136Y-48086D01*
X-39223Y-48028D01*
X-39240Y-48024D01*
X-39325Y-48007D01*
X-39325Y-48007D01*
X-44514D01*
X-44986Y-47536D01*
X-45073Y-47478D01*
X-45090Y-47474D01*
X-45175Y-47457D01*
X-45175Y-47457D01*
X-55182D01*
X-55670Y-46969D01*
X-55582Y-46758D01*
X-55550Y-46510D01*
X-55582Y-46262D01*
X-55678Y-46031D01*
X-55830Y-45832D01*
X-56029Y-45680D01*
X-56181Y-45617D01*
X-56156Y-45493D01*
X-37186D01*
X-36155Y-46523D01*
D02*
G37*
G36*
X-38477Y-49864D02*
X-38477Y-49864D01*
X-38465Y-49872D01*
X-38452Y-49999D01*
X-39936Y-51482D01*
X-42828D01*
X-42888Y-51370D01*
X-42822Y-51271D01*
X-42793Y-51125D01*
X-42822Y-50979D01*
X-42905Y-50855D01*
X-43029Y-50772D01*
X-43175Y-50743D01*
X-43321Y-50772D01*
X-43445Y-50855D01*
X-43447Y-50857D01*
X-54814D01*
X-55224Y-50447D01*
X-55175Y-50330D01*
X-45336D01*
X-45335Y-50330D01*
X-45250Y-50313D01*
X-45233Y-50310D01*
X-45146Y-50252D01*
X-45146Y-50252D01*
X-45146Y-50252D01*
X-43800Y-48905D01*
X-39436D01*
X-38477Y-49864D01*
D02*
G37*
G36*
X-24314Y-65914D02*
X-24314D01*
X-24314Y-65914D01*
X-24314Y-65914D01*
Y-65914D01*
X-24227Y-65972D01*
X-24210Y-65976D01*
X-24125Y-65993D01*
X-24125Y-65993D01*
X-7637D01*
X-7596Y-66113D01*
X-7648Y-66152D01*
X-7800Y-66351D01*
X-7896Y-66582D01*
X-7928Y-66830D01*
X-7896Y-67078D01*
X-7800Y-67309D01*
X-7658Y-67493D01*
X-7715Y-67607D01*
X-20420D01*
X-21092Y-66936D01*
X-21179Y-66878D01*
X-21196Y-66874D01*
X-21281Y-66857D01*
X-21281Y-66857D01*
X-24864D01*
X-25873Y-65849D01*
X-25897Y-65729D01*
X-25980Y-65605D01*
X-26104Y-65522D01*
X-26250Y-65493D01*
X-26396Y-65522D01*
X-26520Y-65605D01*
X-26603Y-65729D01*
X-26632Y-65875D01*
X-26603Y-66021D01*
X-26520Y-66145D01*
X-26396Y-66228D01*
X-26250Y-66257D01*
X-26226Y-66253D01*
X-25164Y-67314D01*
X-25164Y-67314D01*
X-25077Y-67372D01*
X-25077Y-67372D01*
X-25077Y-67372D01*
D01*
X-25077Y-67372D01*
X-25077Y-67372D01*
X-24975Y-67393D01*
X-21392D01*
X-20721Y-68064D01*
X-20721Y-68064D01*
X-20634Y-68122D01*
X-20531Y-68143D01*
X-6036D01*
X-5268Y-68911D01*
X-5356Y-69122D01*
X-5388Y-69370D01*
X-5356Y-69618D01*
X-5260Y-69849D01*
X-5130Y-70018D01*
X-5186Y-70132D01*
X-6214D01*
X-6270Y-70018D01*
X-6140Y-69849D01*
X-6044Y-69618D01*
X-6012Y-69370D01*
X-6044Y-69122D01*
X-6140Y-68891D01*
X-6292Y-68692D01*
X-6491Y-68540D01*
X-6722Y-68444D01*
X-6970Y-68412D01*
X-7218Y-68444D01*
X-7449Y-68540D01*
X-7648Y-68692D01*
X-7800Y-68891D01*
X-7887Y-69102D01*
X-22045D01*
X-22147Y-69123D01*
X-22234Y-69181D01*
X-22234Y-69181D01*
X-25711Y-72657D01*
X-38214D01*
X-39057Y-71814D01*
Y-70112D01*
X-38940Y-70063D01*
X-37639Y-71364D01*
X-37639Y-71364D01*
X-37552Y-71422D01*
X-37535Y-71426D01*
X-37450Y-71443D01*
X-37450Y-71443D01*
X-32050D01*
X-32050Y-71443D01*
X-31965Y-71426D01*
X-31948Y-71422D01*
X-31861Y-71364D01*
X-31861Y-71364D01*
X-31861Y-71364D01*
X-30736Y-70239D01*
X-30736Y-70239D01*
X-30736Y-70239D01*
X-30678Y-70152D01*
X-30674Y-70135D01*
X-30657Y-70050D01*
X-30657Y-70050D01*
Y-69547D01*
X-30536Y-69510D01*
X-30495Y-69570D01*
X-30371Y-69653D01*
X-30225Y-69682D01*
X-30079Y-69653D01*
X-29955Y-69570D01*
X-29872Y-69446D01*
X-29843Y-69300D01*
X-29872Y-69154D01*
X-29955Y-69030D01*
X-29957Y-69028D01*
Y-65786D01*
X-29578Y-65407D01*
X-29575Y-65407D01*
X-29429Y-65378D01*
X-29305Y-65295D01*
X-29289Y-65272D01*
X-29168Y-65309D01*
Y-70428D01*
X-29170Y-70430D01*
X-29253Y-70554D01*
X-29282Y-70700D01*
X-29253Y-70846D01*
X-29170Y-70970D01*
X-29046Y-71053D01*
X-28900Y-71082D01*
X-28754Y-71053D01*
X-28630Y-70970D01*
X-28547Y-70846D01*
X-28539Y-70809D01*
X-28423Y-70759D01*
X-28414Y-70764D01*
X-28257Y-70922D01*
X-28257Y-70925D01*
X-28228Y-71071D01*
X-28145Y-71195D01*
X-28021Y-71278D01*
X-27875Y-71307D01*
X-27729Y-71278D01*
X-27605Y-71195D01*
X-27522Y-71071D01*
X-27493Y-70925D01*
X-27522Y-70779D01*
X-27605Y-70655D01*
X-27729Y-70572D01*
X-27875Y-70543D01*
X-27878Y-70543D01*
X-27957Y-70464D01*
Y-64947D01*
X-27955Y-64945D01*
X-27872Y-64821D01*
X-27843Y-64675D01*
X-27869Y-64541D01*
X-27789Y-64443D01*
X-25786D01*
X-24314Y-65914D01*
D02*
G37*
G36*
X-37163Y-50535D02*
X-37414Y-50786D01*
X-37472Y-50873D01*
X-37476Y-50890D01*
X-37493Y-50975D01*
X-37493Y-50975D01*
Y-51253D01*
X-37495Y-51255D01*
X-37578Y-51379D01*
X-37607Y-51525D01*
X-37578Y-51671D01*
X-37495Y-51795D01*
X-37371Y-51878D01*
X-37225Y-51907D01*
X-37222Y-51907D01*
X-37119Y-52010D01*
X-37178Y-52122D01*
X-37200Y-52118D01*
X-37346Y-52147D01*
X-37470Y-52230D01*
X-37472Y-52232D01*
X-41900D01*
X-42002Y-52253D01*
X-42089Y-52311D01*
X-42089Y-52311D01*
X-42486Y-52707D01*
X-44453D01*
X-44455Y-52705D01*
X-44564Y-52631D01*
X-44577Y-52505D01*
X-44089Y-52018D01*
X-39825D01*
X-39825Y-52018D01*
X-39740Y-52001D01*
X-39723Y-51997D01*
X-39636Y-51939D01*
X-39636Y-51939D01*
X-39636Y-51939D01*
X-38114Y-50418D01*
X-37212D01*
X-37163Y-50535D01*
D02*
G37*
%LPC*%
G36*
X-30590Y-5265D02*
X-31090D01*
Y-5690D01*
X-30590D01*
Y-5265D01*
D02*
G37*
G36*
Y-4640D02*
X-31090D01*
Y-5065D01*
X-30590D01*
Y-4640D01*
D02*
G37*
G36*
X-30100Y-3500D02*
X-30600D01*
Y-3925D01*
X-30100D01*
Y-3500D01*
D02*
G37*
G36*
X-24375Y-26500D02*
X-24800D01*
Y-26850D01*
X-24375D01*
Y-26500D01*
D02*
G37*
G36*
X-28925Y-8075D02*
X-29500D01*
Y-9050D01*
X-28925D01*
Y-8075D01*
D02*
G37*
G36*
X-19625Y-25690D02*
X-19820Y-25729D01*
X-19985Y-25840D01*
X-20096Y-26005D01*
X-20135Y-26200D01*
X-20096Y-26395D01*
X-19985Y-26560D01*
X-19959Y-26578D01*
X-19995Y-26700D01*
X-20150D01*
Y-27810D01*
X-20150Y-27810D01*
X-20150D01*
X-20150Y-27900D01*
Y-27900D01*
D01*
X-20150Y-27990D01*
X-20150Y-27990D01*
X-20150D01*
Y-29100D01*
X-19905D01*
Y-31661D01*
X-19985Y-31715D01*
X-20096Y-31880D01*
X-20135Y-32075D01*
X-20096Y-32270D01*
X-19985Y-32435D01*
X-19820Y-32546D01*
X-19625Y-32585D01*
X-19430Y-32546D01*
X-19265Y-32435D01*
X-19154Y-32270D01*
X-19115Y-32075D01*
X-19154Y-31880D01*
X-19265Y-31715D01*
X-19345Y-31661D01*
Y-29100D01*
X-19100D01*
Y-27990D01*
X-19100Y-27990D01*
X-19100D01*
X-19100Y-27900D01*
Y-27900D01*
D01*
X-19100Y-27810D01*
X-19100Y-27810D01*
X-19100D01*
Y-26700D01*
X-19255D01*
X-19291Y-26578D01*
X-19265Y-26560D01*
X-19154Y-26395D01*
X-19115Y-26200D01*
X-19154Y-26005D01*
X-19265Y-25840D01*
X-19430Y-25729D01*
X-19625Y-25690D01*
D02*
G37*
G36*
X-18350Y-25690D02*
X-18545Y-25729D01*
X-18710Y-25840D01*
X-18821Y-26005D01*
X-18860Y-26200D01*
X-18821Y-26395D01*
X-18710Y-26560D01*
X-18684Y-26578D01*
X-18720Y-26700D01*
X-18875D01*
Y-27810D01*
X-18875Y-27810D01*
X-18875D01*
X-18875Y-27900D01*
Y-27900D01*
D01*
X-18875Y-27990D01*
X-18875Y-27990D01*
X-18875D01*
Y-29100D01*
X-18630D01*
Y-31661D01*
X-18710Y-31715D01*
X-18821Y-31880D01*
X-18860Y-32075D01*
X-18821Y-32270D01*
X-18710Y-32435D01*
X-18545Y-32546D01*
X-18350Y-32585D01*
X-18155Y-32546D01*
X-17990Y-32435D01*
X-17879Y-32270D01*
X-17840Y-32075D01*
X-17879Y-31880D01*
X-17990Y-31715D01*
X-18070Y-31661D01*
Y-29100D01*
X-17825D01*
Y-27990D01*
X-17825Y-27990D01*
X-17825D01*
X-17825Y-27900D01*
Y-27900D01*
D01*
X-17825Y-27810D01*
X-17825Y-27810D01*
X-17825D01*
Y-26700D01*
X-17980D01*
X-18016Y-26578D01*
X-17990Y-26560D01*
X-17879Y-26395D01*
X-17840Y-26200D01*
X-17879Y-26005D01*
X-17990Y-25840D01*
X-18155Y-25729D01*
X-18350Y-25690D01*
D02*
G37*
G36*
X-28150Y-8075D02*
X-28725D01*
Y-9050D01*
X-28150D01*
Y-8075D01*
D02*
G37*
G36*
X-37500Y-46018D02*
X-37646Y-46047D01*
X-37770Y-46130D01*
X-37853Y-46254D01*
X-37882Y-46400D01*
X-37853Y-46546D01*
X-37770Y-46670D01*
X-37646Y-46753D01*
X-37500Y-46782D01*
X-37354Y-46753D01*
X-37230Y-46670D01*
X-37147Y-46546D01*
X-37118Y-46400D01*
X-37147Y-46254D01*
X-37230Y-46130D01*
X-37354Y-46047D01*
X-37500Y-46018D01*
D02*
G37*
G36*
X-18325Y-45391D02*
X-18471Y-45420D01*
X-18595Y-45503D01*
X-18678Y-45627D01*
X-18707Y-45773D01*
X-18678Y-45920D01*
X-18595Y-46044D01*
X-18471Y-46127D01*
X-18325Y-46156D01*
X-18179Y-46127D01*
X-18055Y-46044D01*
X-17972Y-45920D01*
X-17943Y-45773D01*
X-17972Y-45627D01*
X-18055Y-45503D01*
X-18179Y-45420D01*
X-18325Y-45391D01*
D02*
G37*
G36*
X-20900Y-25690D02*
X-21095Y-25729D01*
X-21260Y-25840D01*
X-21371Y-26005D01*
X-21410Y-26200D01*
X-21371Y-26395D01*
X-21260Y-26560D01*
X-21234Y-26578D01*
X-21270Y-26700D01*
X-21425D01*
Y-27810D01*
X-21425Y-27810D01*
X-21425D01*
X-21425Y-27900D01*
Y-27900D01*
D01*
X-21425Y-27990D01*
X-21425Y-27990D01*
X-21425D01*
Y-29100D01*
X-21180D01*
Y-31661D01*
X-21260Y-31715D01*
X-21371Y-31880D01*
X-21410Y-32075D01*
X-21371Y-32270D01*
X-21260Y-32435D01*
X-21095Y-32546D01*
X-20900Y-32585D01*
X-20705Y-32546D01*
X-20540Y-32435D01*
X-20429Y-32270D01*
X-20390Y-32075D01*
X-20429Y-31880D01*
X-20540Y-31715D01*
X-20620Y-31661D01*
Y-29100D01*
X-20375D01*
Y-27990D01*
X-20375Y-27990D01*
X-20375D01*
X-20375Y-27900D01*
Y-27900D01*
D01*
X-20375Y-27810D01*
X-20375Y-27810D01*
X-20375D01*
Y-26700D01*
X-20530D01*
X-20566Y-26578D01*
X-20540Y-26560D01*
X-20429Y-26395D01*
X-20390Y-26200D01*
X-20429Y-26005D01*
X-20540Y-25840D01*
X-20705Y-25729D01*
X-20900Y-25690D01*
D02*
G37*
G36*
X-29525Y-34509D02*
X-29717Y-34534D01*
X-29896Y-34608D01*
X-30049Y-34726D01*
X-30167Y-34879D01*
X-30241Y-35058D01*
X-30266Y-35250D01*
X-30241Y-35442D01*
X-30167Y-35621D01*
X-30049Y-35774D01*
X-29896Y-35892D01*
X-29717Y-35966D01*
X-29525Y-35991D01*
X-29333Y-35966D01*
X-29154Y-35892D01*
X-29001Y-35774D01*
X-28883Y-35621D01*
X-28809Y-35442D01*
X-28784Y-35250D01*
X-28809Y-35058D01*
X-28883Y-34879D01*
X-29001Y-34726D01*
X-29154Y-34608D01*
X-29333Y-34534D01*
X-29525Y-34509D01*
D02*
G37*
G36*
X-4530Y-28830D02*
X-5476D01*
X-5453Y-29004D01*
X-5347Y-29260D01*
X-5179Y-29479D01*
X-4960Y-29647D01*
X-4704Y-29753D01*
X-4530Y-29776D01*
Y-28830D01*
D02*
G37*
G36*
X-4330Y-27684D02*
Y-28630D01*
X-3384D01*
X-3407Y-28456D01*
X-3513Y-28200D01*
X-3681Y-27981D01*
X-3900Y-27813D01*
X-4156Y-27707D01*
X-4330Y-27684D01*
D02*
G37*
G36*
X-4530D02*
X-4704Y-27707D01*
X-4960Y-27813D01*
X-5179Y-27981D01*
X-5347Y-28200D01*
X-5453Y-28456D01*
X-5476Y-28630D01*
X-4530D01*
Y-27684D01*
D02*
G37*
G36*
X-28925Y-6250D02*
X-29325D01*
Y-6475D01*
X-28925D01*
Y-6250D01*
D02*
G37*
G36*
X-30590Y-7140D02*
X-31090D01*
Y-7565D01*
X-30590D01*
Y-7140D01*
D02*
G37*
G36*
Y-7765D02*
X-31090D01*
Y-8190D01*
X-30590D01*
Y-7765D01*
D02*
G37*
G36*
X-3384Y-28830D02*
X-4330D01*
Y-29776D01*
X-4156Y-29753D01*
X-3900Y-29647D01*
X-3681Y-29479D01*
X-3513Y-29260D01*
X-3407Y-29004D01*
X-3384Y-28830D01*
D02*
G37*
G36*
X-28150Y-6900D02*
X-28725D01*
Y-7875D01*
X-28150D01*
Y-6900D01*
D02*
G37*
G36*
X-28925D02*
X-29500D01*
Y-7875D01*
X-28925D01*
Y-6900D01*
D02*
G37*
%LPD*%
D11*
X-25750Y-34425D02*
D03*
X-24550D02*
D03*
X-25750Y-32950D02*
D03*
X-24550D02*
D03*
X-31190Y-5165D02*
D03*
X-32390D02*
D03*
X-30000Y-3400D02*
D03*
X-28800D02*
D03*
X-20925Y-3675D02*
D03*
X-19725D02*
D03*
X-32390Y-7665D02*
D03*
X-31190D02*
D03*
X-1600Y-11100D02*
D03*
X-2800D02*
D03*
X-4100D02*
D03*
X-5300D02*
D03*
X-7000Y-26500D02*
D03*
X-5800D02*
D03*
X-7000Y-25200D02*
D03*
X-5800D02*
D03*
X-7000Y-22600D02*
D03*
X-5800D02*
D03*
X-27475Y-3400D02*
D03*
X-26275D02*
D03*
D14*
X-16900Y-19325D02*
D03*
Y-20275D02*
D03*
X-17800Y-17425D02*
D03*
Y-18375D02*
D03*
X-30000Y-21425D02*
D03*
Y-22375D02*
D03*
X-30875Y-21425D02*
D03*
Y-22375D02*
D03*
X-16900Y-22175D02*
D03*
Y-21225D02*
D03*
D15*
X-32775Y-20000D02*
D03*
X-31375D02*
D03*
D16*
X-20300Y-19200D02*
D03*
Y-18200D02*
D03*
X-16900Y-17400D02*
D03*
Y-18400D02*
D03*
X-20300Y-16200D02*
D03*
Y-17200D02*
D03*
D17*
X-36600Y-10950D02*
D03*
Y-12150D02*
D03*
X-35325Y-12150D02*
D03*
Y-10950D02*
D03*
X-17100Y-11700D02*
D03*
Y-10500D02*
D03*
X-11800Y-16100D02*
D03*
Y-14900D02*
D03*
X-5200Y-8600D02*
D03*
Y-9800D02*
D03*
X-1200Y-9800D02*
D03*
Y-8600D02*
D03*
X-27575Y-27275D02*
D03*
Y-28475D02*
D03*
X-36950Y-36275D02*
D03*
Y-37475D02*
D03*
X-22175Y-27300D02*
D03*
Y-28500D02*
D03*
X-20900Y-27300D02*
D03*
Y-28500D02*
D03*
X-19625Y-27300D02*
D03*
Y-28500D02*
D03*
X-18350Y-27300D02*
D03*
Y-28500D02*
D03*
D21*
X-25875Y-7975D02*
D03*
X-28825D02*
D03*
D43*
X-26550Y-33650D02*
X-25775Y-34425D01*
X-25750D01*
X-26550Y-33650D02*
X-25850Y-32950D01*
X-25750D01*
X-24550D02*
X-24000Y-33500D01*
X-23500D01*
X-22900Y-38025D02*
Y-33400D01*
X-23537Y-32763D02*
X-22900Y-33400D01*
X-23537Y-32763D02*
Y-29988D01*
X-24557Y-39682D02*
X-22900Y-38025D01*
X-24557Y-41168D02*
Y-39682D01*
X-31750Y-55300D02*
X-30275D01*
X-31750Y-53950D02*
X-30300D01*
X-28575Y-53925D02*
Y-47475D01*
X-29282Y-54300D02*
Y-50393D01*
X-26500Y-52350D02*
X-26100Y-52750D01*
X-25150Y-52475D02*
X-24100D01*
X-25725Y-51900D02*
X-25150Y-52475D01*
X-26100Y-52750D02*
X-24050D01*
X-23075Y-51775D01*
X-24100Y-52475D02*
X-23400Y-51775D01*
X-26950Y-49450D02*
X-25225Y-51175D01*
X-24325D01*
X-24100Y-53075D02*
X-23850Y-53325D01*
X-26575Y-53075D02*
X-24100D01*
X-27350Y-52300D02*
X-26575Y-53075D01*
X-26550Y-53525D02*
X-24425D01*
X-23075Y-51775D02*
Y-50200D01*
X-22050Y-49175D01*
Y-48675D01*
X-23400Y-51775D02*
Y-50000D01*
X-22575Y-49175D01*
Y-48275D01*
X-22050Y-47750D01*
X-20625Y-48675D02*
X-18850D01*
X-20625Y-47750D02*
X-18370D01*
X-22750Y-45550D02*
Y-43775D01*
Y-45550D02*
X-21300Y-47000D01*
Y-49050D02*
Y-47000D01*
X-22225Y-49975D02*
X-21300Y-49050D01*
X-22225Y-54175D02*
Y-49975D01*
Y-54175D02*
X-21700Y-54700D01*
X-25500Y-29250D02*
X-25050D01*
X-23075Y-32750D02*
Y-29350D01*
X-24500Y-27925D02*
X-23075Y-29350D01*
X-26900Y-26625D02*
X-23537Y-29988D01*
X-23200Y-48900D02*
Y-42525D01*
X-24557Y-41168D02*
X-23200Y-42525D01*
X-26900Y-26625D02*
Y-25550D01*
X-23075Y-32750D02*
X-21150Y-34675D01*
Y-42175D02*
Y-34675D01*
X-22750Y-43775D02*
X-21150Y-42175D01*
X-7825Y-37650D02*
X-5730D01*
X-18850Y-48675D02*
X-7825Y-37650D01*
X-18370Y-47750D02*
X-6970Y-36350D01*
X-5730Y-37650D02*
X-4430Y-36350D01*
X-29662Y-50013D02*
X-29282Y-50393D01*
X-29662Y-50013D02*
Y-47413D01*
X-30925Y-46150D02*
X-29662Y-47413D01*
X-30425Y-45625D02*
X-28575Y-47475D01*
X-27225Y-44025D02*
X-26625Y-44625D01*
X-23712Y-62463D02*
X-19075Y-57825D01*
X-27650Y-60950D02*
X-26138Y-62463D01*
X-23212Y-62912D02*
X-18800Y-58500D01*
X-28225Y-61825D02*
X-27138Y-62912D01*
X-23462Y-62688D02*
X-18950Y-58175D01*
X-27850Y-61275D02*
X-26438Y-62688D01*
X-23462D01*
X-27138Y-62912D02*
X-23212D01*
X-26138Y-62463D02*
X-23712D01*
X-26375Y-60425D02*
X-25125Y-61675D01*
X-29100Y-60425D02*
X-26375D01*
X-30450Y-61775D02*
X-29100Y-60425D01*
X-30725Y-64425D02*
X-29575Y-63275D01*
X-30225Y-65675D02*
X-29575Y-65025D01*
X-28225Y-70575D02*
Y-64675D01*
Y-70575D02*
X-27875Y-70925D01*
X-28925Y-64675D02*
X-28900Y-64700D01*
X-29475Y-64175D02*
X-25675D01*
X-29500Y-63850D02*
X-23625D01*
X-31250Y-65600D02*
X-29500Y-63850D01*
X-29575Y-63275D02*
X-23368D01*
X-23343Y-63250D01*
X-21600D01*
X-17975Y-59625D01*
X-14375D01*
X-17375Y-59975D02*
X-13650D01*
X-20875Y-63475D02*
X-17375Y-59975D01*
X-23250Y-63475D02*
X-20875D01*
X-23625Y-63850D02*
X-23250Y-63475D01*
X-13650Y-59975D02*
X-5725Y-52050D01*
X-14375Y-59625D02*
X-8375Y-53625D01*
X-4475D02*
X-3000Y-52150D01*
X-31250Y-66675D02*
Y-65600D01*
X-32975Y-68400D02*
X-31250Y-66675D01*
X-25675Y-64175D02*
X-24125Y-65725D01*
X-30925Y-65625D02*
X-29475Y-64175D01*
X-29268Y-60950D02*
X-27650D01*
X-30870Y-62552D02*
X-29268Y-60950D01*
X-32748Y-62552D02*
X-30870D01*
X-29875Y-61875D02*
X-29225D01*
X-36125Y-68125D02*
X-29875Y-61875D01*
X-36125Y-68700D02*
Y-68125D01*
X-32675Y-70675D02*
X-32175Y-70175D01*
X-37400Y-70675D02*
X-32675D01*
X-38550Y-69525D02*
X-37400Y-70675D01*
X-38550Y-69525D02*
Y-63700D01*
X-38900Y-63450D02*
X-37975Y-62525D01*
X-38900Y-69725D02*
Y-63450D01*
Y-69725D02*
X-37450Y-71175D01*
X-39325Y-63100D02*
X-38475Y-62250D01*
X-39325Y-71925D02*
Y-63100D01*
Y-71925D02*
X-38325Y-72925D01*
X-38550Y-63700D02*
X-35425Y-60575D01*
X-34668D02*
X-34575D01*
X-36175Y-62082D02*
X-34668Y-60575D01*
X-36175Y-63000D02*
Y-62082D01*
X-38200Y-65025D02*
X-36175Y-63000D01*
X-38200Y-69350D02*
Y-65025D01*
Y-69350D02*
X-37300Y-70250D01*
X-33300D01*
X-32625Y-69575D01*
X-30925Y-70050D02*
Y-65625D01*
X-32050Y-71175D02*
X-30925Y-70050D01*
X-37450Y-71175D02*
X-32050D01*
X-37975Y-62525D02*
Y-61950D01*
X-35350Y-61575D02*
X-34400D01*
X-35950Y-62175D02*
X-35350Y-61575D01*
X-35950Y-63400D02*
Y-62175D01*
X-35850Y-59625D02*
X-25575D01*
X-36750Y-60525D02*
X-35850Y-59625D01*
X-37750Y-60525D02*
X-36750D01*
X-35600Y-60025D02*
X-25850D01*
X-36388Y-60812D02*
X-35600Y-60025D01*
X-37656Y-60812D02*
X-36388D01*
X-35175Y-58925D02*
X-34750Y-58500D01*
X-36932Y-58925D02*
X-35175D01*
X-39882Y-61875D02*
X-36932Y-58925D01*
X-35632Y-58600D02*
X-34982Y-57950D01*
X-37150Y-58600D02*
X-35632D01*
X-40200Y-61650D02*
X-37150Y-58600D01*
X-36425Y-59225D02*
X-25325D01*
X-37225Y-60025D02*
X-36425Y-59225D01*
X-37975Y-61950D02*
X-37275Y-61250D01*
X-34600Y-55025D02*
X-30102Y-50527D01*
X-34825Y-56025D02*
X-30000Y-51200D01*
X-45162Y-56800D02*
Y-52713D01*
X-41175Y-54100D02*
X-39600D01*
X-44350Y-57275D02*
X-41175Y-54100D01*
X-44350Y-57600D02*
Y-57275D01*
X-37200Y-54550D02*
X-35525D01*
X-30150Y-49175D01*
X-37075Y-54325D02*
X-35650Y-52900D01*
X-38225Y-50150D02*
X-36525D01*
X-39825Y-51750D02*
X-38225Y-50150D01*
X-38287Y-49675D02*
X-36105D01*
X-39325Y-48638D02*
X-38287Y-49675D01*
X-39325Y-48275D02*
X-38150Y-49450D01*
X-36012D01*
X-36838Y-50588D02*
X-36112D01*
X-37225Y-50975D02*
X-36838Y-50588D01*
X-37225Y-51525D02*
Y-50975D01*
X-33225Y-62075D02*
X-32748Y-62552D01*
X-30975Y-61775D02*
X-30450D01*
X-31300Y-61450D02*
X-30975Y-61775D01*
X-32475Y-61450D02*
X-31300D01*
X-36125Y-57050D02*
X-23975D01*
X-36575Y-57500D02*
X-36125Y-57050D01*
X-37400Y-57500D02*
X-36575D01*
X-40662Y-60763D02*
X-37400Y-57500D01*
X-30725Y-32125D02*
X-30725D01*
X-27575Y-28975D01*
Y-28475D01*
X-16300Y-24750D02*
X-16100Y-24950D01*
X-24498Y-24750D02*
X-16300D01*
X-29575Y-19975D02*
X-28425D01*
X-27950Y-20450D01*
X-39675Y-62450D02*
X-37750Y-60525D01*
X-42075Y-71425D02*
X-40200Y-73300D01*
X-43175Y-71225D02*
X-40100Y-74300D01*
X-23700D01*
X-40075Y-59825D02*
Y-58200D01*
X-43575Y-72350D02*
X-41075Y-74850D01*
X-44725Y-52975D02*
X-42375D01*
X-41900Y-52500D01*
X-37200D01*
X-56508Y-76990D02*
X-56423Y-77075D01*
X-44075D01*
X-56488Y-66850D02*
X-42275D01*
X-42125Y-67000D01*
X-56508Y-69370D02*
X-56438Y-69300D01*
X-41350D01*
X-31562Y-80338D02*
X-30980Y-79755D01*
X-17686D01*
X-16756Y-78825D01*
X-16175D01*
X-18080Y-79530D02*
X-16475Y-77925D01*
X-56508Y-79530D02*
X-18080D01*
X-37294Y-69725D02*
X-34900D01*
X-37925Y-69094D02*
Y-68150D01*
Y-69094D02*
X-37294Y-69725D01*
X-37925Y-68150D02*
X-35225Y-65450D01*
X-37750Y-65200D02*
X-35950Y-63400D01*
X-32156Y-49150D02*
X-31750D01*
X-32594Y-48713D02*
X-32156Y-49150D01*
X-34469Y-48713D02*
X-32594D01*
X-35269Y-49513D02*
X-34469Y-48713D01*
X-37075Y-45225D02*
X-35888Y-46412D01*
X-57450Y-45225D02*
X-37075D01*
X-59100Y-46875D02*
X-57450Y-45225D01*
X-59100Y-71858D02*
Y-46875D01*
Y-71858D02*
X-56508Y-74450D01*
X-58800Y-69618D02*
X-56508Y-71910D01*
X-58800Y-69618D02*
Y-50300D01*
X-58375Y-49875D01*
X-57425D01*
X-57237Y-50062D01*
X-45335D02*
X-43910Y-48638D01*
X-57237Y-50062D02*
X-45335D01*
X-34050Y-50425D02*
X-32775Y-49150D01*
X-56508Y-46510D02*
X-55293Y-47725D01*
X-45175D01*
X-44625Y-48275D01*
X-34625Y-50025D02*
X-33750Y-49150D01*
X-16750Y-65250D02*
X-14925D01*
X-34982Y-57950D02*
X-24400D01*
X-18800Y-58500D02*
X-15450D01*
X-48525Y-59275D02*
X-41575D01*
X-15644Y-2750D02*
X-12250D01*
X-10800Y-4200D01*
Y-5675D02*
Y-4200D01*
X-37375Y-55500D02*
X-36375D01*
X-40075Y-58200D02*
X-37375Y-55500D01*
X-41075Y-74850D02*
X-22450D01*
X-19510Y-71910D01*
X-6970D01*
X-5590Y-70750D02*
X-4430Y-71910D01*
X-20150Y-70750D02*
X-5590D01*
X-23700Y-74300D02*
X-20150Y-70750D01*
X-3850Y-70400D02*
X-3325Y-69875D01*
X-21425Y-70400D02*
X-3850D01*
X-24325Y-73300D02*
X-21425Y-70400D01*
X-40325Y-61200D02*
X-37150Y-58025D01*
X-40200Y-73300D02*
X-24325D01*
X-3325Y-69875D02*
Y-68800D01*
X-5945Y-66830D02*
X-4600Y-68175D01*
X-6970Y-66830D02*
X-5945D01*
X-2875Y-72895D02*
Y-66325D01*
X-4430Y-74450D02*
X-2875Y-72895D01*
X-3950Y-68175D02*
X-3325Y-68800D01*
X-4600Y-68175D02*
X-3950D01*
X-38325Y-72925D02*
X-25600D01*
X-22045Y-69370D01*
X-6970D01*
X-5725Y-52050D02*
Y-50345D01*
X-28625Y-61275D02*
X-27850D01*
X-29225Y-61875D02*
X-28625Y-61275D01*
X-15450Y-58500D02*
X-7175Y-50225D01*
X-6050D01*
X-5775Y-49950D01*
Y-47705D01*
X-6970Y-46510D02*
X-5775Y-47705D01*
X-5725Y-50345D02*
X-4430Y-49050D01*
X-36490Y-33810D02*
X-27225Y-43075D01*
X-56508Y-33810D02*
X-36490D01*
X-27225Y-44025D02*
Y-43075D01*
X-18351Y-22701D02*
Y-22626D01*
X-18375Y-22725D02*
X-18351Y-22701D01*
X-21025Y-22725D02*
X-18375D01*
X-21325Y-22425D02*
X-21025Y-22725D01*
X-21325Y-22425D02*
Y-22400D01*
X-22425Y-22725D02*
X-21725D01*
X-22100Y-22400D02*
X-21325D01*
X-35450Y-49075D02*
X-33325Y-46950D01*
X-57550Y-50375D02*
X-57525Y-50400D01*
X-55650D01*
X-54925Y-51125D01*
X-43175D01*
X-56508Y-66830D02*
X-56488Y-66850D01*
X-56508Y-89690D02*
X-56493Y-89675D01*
X-39400D01*
X-56508Y-87150D02*
X-56458Y-87100D01*
X-38925D01*
X-56508Y-84610D02*
X-53735D01*
X-53150Y-84025D01*
X-33125D01*
X-56508Y-82070D02*
X-38325D01*
X-28900Y-70700D02*
Y-64700D01*
X-30225Y-69300D02*
Y-65675D01*
X-25100Y-9900D02*
X-21400Y-13600D01*
X-22750Y-22400D02*
X-22425Y-22725D01*
X-5350Y-8750D02*
X-5200Y-8600D01*
X-6350Y-8750D02*
X-5350D01*
X-7613Y-10012D02*
X-6350Y-8750D01*
X-35325Y-12850D02*
X-34400Y-13775D01*
X-33900Y-20000D02*
X-32775D01*
X-29300Y-16225D02*
X-27000D01*
X-30525Y-15000D02*
X-29300Y-16225D01*
X-27000D02*
X-25675Y-17550D01*
X-31288Y-15762D02*
X-29625Y-17425D01*
X-27200D01*
X-26975Y-17650D01*
X-29484Y-19475D02*
X-26975D01*
X-32925Y-16034D02*
Y-10475D01*
X-29491Y-19150D02*
X-27950D01*
X-32700Y-15941D02*
Y-10382D01*
X-29498Y-18825D02*
X-27625D01*
X-32475Y-15848D02*
Y-10289D01*
X-29505Y-18500D02*
X-27950D01*
X-32250Y-15755D02*
Y-10195D01*
X-29511Y-18175D02*
X-27625D01*
X-32025Y-15661D02*
Y-10075D01*
X-29518Y-17850D02*
X-27950D01*
X-31675Y-15693D02*
Y-13775D01*
Y-15693D02*
X-29518Y-17850D01*
X-32025Y-15661D02*
X-29511Y-18175D01*
X-32250Y-15755D02*
X-29505Y-18500D01*
X-32475Y-15848D02*
X-29498Y-18825D01*
X-32700Y-15941D02*
X-29491Y-19150D01*
X-32925Y-16034D02*
X-29484Y-19475D01*
X-31288Y-15762D02*
Y-10488D01*
X-28975Y-21925D02*
X-28800Y-21750D01*
X-31375Y-20000D02*
X-31125Y-20250D01*
X-27647Y-20798D02*
X-27300Y-20450D01*
X-28775Y-23675D02*
X-26900Y-25550D01*
X-35325Y-12850D02*
Y-12150D01*
X-37400Y-4375D02*
X-31288Y-10488D01*
X-36600Y-12150D02*
X-35325D01*
X-38730Y-10950D02*
X-36600D01*
X-17800Y-19100D02*
Y-18375D01*
X-17775Y-18400D01*
X-16900D01*
X-22100Y-20450D02*
X-18025D01*
X-21800Y-20800D02*
X-18275D01*
X-16900Y-22175D01*
X-18025Y-20450D02*
X-16900Y-19325D01*
X-3875Y-7100D02*
X-3875Y-7100D01*
X-3875Y-7875D02*
Y-7100D01*
X-41600Y-3500D02*
X-40600Y-4500D01*
X-5800Y-25200D02*
X-4900D01*
X-5800Y-26500D02*
X-4900D01*
X-25850Y-26400D02*
Y-25500D01*
X-25675Y-25300D02*
Y-23375D01*
X-25350Y-23050D01*
X-16925Y-17425D02*
X-16900Y-17400D01*
X-17800Y-17425D02*
X-16925D01*
X-21475Y-19200D02*
X-20300D01*
X-21751Y-19476D02*
X-21475Y-19200D01*
X-22448Y-19476D02*
X-21751D01*
X-23400Y-19800D02*
X-23075Y-20125D01*
X-20400Y-21425D02*
X-20275Y-21300D01*
X-22100Y-21100D02*
X-21800Y-20800D01*
X-22425Y-21425D02*
X-20400D01*
X-22750Y-21100D02*
X-22425Y-21425D01*
X-22750Y-21100D02*
Y-20450D01*
X-31375Y-19075D02*
X-31200Y-18900D01*
X-31375Y-20000D02*
Y-19075D01*
X-30000Y-21425D02*
X-27625D01*
X-25975Y-16000D02*
Y-15100D01*
X-25025Y-16000D02*
Y-15100D01*
X-22925Y-16000D02*
Y-15100D01*
X-22100Y-23700D02*
X-22100D01*
X-24700Y-23050D02*
X-24375Y-22725D01*
X-27625Y-21425D02*
X-27300Y-21100D01*
X-24050Y-17850D02*
Y-16175D01*
X-26975Y-18175D02*
X-26650Y-18500D01*
X-26975Y-18825D02*
X-26650Y-19150D01*
X-26975Y-19475D02*
X-26650Y-19800D01*
X-27625Y-18825D02*
X-27300Y-19150D01*
X-22100Y-23700D02*
X-22100Y-23700D01*
X-21400Y-17300D02*
X-20300Y-16200D01*
X-21400Y-17800D02*
Y-17300D01*
X-23075Y-18825D02*
X-23075D01*
X-23400Y-19150D02*
X-23075Y-18825D01*
X-25350Y-21100D02*
X-25025Y-20775D01*
X-24700Y-20450D01*
X-21775Y-18175D02*
X-21400Y-17800D01*
X-22402Y-18175D02*
X-21775D01*
X-22751Y-18524D02*
X-22402Y-18175D01*
X-22751Y-19174D02*
X-22448Y-19476D01*
X-13450Y-15950D02*
X-11950D01*
X-11450Y-13350D02*
Y-12650D01*
X-11800Y-16100D02*
X-11100D01*
X-19325Y-21300D02*
X-18500D01*
X-22750Y-23050D02*
X-22420Y-23380D01*
X-21820D01*
X-41600Y-1500D02*
X-40500D01*
X-30875Y-22375D02*
X-30000D01*
X-24050Y-18500D02*
Y-17850D01*
X-23274Y-5675D02*
X-23250Y-5652D01*
X-5800Y-22600D02*
X-4900D01*
X-25350Y-20450D02*
X-25325D01*
X-25025Y-20150D01*
X-26000Y-1500D02*
X-24925D01*
X-32975Y-1525D02*
X-30075D01*
X-11450Y-11450D02*
X-11450Y-11450D01*
X-10500D01*
X-10475Y-11425D01*
X-6978Y-64290D02*
X-6974Y-64286D01*
X-16900Y-20275D02*
X-16125D01*
X-16900Y-21225D02*
X-16375D01*
X-16125Y-20975D01*
Y-20275D01*
X-18025Y-9575D02*
X-16925D01*
X-16487Y-10012D01*
X-7613D01*
X-41600Y-7500D02*
X-40700Y-6600D01*
X-41600Y-5500D02*
X-40725Y-6375D01*
X-40700Y-6600D02*
X-36800D01*
X-40725Y-6375D02*
X-36707D01*
X-38600Y-5500D02*
X-37264D01*
X-40600Y-4500D02*
X-37945D01*
X-27625Y-18175D02*
X-27300Y-18500D01*
X-37400Y-4375D02*
Y-2700D01*
X-38600Y-1500D02*
X-37400Y-2700D01*
X-24900Y-26400D02*
Y-25500D01*
Y-24825D01*
X-22750Y-17850D02*
Y-16175D01*
X-22925Y-16000D02*
X-22750Y-16175D01*
X-30875Y-23175D02*
Y-22375D01*
X-26650Y-22400D02*
X-26325Y-22725D01*
X-23075Y-20125D02*
X-18900D01*
X-18475Y-19700D01*
Y-18100D01*
X-17800Y-17425D01*
X-25350Y-23898D02*
Y-23700D01*
X-25025Y-18825D02*
X-24700Y-19150D01*
X-22925Y-15100D02*
X-22100D01*
X-26800D02*
X-25975D01*
X-24050Y-19150D02*
X-23725Y-18825D01*
X-23400Y-17850D02*
Y-17475D01*
X-23625Y-17250D02*
X-23400Y-17475D01*
Y-18500D02*
X-23075Y-18175D01*
Y-17175D01*
X-23625Y-16625D02*
X-23075Y-17175D01*
X-25550Y-18825D02*
X-25025D01*
X-25675Y-18700D02*
X-25550Y-18825D01*
X-38600Y-3500D02*
X-32025Y-10075D01*
X-37945Y-4500D02*
X-32250Y-10195D01*
X-37264Y-5500D02*
X-32475Y-10289D01*
X-36707Y-6375D02*
X-32700Y-10382D01*
X-36800Y-6600D02*
X-32925Y-10475D01*
X-25025Y-16000D02*
X-24987Y-16038D01*
Y-16962D02*
Y-16038D01*
Y-16962D02*
X-24700Y-17250D01*
Y-17850D02*
Y-17250D01*
X-25025Y-21425D02*
X-24700Y-21100D01*
X-26975Y-18175D02*
Y-17650D01*
X-25350Y-17850D02*
Y-17525D01*
X-25975Y-16900D02*
Y-16000D01*
Y-16900D02*
X-25350Y-17525D01*
X-25675Y-18700D02*
Y-17550D01*
X-32975Y-18900D02*
X-32150D01*
X-38600Y-7500D02*
X-36575D01*
X-34200Y-9875D01*
X-23400Y-22400D02*
X-23075Y-22075D01*
X-22100Y-23700D02*
X-21950Y-23850D01*
X-25350Y-23898D02*
X-24498Y-24750D01*
X-21820Y-23380D02*
X-21575Y-23625D01*
X-21950Y-23850D02*
X-17582D01*
X-21575Y-23625D02*
X-17489D01*
X-9150Y-24350D02*
X-7000Y-26500D01*
X-8075Y-24125D02*
X-7000Y-25200D01*
X-8075Y-23675D02*
X-7000Y-22600D01*
X-16800Y-23675D02*
X-8075D01*
X-16989Y-24125D02*
X-8075D01*
X-17489Y-23625D02*
X-16989Y-24125D01*
X-17082Y-24350D02*
X-9150D01*
X-17582Y-23850D02*
X-17082Y-24350D01*
X-26550Y-25500D02*
X-25850D01*
X-28800Y-21750D02*
X-27950D01*
X-27425Y-4225D02*
X-26900D01*
X-24375Y-20775D02*
X-24050Y-20450D01*
X-23400Y-21100D02*
X-23075Y-21425D01*
X-22750Y-21750D02*
X-22425Y-22075D01*
X-20550D01*
X-26250Y-65875D02*
X-26225D01*
X-33225Y-64725D02*
Y-62075D01*
X-37425Y-68975D02*
Y-68350D01*
X-35225Y-65450D02*
Y-62125D01*
X-26225Y-65875D02*
X-24975Y-67125D01*
X-20531Y-67875D02*
X-5925D01*
X-4430Y-69370D01*
X-24975Y-67125D02*
X-21281D01*
X-20531Y-67875D01*
X-36115Y-84610D02*
X-6970D01*
X-36125Y-84600D02*
X-36115Y-84610D01*
X-5700Y-80800D02*
X-4430Y-82070D01*
X-37425Y-80800D02*
X-5700D01*
X-34400Y-61575D02*
X-34025Y-61950D01*
X-31125Y-20250D02*
X-30000D01*
X-29452Y-20798D01*
X-27647D01*
X-30275Y-26175D02*
X-28850D01*
X-39869Y-63025D02*
X-37656Y-60812D01*
X-45975Y-63025D02*
X-39869D01*
X-23062Y-60037D02*
X-22425Y-59400D01*
X-18950Y-58175D02*
X-16095D01*
X-6970Y-49050D01*
X-19075Y-57825D02*
X-17225D01*
X-8350Y-48950D01*
X-17650Y-52625D02*
Y-52110D01*
X-6970Y-41430D01*
X-8320Y-43970D02*
X-6970D01*
X-5443Y-44982D02*
X-4430Y-43970D01*
X-5443Y-45498D02*
X-4430Y-46510D01*
X-8350Y-48950D02*
Y-46425D01*
X-7423Y-45498D01*
X-5443D01*
X-8700Y-46200D02*
X-7750Y-45250D01*
X-3975D01*
X-3000Y-52150D02*
Y-35240D01*
X-4430Y-33810D02*
X-3000Y-35240D01*
X-4430Y-38890D02*
X-3375Y-39945D01*
Y-44650D02*
Y-39945D01*
X-3975Y-45250D02*
X-3375Y-44650D01*
X-34750Y-58500D02*
X-25175D01*
X-24150Y-59525D01*
X-25325Y-59225D02*
X-24513Y-60037D01*
X-23062D01*
X-25575Y-59625D02*
X-24650Y-60550D01*
X-25850Y-60025D02*
X-24650Y-61225D01*
X-21725Y-60125D02*
Y-58520D01*
X-25475Y-62025D02*
X-23625D01*
X-21725Y-60125D01*
X-25125Y-61675D02*
X-24125D01*
X-22175Y-59725D01*
Y-58350D01*
X-19577Y-55852D02*
X-8708Y-44982D01*
X-5443D01*
X-20681Y-56077D02*
X-18727D01*
X-22425Y-57821D02*
X-20681Y-56077D01*
X-22425Y-59400D02*
Y-57821D01*
X-22475Y-57375D02*
X-20952Y-55852D01*
X-19577D01*
X-22175Y-58350D02*
X-21250Y-57425D01*
X-17325D01*
X-18727Y-56077D02*
X-8850Y-46200D01*
X-8700D01*
X-17325Y-57425D02*
X-13575Y-53675D01*
X-21600Y-50000D02*
X-18080D01*
X-6970Y-38890D01*
X-5760Y-32600D02*
X-4430Y-31270D01*
X-37050Y-56025D02*
X-34825D01*
X-37000Y-55025D02*
X-34600D01*
X-36250Y-58075D02*
X-35550Y-57375D01*
X-22475D01*
X-43675Y-60425D02*
X-40675D01*
X-40075Y-59825D01*
X-47850Y-61875D02*
X-39882D01*
X-43088Y-60763D02*
X-40662D01*
X-42725Y-61200D02*
X-40325D01*
X-46800Y-61650D02*
X-40200D01*
X-47375Y-61075D02*
X-46800Y-61650D01*
X-47950Y-60400D02*
X-46450D01*
X-48225Y-62450D02*
X-39675D01*
X-48500Y-62175D02*
X-48225Y-62450D01*
X-48500Y-62175D02*
Y-60950D01*
X-47950Y-60400D01*
X-43500Y-61175D02*
X-43088Y-60763D01*
X-46450Y-61175D02*
X-43500D01*
X-36400Y-56525D02*
X-25100D01*
X-24900Y-56725D01*
X-24150D01*
X-23850Y-56425D01*
Y-55925D01*
X-24000Y-55775D02*
X-23850Y-55925D01*
X-23975Y-57050D02*
X-23550Y-56625D01*
Y-55525D01*
X-23800Y-55275D02*
X-23550Y-55525D01*
X-24325Y-55275D02*
X-23800D01*
X-23625Y-54800D02*
X-23337Y-55088D01*
X-24725Y-54800D02*
X-23625D01*
X-24950Y-55025D02*
X-24725Y-54800D01*
X-24950Y-55500D02*
Y-55025D01*
Y-55500D02*
X-24675Y-55775D01*
X-24000D01*
X-19625Y-55275D02*
X-8320Y-43970D01*
X-21825Y-45500D02*
X-21200D01*
X-6970Y-31270D01*
X-21100Y-46150D02*
X-7550Y-32600D01*
X-5760D01*
X-33325Y-43425D02*
X-32375Y-42475D01*
X-33325Y-46950D02*
Y-43425D01*
X-36825Y-39668D02*
Y-37500D01*
Y-39668D02*
X-36018Y-40475D01*
X-39850Y-36875D02*
X-36550D01*
X-29050Y-16975D02*
X-26950D01*
X-30525Y-15500D02*
X-29050Y-16975D01*
X-26950D02*
X-26325Y-17600D01*
Y-18175D02*
Y-17600D01*
Y-18175D02*
X-26000Y-18500D01*
X-23850Y-53700D02*
Y-53325D01*
X-24425Y-54275D02*
X-23850Y-53700D01*
X-30525Y-16000D02*
X-29325Y-17200D01*
X-27050D01*
X-26650Y-17600D01*
Y-17850D02*
Y-17600D01*
X-36724Y-34475D02*
X-29938Y-41262D01*
X-52093Y-34475D02*
X-36724D01*
X-56508Y-38890D02*
X-52093Y-34475D01*
X-36600Y-34175D02*
X-29638Y-41138D01*
X-54333Y-34175D02*
X-36600D01*
X-56508Y-36350D02*
X-54333Y-34175D01*
X-25575Y-49875D02*
X-24325D01*
X-25243Y-50525D02*
X-24325D01*
X-24700Y-56250D02*
X-24325D01*
X-44625Y-48275D02*
X-39325D01*
X-43910Y-48638D02*
X-39325D01*
X-35888Y-49256D02*
X-35631Y-49513D01*
X-35269D01*
X-35888Y-49256D02*
Y-46412D01*
X-36105Y-49675D02*
X-35355Y-50425D01*
X-36012Y-49450D02*
X-35437Y-50025D01*
X-34625D01*
X-35355Y-50425D02*
X-34050D01*
X-28075Y-52875D02*
X-24700Y-56250D01*
X-27700Y-52375D02*
X-26550Y-53525D01*
X-27350Y-52300D02*
Y-47043D01*
X-30513Y-43880D02*
X-27350Y-47043D01*
X-26950Y-49450D02*
Y-47054D01*
X-30237Y-43766D02*
X-26950Y-47054D01*
X-26125Y-49325D02*
X-25575Y-49875D01*
X-26550Y-49218D02*
X-25243Y-50525D01*
X-28075Y-52875D02*
Y-47325D01*
X-30763Y-44112D02*
X-27700Y-47175D01*
Y-52375D02*
Y-47175D01*
X-29638Y-43412D02*
Y-41138D01*
Y-43412D02*
X-26125Y-46925D01*
Y-49325D02*
Y-46925D01*
X-29938Y-43588D02*
Y-41262D01*
Y-43588D02*
X-26550Y-46975D01*
Y-49218D02*
Y-46975D01*
X-35200Y-38100D02*
X-33575D01*
X-30237Y-41438D01*
Y-43766D02*
Y-41438D01*
X-34800Y-39375D02*
X-32725D01*
X-30513Y-41588D01*
Y-43880D02*
Y-41588D01*
X-35375Y-40125D02*
X-32375D01*
X-30763Y-41737D01*
Y-44112D02*
Y-41737D01*
X-36018Y-40475D02*
X-32425D01*
X-31013Y-41888D01*
Y-44388D02*
X-28075Y-47325D01*
X-31013Y-44388D02*
Y-41888D01*
X-45150Y-69776D02*
X-45127Y-69753D01*
X-45150Y-75150D02*
Y-69776D01*
X-43310Y-76990D02*
X-6970D01*
X-45150Y-75150D02*
X-43310Y-76990D01*
X-45162Y-52713D02*
X-44200Y-51750D01*
X-39825D01*
X-38850Y-38918D02*
Y-37950D01*
X-39200Y-37600D02*
X-38850Y-37950D01*
Y-38918D02*
X-36768Y-41000D01*
X-35550Y-50700D02*
X-32543D01*
X-36100Y-50150D02*
X-35550Y-50700D01*
X-36525Y-50150D02*
X-36100D01*
X-32543Y-50700D02*
X-31000Y-49157D01*
Y-48779D01*
X-36768Y-41000D02*
X-32625D01*
X-31650Y-48129D02*
X-31000Y-48779D01*
X-31650Y-48129D02*
Y-41975D01*
X-32625Y-41000D02*
X-31650Y-41975D01*
X-26325Y-20125D02*
X-26000Y-19800D01*
X-44625Y-72250D02*
X-41225Y-75650D01*
X-44625Y-72250D02*
Y-70425D01*
X-41225Y-75650D02*
X-5770D01*
X-37225Y-51525D02*
X-36725Y-52025D01*
X-38625Y-38825D02*
Y-37950D01*
X-38275Y-37600D01*
X-38625Y-38825D02*
X-36675Y-40775D01*
X-36925Y-53000D02*
X-36725Y-52800D01*
Y-52025D01*
X-35725Y-50975D02*
X-32500D01*
X-30750Y-49225D01*
X-36112Y-50588D02*
X-35725Y-50975D01*
X-5770Y-75650D02*
X-4430Y-76990D01*
X-31375Y-48050D02*
Y-41843D01*
X-30750Y-49225D02*
Y-48675D01*
X-31375Y-48050D02*
X-30750Y-48675D01*
X-36675Y-40775D02*
X-32443D01*
X-31375Y-41843D01*
X-25675Y-20125D02*
X-25350Y-19800D01*
X-39200Y-33175D02*
X-38750Y-32725D01*
X-28225Y-33175D02*
X-27125Y-32075D01*
X-38275Y-33175D02*
X-28225D01*
X-29050Y-32725D02*
X-28400Y-32075D01*
X-38750Y-32725D02*
X-29050D01*
X-39852Y-56603D02*
X-39253D01*
X-38500Y-53000D02*
X-36925D01*
X-39253Y-56603D02*
X-37200Y-54550D01*
X-39600Y-54100D02*
X-38500Y-53000D01*
X-48525Y-59950D02*
X-41200D01*
X-47418Y-64525D02*
X-42307D01*
X-49450Y-62493D02*
X-47418Y-64525D01*
X-42307D02*
X-40325Y-66507D01*
Y-70600D02*
Y-66507D01*
X-49450Y-62493D02*
Y-58782D01*
X-48968Y-58300D01*
X-48018D01*
X-47493Y-58825D02*
X-43175D01*
X-48018Y-58300D02*
X-47493Y-58825D01*
X-43175D02*
X-38425Y-54075D01*
X-37206D01*
X-36225Y-53094D02*
Y-52175D01*
X-37206Y-54075D02*
X-36225Y-53094D01*
X-49675Y-62586D02*
Y-58689D01*
X-49061Y-58075D01*
X-42400Y-64750D02*
X-40550Y-66600D01*
X-49675Y-62586D02*
X-47511Y-64750D01*
X-42400D01*
X-47400Y-58600D02*
X-44475D01*
X-49061Y-58075D02*
X-47925D01*
X-47400Y-58600D01*
X-44475D02*
X-43525Y-57650D01*
X-42675D01*
X-38525Y-53500D01*
X-40800Y-70200D02*
X-40550Y-69950D01*
X-40800Y-71175D02*
Y-70200D01*
X-40550Y-69950D02*
Y-66600D01*
X-38525Y-53500D02*
X-37250D01*
X-40100Y-69950D02*
Y-66414D01*
X-49225Y-62400D02*
X-47325Y-64300D01*
X-42214D01*
X-40100Y-66414D01*
Y-69950D02*
X-39850Y-70200D01*
X-49225Y-62400D02*
Y-58875D01*
X-48875Y-58525D01*
X-48111D01*
X-47586Y-59050D02*
X-43050D01*
X-48111Y-58525D02*
X-47586Y-59050D01*
X-43050D02*
X-38325Y-54325D01*
X-39850Y-71175D02*
Y-70200D01*
X-38325Y-54325D02*
X-37075D01*
X-35650Y-52900D02*
Y-51850D01*
X-36475Y-51025D02*
X-35650Y-51850D01*
X-30025Y-94275D02*
X-28730Y-95570D01*
X-30025Y-94275D02*
Y-91675D01*
X-39850Y-87700D02*
X-26440D01*
X-21110Y-93030D01*
X-39850Y-89125D02*
X-32575D01*
X-30025Y-91675D01*
X-22400Y-94280D02*
X-21110Y-95570D01*
X-39850Y-88412D02*
X-26237D01*
X-22400Y-92250D01*
Y-94280D02*
Y-92250D01*
X-21700Y-54700D02*
X-20650D01*
X-26850Y-27900D02*
X-25500Y-29250D01*
X-32450Y-27900D02*
X-26850D01*
X-26975Y-23375D02*
X-26650Y-23050D01*
X-28475Y-23375D02*
X-26975D01*
X-28775Y-23675D02*
X-28475Y-23375D01*
X-36950Y-36275D02*
Y-35250D01*
X-26350Y-13775D02*
Y-13750D01*
Y-13775D02*
X-25025Y-15100D01*
X-31925Y-20550D02*
X-31375Y-20000D01*
X-31925Y-21225D02*
Y-20550D01*
X-36425Y-67925D02*
X-33225Y-64725D01*
X-37000Y-67925D02*
X-36425D01*
X-37425Y-68350D02*
X-37000Y-67925D01*
X-21375Y-54250D02*
X-21050Y-53925D01*
X-18950D01*
X-17650Y-52625D01*
X-23337Y-55088D02*
X-21112D01*
X-20925Y-55275D01*
X-19625D01*
X-21725Y-22725D02*
X-21100Y-23350D01*
X-17125D01*
X-16800Y-23675D01*
X-36100Y-39400D02*
X-35375Y-40125D01*
X-36100Y-39400D02*
Y-37325D01*
X-36550Y-36875D02*
X-36100Y-37325D01*
X-3750Y-65450D02*
X-2875Y-66325D01*
X-14925Y-65250D02*
X-14725Y-65450D01*
X-3750D01*
X-24125Y-65725D02*
X-5535D01*
X-4430Y-66830D01*
X-16763Y-60287D02*
X-4262D01*
X-17375Y-60900D02*
X-16763Y-60287D01*
X-13575Y-53675D02*
Y-51725D01*
D44*
X-7025Y-82125D02*
X-6970Y-82070D01*
X-31075Y-82125D02*
X-7025D01*
X-19625Y-32075D02*
Y-28500D01*
X-18350Y-32075D02*
Y-28500D01*
X-20900Y-32075D02*
Y-28500D01*
X-22175Y-32075D02*
Y-28500D01*
X-30875Y-21425D02*
X-30000D01*
X-23875Y-16000D02*
Y-15100D01*
X-24050Y-16175D02*
X-23875Y-16000D01*
X-16900Y-22175D02*
X-15425D01*
X-13925Y-19325D02*
X-13025Y-18425D01*
X-16900Y-19325D02*
X-13925D01*
X-3753Y-8600D02*
X-3225Y-8072D01*
X-5200Y-8600D02*
X-3753D01*
X-2575Y-8425D02*
X-1200Y-9800D01*
X-2575Y-8425D02*
Y-7875D01*
X-3225Y-10675D02*
Y-9725D01*
Y-10675D02*
X-2800Y-11100D01*
X-3875Y-10875D02*
Y-9725D01*
X-4100Y-11100D02*
X-3875Y-10875D01*
X-4100Y-11100D02*
X-4100Y-12025D01*
X-22100Y-16625D02*
X-20750Y-15275D01*
X-17300D01*
X-16237Y-16337D01*
X-22100Y-17850D02*
Y-16625D01*
X-23875Y-15100D02*
Y-14450D01*
X-25350Y-18500D02*
X-25035Y-18185D01*
X-24700Y-18500D02*
X-24375Y-18175D01*
Y-17075D01*
X-25525Y-16825D02*
X-25035Y-17315D01*
Y-18185D02*
Y-17315D01*
X-24625Y-16825D02*
X-24375Y-17075D01*
D45*
X-24650Y-37075D02*
Y-34425D01*
X-24378Y-47778D02*
Y-42550D01*
X-25308Y-41619D02*
X-24378Y-42550D01*
X-25308Y-41619D02*
Y-37733D01*
X-24650Y-37075D01*
X-22026Y-41702D02*
Y-41697D01*
X-23498Y-40225D02*
X-22026Y-41697D01*
X-2800Y-12150D02*
Y-11100D01*
X-6350Y-10050D02*
X-5300Y-11100D01*
X-2575Y-7875D02*
Y-6550D01*
X-1900Y-10800D02*
X-1600Y-11100D01*
X-1900Y-10800D02*
Y-9975D01*
X-2150Y-9725D02*
X-1900Y-9975D01*
X-2575Y-9725D02*
X-2150D01*
X-1600Y-11100D02*
X-725D01*
X-1200Y-8600D02*
Y-7250D01*
X-7000Y-25200D02*
X-6475Y-25725D01*
X-4500D01*
X-7000Y-28700D02*
Y-26500D01*
Y-28700D02*
X-6970Y-28730D01*
X-7000Y-22600D02*
X-6400Y-23200D01*
X-18570Y-93030D02*
X-3230D01*
X-2000Y-91800D01*
X-6970Y-64290D02*
X-2550Y-59870D01*
Y-27675D01*
X-4500Y-25725D02*
X-2550Y-27675D01*
X-6400Y-23200D02*
X-4800D01*
X-2000Y-26000D01*
Y-91800D02*
Y-26000D01*
X-22175Y-27300D02*
Y-26200D01*
X-20900Y-27300D02*
Y-26200D01*
X-19625Y-27300D02*
Y-26200D01*
X-27575Y-27275D02*
Y-26175D01*
X-18350Y-27300D02*
Y-26200D01*
X-25350Y-19150D02*
X-25025Y-19475D01*
X-11800Y-14900D02*
X-10475D01*
X-25575Y-48975D02*
X-24378Y-47778D01*
D46*
X-21975Y-3700D02*
X-21950Y-3675D01*
X-20925D01*
X-5690Y-83350D02*
X-4430Y-84610D01*
X-34250Y-83350D02*
X-5690D01*
X-25225Y-46275D02*
Y-44275D01*
X-25375Y-3875D02*
Y-3400D01*
Y-3875D02*
X-24948Y-4301D01*
X-24425D01*
X-35325Y-10950D02*
Y-9500D01*
X-4550Y-9800D02*
X-4550Y-9800D01*
X-5200Y-9800D02*
X-4550D01*
X-13450Y-14050D02*
X-13100D01*
X-12250Y-14900D01*
X-11800D01*
X-28800Y-3400D02*
X-27475D01*
X-28825Y-3425D02*
X-28800Y-3400D01*
X-28825Y-4650D02*
Y-3425D01*
Y-5150D02*
X-27675D01*
X-27425Y-5400D01*
X-26025Y-4650D02*
X-25550D01*
X-25275Y-4925D01*
Y-5650D02*
Y-4925D01*
X-26025Y-5650D02*
X-25275D01*
X-24450D01*
X-24425Y-5675D01*
X-26900Y-6725D02*
Y-4225D01*
X-13450Y-14050D02*
Y-11450D01*
X-16425Y-12400D02*
X-15550D01*
X-16900Y-11925D02*
X-16425Y-12400D01*
X-15550Y-15000D02*
Y-12400D01*
X-20500Y-56515D02*
X-17910D01*
X-17900Y-56525D01*
X-25225Y-44275D02*
X-25200Y-44250D01*
X-29725Y-2475D02*
X-28800Y-3400D01*
X-29725Y-2475D02*
Y-2475D01*
X-18375Y-11800D02*
X-17200D01*
X-17100Y-11700D01*
D47*
X-19600Y-18200D02*
X-19600Y-18200D01*
X-20300Y-17200D02*
X-20100Y-17400D01*
X-19200D01*
X-20300Y-18200D02*
X-19600D01*
X-20610Y-17400D02*
X-20100D01*
X-19700Y-18200D02*
X-19600D01*
X-22100Y-19150D02*
X-21825D01*
X-20875Y-18200D01*
X-20300D01*
X-22100Y-18500D02*
X-21712D01*
X-21032Y-17820D01*
X-21030D01*
X-20610Y-17400D01*
D48*
X-17769Y-3675D02*
X-17744Y-3700D01*
X-19725Y-3675D02*
X-17769D01*
X-20075Y-5675D02*
X-19050Y-4650D01*
X-15644D01*
X-12375Y-6325D02*
X-11600D01*
X-15000Y-3700D02*
X-12375Y-6325D01*
X-17744Y-3700D02*
X-15000D01*
X-33290Y-7665D02*
X-32390D01*
X-32390Y-8465D02*
X-32390Y-8465D01*
Y-7665D01*
X-32390Y-6865D02*
X-32390Y-6865D01*
Y-7665D02*
Y-6865D01*
X-32390Y-5865D02*
Y-5165D01*
X-33190D02*
X-32390D01*
Y-4465D01*
X-5700Y-14752D02*
Y-12400D01*
X-7600Y-10500D02*
X-5700Y-12400D01*
X-6978Y-16030D02*
X-5700Y-14752D01*
X-9350Y-12400D02*
X-8068D01*
X-6978Y-13490D01*
X-11600Y-6325D02*
X-11200Y-6725D01*
X-24425Y-5675D02*
X-23274D01*
X-20075D01*
X-18925Y-6825D01*
Y-9975D02*
Y-6825D01*
Y-9975D02*
X-18400Y-10500D01*
X-17100D01*
X-13450Y-11450D02*
X-11450D01*
X-15550Y-10500D02*
X-7600D01*
X-17100D02*
X-15550D01*
D50*
X-57650Y-97650D02*
D03*
X-2350D02*
D03*
X-57650Y-2350D02*
D03*
X-2350D02*
D03*
D51*
X-18570Y-93030D02*
D03*
D52*
X-41430Y-95570D02*
D03*
X-31270Y-93030D02*
D03*
Y-95570D02*
D03*
X-33810D02*
D03*
Y-93030D02*
D03*
X-36350Y-95570D02*
D03*
Y-93030D02*
D03*
X-38890Y-95570D02*
D03*
Y-93030D02*
D03*
X-41430D02*
D03*
X-28730D02*
D03*
X-26190D02*
D03*
Y-95570D02*
D03*
X-23650Y-93030D02*
D03*
Y-95570D02*
D03*
X-21110Y-93030D02*
D03*
Y-95570D02*
D03*
X-18570D02*
D03*
X-28730D02*
D03*
X-4430Y-38890D02*
D03*
Y-28730D02*
D03*
Y-31270D02*
D03*
X-6970D02*
D03*
X-4430Y-33810D02*
D03*
X-6970D02*
D03*
X-4430Y-36350D02*
D03*
X-6970D02*
D03*
Y-38890D02*
D03*
Y-51590D02*
D03*
Y-49050D02*
D03*
X-4430D02*
D03*
X-6970Y-46510D02*
D03*
X-4430D02*
D03*
X-6970Y-43970D02*
D03*
X-4430D02*
D03*
Y-41430D02*
D03*
X-6970D02*
D03*
X-4430Y-51590D02*
D03*
X-56508Y-61750D02*
D03*
Y-64290D02*
D03*
Y-66830D02*
D03*
Y-69370D02*
D03*
Y-71910D02*
D03*
Y-74450D02*
D03*
Y-84610D02*
D03*
Y-87150D02*
D03*
Y-79530D02*
D03*
Y-76990D02*
D03*
Y-82070D02*
D03*
X-41270Y-10950D02*
D03*
X-38730D02*
D03*
X-4430Y-74450D02*
D03*
Y-64290D02*
D03*
Y-66830D02*
D03*
X-6970D02*
D03*
X-4430Y-69370D02*
D03*
X-6970D02*
D03*
X-4430Y-71910D02*
D03*
X-6970D02*
D03*
Y-74450D02*
D03*
Y-87150D02*
D03*
Y-84610D02*
D03*
X-4430D02*
D03*
X-6970Y-82070D02*
D03*
X-4430D02*
D03*
X-6970Y-79530D02*
D03*
X-4430D02*
D03*
Y-76990D02*
D03*
X-6970D02*
D03*
X-4430Y-87150D02*
D03*
Y-13490D02*
D03*
Y-16030D02*
D03*
X-6970D02*
D03*
X-56508Y-13490D02*
D03*
Y-8410D02*
D03*
Y-10950D02*
D03*
Y-18570D02*
D03*
Y-16030D02*
D03*
Y-26190D02*
D03*
Y-28730D02*
D03*
Y-31270D02*
D03*
Y-33810D02*
D03*
Y-36350D02*
D03*
Y-38890D02*
D03*
Y-49050D02*
D03*
Y-51590D02*
D03*
Y-43970D02*
D03*
Y-41430D02*
D03*
Y-46510D02*
D03*
X-43848Y-39410D02*
D03*
D53*
X-6970Y-28730D02*
D03*
X-56508Y-89690D02*
D03*
X-6970Y-64290D02*
D03*
Y-13490D02*
D03*
X-56508Y-21110D02*
D03*
Y-54130D02*
D03*
X-43848Y-41950D02*
D03*
D54*
X-26550Y-33650D02*
D03*
X-30525Y-15000D02*
D03*
X-28975Y-21925D02*
D03*
X-24375Y-22725D02*
D03*
X-26975Y-18825D02*
D03*
X-23075D02*
D03*
X-25025Y-20150D02*
D03*
X-25025Y-20775D02*
D03*
X-19200Y-17400D02*
D03*
X-19600Y-18200D02*
D03*
X-26325Y-22725D02*
D03*
X-24900Y-24825D02*
D03*
X-23725Y-18825D02*
D03*
X-23625Y-17250D02*
D03*
Y-16625D02*
D03*
X-31675Y-13775D02*
D03*
X-25525Y-16825D02*
D03*
X-24625D02*
D03*
X-25025Y-21425D02*
D03*
X-25025Y-19475D02*
D03*
X-34200Y-9875D02*
D03*
X-23075Y-22075D02*
D03*
X-16100Y-24950D02*
D03*
X-26550Y-25500D02*
D03*
X-28775Y-23675D02*
D03*
X-24375Y-20775D02*
D03*
X-23075Y-21425D02*
D03*
X-30525Y-15500D02*
D03*
Y-16000D02*
D03*
X-26325Y-20125D02*
D03*
X-25675D02*
D03*
D55*
X-23500Y-33500D02*
D03*
X-29350Y-21425D02*
D03*
X-21100Y-21425D02*
D03*
D56*
X-30275Y-55300D02*
D03*
Y-53950D02*
D03*
X-28575Y-53925D02*
D03*
X-29282Y-54300D02*
D03*
X-26500Y-52350D02*
D03*
X-25725Y-51900D02*
D03*
X-24325Y-52020D02*
D03*
Y-51175D02*
D03*
X-22050Y-48675D02*
D03*
Y-47750D02*
D03*
X-20625Y-48675D02*
D03*
Y-47750D02*
D03*
X-25050Y-29250D02*
D03*
X-24500Y-27925D02*
D03*
X-31750Y-55300D02*
D03*
Y-53950D02*
D03*
X-30925Y-46150D02*
D03*
X-30425Y-45625D02*
D03*
X-29200Y-43225D02*
D03*
X-26625Y-44625D02*
D03*
X-30000Y-51200D02*
D03*
X-30102Y-50527D02*
D03*
X-25475Y-62025D02*
D03*
X-30725Y-64425D02*
D03*
X-29575Y-65025D02*
D03*
X-28225Y-64675D02*
D03*
X-28925D02*
D03*
X-8375Y-53625D02*
D03*
X-4475D02*
D03*
X-27225Y-64725D02*
D03*
X-32175Y-70175D02*
D03*
X-32625Y-69575D02*
D03*
X-35425Y-60575D02*
D03*
X-34575D02*
D03*
X-29225Y-49175D02*
D03*
X-45162Y-56800D02*
D03*
X-43350Y-57025D02*
D03*
X-36100Y-54100D02*
D03*
X-39685Y-50025D02*
D03*
X-36725Y-48950D02*
D03*
X-24350Y-58625D02*
D03*
X-31720Y-62075D02*
D03*
X-37050Y-57025D02*
D03*
X-18325Y-45773D02*
D03*
X-47375Y-61075D02*
D03*
X-42075Y-71425D02*
D03*
X-43175Y-71225D02*
D03*
X-43575Y-72350D02*
D03*
X-44725Y-52975D02*
D03*
X-44175Y-77100D02*
D03*
X-41575Y-59275D02*
D03*
X-41200Y-59950D02*
D03*
X-42125Y-67000D02*
D03*
X-41350Y-69300D02*
D03*
X-31562Y-80338D02*
D03*
X-16175Y-78825D02*
D03*
X-16475Y-77925D02*
D03*
X-39852Y-56603D02*
D03*
X-21975Y-3700D02*
D03*
X-9250Y-90075D02*
D03*
X-16750Y-65250D02*
D03*
X-32975Y-68400D02*
D03*
X-30150Y-49175D02*
D03*
X-31750Y-49150D02*
D03*
X-32775D02*
D03*
X-33750D02*
D03*
X-35450Y-49075D02*
D03*
X-38475Y-62250D02*
D03*
X-32475Y-61450D02*
D03*
X-28225Y-61825D02*
D03*
X-24150Y-59525D02*
D03*
X-24400Y-57950D02*
D03*
X-24325Y-55275D02*
D03*
X-21325Y-55525D02*
D03*
X-21375Y-54250D02*
D03*
X-21600Y-50000D02*
D03*
X-57550Y-50375D02*
D03*
X-43175Y-51125D02*
D03*
X-39400Y-89675D02*
D03*
X-38925Y-87100D02*
D03*
X-38325Y-82070D02*
D03*
X-36125Y-68700D02*
D03*
X-29225Y-61875D02*
D03*
X-27875Y-70925D02*
D03*
X-28900Y-70700D02*
D03*
X-30225Y-69300D02*
D03*
X-31075Y-82125D02*
D03*
X-43200Y-46400D02*
D03*
X-25100Y-9900D02*
D03*
X-21400Y-13600D02*
D03*
X-20550Y-22075D02*
D03*
X-22026Y-41702D02*
D03*
X-25225Y-46275D02*
D03*
X-34250Y-83250D02*
D03*
X-37500Y-46400D02*
D03*
X-21600Y-52500D02*
D03*
X-23100Y-64000D02*
D03*
X-36800Y-65000D02*
D03*
X-40000Y-53500D02*
D03*
X-32250Y-46500D02*
D03*
X-23875Y-14450D02*
D03*
X-35325Y-9500D02*
D03*
X-33900Y-20000D02*
D03*
X-17800Y-19100D02*
D03*
X-4550Y-9800D02*
D03*
X-725Y-11100D02*
D03*
X-3875Y-7025D02*
D03*
X-33290Y-7665D02*
D03*
X-32390Y-8465D02*
D03*
Y-6865D02*
D03*
Y-5865D02*
D03*
X-33190Y-5165D02*
D03*
X-32390Y-4465D02*
D03*
X-4900Y-25200D02*
D03*
Y-26500D02*
D03*
X-7600Y-1518D02*
D03*
X-11450Y-12650D02*
D03*
X-11100Y-16100D02*
D03*
X-18525Y-21300D02*
D03*
X-40500Y-1500D02*
D03*
X-11200Y-6725D02*
D03*
X-17400Y-7500D02*
D03*
X-10800Y-5675D02*
D03*
X-34125Y-2150D02*
D03*
X-29175Y-1650D02*
D03*
X-4900Y-22600D02*
D03*
X-24925Y-1500D02*
D03*
X-30075Y-1525D02*
D03*
X-10325Y-11450D02*
D03*
X-25375Y-3400D02*
D03*
X-27425Y-4225D02*
D03*
X-26925Y-6750D02*
D03*
Y-7975D02*
D03*
X-16125Y-20275D02*
D03*
X-18025Y-9575D02*
D03*
X-11950D02*
D03*
X-22100Y-15100D02*
D03*
X-30875Y-23175D02*
D03*
X-26800Y-15100D02*
D03*
X-32975Y-18900D02*
D03*
X-25250Y-11125D02*
D03*
X-43475Y-58300D02*
D03*
X-40400Y-42350D02*
D03*
X-32200Y-43150D02*
D03*
X-43300Y-50450D02*
D03*
X-43500Y-49075D02*
D03*
X-43425Y-47700D02*
D03*
X-36800Y-68425D02*
D03*
X-37375Y-63275D02*
D03*
X-21325Y-68050D02*
D03*
X-29500Y-69850D02*
D03*
X-19750Y-65025D02*
D03*
X-18525Y-59025D02*
D03*
X-18275Y-52500D02*
D03*
X-43225Y-52325D02*
D03*
X-20500Y-56515D02*
D03*
X-34200Y-46375D02*
D03*
X-26250Y-65875D02*
D03*
X-33225Y-62075D02*
D03*
X-37425Y-68975D02*
D03*
X-35225Y-62125D02*
D03*
X-34900Y-69725D02*
D03*
X-36125Y-84600D02*
D03*
X-37425Y-80800D02*
D03*
X-33125Y-84025D02*
D03*
X-34025Y-61950D02*
D03*
X-37750Y-65200D02*
D03*
X-37225Y-60025D02*
D03*
X-36250Y-58075D02*
D03*
X-37150Y-58025D02*
D03*
X-37050Y-56025D02*
D03*
X-37000Y-55025D02*
D03*
X-36375Y-55500D02*
D03*
X-36400Y-56525D02*
D03*
X-37200Y-52500D02*
D03*
X-29575Y-19975D02*
D03*
X-30275Y-26175D02*
D03*
X-24650Y-60550D02*
D03*
X-21725Y-58520D02*
D03*
X-37275Y-61250D02*
D03*
X-46013Y-63025D02*
D03*
X-30725Y-61250D02*
D03*
X-24650Y-61225D02*
D03*
X-13575Y-51725D02*
D03*
X-43675Y-60425D02*
D03*
X-47850Y-61875D02*
D03*
X-42725Y-61200D02*
D03*
X-46450Y-60400D02*
D03*
Y-61175D02*
D03*
X-25575Y-48975D02*
D03*
X-21100Y-46150D02*
D03*
X-21825Y-45500D02*
D03*
X-32375Y-42475D02*
D03*
X-24325Y-56250D02*
D03*
X-39850Y-36875D02*
D03*
X-24425Y-53525D02*
D03*
Y-54275D02*
D03*
X-24325Y-50525D02*
D03*
Y-49875D02*
D03*
X-45127Y-69753D02*
D03*
X-39200Y-37600D02*
D03*
X-36525Y-50150D02*
D03*
X-44625Y-70425D02*
D03*
X-44350Y-57600D02*
D03*
X-38275Y-37600D02*
D03*
X-37225Y-51525D02*
D03*
X-38275Y-33175D02*
D03*
X-39200Y-33175D02*
D03*
X-40325Y-70600D02*
D03*
X-39850Y-71175D02*
D03*
X-40800D02*
D03*
X-36225Y-52175D02*
D03*
X-37250Y-53500D02*
D03*
X-36475Y-51025D02*
D03*
X-39850Y-89125D02*
D03*
Y-88412D02*
D03*
Y-87700D02*
D03*
X-32450Y-27900D02*
D03*
X-48525Y-59275D02*
D03*
Y-59950D02*
D03*
X-18975Y-13000D02*
D03*
X-30575Y-29925D02*
D03*
X-36425Y-28400D02*
D03*
X-53500Y-56825D02*
D03*
X-33750Y-85850D02*
D03*
X-37550Y-90975D02*
D03*
X-27750Y-36775D02*
D03*
X-7450Y-56175D02*
D03*
X-11975Y-50700D02*
D03*
X-10775Y-71450D02*
D03*
X-12325Y-69850D02*
D03*
X-22050Y-76325D02*
D03*
X-23025Y-83950D02*
D03*
X-51425Y-49100D02*
D03*
X-31725Y-68400D02*
D03*
X-13950Y-63050D02*
D03*
X-17375Y-60900D02*
D03*
X-4262Y-60287D02*
D03*
D63*
X-2575Y-6550D02*
D03*
X-4100Y-12025D02*
D03*
X-10475Y-14900D02*
D03*
X-18351Y-22626D02*
D03*
X-20650Y-54700D02*
D03*
X-22175Y-32075D02*
D03*
X-20900D02*
D03*
X-19625D02*
D03*
X-18350D02*
D03*
X-13725Y-3875D02*
D03*
X-34400Y-13775D02*
D03*
X-2800Y-12150D02*
D03*
X-6350Y-10050D02*
D03*
Y-8750D02*
D03*
X-1200Y-7250D02*
D03*
X-22175Y-26200D02*
D03*
X-20900Y-26200D02*
D03*
X-19625D02*
D03*
X-27575Y-26175D02*
D03*
X-18350Y-26200D02*
D03*
X-28850Y-26175D02*
D03*
X-30725Y-32125D02*
D03*
X-23200Y-48900D02*
D03*
X-34800Y-39375D02*
D03*
X-35200Y-38100D02*
D03*
X-28400Y-32075D02*
D03*
X-27125D02*
D03*
X-36950Y-35250D02*
D03*
X-26350Y-13750D02*
D03*
X-31925Y-21225D02*
D03*
X-34150Y-10875D02*
D03*
X-29925Y-5175D02*
D03*
X-18375Y-11800D02*
D03*
X-16237Y-16337D02*
D03*
X-13175Y-6550D02*
D03*
X-34225Y-64725D02*
D03*
X-43275Y-54450D02*
D03*
X-29725Y-2475D02*
D03*
X-29200Y-14850D02*
D03*
X-36825Y-38584D02*
D03*
D64*
X-13450Y-11450D02*
D03*
X-15550Y-10500D02*
D03*
Y-12400D02*
D03*
Y-15000D02*
D03*
X-13450Y-15950D02*
D03*
Y-14050D02*
D03*
X-17744Y-3700D02*
D03*
X-15644Y-4650D02*
D03*
Y-2750D02*
D03*
X-9350Y-12400D02*
D03*
X-11450Y-11450D02*
D03*
Y-13350D02*
D03*
D65*
X-38600Y-7500D02*
D03*
Y-3500D02*
D03*
X-41600Y-7500D02*
D03*
X-38600Y-5500D02*
D03*
X-41600D02*
D03*
Y-3500D02*
D03*
X-38600Y-1500D02*
D03*
X-41600D02*
D03*
X-25200Y-44250D02*
D03*
X-17900Y-56525D02*
D03*
X-26000Y-1500D02*
D03*
X-33000D02*
D03*
X-29525Y-35250D02*
D03*
X-24650Y-37075D02*
D03*
X-23498Y-40225D02*
D03*
D66*
X-31200Y-18900D02*
D03*
X-32150D02*
D03*
X-25025Y-15100D02*
D03*
X-25975D02*
D03*
X-25025Y-16000D02*
D03*
X-25975D02*
D03*
X-23875Y-15100D02*
D03*
X-22925D02*
D03*
X-23875Y-16000D02*
D03*
X-22925D02*
D03*
X-20275Y-21300D02*
D03*
X-19325D02*
D03*
X-25850Y-25500D02*
D03*
X-24900D02*
D03*
X-25850Y-26400D02*
D03*
X-24900D02*
D03*
D67*
X-24425Y-5699D02*
D03*
Y-4301D02*
D03*
D68*
X-3875Y-9725D02*
D03*
X-3225D02*
D03*
X-2575D02*
D03*
Y-7875D02*
D03*
X-3225D02*
D03*
X-3875D02*
D03*
D69*
X-22100Y-23700D02*
D03*
Y-23050D02*
D03*
Y-22400D02*
D03*
Y-21750D02*
D03*
Y-20450D02*
D03*
Y-19800D02*
D03*
Y-19150D02*
D03*
Y-21100D02*
D03*
X-22750D02*
D03*
X-23400D02*
D03*
X-24050D02*
D03*
X-24700D02*
D03*
X-25350D02*
D03*
X-26000D02*
D03*
X-26650D02*
D03*
X-27300D02*
D03*
X-27950D02*
D03*
X-22750Y-23700D02*
D03*
X-23400D02*
D03*
X-24050D02*
D03*
X-24700D02*
D03*
X-25350D02*
D03*
X-26000D02*
D03*
X-26650D02*
D03*
X-27300D02*
D03*
X-27950D02*
D03*
X-22750Y-23050D02*
D03*
X-23400D02*
D03*
X-24050D02*
D03*
X-24700D02*
D03*
X-25350D02*
D03*
X-26000D02*
D03*
X-26650D02*
D03*
X-27300D02*
D03*
X-27950D02*
D03*
X-22750Y-22400D02*
D03*
X-23400D02*
D03*
X-24050D02*
D03*
X-24700D02*
D03*
X-25350D02*
D03*
X-26000D02*
D03*
X-26650D02*
D03*
X-27300D02*
D03*
X-27950D02*
D03*
X-22750Y-21750D02*
D03*
X-23400D02*
D03*
X-24050D02*
D03*
X-24700D02*
D03*
X-25350D02*
D03*
X-26000D02*
D03*
X-26650D02*
D03*
X-27300D02*
D03*
X-27950D02*
D03*
X-22750Y-20450D02*
D03*
X-23400D02*
D03*
X-24050D02*
D03*
X-24700D02*
D03*
X-25350D02*
D03*
X-26000D02*
D03*
X-26650D02*
D03*
X-27300D02*
D03*
X-27950D02*
D03*
X-22750Y-19800D02*
D03*
X-23400D02*
D03*
X-24050D02*
D03*
X-24700D02*
D03*
X-25350D02*
D03*
X-26000D02*
D03*
X-26650D02*
D03*
X-27300D02*
D03*
X-27950D02*
D03*
X-22750Y-19150D02*
D03*
X-23400D02*
D03*
X-24050D02*
D03*
X-24700D02*
D03*
X-25350D02*
D03*
X-26000D02*
D03*
X-26650D02*
D03*
X-27300D02*
D03*
X-27950D02*
D03*
X-22100Y-18500D02*
D03*
X-22750D02*
D03*
X-23400D02*
D03*
X-24050D02*
D03*
X-24700D02*
D03*
X-25350D02*
D03*
X-26000D02*
D03*
X-26650D02*
D03*
X-27300D02*
D03*
X-27950D02*
D03*
X-22100Y-17850D02*
D03*
X-22750D02*
D03*
X-23400D02*
D03*
X-24050D02*
D03*
X-24700D02*
D03*
X-25350D02*
D03*
X-26000D02*
D03*
X-26650D02*
D03*
X-27300D02*
D03*
X-27950D02*
D03*
D70*
X-28825Y-4650D02*
D03*
Y-5150D02*
D03*
Y-6150D02*
D03*
Y-5650D02*
D03*
X-26025D02*
D03*
Y-6150D02*
D03*
Y-5150D02*
D03*
Y-4650D02*
D03*
D71*
X-27425Y-5400D02*
D03*
D72*
X-15400Y-22150D02*
D03*
Y-18350D02*
D03*
X-13100D02*
D03*
Y-22150D02*
D03*
M02*
